%TF.GenerationSoftware,KiCad,Pcbnew,9.0.7*%
%TF.CreationDate,2026-04-22T21:36:10-03:00*%
%TF.ProjectId,Solar_Tracker_PCB_Main,536f6c61-725f-4547-9261-636b65725f50,rev?*%
%TF.SameCoordinates,Original*%
%TF.FileFunction,Copper,L4,Bot*%
%TF.FilePolarity,Positive*%
%FSLAX46Y46*%
G04 Gerber Fmt 4.6, Leading zero omitted, Abs format (unit mm)*
G04 Created by KiCad (PCBNEW 9.0.7) date 2026-04-22 21:36:10*
%MOMM*%
%LPD*%
G01*
G04 APERTURE LIST*
%TA.AperFunction,ComponentPad*%
%ADD10R,1.700000X1.700000*%
%TD*%
%TA.AperFunction,ComponentPad*%
%ADD11C,1.700000*%
%TD*%
%TA.AperFunction,ComponentPad*%
%ADD12C,5.000000*%
%TD*%
%TA.AperFunction,ComponentPad*%
%ADD13C,1.950000*%
%TD*%
%TA.AperFunction,ViaPad*%
%ADD14C,0.700000*%
%TD*%
%TA.AperFunction,Conductor*%
%ADD15C,0.200000*%
%TD*%
G04 APERTURE END LIST*
D10*
X161700000Y-107550000D03*
D11*
X161700000Y-110090000D03*
X161700000Y-112630000D03*
X161700000Y-115170000D03*
X161700000Y-117710000D03*
X161700000Y-120250000D03*
D12*
X161000000Y-49000000D03*
X76000000Y-136500000D03*
X161000000Y-136500000D03*
D13*
X129290000Y-49876250D03*
X134290000Y-49876250D03*
D12*
X76000000Y-49000000D03*
D14*
X160160000Y-112600000D03*
X85700000Y-70400000D03*
X135750000Y-58670000D03*
X99360000Y-49190000D03*
X120730000Y-92880000D03*
X160220000Y-117710000D03*
X132424677Y-58380028D03*
X76010000Y-101490000D03*
X122510000Y-76350000D03*
X111750000Y-75750000D03*
X80240000Y-98110000D03*
X78400000Y-59130000D03*
X115751991Y-92820133D03*
X85490000Y-74200000D03*
X91080000Y-61380000D03*
X99010000Y-60440000D03*
X114400000Y-104750000D03*
X139850000Y-58200000D03*
X119650000Y-73100000D03*
X95050000Y-60970000D03*
X160200000Y-107560000D03*
X122320000Y-64950000D03*
X101500000Y-66900000D03*
X94760000Y-65570000D03*
X90450000Y-105500000D03*
X90900000Y-65420000D03*
X90575000Y-103000000D03*
X99300000Y-65510000D03*
X90450000Y-107475000D03*
X107515000Y-68160000D03*
X151612562Y-99500003D03*
X148770000Y-95350000D03*
X112590000Y-70760000D03*
X108820000Y-68820000D03*
X150700000Y-98410000D03*
X113890000Y-71370000D03*
X148060000Y-94350000D03*
X115140000Y-72000000D03*
X147410000Y-93220000D03*
X150050000Y-97350000D03*
X110080000Y-69420000D03*
X149428190Y-96350000D03*
X111320000Y-69990000D03*
X115340000Y-104730000D03*
X122800000Y-90700000D03*
X163750000Y-56080000D03*
X93720000Y-47100000D03*
X77490000Y-59130000D03*
X91750000Y-56080000D03*
X136750000Y-101080000D03*
X108420000Y-55780000D03*
X145750000Y-128080000D03*
X73750000Y-128080000D03*
X155940000Y-81110000D03*
X113700000Y-54890000D03*
X153630000Y-77470000D03*
X118750000Y-56080000D03*
X86600000Y-75970000D03*
X163750000Y-65080000D03*
X149990346Y-98963530D03*
X151880000Y-46030000D03*
X87930000Y-62030000D03*
X163430000Y-90100000D03*
X119680000Y-74080000D03*
X98200000Y-65500000D03*
X88540000Y-84550000D03*
X127750000Y-92080000D03*
X163590000Y-84710000D03*
X88980000Y-80080000D03*
X91750000Y-74080000D03*
X145750000Y-92080000D03*
X125970000Y-58450000D03*
X112170000Y-71630000D03*
X120190000Y-75360000D03*
X154750000Y-137080000D03*
X80550000Y-72320000D03*
X84770000Y-76960000D03*
X118750000Y-119080000D03*
X155510000Y-80280000D03*
X82750000Y-128080000D03*
X87000000Y-65700000D03*
X113340000Y-93860000D03*
X112300000Y-52060000D03*
X159670000Y-91700000D03*
X113000000Y-54130000D03*
X91750000Y-119080000D03*
X119457213Y-60052324D03*
X145750000Y-119080000D03*
X95664088Y-61627951D03*
X117956000Y-75204000D03*
X122320000Y-65870000D03*
X148690007Y-96864869D03*
X127750000Y-137080000D03*
X149325448Y-97883881D03*
X108290000Y-69700000D03*
X136750000Y-119080000D03*
X136750000Y-137080000D03*
X147350703Y-94903987D03*
X163750000Y-47080000D03*
X127750000Y-74080000D03*
X100650000Y-68120000D03*
X91750000Y-92080000D03*
X163500000Y-102240000D03*
X109750000Y-119080000D03*
X99580000Y-61150000D03*
X103330000Y-59770000D03*
X151470000Y-65100000D03*
X73750000Y-56080000D03*
X73750000Y-83080000D03*
X163310000Y-110070000D03*
X117600000Y-58380000D03*
X114600000Y-72830000D03*
X100750000Y-119080000D03*
X114400000Y-54150000D03*
X118750000Y-137080000D03*
X113730000Y-53450000D03*
X113040000Y-52770000D03*
X136750000Y-92080000D03*
X100750000Y-137080000D03*
X100750000Y-92080000D03*
X91750000Y-137080000D03*
X127750000Y-128080000D03*
X118750000Y-47080000D03*
X149250000Y-65110000D03*
X110700000Y-75710000D03*
X72540000Y-76750000D03*
X82750000Y-119080000D03*
X154750000Y-56080000D03*
X136750000Y-83080000D03*
X141070000Y-54650000D03*
X157840000Y-83250003D03*
X150779514Y-100139172D03*
X91700000Y-103000000D03*
X111580000Y-54150000D03*
X154750000Y-110080000D03*
X163750000Y-137080000D03*
X129290000Y-48410000D03*
X88400000Y-68190000D03*
X145750000Y-74080000D03*
X86600000Y-70400000D03*
X127750000Y-119080000D03*
X118750000Y-83080000D03*
X112290000Y-54860000D03*
X109750000Y-128080000D03*
X127750000Y-101080000D03*
X108610000Y-73460000D03*
X73660000Y-98930000D03*
X118750000Y-110080000D03*
X107140000Y-96050000D03*
X148108709Y-95960490D03*
X145750000Y-83080000D03*
X75820000Y-106510000D03*
X110880000Y-70860000D03*
X116651935Y-92809864D03*
X91750000Y-110080000D03*
X73750000Y-137080000D03*
X127750000Y-110080000D03*
X79280000Y-98050000D03*
X160200000Y-116720000D03*
X100750000Y-101080000D03*
X109750000Y-92080000D03*
X73560000Y-111100000D03*
X109330000Y-56830000D03*
X154750000Y-119080000D03*
X163750000Y-128080000D03*
X76170000Y-92500000D03*
X109750000Y-110080000D03*
X106928846Y-69031165D03*
X80510000Y-59150000D03*
X113440000Y-72270000D03*
X90500000Y-108500000D03*
X125130000Y-45760000D03*
X109750000Y-47080000D03*
X80190000Y-78960000D03*
X136750000Y-65080000D03*
X100750000Y-128080000D03*
X121300000Y-96800000D03*
X83650000Y-62570000D03*
X131769152Y-57763350D03*
X109750000Y-101080000D03*
X163290000Y-115210000D03*
X127750000Y-83080000D03*
X89900000Y-65400000D03*
X146615193Y-93642241D03*
X114400000Y-52740000D03*
X75890000Y-104510000D03*
X99380449Y-50089770D03*
X81170000Y-47100000D03*
X93700000Y-65600000D03*
X81190000Y-62630000D03*
X127750000Y-65080000D03*
X111600000Y-52750000D03*
X154750000Y-92080000D03*
X73750000Y-119080000D03*
X90500000Y-106500000D03*
X152940000Y-76480000D03*
X123500000Y-76400000D03*
X82750000Y-59080000D03*
X76330000Y-78910000D03*
X73750000Y-47080000D03*
X82750000Y-110080000D03*
X88600000Y-87730000D03*
X117400000Y-66260000D03*
X136750000Y-110080000D03*
X101400000Y-65900000D03*
X136750000Y-128080000D03*
X159700000Y-74280000D03*
X117895654Y-96904892D03*
X112100000Y-81400000D03*
X163370000Y-120290000D03*
X91750000Y-128080000D03*
X145750000Y-137080000D03*
X160128255Y-111700558D03*
X114430000Y-100350000D03*
X144760000Y-45980000D03*
X163540000Y-72650000D03*
X154890000Y-79460000D03*
X118750000Y-128080000D03*
X85520000Y-73190000D03*
X73750000Y-74080000D03*
X80170000Y-92530000D03*
X140840000Y-58180000D03*
X143050000Y-54240000D03*
X151850000Y-48100000D03*
X154250000Y-78450000D03*
X160230000Y-106650000D03*
X131680000Y-131220000D03*
X121389104Y-93492851D03*
X109750000Y-137080000D03*
X146260000Y-64790000D03*
X101130000Y-79480000D03*
X136750000Y-74080000D03*
X100750000Y-110080000D03*
X135040000Y-57930000D03*
X145750000Y-101080000D03*
X154750000Y-101080000D03*
X113710000Y-52070000D03*
X145750000Y-110080000D03*
X75980000Y-102510000D03*
X109590000Y-70250000D03*
X112330000Y-53450000D03*
X136750000Y-56080000D03*
X127560000Y-56050000D03*
X154750000Y-128080000D03*
X82750000Y-137080000D03*
X120030000Y-88810000D03*
X113850000Y-75740000D03*
X91704505Y-62028072D03*
X115900000Y-75790000D03*
X156360556Y-79850000D03*
X126850000Y-57825000D03*
X155650000Y-78850000D03*
X117640000Y-59340000D03*
X154450000Y-76850000D03*
X109520000Y-55950000D03*
X126850000Y-56800000D03*
X157100000Y-80900000D03*
X118625000Y-60395000D03*
X155050000Y-77850000D03*
X107500000Y-55770000D03*
X153800000Y-75850000D03*
X157840000Y-82200000D03*
X116365415Y-66500832D03*
X88030000Y-65800000D03*
X142070000Y-64050000D03*
D15*
X103590000Y-64910000D02*
X101600000Y-66900000D01*
X122320000Y-64950000D02*
X122280000Y-64910000D01*
X101600000Y-66900000D02*
X101500000Y-66900000D01*
X122280000Y-64910000D02*
X103590000Y-64910000D01*
X94000000Y-104780000D02*
X93280000Y-105500000D01*
X94000000Y-66330000D02*
X94000000Y-104780000D01*
X93280000Y-105500000D02*
X90450000Y-105500000D01*
X94760000Y-65570000D02*
X94000000Y-66330000D01*
X90630000Y-65690000D02*
X90630000Y-102945000D01*
X90630000Y-102945000D02*
X90575000Y-103000000D01*
X90900000Y-65420000D02*
X90630000Y-65690000D01*
X90550000Y-107550000D02*
X90475000Y-107475000D01*
X98740000Y-66070000D02*
X98740000Y-106335000D01*
X97625000Y-107450000D02*
X90550000Y-107450000D01*
X90475000Y-107475000D02*
X90450000Y-107475000D01*
X98740000Y-106335000D02*
X97625000Y-107450000D01*
X90550000Y-107450000D02*
X90550000Y-107550000D01*
X99300000Y-65510000D02*
X98740000Y-66070000D01*
X147636100Y-68019000D02*
X107656000Y-68019000D01*
X151551000Y-81080232D02*
X151551000Y-71933900D01*
X151560000Y-99447441D02*
X151560000Y-81089232D01*
X151612562Y-99500003D02*
X151560000Y-99447441D01*
X107656000Y-68019000D02*
X107515000Y-68160000D01*
X151551000Y-71933900D02*
X147636100Y-68019000D01*
X151560000Y-81089232D02*
X151551000Y-81080232D01*
X112631000Y-70719000D02*
X112590000Y-70760000D01*
X148770000Y-71671300D02*
X147817700Y-70719000D01*
X148770000Y-95350000D02*
X148770000Y-71671300D01*
X147817700Y-70719000D02*
X112631000Y-70719000D01*
X150700000Y-98410000D02*
X150700000Y-71900000D01*
X150700000Y-71900000D02*
X147569000Y-68769000D01*
X108871000Y-68769000D02*
X108820000Y-68820000D01*
X147569000Y-68769000D02*
X108871000Y-68769000D01*
X147489000Y-71349000D02*
X113911000Y-71349000D01*
X148060000Y-94350000D02*
X148060000Y-72146400D01*
X113911000Y-71349000D02*
X113890000Y-71370000D01*
X148173200Y-72033200D02*
X147489000Y-71349000D01*
X148060000Y-72146400D02*
X148173200Y-72033200D01*
X147410000Y-72600000D02*
X146810000Y-72000000D01*
X146810000Y-72000000D02*
X115140000Y-72000000D01*
X147410000Y-93220000D02*
X147410000Y-72600000D01*
X150130000Y-71897100D02*
X147571900Y-69339000D01*
X150050000Y-97350000D02*
X150130000Y-97270000D01*
X147571900Y-69339000D02*
X110161000Y-69339000D01*
X150130000Y-97270000D02*
X150130000Y-71897100D01*
X110161000Y-69339000D02*
X110080000Y-69420000D01*
X149420000Y-96341810D02*
X149420000Y-71754200D01*
X147774800Y-70109000D02*
X111439000Y-70109000D01*
X111439000Y-70109000D02*
X111320000Y-69990000D01*
X149428190Y-96350000D02*
X149420000Y-96341810D01*
X149420000Y-71754200D02*
X147774800Y-70109000D01*
X156300000Y-62081600D02*
X154220400Y-60002000D01*
X156360556Y-79850000D02*
X156350000Y-79850000D01*
X154220400Y-60002000D02*
X129917800Y-60002000D01*
X129917800Y-60002000D02*
X129915800Y-60000000D01*
X129915800Y-60000000D02*
X129025000Y-60000000D01*
X129025000Y-60000000D02*
X126850000Y-57825000D01*
X156300000Y-79800000D02*
X156300000Y-62081600D01*
X156350000Y-79850000D02*
X156300000Y-79800000D01*
X155700000Y-78800000D02*
X155650000Y-78850000D01*
X129751700Y-60403000D02*
X154054300Y-60403000D01*
X154054300Y-60403000D02*
X155700000Y-62048700D01*
X128858900Y-60401000D02*
X127797900Y-59340000D01*
X155700000Y-62048700D02*
X155700000Y-78800000D01*
X129749700Y-60401000D02*
X128858900Y-60401000D01*
X127797900Y-59340000D02*
X117640000Y-59340000D01*
X129749700Y-60401000D02*
X129751700Y-60403000D01*
X128525700Y-61202000D02*
X128526700Y-61203000D01*
X154450000Y-61932900D02*
X154450000Y-76850000D01*
X129417500Y-61203000D02*
X129419500Y-61205000D01*
X114770000Y-61200000D02*
X122447096Y-61200000D01*
X128526700Y-61203000D02*
X129417500Y-61203000D01*
X122449096Y-61202000D02*
X128525700Y-61202000D01*
X122447096Y-61200000D02*
X122449096Y-61202000D01*
X129419500Y-61205000D02*
X153722100Y-61205000D01*
X153722100Y-61205000D02*
X154450000Y-61932900D01*
X109520000Y-55950000D02*
X114770000Y-61200000D01*
X154386500Y-59601000D02*
X130083900Y-59601000D01*
X126850000Y-56825000D02*
X126850000Y-56800000D01*
X130083900Y-59601000D02*
X130081900Y-59599000D01*
X157075000Y-62289500D02*
X154386500Y-59601000D01*
X129624000Y-59599000D02*
X126850000Y-56825000D01*
X157075000Y-80875000D02*
X157075000Y-62289500D01*
X130081900Y-59599000D02*
X129624000Y-59599000D01*
X157100000Y-80900000D02*
X157075000Y-80875000D01*
X128692800Y-60802000D02*
X129583600Y-60802000D01*
X122613196Y-60799000D02*
X122615196Y-60801000D01*
X129585600Y-60804000D02*
X153888200Y-60804000D01*
X122615196Y-60801000D02*
X128691800Y-60801000D01*
X153888200Y-60804000D02*
X155100000Y-62015800D01*
X129583600Y-60802000D02*
X129585600Y-60804000D01*
X128691800Y-60801000D02*
X128692800Y-60802000D01*
X119029000Y-60799000D02*
X122613196Y-60799000D01*
X118625000Y-60395000D02*
X119029000Y-60799000D01*
X155100000Y-62015800D02*
X155100000Y-77800000D01*
X155100000Y-77800000D02*
X155050000Y-77850000D01*
X107510000Y-57760000D02*
X111351000Y-61601000D01*
X129253400Y-61606000D02*
X153556000Y-61606000D01*
X153850000Y-61900000D02*
X153850000Y-75800000D01*
X122282996Y-61603000D02*
X128359600Y-61603000D01*
X128359600Y-61603000D02*
X128360600Y-61604000D01*
X153556000Y-61606000D02*
X153850000Y-61900000D01*
X107510000Y-55780000D02*
X107510000Y-57760000D01*
X111351000Y-61601000D02*
X122280996Y-61601000D01*
X122280996Y-61601000D02*
X122282996Y-61603000D01*
X129251400Y-61604000D02*
X129253400Y-61606000D01*
X128360600Y-61604000D02*
X129251400Y-61604000D01*
X107500000Y-55770000D02*
X107510000Y-55780000D01*
X153850000Y-75800000D02*
X153800000Y-75850000D01*
X117170000Y-67170000D02*
X116500832Y-66500832D01*
X152102000Y-80852000D02*
X152102000Y-71705668D01*
X152021000Y-71616768D02*
X147574232Y-67170000D01*
X147574232Y-67170000D02*
X117170000Y-67170000D01*
X153450000Y-82200000D02*
X152102000Y-80852000D01*
X116500832Y-66500832D02*
X116365415Y-66500832D01*
X157840000Y-82200000D02*
X153450000Y-82200000D01*
X152102000Y-71705668D02*
X152021000Y-71624668D01*
X152021000Y-71624668D02*
X152021000Y-71616768D01*
X89780000Y-64050000D02*
X142070000Y-64050000D01*
X89780000Y-64050000D02*
X88030000Y-65800000D01*
%TA.AperFunction,Conductor*%
G36*
X127564842Y-59960185D02*
G01*
X127585484Y-59976819D01*
X127597484Y-59988819D01*
X127630969Y-60050142D01*
X127625985Y-60119834D01*
X127584113Y-60175767D01*
X127518649Y-60200184D01*
X127509803Y-60200500D01*
X122715577Y-60200500D01*
X122714265Y-60200493D01*
X122699095Y-60200332D01*
X122692253Y-60198499D01*
X122534139Y-60198499D01*
X122534135Y-60198500D01*
X119547036Y-60198500D01*
X119479997Y-60178815D01*
X119434242Y-60126011D01*
X119432474Y-60121951D01*
X119428332Y-60111951D01*
X119420864Y-60042482D01*
X119452140Y-59980003D01*
X119512229Y-59944351D01*
X119542894Y-59940500D01*
X127497803Y-59940500D01*
X127564842Y-59960185D01*
G37*
%TD.AperFunction*%
%TA.AperFunction,Conductor*%
G36*
X163504418Y-44800816D02*
G01*
X163733020Y-44817165D01*
X163750529Y-44819683D01*
X163970144Y-44867458D01*
X163987103Y-44872437D01*
X164197694Y-44950983D01*
X164213777Y-44958327D01*
X164411036Y-45066040D01*
X164425919Y-45075605D01*
X164605836Y-45210289D01*
X164619207Y-45221875D01*
X164778124Y-45380792D01*
X164789710Y-45394163D01*
X164924394Y-45574080D01*
X164933959Y-45588963D01*
X165041669Y-45786217D01*
X165049019Y-45802311D01*
X165127559Y-46012887D01*
X165132543Y-46029862D01*
X165180316Y-46249470D01*
X165182834Y-46266982D01*
X165199184Y-46495581D01*
X165199500Y-46504427D01*
X165199500Y-138995572D01*
X165199184Y-139004418D01*
X165182834Y-139233017D01*
X165180316Y-139250529D01*
X165132543Y-139470137D01*
X165127559Y-139487112D01*
X165049019Y-139697688D01*
X165041669Y-139713782D01*
X164933959Y-139911036D01*
X164924394Y-139925919D01*
X164789710Y-140105836D01*
X164778124Y-140119207D01*
X164619207Y-140278124D01*
X164605836Y-140289710D01*
X164425919Y-140424394D01*
X164411036Y-140433959D01*
X164213782Y-140541669D01*
X164197688Y-140549019D01*
X163987112Y-140627559D01*
X163970137Y-140632543D01*
X163750529Y-140680316D01*
X163733017Y-140682834D01*
X163504418Y-140699184D01*
X163495572Y-140699500D01*
X73504428Y-140699500D01*
X73495582Y-140699184D01*
X73266982Y-140682834D01*
X73249470Y-140680316D01*
X73029862Y-140632543D01*
X73012887Y-140627559D01*
X72802311Y-140549019D01*
X72786217Y-140541669D01*
X72588963Y-140433959D01*
X72574080Y-140424394D01*
X72394163Y-140289710D01*
X72380792Y-140278124D01*
X72221875Y-140119207D01*
X72210289Y-140105836D01*
X72075605Y-139925919D01*
X72066040Y-139911036D01*
X71958330Y-139713782D01*
X71950983Y-139697694D01*
X71872437Y-139487103D01*
X71867458Y-139470144D01*
X71819683Y-139250529D01*
X71817165Y-139233017D01*
X71800816Y-139004418D01*
X71800500Y-138995572D01*
X71800500Y-117626228D01*
X159369500Y-117626228D01*
X159369500Y-117793771D01*
X159402182Y-117958074D01*
X159402184Y-117958082D01*
X159466295Y-118112860D01*
X159559373Y-118252162D01*
X159677837Y-118370626D01*
X159770494Y-118432537D01*
X159817137Y-118463703D01*
X159971918Y-118527816D01*
X160118532Y-118556979D01*
X160136228Y-118560499D01*
X160136232Y-118560500D01*
X160136233Y-118560500D01*
X160303768Y-118560500D01*
X160303769Y-118560499D01*
X160468082Y-118527816D01*
X160498286Y-118515304D01*
X160567751Y-118507835D01*
X160630231Y-118539107D01*
X160646056Y-118556979D01*
X160669897Y-118589793D01*
X160820213Y-118740109D01*
X160992179Y-118865048D01*
X160992181Y-118865049D01*
X160992184Y-118865051D01*
X161181588Y-118961557D01*
X161383757Y-119027246D01*
X161593713Y-119060500D01*
X161593714Y-119060500D01*
X161806286Y-119060500D01*
X161806287Y-119060500D01*
X162016243Y-119027246D01*
X162218412Y-118961557D01*
X162407816Y-118865051D01*
X162429789Y-118849086D01*
X162579786Y-118740109D01*
X162579788Y-118740106D01*
X162579792Y-118740104D01*
X162730104Y-118589792D01*
X162730106Y-118589788D01*
X162730109Y-118589786D01*
X162855048Y-118417820D01*
X162855047Y-118417820D01*
X162855051Y-118417816D01*
X162951557Y-118228412D01*
X163017246Y-118026243D01*
X163050500Y-117816287D01*
X163050500Y-117603713D01*
X163017246Y-117393757D01*
X162951557Y-117191588D01*
X162855051Y-117002184D01*
X162855049Y-117002181D01*
X162855048Y-117002179D01*
X162730109Y-116830213D01*
X162579786Y-116679890D01*
X162407820Y-116554951D01*
X162218414Y-116458444D01*
X162218413Y-116458443D01*
X162218412Y-116458443D01*
X162016243Y-116392754D01*
X162016241Y-116392753D01*
X162016240Y-116392753D01*
X161854957Y-116367208D01*
X161806287Y-116359500D01*
X161593713Y-116359500D01*
X161545042Y-116367208D01*
X161383760Y-116392753D01*
X161181585Y-116458444D01*
X160992179Y-116554951D01*
X160820213Y-116679890D01*
X160669894Y-116830209D01*
X160646056Y-116863020D01*
X160590725Y-116905685D01*
X160521112Y-116911664D01*
X160498291Y-116904697D01*
X160468082Y-116892184D01*
X160468078Y-116892183D01*
X160468074Y-116892182D01*
X160303771Y-116859500D01*
X160303767Y-116859500D01*
X160136233Y-116859500D01*
X160136228Y-116859500D01*
X159971925Y-116892182D01*
X159971917Y-116892184D01*
X159817139Y-116956295D01*
X159677837Y-117049373D01*
X159559373Y-117167837D01*
X159466295Y-117307139D01*
X159402184Y-117461917D01*
X159402182Y-117461925D01*
X159369500Y-117626228D01*
X71800500Y-117626228D01*
X71800500Y-112516228D01*
X159309500Y-112516228D01*
X159309500Y-112683771D01*
X159342182Y-112848074D01*
X159342184Y-112848082D01*
X159406295Y-113002860D01*
X159499373Y-113142162D01*
X159617837Y-113260626D01*
X159710494Y-113322537D01*
X159757137Y-113353703D01*
X159911918Y-113417816D01*
X160076228Y-113450499D01*
X160076232Y-113450500D01*
X160076233Y-113450500D01*
X160243768Y-113450500D01*
X160243769Y-113450499D01*
X160408082Y-113417816D01*
X160467651Y-113393140D01*
X160537120Y-113385671D01*
X160599600Y-113416945D01*
X160615424Y-113434817D01*
X160669892Y-113509788D01*
X160820213Y-113660109D01*
X160992179Y-113785048D01*
X160992181Y-113785049D01*
X160992184Y-113785051D01*
X161181588Y-113881557D01*
X161383757Y-113947246D01*
X161593713Y-113980500D01*
X161593714Y-113980500D01*
X161806286Y-113980500D01*
X161806287Y-113980500D01*
X162016243Y-113947246D01*
X162218412Y-113881557D01*
X162407816Y-113785051D01*
X162429789Y-113769086D01*
X162579786Y-113660109D01*
X162579788Y-113660106D01*
X162579792Y-113660104D01*
X162730104Y-113509792D01*
X162730106Y-113509788D01*
X162730109Y-113509786D01*
X162855048Y-113337820D01*
X162855047Y-113337820D01*
X162855051Y-113337816D01*
X162951557Y-113148412D01*
X163017246Y-112946243D01*
X163050500Y-112736287D01*
X163050500Y-112523713D01*
X163017246Y-112313757D01*
X162951557Y-112111588D01*
X162855051Y-111922184D01*
X162855049Y-111922181D01*
X162855048Y-111922179D01*
X162730109Y-111750213D01*
X162579786Y-111599890D01*
X162407820Y-111474951D01*
X162218414Y-111378444D01*
X162218413Y-111378443D01*
X162218412Y-111378443D01*
X162016243Y-111312754D01*
X162016241Y-111312753D01*
X162016240Y-111312753D01*
X161854957Y-111287208D01*
X161806287Y-111279500D01*
X161593713Y-111279500D01*
X161545042Y-111287208D01*
X161383760Y-111312753D01*
X161181585Y-111378444D01*
X160992179Y-111474951D01*
X160820213Y-111599890D01*
X160669898Y-111750205D01*
X160669893Y-111750211D01*
X160648929Y-111779065D01*
X160593598Y-111821729D01*
X160523985Y-111827707D01*
X160501161Y-111820738D01*
X160408086Y-111782185D01*
X160408074Y-111782182D01*
X160243771Y-111749500D01*
X160243767Y-111749500D01*
X160076233Y-111749500D01*
X160076228Y-111749500D01*
X159911925Y-111782182D01*
X159911917Y-111782184D01*
X159757139Y-111846295D01*
X159617837Y-111939373D01*
X159499373Y-112057837D01*
X159406295Y-112197139D01*
X159342184Y-112351917D01*
X159342182Y-112351925D01*
X159309500Y-112516228D01*
X71800500Y-112516228D01*
X71800500Y-101406228D01*
X75159500Y-101406228D01*
X75159500Y-101573771D01*
X75192182Y-101738074D01*
X75192184Y-101738082D01*
X75256295Y-101892860D01*
X75349373Y-102032162D01*
X75467837Y-102150626D01*
X75560494Y-102212537D01*
X75607137Y-102243703D01*
X75761918Y-102307816D01*
X75926228Y-102340499D01*
X75926232Y-102340500D01*
X75926233Y-102340500D01*
X76093768Y-102340500D01*
X76093769Y-102340499D01*
X76258082Y-102307816D01*
X76412863Y-102243703D01*
X76552162Y-102150626D01*
X76670626Y-102032162D01*
X76763703Y-101892863D01*
X76827816Y-101738082D01*
X76860500Y-101573767D01*
X76860500Y-101406233D01*
X76827816Y-101241918D01*
X76763703Y-101087137D01*
X76732537Y-101040494D01*
X76670626Y-100947837D01*
X76552162Y-100829373D01*
X76412860Y-100736295D01*
X76258082Y-100672184D01*
X76258074Y-100672182D01*
X76093771Y-100639500D01*
X76093767Y-100639500D01*
X75926233Y-100639500D01*
X75926228Y-100639500D01*
X75761925Y-100672182D01*
X75761917Y-100672184D01*
X75607139Y-100736295D01*
X75467837Y-100829373D01*
X75349373Y-100947837D01*
X75256295Y-101087139D01*
X75192184Y-101241917D01*
X75192182Y-101241925D01*
X75159500Y-101406228D01*
X71800500Y-101406228D01*
X71800500Y-98026228D01*
X79389500Y-98026228D01*
X79389500Y-98193771D01*
X79422182Y-98358074D01*
X79422184Y-98358082D01*
X79486295Y-98512860D01*
X79579373Y-98652162D01*
X79697837Y-98770626D01*
X79790494Y-98832537D01*
X79837137Y-98863703D01*
X79991918Y-98927816D01*
X80114315Y-98952162D01*
X80156228Y-98960499D01*
X80156232Y-98960500D01*
X80156233Y-98960500D01*
X80323768Y-98960500D01*
X80323769Y-98960499D01*
X80488082Y-98927816D01*
X80642863Y-98863703D01*
X80782162Y-98770626D01*
X80900626Y-98652162D01*
X80993703Y-98512863D01*
X81057816Y-98358082D01*
X81090500Y-98193767D01*
X81090500Y-98026233D01*
X81057816Y-97861918D01*
X80993703Y-97707137D01*
X80962537Y-97660494D01*
X80900626Y-97567837D01*
X80782162Y-97449373D01*
X80642860Y-97356295D01*
X80488082Y-97292184D01*
X80488074Y-97292182D01*
X80323771Y-97259500D01*
X80323767Y-97259500D01*
X80156233Y-97259500D01*
X80156228Y-97259500D01*
X79991925Y-97292182D01*
X79991917Y-97292184D01*
X79837139Y-97356295D01*
X79697837Y-97449373D01*
X79579373Y-97567837D01*
X79486295Y-97707139D01*
X79422184Y-97861917D01*
X79422182Y-97861925D01*
X79389500Y-98026228D01*
X71800500Y-98026228D01*
X71800500Y-88560817D01*
X79150000Y-88560817D01*
X79150000Y-88699182D01*
X79185812Y-88832835D01*
X79185813Y-88832838D01*
X79254992Y-88952661D01*
X79254994Y-88952664D01*
X79254995Y-88952665D01*
X79352835Y-89050505D01*
X79472664Y-89119688D01*
X79606317Y-89155500D01*
X79606319Y-89155500D01*
X79744681Y-89155500D01*
X79744683Y-89155500D01*
X79878336Y-89119688D01*
X79998165Y-89050505D01*
X80096005Y-88952665D01*
X80165188Y-88832836D01*
X80201000Y-88699183D01*
X80201000Y-88560817D01*
X80165188Y-88427164D01*
X80096005Y-88307335D01*
X79998165Y-88209495D01*
X79998164Y-88209494D01*
X79998161Y-88209492D01*
X79878338Y-88140313D01*
X79878337Y-88140312D01*
X79878336Y-88140312D01*
X79744683Y-88104500D01*
X79606317Y-88104500D01*
X79472664Y-88140312D01*
X79472661Y-88140313D01*
X79352838Y-88209492D01*
X79352833Y-88209496D01*
X79254996Y-88307333D01*
X79254992Y-88307338D01*
X79185813Y-88427161D01*
X79185812Y-88427164D01*
X79150000Y-88560817D01*
X71800500Y-88560817D01*
X71800500Y-82780817D01*
X79150000Y-82780817D01*
X79150000Y-82919183D01*
X79176429Y-83017816D01*
X79185812Y-83052835D01*
X79185813Y-83052838D01*
X79254992Y-83172661D01*
X79254994Y-83172664D01*
X79254995Y-83172665D01*
X79352835Y-83270505D01*
X79472664Y-83339688D01*
X79606317Y-83375500D01*
X79606319Y-83375500D01*
X79744681Y-83375500D01*
X79744683Y-83375500D01*
X79878336Y-83339688D01*
X79998165Y-83270505D01*
X80096005Y-83172665D01*
X80165188Y-83052836D01*
X80201000Y-82919183D01*
X80201000Y-82780817D01*
X80165188Y-82647164D01*
X80119896Y-82568716D01*
X80096007Y-82527338D01*
X80096003Y-82527333D01*
X79998166Y-82429496D01*
X79998161Y-82429492D01*
X79878338Y-82360313D01*
X79878337Y-82360312D01*
X79878336Y-82360312D01*
X79744683Y-82324500D01*
X79606317Y-82324500D01*
X79472664Y-82360312D01*
X79472661Y-82360313D01*
X79352838Y-82429492D01*
X79352833Y-82429496D01*
X79254996Y-82527333D01*
X79254992Y-82527338D01*
X79185813Y-82647161D01*
X79185812Y-82647164D01*
X79150000Y-82780817D01*
X71800500Y-82780817D01*
X71800500Y-74116228D01*
X84639500Y-74116228D01*
X84639500Y-74283771D01*
X84672182Y-74448074D01*
X84672184Y-74448082D01*
X84736295Y-74602860D01*
X84829373Y-74742162D01*
X84947837Y-74860626D01*
X85040494Y-74922537D01*
X85087137Y-74953703D01*
X85241918Y-75017816D01*
X85406228Y-75050499D01*
X85406232Y-75050500D01*
X85406233Y-75050500D01*
X85573768Y-75050500D01*
X85573769Y-75050499D01*
X85738082Y-75017816D01*
X85892863Y-74953703D01*
X86032162Y-74860626D01*
X86150626Y-74742162D01*
X86243703Y-74602863D01*
X86307816Y-74448082D01*
X86340500Y-74283767D01*
X86340500Y-74116233D01*
X86307816Y-73951918D01*
X86243703Y-73797137D01*
X86212537Y-73750494D01*
X86150626Y-73657837D01*
X86032162Y-73539373D01*
X85892860Y-73446295D01*
X85738082Y-73382184D01*
X85738074Y-73382182D01*
X85573771Y-73349500D01*
X85573767Y-73349500D01*
X85406233Y-73349500D01*
X85406228Y-73349500D01*
X85241925Y-73382182D01*
X85241917Y-73382184D01*
X85087139Y-73446295D01*
X84947837Y-73539373D01*
X84829373Y-73657837D01*
X84736295Y-73797139D01*
X84672184Y-73951917D01*
X84672182Y-73951925D01*
X84639500Y-74116228D01*
X71800500Y-74116228D01*
X71800500Y-70316228D01*
X84849500Y-70316228D01*
X84849500Y-70483771D01*
X84882182Y-70648074D01*
X84882184Y-70648082D01*
X84946295Y-70802860D01*
X85039373Y-70942162D01*
X85157837Y-71060626D01*
X85250494Y-71122537D01*
X85297137Y-71153703D01*
X85451918Y-71217816D01*
X85603916Y-71248050D01*
X85616228Y-71250499D01*
X85616232Y-71250500D01*
X85616233Y-71250500D01*
X85783768Y-71250500D01*
X85783769Y-71250499D01*
X85948082Y-71217816D01*
X86102863Y-71153703D01*
X86242162Y-71060626D01*
X86360626Y-70942162D01*
X86453703Y-70802863D01*
X86517816Y-70648082D01*
X86550500Y-70483767D01*
X86550500Y-70316233D01*
X86517816Y-70151918D01*
X86453703Y-69997137D01*
X86422537Y-69950494D01*
X86360626Y-69857837D01*
X86242162Y-69739373D01*
X86102860Y-69646295D01*
X85948082Y-69582184D01*
X85948074Y-69582182D01*
X85783771Y-69549500D01*
X85783767Y-69549500D01*
X85616233Y-69549500D01*
X85616228Y-69549500D01*
X85451925Y-69582182D01*
X85451917Y-69582184D01*
X85297139Y-69646295D01*
X85157837Y-69739373D01*
X85039373Y-69857837D01*
X84946295Y-69997139D01*
X84882184Y-70151917D01*
X84882182Y-70151925D01*
X84849500Y-70316228D01*
X71800500Y-70316228D01*
X71800500Y-65716228D01*
X87179500Y-65716228D01*
X87179500Y-65883771D01*
X87212182Y-66048074D01*
X87212184Y-66048082D01*
X87276295Y-66202860D01*
X87369373Y-66342162D01*
X87487837Y-66460626D01*
X87542480Y-66497137D01*
X87627137Y-66553703D01*
X87627138Y-66553703D01*
X87627139Y-66553704D01*
X87644403Y-66560855D01*
X87781918Y-66617816D01*
X87946228Y-66650499D01*
X87946232Y-66650500D01*
X87946233Y-66650500D01*
X88113768Y-66650500D01*
X88113769Y-66650499D01*
X88278082Y-66617816D01*
X88432863Y-66553703D01*
X88572162Y-66460626D01*
X88690626Y-66342162D01*
X88783703Y-66202863D01*
X88847816Y-66048082D01*
X88880500Y-65883767D01*
X88880500Y-65850097D01*
X88900185Y-65783058D01*
X88916819Y-65762416D01*
X89992417Y-64686819D01*
X90019344Y-64672115D01*
X90045163Y-64655523D01*
X90051363Y-64654631D01*
X90053740Y-64653334D01*
X90080098Y-64650500D01*
X90167349Y-64650500D01*
X90234388Y-64670185D01*
X90280143Y-64722989D01*
X90290087Y-64792147D01*
X90261062Y-64855703D01*
X90255030Y-64862181D01*
X90239376Y-64877834D01*
X90239373Y-64877837D01*
X90146295Y-65017139D01*
X90082184Y-65171917D01*
X90082182Y-65171925D01*
X90049500Y-65336228D01*
X90049500Y-65503766D01*
X90049632Y-65505108D01*
X90049500Y-65506717D01*
X90049500Y-65509859D01*
X90049242Y-65509859D01*
X90046003Y-65549347D01*
X90029499Y-65610941D01*
X90029499Y-65779046D01*
X90029500Y-65779059D01*
X90029500Y-102291349D01*
X90009815Y-102358388D01*
X89993181Y-102379030D01*
X89914376Y-102457834D01*
X89914373Y-102457837D01*
X89821295Y-102597139D01*
X89757184Y-102751917D01*
X89757182Y-102751925D01*
X89724500Y-102916228D01*
X89724500Y-103083771D01*
X89757182Y-103248074D01*
X89757184Y-103248082D01*
X89821295Y-103402860D01*
X89914373Y-103542162D01*
X90032837Y-103660626D01*
X90125494Y-103722537D01*
X90172137Y-103753703D01*
X90326918Y-103817816D01*
X90491228Y-103850499D01*
X90491232Y-103850500D01*
X90491233Y-103850500D01*
X90658768Y-103850500D01*
X90658769Y-103850499D01*
X90823082Y-103817816D01*
X90977863Y-103753703D01*
X91117162Y-103660626D01*
X91235626Y-103542162D01*
X91328703Y-103402863D01*
X91392816Y-103248082D01*
X91425500Y-103083767D01*
X91425500Y-102916233D01*
X91392816Y-102751918D01*
X91328703Y-102597137D01*
X91251398Y-102481442D01*
X91230520Y-102414764D01*
X91230500Y-102412551D01*
X91230500Y-66286531D01*
X91250185Y-66219492D01*
X91298189Y-66177895D01*
X91297485Y-66176578D01*
X91302857Y-66173705D01*
X91302863Y-66173703D01*
X91442162Y-66080626D01*
X91560626Y-65962162D01*
X91653703Y-65822863D01*
X91717816Y-65668082D01*
X91750500Y-65503767D01*
X91750500Y-65336233D01*
X91717816Y-65171918D01*
X91660592Y-65033768D01*
X91653704Y-65017139D01*
X91560626Y-64877837D01*
X91544970Y-64862181D01*
X91511485Y-64800858D01*
X91516469Y-64731166D01*
X91558341Y-64675233D01*
X91623805Y-64650816D01*
X91632651Y-64650500D01*
X94196497Y-64650500D01*
X94263536Y-64670185D01*
X94309291Y-64722989D01*
X94319235Y-64792147D01*
X94290210Y-64855703D01*
X94265387Y-64877602D01*
X94217842Y-64909370D01*
X94217834Y-64909376D01*
X94099373Y-65027837D01*
X94006295Y-65167139D01*
X93942184Y-65321917D01*
X93942182Y-65321925D01*
X93909500Y-65486228D01*
X93909500Y-65519902D01*
X93889815Y-65586941D01*
X93873181Y-65607583D01*
X93519481Y-65961282D01*
X93519479Y-65961284D01*
X93502355Y-65990945D01*
X93485400Y-66020313D01*
X93440423Y-66098215D01*
X93399499Y-66250943D01*
X93399499Y-66250945D01*
X93399499Y-66419046D01*
X93399500Y-66419059D01*
X93399500Y-104479902D01*
X93379815Y-104546941D01*
X93363181Y-104567583D01*
X93067584Y-104863181D01*
X93006261Y-104896666D01*
X92979903Y-104899500D01*
X91103651Y-104899500D01*
X91036612Y-104879815D01*
X91015970Y-104863181D01*
X90992162Y-104839373D01*
X90852860Y-104746295D01*
X90698082Y-104682184D01*
X90698074Y-104682182D01*
X90533771Y-104649500D01*
X90533767Y-104649500D01*
X90366233Y-104649500D01*
X90366228Y-104649500D01*
X90201925Y-104682182D01*
X90201917Y-104682184D01*
X90047139Y-104746295D01*
X89907837Y-104839373D01*
X89789373Y-104957837D01*
X89696295Y-105097139D01*
X89632184Y-105251917D01*
X89632182Y-105251925D01*
X89599500Y-105416228D01*
X89599500Y-105583771D01*
X89632182Y-105748074D01*
X89632184Y-105748082D01*
X89696295Y-105902860D01*
X89789373Y-106042162D01*
X89907837Y-106160626D01*
X90000494Y-106222537D01*
X90047137Y-106253703D01*
X90047138Y-106253703D01*
X90047139Y-106253704D01*
X90082201Y-106268227D01*
X90201918Y-106317816D01*
X90325773Y-106342452D01*
X90366228Y-106350499D01*
X90366232Y-106350500D01*
X90366233Y-106350500D01*
X90533768Y-106350500D01*
X90533769Y-106350499D01*
X90698082Y-106317816D01*
X90852863Y-106253703D01*
X90992162Y-106160626D01*
X90992165Y-106160623D01*
X91015970Y-106136819D01*
X91077293Y-106103334D01*
X91103651Y-106100500D01*
X93193331Y-106100500D01*
X93193347Y-106100501D01*
X93200943Y-106100501D01*
X93359054Y-106100501D01*
X93359057Y-106100501D01*
X93511785Y-106059577D01*
X93561904Y-106030639D01*
X93648716Y-105980520D01*
X93760520Y-105868716D01*
X93760520Y-105868714D01*
X93770728Y-105858507D01*
X93770729Y-105858504D01*
X94480520Y-105148716D01*
X94559577Y-105011784D01*
X94600501Y-104859057D01*
X94600501Y-104700942D01*
X94600501Y-104693347D01*
X94600500Y-104693329D01*
X94600500Y-66630097D01*
X94609144Y-66600656D01*
X94615668Y-66570670D01*
X94619422Y-66565654D01*
X94620185Y-66563058D01*
X94636819Y-66542416D01*
X94722416Y-66456819D01*
X94783739Y-66423334D01*
X94810097Y-66420500D01*
X94843768Y-66420500D01*
X94843769Y-66420499D01*
X95008082Y-66387816D01*
X95162863Y-66323703D01*
X95302162Y-66230626D01*
X95420626Y-66112162D01*
X95513703Y-65972863D01*
X95577816Y-65818082D01*
X95610500Y-65653767D01*
X95610500Y-65486233D01*
X95577816Y-65321918D01*
X95515686Y-65171925D01*
X95513704Y-65167139D01*
X95495151Y-65139373D01*
X95482537Y-65120494D01*
X95420626Y-65027837D01*
X95302165Y-64909376D01*
X95302157Y-64909370D01*
X95254613Y-64877602D01*
X95209807Y-64823990D01*
X95201100Y-64754665D01*
X95231254Y-64691638D01*
X95290697Y-64654918D01*
X95323503Y-64650500D01*
X98657349Y-64650500D01*
X98724388Y-64670185D01*
X98770143Y-64722989D01*
X98780087Y-64792147D01*
X98751062Y-64855703D01*
X98745030Y-64862181D01*
X98639376Y-64967834D01*
X98639373Y-64967837D01*
X98546295Y-65107139D01*
X98482184Y-65261917D01*
X98482182Y-65261925D01*
X98449500Y-65426228D01*
X98449500Y-65459900D01*
X98440856Y-65489336D01*
X98434333Y-65519326D01*
X98430577Y-65524342D01*
X98429815Y-65526939D01*
X98413182Y-65547580D01*
X98364224Y-65596538D01*
X98364212Y-65596552D01*
X98259478Y-65701286D01*
X98257213Y-65705210D01*
X98221068Y-65767816D01*
X98180423Y-65838215D01*
X98139499Y-65990943D01*
X98139499Y-65990945D01*
X98139499Y-66159046D01*
X98139500Y-66159059D01*
X98139500Y-106034903D01*
X98119815Y-106101942D01*
X98103181Y-106122584D01*
X97412584Y-106813181D01*
X97351261Y-106846666D01*
X97324903Y-106849500D01*
X91078651Y-106849500D01*
X91011612Y-106829815D01*
X90997021Y-106818057D01*
X90996872Y-106818239D01*
X90992162Y-106814373D01*
X90852860Y-106721295D01*
X90698082Y-106657184D01*
X90698074Y-106657182D01*
X90533771Y-106624500D01*
X90533767Y-106624500D01*
X90366233Y-106624500D01*
X90366228Y-106624500D01*
X90201925Y-106657182D01*
X90201917Y-106657184D01*
X90047139Y-106721295D01*
X89907837Y-106814373D01*
X89789373Y-106932837D01*
X89696295Y-107072139D01*
X89632184Y-107226917D01*
X89632182Y-107226925D01*
X89599500Y-107391228D01*
X89599500Y-107558771D01*
X89632182Y-107723074D01*
X89632184Y-107723082D01*
X89696295Y-107877860D01*
X89789373Y-108017162D01*
X89907837Y-108135626D01*
X90000494Y-108197537D01*
X90047137Y-108228703D01*
X90201918Y-108292816D01*
X90366228Y-108325499D01*
X90366232Y-108325500D01*
X90366233Y-108325500D01*
X90533768Y-108325500D01*
X90533769Y-108325499D01*
X90698082Y-108292816D01*
X90852863Y-108228703D01*
X90992162Y-108135626D01*
X91040968Y-108086820D01*
X91102291Y-108053334D01*
X91128650Y-108050500D01*
X97538331Y-108050500D01*
X97538347Y-108050501D01*
X97545943Y-108050501D01*
X97704054Y-108050501D01*
X97704057Y-108050501D01*
X97856785Y-108009577D01*
X97917247Y-107974669D01*
X97993716Y-107930520D01*
X98105520Y-107818716D01*
X98105520Y-107818714D01*
X98115724Y-107808511D01*
X98115728Y-107808506D01*
X98448006Y-107476228D01*
X159349500Y-107476228D01*
X159349500Y-107643771D01*
X159382182Y-107808074D01*
X159382184Y-107808082D01*
X159446295Y-107962860D01*
X159539373Y-108102162D01*
X159657837Y-108220626D01*
X159750494Y-108282537D01*
X159797137Y-108313703D01*
X159951918Y-108377816D01*
X160116228Y-108410499D01*
X160116232Y-108410500D01*
X160234878Y-108410500D01*
X160301917Y-108430185D01*
X160347672Y-108482989D01*
X160355555Y-108505985D01*
X160355909Y-108507484D01*
X160406202Y-108642328D01*
X160406206Y-108642335D01*
X160492452Y-108757544D01*
X160492455Y-108757547D01*
X160607664Y-108843793D01*
X160607671Y-108843797D01*
X160742517Y-108894091D01*
X160742516Y-108894091D01*
X160749444Y-108894835D01*
X160802127Y-108900500D01*
X162597872Y-108900499D01*
X162657483Y-108894091D01*
X162792331Y-108843796D01*
X162907546Y-108757546D01*
X162993796Y-108642331D01*
X163044091Y-108507483D01*
X163050500Y-108447873D01*
X163050499Y-106652128D01*
X163044091Y-106592517D01*
X162993796Y-106457669D01*
X162993795Y-106457668D01*
X162993793Y-106457664D01*
X162907547Y-106342455D01*
X162907544Y-106342452D01*
X162792335Y-106256206D01*
X162792328Y-106256202D01*
X162657482Y-106205908D01*
X162657483Y-106205908D01*
X162597883Y-106199501D01*
X162597881Y-106199500D01*
X162597873Y-106199500D01*
X162597864Y-106199500D01*
X160802129Y-106199500D01*
X160802123Y-106199501D01*
X160742516Y-106205908D01*
X160607671Y-106256202D01*
X160607664Y-106256206D01*
X160492455Y-106342452D01*
X160492452Y-106342455D01*
X160406206Y-106457664D01*
X160406202Y-106457671D01*
X160355908Y-106592516D01*
X160355238Y-106598756D01*
X160328500Y-106663307D01*
X160271107Y-106703155D01*
X160231949Y-106709500D01*
X160116228Y-106709500D01*
X159951925Y-106742182D01*
X159951917Y-106742184D01*
X159797139Y-106806295D01*
X159657837Y-106899373D01*
X159539373Y-107017837D01*
X159446295Y-107157139D01*
X159382184Y-107311917D01*
X159382182Y-107311925D01*
X159349500Y-107476228D01*
X98448006Y-107476228D01*
X99098506Y-106825728D01*
X99098511Y-106825724D01*
X99108714Y-106815520D01*
X99108716Y-106815520D01*
X99220520Y-106703716D01*
X99284720Y-106592517D01*
X99299577Y-106566785D01*
X99340500Y-106414057D01*
X99340500Y-106255943D01*
X99340500Y-104666228D01*
X113549500Y-104666228D01*
X113549500Y-104833771D01*
X113582182Y-104998074D01*
X113582184Y-104998082D01*
X113646295Y-105152860D01*
X113739373Y-105292162D01*
X113857837Y-105410626D01*
X113866229Y-105416233D01*
X113997137Y-105503703D01*
X114151918Y-105567816D01*
X114316228Y-105600499D01*
X114316232Y-105600500D01*
X114316233Y-105600500D01*
X114483768Y-105600500D01*
X114483769Y-105600499D01*
X114648082Y-105567816D01*
X114802863Y-105503703D01*
X114942162Y-105410626D01*
X115060626Y-105292162D01*
X115153703Y-105152863D01*
X115217816Y-104998082D01*
X115250500Y-104833767D01*
X115250500Y-104666233D01*
X115217816Y-104501918D01*
X115153703Y-104347137D01*
X115122537Y-104300494D01*
X115060626Y-104207837D01*
X114942162Y-104089373D01*
X114802860Y-103996295D01*
X114648082Y-103932184D01*
X114648074Y-103932182D01*
X114483771Y-103899500D01*
X114483767Y-103899500D01*
X114316233Y-103899500D01*
X114316228Y-103899500D01*
X114151925Y-103932182D01*
X114151917Y-103932184D01*
X113997139Y-103996295D01*
X113857837Y-104089373D01*
X113739373Y-104207837D01*
X113646295Y-104347139D01*
X113582184Y-104501917D01*
X113582182Y-104501925D01*
X113549500Y-104666228D01*
X99340500Y-104666228D01*
X99340500Y-92736361D01*
X114901491Y-92736361D01*
X114901491Y-92903904D01*
X114934173Y-93068207D01*
X114934175Y-93068215D01*
X114998286Y-93222993D01*
X115091364Y-93362295D01*
X115209828Y-93480759D01*
X115299426Y-93540626D01*
X115349128Y-93573836D01*
X115503909Y-93637949D01*
X115668219Y-93670632D01*
X115668223Y-93670633D01*
X115668224Y-93670633D01*
X115835759Y-93670633D01*
X115835760Y-93670632D01*
X116000073Y-93637949D01*
X116154854Y-93573836D01*
X116294153Y-93480759D01*
X116412617Y-93362295D01*
X116505694Y-93222996D01*
X116569807Y-93068215D01*
X116602491Y-92903900D01*
X116602491Y-92796228D01*
X119879500Y-92796228D01*
X119879500Y-92963771D01*
X119912182Y-93128074D01*
X119912184Y-93128082D01*
X119976295Y-93282860D01*
X120069373Y-93422162D01*
X120187837Y-93540626D01*
X120280494Y-93602537D01*
X120327137Y-93633703D01*
X120327138Y-93633703D01*
X120327139Y-93633704D01*
X120337390Y-93637950D01*
X120481918Y-93697816D01*
X120646228Y-93730499D01*
X120646232Y-93730500D01*
X120646233Y-93730500D01*
X120813768Y-93730500D01*
X120813769Y-93730499D01*
X120978082Y-93697816D01*
X121132863Y-93633703D01*
X121272162Y-93540626D01*
X121390626Y-93422162D01*
X121483703Y-93282863D01*
X121547816Y-93128082D01*
X121580500Y-92963767D01*
X121580500Y-92796233D01*
X121547816Y-92631918D01*
X121483703Y-92477137D01*
X121443701Y-92417270D01*
X121390626Y-92337837D01*
X121272162Y-92219373D01*
X121132860Y-92126295D01*
X120978082Y-92062184D01*
X120978074Y-92062182D01*
X120813771Y-92029500D01*
X120813767Y-92029500D01*
X120646233Y-92029500D01*
X120646228Y-92029500D01*
X120481925Y-92062182D01*
X120481917Y-92062184D01*
X120327139Y-92126295D01*
X120187837Y-92219373D01*
X120069373Y-92337837D01*
X119976295Y-92477139D01*
X119912184Y-92631917D01*
X119912182Y-92631925D01*
X119879500Y-92796228D01*
X116602491Y-92796228D01*
X116602491Y-92736366D01*
X116569807Y-92572051D01*
X116505694Y-92417270D01*
X116452619Y-92337838D01*
X116412617Y-92277970D01*
X116294153Y-92159506D01*
X116154851Y-92066428D01*
X116000073Y-92002317D01*
X116000065Y-92002315D01*
X115835762Y-91969633D01*
X115835758Y-91969633D01*
X115668224Y-91969633D01*
X115668219Y-91969633D01*
X115503916Y-92002315D01*
X115503908Y-92002317D01*
X115349130Y-92066428D01*
X115209828Y-92159506D01*
X115091364Y-92277970D01*
X114998286Y-92417272D01*
X114934175Y-92572050D01*
X114934173Y-92572058D01*
X114901491Y-92736361D01*
X99340500Y-92736361D01*
X99340500Y-75666228D01*
X110899500Y-75666228D01*
X110899500Y-75833771D01*
X110932182Y-75998074D01*
X110932184Y-75998082D01*
X110996295Y-76152860D01*
X111089373Y-76292162D01*
X111207837Y-76410626D01*
X111300494Y-76472537D01*
X111347137Y-76503703D01*
X111501918Y-76567816D01*
X111654037Y-76598074D01*
X111666228Y-76600499D01*
X111666232Y-76600500D01*
X111666233Y-76600500D01*
X111833768Y-76600500D01*
X111833769Y-76600499D01*
X111998082Y-76567816D01*
X112152863Y-76503703D01*
X112292162Y-76410626D01*
X112410626Y-76292162D01*
X112427955Y-76266228D01*
X121659500Y-76266228D01*
X121659500Y-76433771D01*
X121692182Y-76598074D01*
X121692184Y-76598082D01*
X121756295Y-76752860D01*
X121849373Y-76892162D01*
X121967837Y-77010626D01*
X122060494Y-77072537D01*
X122107137Y-77103703D01*
X122261918Y-77167816D01*
X122426228Y-77200499D01*
X122426232Y-77200500D01*
X122426233Y-77200500D01*
X122593768Y-77200500D01*
X122593769Y-77200499D01*
X122758082Y-77167816D01*
X122912863Y-77103703D01*
X123052162Y-77010626D01*
X123170626Y-76892162D01*
X123263703Y-76752863D01*
X123327816Y-76598082D01*
X123360500Y-76433767D01*
X123360500Y-76266233D01*
X123327816Y-76101918D01*
X123263703Y-75947137D01*
X123232537Y-75900494D01*
X123170626Y-75807837D01*
X123052162Y-75689373D01*
X122912860Y-75596295D01*
X122758082Y-75532184D01*
X122758074Y-75532182D01*
X122593771Y-75499500D01*
X122593767Y-75499500D01*
X122426233Y-75499500D01*
X122426228Y-75499500D01*
X122261925Y-75532182D01*
X122261917Y-75532184D01*
X122107139Y-75596295D01*
X121967837Y-75689373D01*
X121849373Y-75807837D01*
X121756295Y-75947139D01*
X121692184Y-76101917D01*
X121692182Y-76101925D01*
X121659500Y-76266228D01*
X112427955Y-76266228D01*
X112503703Y-76152863D01*
X112567816Y-75998082D01*
X112600500Y-75833767D01*
X112600500Y-75666233D01*
X112567816Y-75501918D01*
X112503703Y-75347137D01*
X112428127Y-75234030D01*
X112410626Y-75207837D01*
X112292162Y-75089373D01*
X112152860Y-74996295D01*
X111998082Y-74932184D01*
X111998074Y-74932182D01*
X111833771Y-74899500D01*
X111833767Y-74899500D01*
X111666233Y-74899500D01*
X111666228Y-74899500D01*
X111501925Y-74932182D01*
X111501917Y-74932184D01*
X111347139Y-74996295D01*
X111207837Y-75089373D01*
X111089373Y-75207837D01*
X110996295Y-75347139D01*
X110932184Y-75501917D01*
X110932182Y-75501925D01*
X110899500Y-75666228D01*
X99340500Y-75666228D01*
X99340500Y-66470870D01*
X99360185Y-66403831D01*
X99412989Y-66358076D01*
X99440301Y-66349254D01*
X99548082Y-66327816D01*
X99702863Y-66263703D01*
X99842162Y-66170626D01*
X99960626Y-66052162D01*
X100053703Y-65912863D01*
X100117816Y-65758082D01*
X100150500Y-65593767D01*
X100150500Y-65426233D01*
X100117816Y-65261918D01*
X100053703Y-65107137D01*
X99970212Y-64982184D01*
X99960626Y-64967837D01*
X99854970Y-64862181D01*
X99821485Y-64800858D01*
X99826469Y-64731166D01*
X99868341Y-64675233D01*
X99933805Y-64650816D01*
X99942651Y-64650500D01*
X102700903Y-64650500D01*
X102767942Y-64670185D01*
X102813697Y-64722989D01*
X102823641Y-64792147D01*
X102794616Y-64855703D01*
X102788586Y-64862178D01*
X102190864Y-65459900D01*
X101637583Y-66013181D01*
X101576260Y-66046666D01*
X101549902Y-66049500D01*
X101416228Y-66049500D01*
X101251925Y-66082182D01*
X101251917Y-66082184D01*
X101097139Y-66146295D01*
X100957837Y-66239373D01*
X100839373Y-66357837D01*
X100746295Y-66497139D01*
X100682184Y-66651917D01*
X100682182Y-66651925D01*
X100649500Y-66816228D01*
X100649500Y-66983771D01*
X100682182Y-67148074D01*
X100682184Y-67148082D01*
X100746295Y-67302860D01*
X100839373Y-67442162D01*
X100957837Y-67560626D01*
X101043460Y-67617837D01*
X101097137Y-67653703D01*
X101251918Y-67717816D01*
X101416228Y-67750499D01*
X101416232Y-67750500D01*
X101416233Y-67750500D01*
X101583768Y-67750500D01*
X101583769Y-67750499D01*
X101748082Y-67717816D01*
X101902863Y-67653703D01*
X102042162Y-67560626D01*
X102160626Y-67442162D01*
X102253703Y-67302863D01*
X102317816Y-67148082D01*
X102339445Y-67039340D01*
X102371829Y-66977432D01*
X102373324Y-66975909D01*
X103802416Y-65546819D01*
X103863739Y-65513334D01*
X103890097Y-65510500D01*
X115910434Y-65510500D01*
X115977473Y-65530185D01*
X116023228Y-65582989D01*
X116033172Y-65652147D01*
X116004147Y-65715703D01*
X115966991Y-65742498D01*
X115967930Y-65744254D01*
X115962554Y-65747127D01*
X115823252Y-65840205D01*
X115704788Y-65958669D01*
X115611710Y-66097971D01*
X115547599Y-66252749D01*
X115547597Y-66252757D01*
X115514915Y-66417060D01*
X115514915Y-66584603D01*
X115547597Y-66748906D01*
X115547599Y-66748914D01*
X115611710Y-66903692D01*
X115704788Y-67042994D01*
X115823252Y-67161458D01*
X115868061Y-67191398D01*
X115912866Y-67245010D01*
X115921573Y-67314335D01*
X115891419Y-67377362D01*
X115831976Y-67414082D01*
X115799170Y-67418500D01*
X107971754Y-67418500D01*
X107924323Y-67406618D01*
X107923491Y-67408628D01*
X107763082Y-67342184D01*
X107763074Y-67342182D01*
X107598771Y-67309500D01*
X107598767Y-67309500D01*
X107431233Y-67309500D01*
X107431228Y-67309500D01*
X107266925Y-67342182D01*
X107266917Y-67342184D01*
X107112139Y-67406295D01*
X106972837Y-67499373D01*
X106854373Y-67617837D01*
X106761295Y-67757139D01*
X106697184Y-67911917D01*
X106697182Y-67911925D01*
X106664500Y-68076228D01*
X106664500Y-68243771D01*
X106697182Y-68408074D01*
X106697184Y-68408082D01*
X106761295Y-68562860D01*
X106854373Y-68702162D01*
X106972837Y-68820626D01*
X107060500Y-68879200D01*
X107112137Y-68913703D01*
X107266918Y-68977816D01*
X107431228Y-69010499D01*
X107431232Y-69010500D01*
X107431233Y-69010500D01*
X107598768Y-69010500D01*
X107598769Y-69010499D01*
X107763082Y-68977816D01*
X107827802Y-68951007D01*
X107897269Y-68943538D01*
X107959748Y-68974812D01*
X107995402Y-69034900D01*
X107996871Y-69041375D01*
X108002182Y-69068077D01*
X108002184Y-69068082D01*
X108066295Y-69222860D01*
X108159373Y-69362162D01*
X108277837Y-69480626D01*
X108370494Y-69542537D01*
X108417137Y-69573703D01*
X108571918Y-69637816D01*
X108724077Y-69668082D01*
X108736228Y-69670499D01*
X108736232Y-69670500D01*
X108736233Y-69670500D01*
X108903768Y-69670500D01*
X108903769Y-69670499D01*
X109068082Y-69637816D01*
X109108495Y-69621075D01*
X109177964Y-69613606D01*
X109240444Y-69644880D01*
X109270510Y-69688183D01*
X109326295Y-69822860D01*
X109419373Y-69962162D01*
X109537837Y-70080626D01*
X109630494Y-70142537D01*
X109677137Y-70173703D01*
X109831918Y-70237816D01*
X109996228Y-70270499D01*
X109996232Y-70270500D01*
X109996233Y-70270500D01*
X110163768Y-70270500D01*
X110163769Y-70270499D01*
X110328082Y-70237816D01*
X110362033Y-70223752D01*
X110431501Y-70216284D01*
X110493980Y-70247559D01*
X110524046Y-70290861D01*
X110566295Y-70392860D01*
X110659373Y-70532162D01*
X110777837Y-70650626D01*
X110870494Y-70712537D01*
X110917137Y-70743703D01*
X111071918Y-70807816D01*
X111236228Y-70840499D01*
X111236232Y-70840500D01*
X111236233Y-70840500D01*
X111403768Y-70840500D01*
X111403769Y-70840499D01*
X111568082Y-70807816D01*
X111580252Y-70802774D01*
X111649719Y-70795306D01*
X111712199Y-70826580D01*
X111747852Y-70886669D01*
X111749321Y-70893145D01*
X111772182Y-71008074D01*
X111772184Y-71008082D01*
X111836295Y-71162860D01*
X111929373Y-71302162D01*
X112047837Y-71420626D01*
X112127539Y-71473881D01*
X112187137Y-71513703D01*
X112341918Y-71577816D01*
X112506228Y-71610499D01*
X112506232Y-71610500D01*
X112506233Y-71610500D01*
X112673768Y-71610500D01*
X112673769Y-71610499D01*
X112838082Y-71577816D01*
X112909106Y-71548396D01*
X112978571Y-71540928D01*
X113041051Y-71572202D01*
X113071117Y-71615505D01*
X113072183Y-71618080D01*
X113072184Y-71618082D01*
X113075717Y-71626611D01*
X113136295Y-71772860D01*
X113229373Y-71912162D01*
X113347837Y-72030626D01*
X113440494Y-72092537D01*
X113487137Y-72123703D01*
X113641918Y-72187816D01*
X113806228Y-72220499D01*
X113806232Y-72220500D01*
X113806233Y-72220500D01*
X113973768Y-72220500D01*
X113973769Y-72220499D01*
X114138082Y-72187816D01*
X114159353Y-72179004D01*
X114228821Y-72171535D01*
X114291301Y-72202808D01*
X114321368Y-72246112D01*
X114386295Y-72402860D01*
X114479373Y-72542162D01*
X114597837Y-72660626D01*
X114690494Y-72722537D01*
X114737137Y-72753703D01*
X114891918Y-72817816D01*
X115047360Y-72848735D01*
X115056228Y-72850499D01*
X115056232Y-72850500D01*
X115056233Y-72850500D01*
X115223768Y-72850500D01*
X115223769Y-72850499D01*
X115388082Y-72817816D01*
X115542863Y-72753703D01*
X115682162Y-72660626D01*
X115682165Y-72660623D01*
X115705970Y-72636819D01*
X115767293Y-72603334D01*
X115793651Y-72600500D01*
X118750746Y-72600500D01*
X118817785Y-72620185D01*
X118863540Y-72672989D01*
X118873484Y-72742147D01*
X118865307Y-72771953D01*
X118832184Y-72851917D01*
X118832182Y-72851925D01*
X118799500Y-73016228D01*
X118799500Y-73183771D01*
X118832182Y-73348074D01*
X118832184Y-73348082D01*
X118896295Y-73502860D01*
X118989373Y-73642162D01*
X119107837Y-73760626D01*
X119162480Y-73797137D01*
X119247137Y-73853703D01*
X119401918Y-73917816D01*
X119566228Y-73950499D01*
X119566232Y-73950500D01*
X119566233Y-73950500D01*
X119733768Y-73950500D01*
X119733769Y-73950499D01*
X119898082Y-73917816D01*
X120052863Y-73853703D01*
X120192162Y-73760626D01*
X120310626Y-73642162D01*
X120403703Y-73502863D01*
X120467816Y-73348082D01*
X120500500Y-73183767D01*
X120500500Y-73016233D01*
X120467816Y-72851918D01*
X120434692Y-72771952D01*
X120427224Y-72702484D01*
X120458499Y-72640004D01*
X120518588Y-72604352D01*
X120549254Y-72600500D01*
X146509903Y-72600500D01*
X146539343Y-72609144D01*
X146569330Y-72615668D01*
X146574345Y-72619422D01*
X146576942Y-72620185D01*
X146597584Y-72636819D01*
X146773181Y-72812416D01*
X146806666Y-72873739D01*
X146809500Y-72900097D01*
X146809500Y-92566349D01*
X146789815Y-92633388D01*
X146773181Y-92654030D01*
X146749376Y-92677834D01*
X146749373Y-92677837D01*
X146656295Y-92817139D01*
X146592184Y-92971917D01*
X146592182Y-92971925D01*
X146559500Y-93136228D01*
X146559500Y-93303771D01*
X146592182Y-93468074D01*
X146592184Y-93468082D01*
X146656295Y-93622860D01*
X146749373Y-93762162D01*
X146867837Y-93880626D01*
X146960494Y-93942537D01*
X147007137Y-93973703D01*
X147153836Y-94034468D01*
X147208239Y-94078309D01*
X147230304Y-94144603D01*
X147228001Y-94173219D01*
X147209500Y-94266234D01*
X147209500Y-94433771D01*
X147242182Y-94598074D01*
X147242184Y-94598082D01*
X147306295Y-94752860D01*
X147399373Y-94892162D01*
X147517837Y-95010626D01*
X147610494Y-95072537D01*
X147657137Y-95103703D01*
X147811918Y-95167816D01*
X147811920Y-95167816D01*
X147811922Y-95167817D01*
X147816882Y-95168803D01*
X147819686Y-95169361D01*
X147881598Y-95201743D01*
X147916175Y-95262457D01*
X147919500Y-95290979D01*
X147919500Y-95433771D01*
X147952182Y-95598074D01*
X147952184Y-95598082D01*
X148016295Y-95752860D01*
X148109373Y-95892162D01*
X148227837Y-96010626D01*
X148297487Y-96057164D01*
X148367137Y-96103703D01*
X148501144Y-96159211D01*
X148555546Y-96203051D01*
X148577611Y-96269345D01*
X148577690Y-96273771D01*
X148577690Y-96433771D01*
X148610372Y-96598074D01*
X148610374Y-96598082D01*
X148674485Y-96752860D01*
X148767563Y-96892162D01*
X148886027Y-97010626D01*
X148978684Y-97072537D01*
X149025327Y-97103703D01*
X149025328Y-97103703D01*
X149025329Y-97103704D01*
X149025331Y-97103705D01*
X149076087Y-97124729D01*
X149123088Y-97144197D01*
X149177492Y-97188038D01*
X149199557Y-97254332D01*
X149199376Y-97260141D01*
X149199500Y-97260141D01*
X149199500Y-97433771D01*
X149232182Y-97598074D01*
X149232184Y-97598082D01*
X149296295Y-97752860D01*
X149389373Y-97892162D01*
X149507837Y-98010626D01*
X149531195Y-98026233D01*
X149647137Y-98103703D01*
X149647138Y-98103703D01*
X149647139Y-98103704D01*
X149647141Y-98103705D01*
X149710132Y-98129796D01*
X149780971Y-98159139D01*
X149835375Y-98202980D01*
X149857440Y-98269274D01*
X149855137Y-98297888D01*
X149849500Y-98326231D01*
X149849500Y-98493771D01*
X149882182Y-98658074D01*
X149882184Y-98658082D01*
X149946295Y-98812860D01*
X150039373Y-98952162D01*
X150157837Y-99070626D01*
X150250494Y-99132537D01*
X150297137Y-99163703D01*
X150451918Y-99227816D01*
X150616228Y-99260499D01*
X150616232Y-99260500D01*
X150641945Y-99260500D01*
X150708984Y-99280185D01*
X150754739Y-99332989D01*
X150764683Y-99402147D01*
X150763563Y-99408689D01*
X150762062Y-99416235D01*
X150762062Y-99583774D01*
X150794744Y-99748077D01*
X150794746Y-99748085D01*
X150858857Y-99902863D01*
X150951935Y-100042165D01*
X151070399Y-100160629D01*
X151163056Y-100222540D01*
X151209699Y-100253706D01*
X151364480Y-100317819D01*
X151528790Y-100350502D01*
X151528794Y-100350503D01*
X151528795Y-100350503D01*
X151696330Y-100350503D01*
X151696331Y-100350502D01*
X151860644Y-100317819D01*
X152015425Y-100253706D01*
X152154724Y-100160629D01*
X152273188Y-100042165D01*
X152366265Y-99902866D01*
X152430378Y-99748085D01*
X152463062Y-99583770D01*
X152463062Y-99416236D01*
X152430378Y-99251921D01*
X152366265Y-99097140D01*
X152274965Y-98960500D01*
X152273188Y-98957840D01*
X152196819Y-98881471D01*
X152163334Y-98820148D01*
X152160500Y-98793790D01*
X152160500Y-82059097D01*
X152180185Y-81992058D01*
X152232989Y-81946303D01*
X152302147Y-81936359D01*
X152365703Y-81965384D01*
X152372181Y-81971416D01*
X152965139Y-82564374D01*
X152965149Y-82564385D01*
X152969479Y-82568715D01*
X152969480Y-82568716D01*
X153081284Y-82680520D01*
X153168095Y-82730639D01*
X153168097Y-82730641D01*
X153206151Y-82752611D01*
X153218215Y-82759577D01*
X153370943Y-82800501D01*
X153370946Y-82800501D01*
X153536653Y-82800501D01*
X153536669Y-82800500D01*
X157186349Y-82800500D01*
X157253388Y-82820185D01*
X157274030Y-82836819D01*
X157297837Y-82860626D01*
X157385471Y-82919181D01*
X157437137Y-82953703D01*
X157591918Y-83017816D01*
X157756228Y-83050499D01*
X157756232Y-83050500D01*
X157756233Y-83050500D01*
X157923768Y-83050500D01*
X157923769Y-83050499D01*
X158088082Y-83017816D01*
X158242863Y-82953703D01*
X158382162Y-82860626D01*
X158500626Y-82742162D01*
X158593703Y-82602863D01*
X158657816Y-82448082D01*
X158690500Y-82283767D01*
X158690500Y-82116233D01*
X158657816Y-81951918D01*
X158593703Y-81797137D01*
X158562537Y-81750494D01*
X158500626Y-81657837D01*
X158382162Y-81539373D01*
X158242860Y-81446295D01*
X158088082Y-81382184D01*
X158088076Y-81382182D01*
X157989379Y-81362550D01*
X157927468Y-81330165D01*
X157892894Y-81269449D01*
X157896634Y-81199680D01*
X157898996Y-81193516D01*
X157917816Y-81148082D01*
X157950500Y-80983767D01*
X157950500Y-80816233D01*
X157917816Y-80651918D01*
X157853703Y-80497137D01*
X157783561Y-80392162D01*
X157760626Y-80357837D01*
X157711819Y-80309030D01*
X157678334Y-80247707D01*
X157675500Y-80221349D01*
X157675500Y-62210445D01*
X157675500Y-62210443D01*
X157662160Y-62160658D01*
X157634577Y-62057715D01*
X157586657Y-61974716D01*
X157555520Y-61920784D01*
X157443716Y-61808980D01*
X157443715Y-61808979D01*
X157439385Y-61804649D01*
X157439374Y-61804639D01*
X154874090Y-59239355D01*
X154874088Y-59239352D01*
X154755217Y-59120481D01*
X154755216Y-59120480D01*
X154668404Y-59070360D01*
X154668404Y-59070359D01*
X154668400Y-59070358D01*
X154618285Y-59041423D01*
X154465557Y-59000499D01*
X154307443Y-59000499D01*
X154299847Y-59000499D01*
X154299831Y-59000500D01*
X140551651Y-59000500D01*
X140484612Y-58980815D01*
X140438857Y-58928011D01*
X140428913Y-58858853D01*
X140457938Y-58795297D01*
X140463970Y-58788819D01*
X140510623Y-58742165D01*
X140510626Y-58742162D01*
X140539892Y-58698362D01*
X140603703Y-58602863D01*
X140667816Y-58448082D01*
X140700500Y-58283767D01*
X140700500Y-58116233D01*
X140667816Y-57951918D01*
X140603703Y-57797137D01*
X140551761Y-57719401D01*
X140510626Y-57657837D01*
X140392162Y-57539373D01*
X140252860Y-57446295D01*
X140098082Y-57382184D01*
X140098074Y-57382182D01*
X139933771Y-57349500D01*
X139933767Y-57349500D01*
X139766233Y-57349500D01*
X139766228Y-57349500D01*
X139601925Y-57382182D01*
X139601917Y-57382184D01*
X139447139Y-57446295D01*
X139307837Y-57539373D01*
X139189373Y-57657837D01*
X139096295Y-57797139D01*
X139032184Y-57951917D01*
X139032182Y-57951925D01*
X138999500Y-58116228D01*
X138999500Y-58283771D01*
X139032182Y-58448074D01*
X139032184Y-58448082D01*
X139096295Y-58602860D01*
X139189373Y-58742162D01*
X139236030Y-58788819D01*
X139269515Y-58850142D01*
X139264531Y-58919834D01*
X139222659Y-58975767D01*
X139157195Y-59000184D01*
X139148349Y-59000500D01*
X136702516Y-59000500D01*
X136635477Y-58980815D01*
X136589722Y-58928011D01*
X136579778Y-58858853D01*
X136580899Y-58852308D01*
X136589790Y-58807610D01*
X136600500Y-58753767D01*
X136600500Y-58586233D01*
X136567816Y-58421918D01*
X136510592Y-58283768D01*
X136503704Y-58267139D01*
X136410626Y-58127837D01*
X136292162Y-58009373D01*
X136152860Y-57916295D01*
X135998082Y-57852184D01*
X135998074Y-57852182D01*
X135833771Y-57819500D01*
X135833767Y-57819500D01*
X135666233Y-57819500D01*
X135666228Y-57819500D01*
X135501925Y-57852182D01*
X135501917Y-57852184D01*
X135347139Y-57916295D01*
X135207837Y-58009373D01*
X135089373Y-58127837D01*
X134996295Y-58267139D01*
X134932184Y-58421917D01*
X134932182Y-58421925D01*
X134899500Y-58586228D01*
X134899500Y-58753768D01*
X134919101Y-58852308D01*
X134912874Y-58921900D01*
X134870011Y-58977077D01*
X134804121Y-59000322D01*
X134797484Y-59000500D01*
X133264966Y-59000500D01*
X133197927Y-58980815D01*
X133152172Y-58928011D01*
X133142228Y-58858853D01*
X133161863Y-58807610D01*
X133178380Y-58782891D01*
X133242493Y-58628110D01*
X133275177Y-58463795D01*
X133275177Y-58296261D01*
X133242493Y-58131946D01*
X133178380Y-57977165D01*
X133137708Y-57916295D01*
X133085303Y-57837865D01*
X132966839Y-57719401D01*
X132827537Y-57626323D01*
X132672759Y-57562212D01*
X132672751Y-57562210D01*
X132508448Y-57529528D01*
X132508444Y-57529528D01*
X132340910Y-57529528D01*
X132340905Y-57529528D01*
X132176602Y-57562210D01*
X132176594Y-57562212D01*
X132021816Y-57626323D01*
X131882514Y-57719401D01*
X131764050Y-57837865D01*
X131670972Y-57977167D01*
X131606861Y-58131945D01*
X131606859Y-58131953D01*
X131574177Y-58296256D01*
X131574177Y-58463799D01*
X131606859Y-58628102D01*
X131606861Y-58628110D01*
X131658910Y-58753768D01*
X131670974Y-58782891D01*
X131687491Y-58807610D01*
X131708368Y-58874288D01*
X131689883Y-58941668D01*
X131637904Y-58988357D01*
X131584388Y-59000500D01*
X130184281Y-59000500D01*
X130182969Y-59000493D01*
X130167799Y-59000332D01*
X130160957Y-58998499D01*
X130002843Y-58998499D01*
X130002839Y-58998500D01*
X129924097Y-58998500D01*
X129857058Y-58978815D01*
X129836416Y-58962181D01*
X127736819Y-56862584D01*
X127703334Y-56801261D01*
X127700500Y-56774903D01*
X127700500Y-56716232D01*
X127700499Y-56716228D01*
X127698008Y-56703703D01*
X127667816Y-56551918D01*
X127603703Y-56397137D01*
X127556148Y-56325966D01*
X127510626Y-56257837D01*
X127392162Y-56139373D01*
X127252860Y-56046295D01*
X127098082Y-55982184D01*
X127098074Y-55982182D01*
X126933771Y-55949500D01*
X126933767Y-55949500D01*
X126766233Y-55949500D01*
X126766228Y-55949500D01*
X126601925Y-55982182D01*
X126601917Y-55982184D01*
X126447139Y-56046295D01*
X126307837Y-56139373D01*
X126189373Y-56257837D01*
X126096295Y-56397139D01*
X126032184Y-56551917D01*
X126032182Y-56551925D01*
X125999500Y-56716228D01*
X125999500Y-56883771D01*
X126032182Y-57048074D01*
X126032184Y-57048082D01*
X126096295Y-57202859D01*
X126096300Y-57202869D01*
X126123522Y-57243609D01*
X126144400Y-57310287D01*
X126125915Y-57377667D01*
X126123522Y-57381391D01*
X126096300Y-57422130D01*
X126096295Y-57422140D01*
X126032184Y-57576917D01*
X126032182Y-57576925D01*
X125999500Y-57741228D01*
X125999500Y-57908771D01*
X126032182Y-58073074D01*
X126032184Y-58073082D01*
X126096295Y-58227860D01*
X126189373Y-58367162D01*
X126307834Y-58485623D01*
X126307842Y-58485629D01*
X126347904Y-58512398D01*
X126392710Y-58566010D01*
X126401417Y-58635335D01*
X126371263Y-58698362D01*
X126311820Y-58735082D01*
X126279014Y-58739500D01*
X118293651Y-58739500D01*
X118226612Y-58719815D01*
X118205970Y-58703181D01*
X118182162Y-58679373D01*
X118042860Y-58586295D01*
X117888082Y-58522184D01*
X117888074Y-58522182D01*
X117723771Y-58489500D01*
X117723767Y-58489500D01*
X117556233Y-58489500D01*
X117556228Y-58489500D01*
X117391925Y-58522182D01*
X117391917Y-58522184D01*
X117237139Y-58586295D01*
X117097837Y-58679373D01*
X116979373Y-58797837D01*
X116886295Y-58937139D01*
X116822184Y-59091917D01*
X116822182Y-59091925D01*
X116789500Y-59256228D01*
X116789500Y-59423771D01*
X116822182Y-59588074D01*
X116822184Y-59588082D01*
X116886295Y-59742860D01*
X116979373Y-59882162D01*
X117097837Y-60000626D01*
X117190494Y-60062537D01*
X117237137Y-60093703D01*
X117391918Y-60157816D01*
X117556228Y-60190499D01*
X117556232Y-60190500D01*
X117650500Y-60190500D01*
X117659185Y-60193050D01*
X117668147Y-60191762D01*
X117692187Y-60202740D01*
X117717539Y-60210185D01*
X117723466Y-60217025D01*
X117731703Y-60220787D01*
X117745992Y-60243021D01*
X117763294Y-60262989D01*
X117765581Y-60273503D01*
X117769477Y-60279565D01*
X117774500Y-60314500D01*
X117774500Y-60475500D01*
X117754815Y-60542539D01*
X117702011Y-60588294D01*
X117650500Y-60599500D01*
X115070097Y-60599500D01*
X115003058Y-60579815D01*
X114982416Y-60563181D01*
X110406819Y-55987584D01*
X110373334Y-55926261D01*
X110370500Y-55899903D01*
X110370500Y-55866232D01*
X110370499Y-55866228D01*
X110337817Y-55701925D01*
X110337816Y-55701918D01*
X110273703Y-55547137D01*
X110242537Y-55500494D01*
X110180626Y-55407837D01*
X110062162Y-55289373D01*
X109922860Y-55196295D01*
X109768082Y-55132184D01*
X109768074Y-55132182D01*
X109603771Y-55099500D01*
X109603767Y-55099500D01*
X109436233Y-55099500D01*
X109436228Y-55099500D01*
X109271925Y-55132182D01*
X109271917Y-55132184D01*
X109117139Y-55196295D01*
X108977837Y-55289373D01*
X108859373Y-55407837D01*
X108766295Y-55547139D01*
X108702184Y-55701917D01*
X108702182Y-55701925D01*
X108669500Y-55866228D01*
X108669500Y-56033771D01*
X108702182Y-56198074D01*
X108702184Y-56198082D01*
X108766295Y-56352860D01*
X108859373Y-56492162D01*
X108977837Y-56610626D01*
X109070494Y-56672537D01*
X109117137Y-56703703D01*
X109271918Y-56767816D01*
X109436228Y-56800499D01*
X109436232Y-56800500D01*
X109436233Y-56800500D01*
X109469903Y-56800500D01*
X109536942Y-56820185D01*
X109557584Y-56836819D01*
X113509584Y-60788819D01*
X113543069Y-60850142D01*
X113538085Y-60919834D01*
X113496213Y-60975767D01*
X113430749Y-61000184D01*
X113421903Y-61000500D01*
X111651097Y-61000500D01*
X111584058Y-60980815D01*
X111563416Y-60964181D01*
X108146819Y-57547584D01*
X108113334Y-57486261D01*
X108110500Y-57459903D01*
X108110500Y-56413650D01*
X108130185Y-56346611D01*
X108146816Y-56325971D01*
X108160626Y-56312162D01*
X108253703Y-56172863D01*
X108317816Y-56018082D01*
X108350500Y-55853767D01*
X108350500Y-55686233D01*
X108317816Y-55521918D01*
X108253703Y-55367137D01*
X108201743Y-55289373D01*
X108160626Y-55227837D01*
X108042162Y-55109373D01*
X107902860Y-55016295D01*
X107748082Y-54952184D01*
X107748074Y-54952182D01*
X107583771Y-54919500D01*
X107583767Y-54919500D01*
X107416233Y-54919500D01*
X107416228Y-54919500D01*
X107251925Y-54952182D01*
X107251917Y-54952184D01*
X107097139Y-55016295D01*
X106957837Y-55109373D01*
X106839373Y-55227837D01*
X106746295Y-55367139D01*
X106682184Y-55521917D01*
X106682182Y-55521925D01*
X106649500Y-55686228D01*
X106649500Y-55853771D01*
X106682182Y-56018074D01*
X106682184Y-56018082D01*
X106746295Y-56172860D01*
X106839373Y-56312162D01*
X106839376Y-56312165D01*
X106873180Y-56345968D01*
X106906666Y-56407290D01*
X106909500Y-56433650D01*
X106909500Y-57673330D01*
X106909499Y-57673348D01*
X106909499Y-57839054D01*
X106909498Y-57839054D01*
X106950423Y-57991785D01*
X106979358Y-58041900D01*
X106979359Y-58041904D01*
X106979360Y-58041904D01*
X107022272Y-58116232D01*
X107029479Y-58128714D01*
X107029481Y-58128717D01*
X107148349Y-58247585D01*
X107148355Y-58247590D01*
X110866139Y-61965374D01*
X110866149Y-61965385D01*
X110870479Y-61969715D01*
X110870480Y-61969716D01*
X110982284Y-62081520D01*
X111062370Y-62127757D01*
X111119215Y-62160577D01*
X111271942Y-62201500D01*
X111271943Y-62201500D01*
X122180622Y-62201500D01*
X122196810Y-62202561D01*
X122203935Y-62203499D01*
X122203938Y-62203500D01*
X122203939Y-62203500D01*
X128265820Y-62203500D01*
X128281076Y-62204500D01*
X128281542Y-62204500D01*
X128281543Y-62204500D01*
X129151026Y-62204500D01*
X129167214Y-62205561D01*
X129174339Y-62206499D01*
X129174342Y-62206500D01*
X129174343Y-62206500D01*
X153125500Y-62206500D01*
X153192539Y-62226185D01*
X153238294Y-62278989D01*
X153249500Y-62330500D01*
X153249500Y-75146349D01*
X153229815Y-75213388D01*
X153213181Y-75234030D01*
X153139376Y-75307834D01*
X153139373Y-75307837D01*
X153046295Y-75447139D01*
X152982184Y-75601917D01*
X152982182Y-75601925D01*
X152948311Y-75772208D01*
X152946021Y-75771752D01*
X152923739Y-75826931D01*
X152892223Y-75849230D01*
X152907703Y-75856300D01*
X152945477Y-75915078D01*
X152947960Y-75927861D01*
X152948311Y-75927792D01*
X152982182Y-76098074D01*
X152982184Y-76098082D01*
X153046295Y-76252860D01*
X153139373Y-76392162D01*
X153257837Y-76510626D01*
X153343430Y-76567817D01*
X153397137Y-76603703D01*
X153397138Y-76603703D01*
X153397139Y-76603704D01*
X153522953Y-76655818D01*
X153577356Y-76699659D01*
X153599421Y-76765953D01*
X153599500Y-76770379D01*
X153599500Y-76933771D01*
X153632182Y-77098074D01*
X153632184Y-77098082D01*
X153696295Y-77252860D01*
X153789373Y-77392162D01*
X153907837Y-77510626D01*
X154000494Y-77572537D01*
X154047137Y-77603703D01*
X154047138Y-77603703D01*
X154047139Y-77603704D01*
X154047141Y-77603705D01*
X154123942Y-77635517D01*
X154178346Y-77679358D01*
X154200411Y-77745652D01*
X154199894Y-77762219D01*
X154199500Y-77766223D01*
X154199500Y-77933771D01*
X154232182Y-78098074D01*
X154232184Y-78098082D01*
X154296295Y-78252860D01*
X154389373Y-78392162D01*
X154507837Y-78510626D01*
X154600494Y-78572537D01*
X154647137Y-78603703D01*
X154647138Y-78603703D01*
X154647139Y-78603704D01*
X154647141Y-78603705D01*
X154723942Y-78635517D01*
X154778346Y-78679358D01*
X154800411Y-78745652D01*
X154799894Y-78762219D01*
X154799500Y-78766223D01*
X154799500Y-78933771D01*
X154832182Y-79098074D01*
X154832184Y-79098082D01*
X154896295Y-79252860D01*
X154989373Y-79392162D01*
X155107837Y-79510626D01*
X155200494Y-79572537D01*
X155247137Y-79603703D01*
X155401918Y-79667816D01*
X155410242Y-79669471D01*
X155472152Y-79701851D01*
X155506730Y-79762564D01*
X155510056Y-79791089D01*
X155510056Y-79933771D01*
X155542738Y-80098074D01*
X155542740Y-80098082D01*
X155606851Y-80252860D01*
X155699929Y-80392162D01*
X155818393Y-80510626D01*
X155880169Y-80551903D01*
X155957693Y-80603703D01*
X156112474Y-80667816D01*
X156151065Y-80675492D01*
X156212975Y-80707875D01*
X156247550Y-80768591D01*
X156248302Y-80809992D01*
X156250097Y-80810169D01*
X156249500Y-80816231D01*
X156249500Y-80983771D01*
X156282182Y-81148074D01*
X156282184Y-81148082D01*
X156346295Y-81302860D01*
X156415618Y-81406609D01*
X156436496Y-81473287D01*
X156418011Y-81540667D01*
X156366032Y-81587357D01*
X156312516Y-81599500D01*
X153750097Y-81599500D01*
X153683058Y-81579815D01*
X153662416Y-81563181D01*
X152738819Y-80639584D01*
X152705334Y-80578261D01*
X152702500Y-80551903D01*
X152702500Y-75950013D01*
X152722185Y-75882974D01*
X152760870Y-75849453D01*
X152736500Y-75835285D01*
X152704671Y-75773087D01*
X152702500Y-75749986D01*
X152702500Y-71626611D01*
X152702499Y-71626607D01*
X152694603Y-71597138D01*
X152689426Y-71577817D01*
X152661577Y-71473883D01*
X152628493Y-71416580D01*
X152582520Y-71336952D01*
X152517856Y-71272288D01*
X152512733Y-71265532D01*
X152511422Y-71262084D01*
X152504149Y-71252605D01*
X152501522Y-71248055D01*
X152501518Y-71248050D01*
X148061822Y-66808355D01*
X148061820Y-66808352D01*
X147942949Y-66689481D01*
X147942948Y-66689480D01*
X147839192Y-66629577D01*
X147839191Y-66629576D01*
X147806015Y-66610422D01*
X147750113Y-66595443D01*
X147653289Y-66569499D01*
X147495175Y-66569499D01*
X147487579Y-66569499D01*
X147487563Y-66569500D01*
X117470097Y-66569500D01*
X117440656Y-66560855D01*
X117410670Y-66554332D01*
X117405654Y-66550577D01*
X117403058Y-66549815D01*
X117382416Y-66533181D01*
X117230002Y-66380767D01*
X117196517Y-66319444D01*
X117196080Y-66317349D01*
X117183231Y-66252750D01*
X117119118Y-66097969D01*
X117084838Y-66046666D01*
X117026041Y-65958669D01*
X116907577Y-65840205D01*
X116768275Y-65747127D01*
X116762900Y-65744254D01*
X116764126Y-65741958D01*
X116718533Y-65705210D01*
X116696475Y-65638914D01*
X116713761Y-65571216D01*
X116764903Y-65523611D01*
X116820396Y-65510500D01*
X121626350Y-65510500D01*
X121693389Y-65530185D01*
X121714026Y-65546814D01*
X121777838Y-65610626D01*
X121917137Y-65703703D01*
X122071918Y-65767816D01*
X122227360Y-65798735D01*
X122236228Y-65800499D01*
X122236232Y-65800500D01*
X122236233Y-65800500D01*
X122403768Y-65800500D01*
X122403769Y-65800499D01*
X122568082Y-65767816D01*
X122722863Y-65703703D01*
X122862162Y-65610626D01*
X122980626Y-65492162D01*
X123073703Y-65352863D01*
X123137816Y-65198082D01*
X123170500Y-65033767D01*
X123170500Y-64866233D01*
X123157065Y-64798690D01*
X123163293Y-64729099D01*
X123206157Y-64673922D01*
X123272047Y-64650678D01*
X123278683Y-64650500D01*
X141416349Y-64650500D01*
X141483388Y-64670185D01*
X141504030Y-64686819D01*
X141527837Y-64710626D01*
X141596189Y-64756297D01*
X141667137Y-64803703D01*
X141821918Y-64867816D01*
X141986228Y-64900499D01*
X141986232Y-64900500D01*
X141986233Y-64900500D01*
X142153768Y-64900500D01*
X142153769Y-64900499D01*
X142318082Y-64867816D01*
X142472863Y-64803703D01*
X142612162Y-64710626D01*
X142730626Y-64592162D01*
X142823703Y-64452863D01*
X142887816Y-64298082D01*
X142920500Y-64133767D01*
X142920500Y-63966233D01*
X142887816Y-63801918D01*
X142823703Y-63647137D01*
X142771811Y-63569475D01*
X142730626Y-63507837D01*
X142612162Y-63389373D01*
X142472860Y-63296295D01*
X142318082Y-63232184D01*
X142318074Y-63232182D01*
X142153771Y-63199500D01*
X142153767Y-63199500D01*
X141986233Y-63199500D01*
X141986228Y-63199500D01*
X141821925Y-63232182D01*
X141821917Y-63232184D01*
X141667139Y-63296295D01*
X141527837Y-63389373D01*
X141527834Y-63389376D01*
X141504030Y-63413181D01*
X141442707Y-63446666D01*
X141416349Y-63449500D01*
X89866670Y-63449500D01*
X89866654Y-63449499D01*
X89859058Y-63449499D01*
X89700943Y-63449499D01*
X89624579Y-63469961D01*
X89548214Y-63490423D01*
X89548209Y-63490426D01*
X89411290Y-63569475D01*
X89411282Y-63569481D01*
X88067584Y-64913181D01*
X88006261Y-64946666D01*
X87979903Y-64949500D01*
X87946228Y-64949500D01*
X87781925Y-64982182D01*
X87781917Y-64982184D01*
X87627139Y-65046295D01*
X87487837Y-65139373D01*
X87369373Y-65257837D01*
X87276295Y-65397139D01*
X87212184Y-65551917D01*
X87212182Y-65551925D01*
X87179500Y-65716228D01*
X71800500Y-65716228D01*
X71800500Y-61296228D01*
X90229500Y-61296228D01*
X90229500Y-61463771D01*
X90262182Y-61628074D01*
X90262184Y-61628082D01*
X90326295Y-61782860D01*
X90419373Y-61922162D01*
X90537837Y-62040626D01*
X90563410Y-62057713D01*
X90677137Y-62133703D01*
X90831918Y-62197816D01*
X90974540Y-62226185D01*
X90996228Y-62230499D01*
X90996232Y-62230500D01*
X90996233Y-62230500D01*
X91163768Y-62230500D01*
X91163769Y-62230499D01*
X91328082Y-62197816D01*
X91482863Y-62133703D01*
X91622162Y-62040626D01*
X91740626Y-61922162D01*
X91833703Y-61782863D01*
X91897816Y-61628082D01*
X91930500Y-61463767D01*
X91930500Y-61296233D01*
X91897816Y-61131918D01*
X91833703Y-60977137D01*
X91772959Y-60886228D01*
X94199500Y-60886228D01*
X94199500Y-61053771D01*
X94232182Y-61218074D01*
X94232184Y-61218082D01*
X94296295Y-61372860D01*
X94389373Y-61512162D01*
X94507837Y-61630626D01*
X94600494Y-61692537D01*
X94647137Y-61723703D01*
X94801918Y-61787816D01*
X94908318Y-61808980D01*
X94966228Y-61820499D01*
X94966232Y-61820500D01*
X94966233Y-61820500D01*
X95133768Y-61820500D01*
X95133769Y-61820499D01*
X95298082Y-61787816D01*
X95452863Y-61723703D01*
X95592162Y-61630626D01*
X95710626Y-61512162D01*
X95803703Y-61372863D01*
X95867816Y-61218082D01*
X95900500Y-61053767D01*
X95900500Y-60886233D01*
X95867816Y-60721918D01*
X95812467Y-60588294D01*
X95803704Y-60567139D01*
X95801059Y-60563181D01*
X95710626Y-60427838D01*
X95710625Y-60427836D01*
X95639017Y-60356228D01*
X98159500Y-60356228D01*
X98159500Y-60523771D01*
X98192182Y-60688074D01*
X98192184Y-60688082D01*
X98256295Y-60842860D01*
X98349373Y-60982162D01*
X98467837Y-61100626D01*
X98514680Y-61131925D01*
X98607137Y-61193703D01*
X98761918Y-61257816D01*
X98926228Y-61290499D01*
X98926232Y-61290500D01*
X98926233Y-61290500D01*
X99093768Y-61290500D01*
X99093769Y-61290499D01*
X99258082Y-61257816D01*
X99412863Y-61193703D01*
X99552162Y-61100626D01*
X99670626Y-60982162D01*
X99763703Y-60842863D01*
X99827816Y-60688082D01*
X99860500Y-60523767D01*
X99860500Y-60356233D01*
X99827816Y-60191918D01*
X99763703Y-60037137D01*
X99704021Y-59947817D01*
X99670626Y-59897837D01*
X99552162Y-59779373D01*
X99412860Y-59686295D01*
X99258082Y-59622184D01*
X99258074Y-59622182D01*
X99093771Y-59589500D01*
X99093767Y-59589500D01*
X98926233Y-59589500D01*
X98926228Y-59589500D01*
X98761925Y-59622182D01*
X98761917Y-59622184D01*
X98607139Y-59686295D01*
X98467837Y-59779373D01*
X98349373Y-59897837D01*
X98256295Y-60037139D01*
X98192184Y-60191917D01*
X98192182Y-60191925D01*
X98159500Y-60356228D01*
X95639017Y-60356228D01*
X95592162Y-60309373D01*
X95452860Y-60216295D01*
X95298082Y-60152184D01*
X95298074Y-60152182D01*
X95133771Y-60119500D01*
X95133767Y-60119500D01*
X94966233Y-60119500D01*
X94966228Y-60119500D01*
X94801925Y-60152182D01*
X94801917Y-60152184D01*
X94647139Y-60216295D01*
X94507837Y-60309373D01*
X94389373Y-60427837D01*
X94296295Y-60567139D01*
X94232184Y-60721917D01*
X94232182Y-60721925D01*
X94199500Y-60886228D01*
X91772959Y-60886228D01*
X91740626Y-60837838D01*
X91740625Y-60837837D01*
X91740623Y-60837834D01*
X91622162Y-60719373D01*
X91482860Y-60626295D01*
X91328082Y-60562184D01*
X91328074Y-60562182D01*
X91163771Y-60529500D01*
X91163767Y-60529500D01*
X90996233Y-60529500D01*
X90996228Y-60529500D01*
X90831925Y-60562182D01*
X90831917Y-60562184D01*
X90677139Y-60626295D01*
X90537837Y-60719373D01*
X90419373Y-60837837D01*
X90326295Y-60977139D01*
X90262184Y-61131917D01*
X90262182Y-61131925D01*
X90229500Y-61296228D01*
X71800500Y-61296228D01*
X71800500Y-59046228D01*
X77549500Y-59046228D01*
X77549500Y-59213771D01*
X77582182Y-59378074D01*
X77582184Y-59378082D01*
X77646295Y-59532860D01*
X77739373Y-59672162D01*
X77857837Y-59790626D01*
X77950494Y-59852537D01*
X77997137Y-59883703D01*
X78151918Y-59947816D01*
X78297727Y-59976819D01*
X78316228Y-59980499D01*
X78316232Y-59980500D01*
X78316233Y-59980500D01*
X78483768Y-59980500D01*
X78483769Y-59980499D01*
X78648082Y-59947816D01*
X78802863Y-59883703D01*
X78942162Y-59790626D01*
X79060626Y-59672162D01*
X79153703Y-59532863D01*
X79217816Y-59378082D01*
X79250500Y-59213767D01*
X79250500Y-59046233D01*
X79217816Y-58881918D01*
X79153703Y-58727137D01*
X79119200Y-58675500D01*
X79060626Y-58587837D01*
X78942162Y-58469373D01*
X78802860Y-58376295D01*
X78648082Y-58312184D01*
X78648074Y-58312182D01*
X78483771Y-58279500D01*
X78483767Y-58279500D01*
X78316233Y-58279500D01*
X78316228Y-58279500D01*
X78151925Y-58312182D01*
X78151917Y-58312184D01*
X77997139Y-58376295D01*
X77857837Y-58469373D01*
X77739373Y-58587837D01*
X77646295Y-58727139D01*
X77582184Y-58881917D01*
X77582182Y-58881925D01*
X77549500Y-59046228D01*
X71800500Y-59046228D01*
X71800500Y-49106228D01*
X98509500Y-49106228D01*
X98509500Y-49273771D01*
X98542182Y-49438074D01*
X98542184Y-49438082D01*
X98606295Y-49592860D01*
X98699373Y-49732162D01*
X98817837Y-49850626D01*
X98910494Y-49912537D01*
X98957137Y-49943703D01*
X99111918Y-50007816D01*
X99276228Y-50040499D01*
X99276232Y-50040500D01*
X99276233Y-50040500D01*
X99443768Y-50040500D01*
X99443769Y-50040499D01*
X99608082Y-50007816D01*
X99762863Y-49943703D01*
X99902162Y-49850626D01*
X99992668Y-49760120D01*
X132814500Y-49760120D01*
X132814500Y-49992379D01*
X132850831Y-50221764D01*
X132922601Y-50442650D01*
X133028039Y-50649581D01*
X133164551Y-50837474D01*
X133328776Y-51001699D01*
X133516669Y-51138211D01*
X133614436Y-51188026D01*
X133723599Y-51243648D01*
X133723601Y-51243648D01*
X133723604Y-51243650D01*
X133944486Y-51315419D01*
X134062668Y-51334136D01*
X134173871Y-51351750D01*
X134173876Y-51351750D01*
X134406129Y-51351750D01*
X134507502Y-51335693D01*
X134635514Y-51315419D01*
X134856396Y-51243650D01*
X135063331Y-51138211D01*
X135251224Y-51001699D01*
X135415449Y-50837474D01*
X135551961Y-50649581D01*
X135657400Y-50442646D01*
X135729169Y-50221764D01*
X135757878Y-50040499D01*
X135765500Y-49992379D01*
X135765500Y-49760120D01*
X135746232Y-49638472D01*
X135729169Y-49530736D01*
X135657400Y-49309854D01*
X135657398Y-49309851D01*
X135657398Y-49309849D01*
X135601776Y-49200686D01*
X135551961Y-49102919D01*
X135415449Y-48915026D01*
X135251224Y-48750801D01*
X135063331Y-48614289D01*
X134856400Y-48508851D01*
X134635514Y-48437081D01*
X134406129Y-48400750D01*
X134406124Y-48400750D01*
X134173876Y-48400750D01*
X134173871Y-48400750D01*
X133944485Y-48437081D01*
X133723599Y-48508851D01*
X133516668Y-48614289D01*
X133328773Y-48750803D01*
X133164553Y-48915023D01*
X133028039Y-49102918D01*
X132922601Y-49309849D01*
X132850831Y-49530735D01*
X132814500Y-49760120D01*
X99992668Y-49760120D01*
X100020626Y-49732162D01*
X100031389Y-49716053D01*
X100051228Y-49686364D01*
X100051228Y-49686363D01*
X100113703Y-49592863D01*
X100177816Y-49438082D01*
X100210500Y-49273767D01*
X100210500Y-49106233D01*
X100177816Y-48941918D01*
X100113703Y-48787137D01*
X100082537Y-48740494D01*
X100020626Y-48647837D01*
X99902162Y-48529373D01*
X99762860Y-48436295D01*
X99608082Y-48372184D01*
X99608074Y-48372182D01*
X99443771Y-48339500D01*
X99443767Y-48339500D01*
X99276233Y-48339500D01*
X99276228Y-48339500D01*
X99111925Y-48372182D01*
X99111917Y-48372184D01*
X98957139Y-48436295D01*
X98817837Y-48529373D01*
X98699373Y-48647837D01*
X98606295Y-48787139D01*
X98542184Y-48941917D01*
X98542182Y-48941925D01*
X98509500Y-49106228D01*
X71800500Y-49106228D01*
X71800500Y-46504427D01*
X71800816Y-46495581D01*
X71817165Y-46266982D01*
X71819683Y-46249470D01*
X71867459Y-46029851D01*
X71872436Y-46012900D01*
X71950985Y-45802299D01*
X71958325Y-45786227D01*
X72066044Y-45588956D01*
X72075600Y-45574086D01*
X72210294Y-45394156D01*
X72221868Y-45380799D01*
X72380799Y-45221868D01*
X72394156Y-45210294D01*
X72574086Y-45075600D01*
X72588956Y-45066044D01*
X72786227Y-44958325D01*
X72802299Y-44950985D01*
X73012900Y-44872436D01*
X73029851Y-44867459D01*
X73249472Y-44819682D01*
X73266977Y-44817165D01*
X73495582Y-44800816D01*
X73504428Y-44800500D01*
X73547595Y-44800500D01*
X163452405Y-44800500D01*
X163495572Y-44800500D01*
X163504418Y-44800816D01*
G37*
%TD.AperFunction*%
M02*
