%TF.GenerationSoftware,KiCad,Pcbnew,9.0.7*%
%TF.CreationDate,2026-04-18T13:14:08-03:00*%
%TF.ProjectId,Solar_Tracker_PCB_Main,536f6c61-725f-4547-9261-636b65725f50,rev?*%
%TF.SameCoordinates,Original*%
%TF.FileFunction,Soldermask,Top*%
%TF.FilePolarity,Negative*%
%FSLAX46Y46*%
G04 Gerber Fmt 4.6, Leading zero omitted, Abs format (unit mm)*
G04 Created by KiCad (PCBNEW 9.0.7) date 2026-04-18 13:14:08*
%MOMM*%
%LPD*%
G01*
G04 APERTURE LIST*
G04 Aperture macros list*
%AMRoundRect*
0 Rectangle with rounded corners*
0 $1 Rounding radius*
0 $2 $3 $4 $5 $6 $7 $8 $9 X,Y pos of 4 corners*
0 Add a 4 corners polygon primitive as box body*
4,1,4,$2,$3,$4,$5,$6,$7,$8,$9,$2,$3,0*
0 Add four circle primitives for the rounded corners*
1,1,$1+$1,$2,$3*
1,1,$1+$1,$4,$5*
1,1,$1+$1,$6,$7*
1,1,$1+$1,$8,$9*
0 Add four rect primitives between the rounded corners*
20,1,$1+$1,$2,$3,$4,$5,0*
20,1,$1+$1,$4,$5,$6,$7,0*
20,1,$1+$1,$6,$7,$8,$9,0*
20,1,$1+$1,$8,$9,$2,$3,0*%
G04 Aperture macros list end*
%ADD10R,1.800000X1.200000*%
%ADD11R,1.550000X0.600000*%
%ADD12RoundRect,0.250000X0.450000X-0.350000X0.450000X0.350000X-0.450000X0.350000X-0.450000X-0.350000X0*%
%ADD13RoundRect,0.250000X-0.337500X-0.475000X0.337500X-0.475000X0.337500X0.475000X-0.337500X0.475000X0*%
%ADD14R,1.700000X1.700000*%
%ADD15C,1.700000*%
%ADD16RoundRect,0.250000X0.475000X-0.337500X0.475000X0.337500X-0.475000X0.337500X-0.475000X-0.337500X0*%
%ADD17C,5.000000*%
%ADD18RoundRect,0.250000X-0.450000X0.350000X-0.450000X-0.350000X0.450000X-0.350000X0.450000X0.350000X0*%
%ADD19RoundRect,0.250000X0.337500X0.475000X-0.337500X0.475000X-0.337500X-0.475000X0.337500X-0.475000X0*%
%ADD20RoundRect,0.250000X-0.475000X0.337500X-0.475000X-0.337500X0.475000X-0.337500X0.475000X0.337500X0*%
%ADD21R,0.950000X1.750000*%
%ADD22R,3.200000X1.750000*%
%ADD23RoundRect,0.250000X-0.350000X-0.450000X0.350000X-0.450000X0.350000X0.450000X-0.350000X0.450000X0*%
%ADD24C,0.650000*%
%ADD25R,1.150000X0.600000*%
%ADD26R,1.150000X0.300000*%
%ADD27R,2.000000X2.180000*%
%ADD28RoundRect,0.250000X0.350000X0.450000X-0.350000X0.450000X-0.350000X-0.450000X0.350000X-0.450000X0*%
%ADD29R,2.100000X1.400000*%
%ADD30R,4.800000X2.250000*%
%ADD31RoundRect,0.250000X0.574524X0.097227X0.097227X0.574524X-0.574524X-0.097227X-0.097227X-0.574524X0*%
%ADD32R,0.300000X0.900000*%
%ADD33R,3.850000X2.050000*%
%ADD34RoundRect,0.250000X0.565685X0.070711X0.070711X0.565685X-0.565685X-0.070711X-0.070711X-0.565685X0*%
%ADD35R,1.900000X1.100000*%
%ADD36R,3.600000X4.500000*%
%ADD37RoundRect,0.250000X0.070711X-0.565685X0.565685X-0.070711X-0.070711X0.565685X-0.565685X0.070711X0*%
%ADD38C,1.950000*%
%ADD39R,0.600000X1.150000*%
%ADD40R,1.500000X0.900000*%
%ADD41R,0.900000X1.500000*%
%ADD42R,0.900000X0.900000*%
%ADD43R,0.675000X0.250000*%
%ADD44R,0.250000X0.575000*%
%ADD45R,0.600000X1.250000*%
%ADD46R,2.350000X1.550000*%
%ADD47R,0.420000X0.890000*%
G04 APERTURE END LIST*
D10*
X163588000Y-73900000D03*
X163588000Y-83500000D03*
D11*
X159712000Y-75200000D03*
X159712000Y-76200000D03*
X159712000Y-77200000D03*
X159712000Y-78200000D03*
X159712000Y-79200000D03*
X159712000Y-80200000D03*
X159712000Y-81200000D03*
X159712000Y-82200000D03*
D12*
X78410000Y-57667500D03*
X78410000Y-55667500D03*
D13*
X148472500Y-46000000D03*
X150547500Y-46000000D03*
X81342500Y-76950000D03*
X83417500Y-76950000D03*
D14*
X161700000Y-107550000D03*
D15*
X161700000Y-110090000D03*
X161700000Y-112630000D03*
X161700000Y-115170000D03*
X161700000Y-117710000D03*
X161700000Y-120250000D03*
D16*
X83660000Y-65957500D03*
X83660000Y-63882500D03*
X122800000Y-94037500D03*
X122800000Y-91962500D03*
D17*
X161000000Y-49000000D03*
D18*
X111750000Y-77050000D03*
X111750000Y-79050000D03*
D19*
X110487500Y-96050000D03*
X108412500Y-96050000D03*
D13*
X148472500Y-48050000D03*
X150547500Y-48050000D03*
D20*
X82760000Y-55630000D03*
X82760000Y-57705000D03*
D21*
X73740000Y-76770000D03*
X76040000Y-76770000D03*
X78340000Y-76770000D03*
D22*
X76040000Y-70470000D03*
D23*
X85330000Y-87780000D03*
X87330000Y-87780000D03*
D16*
X115900000Y-79087500D03*
X115900000Y-77012500D03*
D24*
X79675500Y-82850000D03*
X79675500Y-88630000D03*
D25*
X80750500Y-82540000D03*
X80750500Y-83340000D03*
D26*
X80750500Y-84490000D03*
X80750500Y-85490000D03*
X80750500Y-85990000D03*
X80750500Y-86990000D03*
D25*
X80750500Y-88940000D03*
X80750500Y-88140000D03*
D26*
X80750500Y-87490000D03*
X80750500Y-86490000D03*
X80750500Y-84990000D03*
X80750500Y-83990000D03*
D27*
X80175500Y-80630000D03*
X80175500Y-90850000D03*
X76245500Y-80630000D03*
X76245500Y-90850000D03*
D12*
X81250000Y-65940000D03*
X81250000Y-63940000D03*
D28*
X87260000Y-84560000D03*
X85260000Y-84560000D03*
D23*
X144260000Y-59366250D03*
X146260000Y-59366250D03*
D12*
X114400000Y-103350000D03*
X114400000Y-101350000D03*
D29*
X99100000Y-72630000D03*
X90000000Y-72630000D03*
X99100000Y-68170000D03*
X90000000Y-68170000D03*
D18*
X144514830Y-48401420D03*
X144514830Y-50401420D03*
D13*
X80242500Y-99460000D03*
X82317500Y-99460000D03*
D16*
X151470000Y-63813750D03*
X151470000Y-61738750D03*
D13*
X144302500Y-57276250D03*
X146377500Y-57276250D03*
D20*
X150240000Y-50788750D03*
X150240000Y-52863750D03*
D18*
X139660000Y-52626250D03*
X139660000Y-54626250D03*
D17*
X76000000Y-136500000D03*
D30*
X150300000Y-55276250D03*
X150300000Y-59276250D03*
D31*
X119143623Y-92673623D03*
X117676377Y-91206377D03*
D32*
X121450000Y-76400000D03*
X120950000Y-76400000D03*
X120450000Y-76400000D03*
X119950000Y-76400000D03*
X119450000Y-76400000D03*
X118950000Y-76400000D03*
X118450000Y-76400000D03*
X117950000Y-76400000D03*
X117950000Y-79800000D03*
X118450000Y-79800000D03*
X118950000Y-79800000D03*
X119450000Y-79800000D03*
X119950000Y-79800000D03*
X120450000Y-79800000D03*
X120950000Y-79800000D03*
X121450000Y-79800000D03*
D33*
X119700000Y-78100000D03*
D34*
X131407107Y-59357107D03*
X129992893Y-57942893D03*
D35*
X119700000Y-95550000D03*
X119700000Y-98049998D03*
D16*
X100450000Y-48037500D03*
X100450000Y-45962500D03*
D19*
X90000000Y-76000000D03*
X87925000Y-76000000D03*
D16*
X122800000Y-97897500D03*
X122800000Y-95822500D03*
D13*
X80242500Y-101490000D03*
X82317500Y-101490000D03*
D12*
X144140000Y-63296250D03*
X144140000Y-61296250D03*
D36*
X105010000Y-131260000D03*
X134110000Y-131260000D03*
D37*
X100042893Y-59457107D03*
X101457107Y-58042893D03*
D17*
X161000000Y-136500000D03*
D20*
X113850000Y-77012500D03*
X113850000Y-79087500D03*
D18*
X146300000Y-61356250D03*
X146300000Y-63356250D03*
D38*
X129290000Y-49876250D03*
X134290000Y-49876250D03*
D39*
X139680000Y-48676250D03*
X141600000Y-48676250D03*
X140640000Y-46476250D03*
D37*
X96142893Y-59857107D03*
X97557107Y-58442893D03*
D13*
X113375000Y-81400000D03*
X115450000Y-81400000D03*
D12*
X120640000Y-71880000D03*
X120640000Y-69880000D03*
D11*
X77538000Y-101500000D03*
X77538000Y-102500000D03*
X77538000Y-103500000D03*
X77538000Y-104500000D03*
X77538000Y-105500000D03*
X77538000Y-106500000D03*
X77538000Y-107500000D03*
X77538000Y-108500000D03*
D10*
X73662000Y-100200000D03*
X73662000Y-109800000D03*
D39*
X82350000Y-74190000D03*
X84270000Y-74190000D03*
X83310000Y-71990000D03*
D40*
X105750000Y-45740000D03*
X105750000Y-47010000D03*
X105750000Y-48280000D03*
X105750000Y-49550000D03*
X105750000Y-50820000D03*
X105750000Y-52090000D03*
X105750000Y-53360000D03*
X105750000Y-54630000D03*
X105750000Y-55900000D03*
X105750000Y-57170000D03*
X105750000Y-58440000D03*
X105750000Y-59710000D03*
X105750000Y-60980000D03*
X105750000Y-62250000D03*
D41*
X107515000Y-63500000D03*
X108785000Y-63500000D03*
X110055000Y-63500000D03*
X111325000Y-63500000D03*
X112595000Y-63500000D03*
X113865000Y-63500000D03*
X115135000Y-63500000D03*
X116405000Y-63500000D03*
X117675000Y-63500000D03*
X118945000Y-63500000D03*
X120215000Y-63500000D03*
X121485000Y-63500000D03*
D40*
X123250000Y-62250000D03*
X123250000Y-60980000D03*
X123250000Y-59710000D03*
X123250000Y-58440000D03*
X123250000Y-57170000D03*
X123250000Y-55900000D03*
X123250000Y-54630000D03*
X123250000Y-53360000D03*
X123250000Y-52090000D03*
X123250000Y-50820000D03*
X123250000Y-49550000D03*
X123250000Y-48280000D03*
X123250000Y-47010000D03*
X123250000Y-45740000D03*
D42*
X113000000Y-53460000D03*
X113000000Y-52060000D03*
X111600000Y-52060000D03*
X111600000Y-53460000D03*
X111600000Y-54860000D03*
X113000000Y-54860000D03*
X114400000Y-54860000D03*
X114400000Y-53460000D03*
X114400000Y-52060000D03*
D12*
X118670000Y-71880000D03*
X118670000Y-69880000D03*
D20*
X80510000Y-55630000D03*
X80510000Y-57705000D03*
D34*
X135307107Y-60357107D03*
X133892893Y-58942893D03*
D43*
X116263000Y-94563000D03*
D44*
X115450000Y-94500000D03*
X114950000Y-94500000D03*
X114450000Y-94500000D03*
X113950000Y-94500000D03*
D43*
X113137000Y-94563000D03*
X113137000Y-95063000D03*
X113137000Y-95563000D03*
X113137000Y-96063000D03*
X113137000Y-96563000D03*
X113137000Y-97063000D03*
X113137000Y-97563000D03*
X113137000Y-98063000D03*
X113137000Y-98563000D03*
X113137000Y-99063000D03*
D44*
X113950000Y-99126000D03*
X114450000Y-99126000D03*
X114950000Y-99126000D03*
X115450000Y-99126000D03*
D43*
X116263000Y-99063000D03*
X116263000Y-98563000D03*
X116263000Y-98063000D03*
X116263000Y-97563000D03*
X116263000Y-97063000D03*
X116263000Y-96563000D03*
X116263000Y-96063000D03*
X116263000Y-95563000D03*
X116263000Y-95063000D03*
D45*
X148290000Y-50076250D03*
X147340000Y-50076250D03*
X146390000Y-50076250D03*
X146390000Y-52576250D03*
X147340000Y-52576250D03*
X148290000Y-52576250D03*
D17*
X76000000Y-49000000D03*
D37*
X92192893Y-60357107D03*
X93607107Y-58942893D03*
D34*
X138933464Y-61094395D03*
X137519250Y-59680181D03*
D11*
X159624000Y-99700000D03*
X159624000Y-98700000D03*
X159624000Y-97700000D03*
X159624000Y-96700000D03*
X159624000Y-95700000D03*
X159624000Y-94700000D03*
X159624000Y-93700000D03*
X159624000Y-92700000D03*
D10*
X163500000Y-101000000D03*
X163500000Y-91400000D03*
D16*
X98285929Y-48050000D03*
X98285929Y-45975000D03*
D31*
X120533623Y-91263623D03*
X119066377Y-89796377D03*
D20*
X149280000Y-61708750D03*
X149280000Y-63783750D03*
D46*
X85670000Y-68760000D03*
X81370000Y-68760000D03*
D18*
X144514830Y-52201420D03*
X144514830Y-54201420D03*
D29*
X92000000Y-51560000D03*
X82900000Y-51560000D03*
X92000000Y-47100000D03*
X82900000Y-47100000D03*
D47*
X141650000Y-50281250D03*
X141650000Y-52531250D03*
M02*
