%TF.GenerationSoftware,KiCad,Pcbnew,9.0.7*%
%TF.CreationDate,2026-04-18T13:14:08-03:00*%
%TF.ProjectId,Solar_Tracker_PCB_Main,536f6c61-725f-4547-9261-636b65725f50,rev?*%
%TF.SameCoordinates,Original*%
%TF.FileFunction,Legend,Top*%
%TF.FilePolarity,Positive*%
%FSLAX46Y46*%
G04 Gerber Fmt 4.6, Leading zero omitted, Abs format (unit mm)*
G04 Created by KiCad (PCBNEW 9.0.7) date 2026-04-18 13:14:08*
%MOMM*%
%LPD*%
G01*
G04 APERTURE LIST*
%ADD10C,0.100000*%
%ADD11C,0.300000*%
%ADD12C,0.254000*%
%ADD13C,0.150000*%
%ADD14C,0.200000*%
%ADD15C,0.120000*%
%ADD16C,0.250000*%
G04 APERTURE END LIST*
D10*
X156300000Y-111440000D02*
X163080000Y-111440000D01*
X163080000Y-114060000D01*
X156300000Y-114060000D01*
X156300000Y-111440000D01*
X156300000Y-114060000D02*
X163080000Y-114060000D01*
X163080000Y-116480000D01*
X156300000Y-116480000D01*
X156300000Y-114060000D01*
X156300000Y-116480000D02*
X163080000Y-116480000D01*
X163080000Y-119200000D01*
X156300000Y-119200000D01*
X156300000Y-116480000D01*
X156300000Y-106200000D02*
X163080000Y-106200000D01*
X163080000Y-108620000D01*
X156300000Y-108620000D01*
X156300000Y-106200000D01*
X156300000Y-106200000D02*
X163080000Y-106200000D01*
X163080000Y-121630000D01*
X156300000Y-121630000D01*
X156300000Y-106200000D01*
X156300000Y-108620000D02*
X163080000Y-108620000D01*
X163080000Y-111440000D01*
X156300000Y-111440000D01*
X156300000Y-108620000D01*
X157627693Y-120020038D02*
X157532455Y-119972419D01*
X157532455Y-119972419D02*
X157389598Y-119972419D01*
X157389598Y-119972419D02*
X157246741Y-120020038D01*
X157246741Y-120020038D02*
X157151503Y-120115276D01*
X157151503Y-120115276D02*
X157103884Y-120210514D01*
X157103884Y-120210514D02*
X157056265Y-120400990D01*
X157056265Y-120400990D02*
X157056265Y-120543847D01*
X157056265Y-120543847D02*
X157103884Y-120734323D01*
X157103884Y-120734323D02*
X157151503Y-120829561D01*
X157151503Y-120829561D02*
X157246741Y-120924800D01*
X157246741Y-120924800D02*
X157389598Y-120972419D01*
X157389598Y-120972419D02*
X157484836Y-120972419D01*
X157484836Y-120972419D02*
X157627693Y-120924800D01*
X157627693Y-120924800D02*
X157675312Y-120877180D01*
X157675312Y-120877180D02*
X157675312Y-120543847D01*
X157675312Y-120543847D02*
X157484836Y-120543847D01*
X158103884Y-120972419D02*
X158103884Y-119972419D01*
X158103884Y-119972419D02*
X158675312Y-120972419D01*
X158675312Y-120972419D02*
X158675312Y-119972419D01*
X159151503Y-120972419D02*
X159151503Y-119972419D01*
X159151503Y-119972419D02*
X159389598Y-119972419D01*
X159389598Y-119972419D02*
X159532455Y-120020038D01*
X159532455Y-120020038D02*
X159627693Y-120115276D01*
X159627693Y-120115276D02*
X159675312Y-120210514D01*
X159675312Y-120210514D02*
X159722931Y-120400990D01*
X159722931Y-120400990D02*
X159722931Y-120543847D01*
X159722931Y-120543847D02*
X159675312Y-120734323D01*
X159675312Y-120734323D02*
X159627693Y-120829561D01*
X159627693Y-120829561D02*
X159532455Y-120924800D01*
X159532455Y-120924800D02*
X159389598Y-120972419D01*
X159389598Y-120972419D02*
X159151503Y-120972419D01*
X156961027Y-106972419D02*
X157294360Y-107972419D01*
X157294360Y-107972419D02*
X157627693Y-106972419D01*
X157961027Y-107972419D02*
X157961027Y-106972419D01*
X157961027Y-106972419D02*
X158199122Y-106972419D01*
X158199122Y-106972419D02*
X158341979Y-107020038D01*
X158341979Y-107020038D02*
X158437217Y-107115276D01*
X158437217Y-107115276D02*
X158484836Y-107210514D01*
X158484836Y-107210514D02*
X158532455Y-107400990D01*
X158532455Y-107400990D02*
X158532455Y-107543847D01*
X158532455Y-107543847D02*
X158484836Y-107734323D01*
X158484836Y-107734323D02*
X158437217Y-107829561D01*
X158437217Y-107829561D02*
X158341979Y-107924800D01*
X158341979Y-107924800D02*
X158199122Y-107972419D01*
X158199122Y-107972419D02*
X157961027Y-107972419D01*
X158961027Y-107972419D02*
X158961027Y-106972419D01*
X158961027Y-106972419D02*
X159199122Y-106972419D01*
X159199122Y-106972419D02*
X159341979Y-107020038D01*
X159341979Y-107020038D02*
X159437217Y-107115276D01*
X159437217Y-107115276D02*
X159484836Y-107210514D01*
X159484836Y-107210514D02*
X159532455Y-107400990D01*
X159532455Y-107400990D02*
X159532455Y-107543847D01*
X159532455Y-107543847D02*
X159484836Y-107734323D01*
X159484836Y-107734323D02*
X159437217Y-107829561D01*
X159437217Y-107829561D02*
X159341979Y-107924800D01*
X159341979Y-107924800D02*
X159199122Y-107972419D01*
X159199122Y-107972419D02*
X158961027Y-107972419D01*
X156961027Y-117372419D02*
X157294360Y-118372419D01*
X157294360Y-118372419D02*
X157627693Y-117372419D01*
X157961027Y-118372419D02*
X157961027Y-117372419D01*
X157961027Y-117372419D02*
X158199122Y-117372419D01*
X158199122Y-117372419D02*
X158341979Y-117420038D01*
X158341979Y-117420038D02*
X158437217Y-117515276D01*
X158437217Y-117515276D02*
X158484836Y-117610514D01*
X158484836Y-117610514D02*
X158532455Y-117800990D01*
X158532455Y-117800990D02*
X158532455Y-117943847D01*
X158532455Y-117943847D02*
X158484836Y-118134323D01*
X158484836Y-118134323D02*
X158437217Y-118229561D01*
X158437217Y-118229561D02*
X158341979Y-118324800D01*
X158341979Y-118324800D02*
X158199122Y-118372419D01*
X158199122Y-118372419D02*
X157961027Y-118372419D01*
X158961027Y-118372419D02*
X158961027Y-117372419D01*
X158961027Y-117372419D02*
X159199122Y-117372419D01*
X159199122Y-117372419D02*
X159341979Y-117420038D01*
X159341979Y-117420038D02*
X159437217Y-117515276D01*
X159437217Y-117515276D02*
X159484836Y-117610514D01*
X159484836Y-117610514D02*
X159532455Y-117800990D01*
X159532455Y-117800990D02*
X159532455Y-117943847D01*
X159532455Y-117943847D02*
X159484836Y-118134323D01*
X159484836Y-118134323D02*
X159437217Y-118229561D01*
X159437217Y-118229561D02*
X159341979Y-118324800D01*
X159341979Y-118324800D02*
X159199122Y-118372419D01*
X159199122Y-118372419D02*
X158961027Y-118372419D01*
X157627693Y-114820038D02*
X157532455Y-114772419D01*
X157532455Y-114772419D02*
X157389598Y-114772419D01*
X157389598Y-114772419D02*
X157246741Y-114820038D01*
X157246741Y-114820038D02*
X157151503Y-114915276D01*
X157151503Y-114915276D02*
X157103884Y-115010514D01*
X157103884Y-115010514D02*
X157056265Y-115200990D01*
X157056265Y-115200990D02*
X157056265Y-115343847D01*
X157056265Y-115343847D02*
X157103884Y-115534323D01*
X157103884Y-115534323D02*
X157151503Y-115629561D01*
X157151503Y-115629561D02*
X157246741Y-115724800D01*
X157246741Y-115724800D02*
X157389598Y-115772419D01*
X157389598Y-115772419D02*
X157484836Y-115772419D01*
X157484836Y-115772419D02*
X157627693Y-115724800D01*
X157627693Y-115724800D02*
X157675312Y-115677180D01*
X157675312Y-115677180D02*
X157675312Y-115343847D01*
X157675312Y-115343847D02*
X157484836Y-115343847D01*
X158103884Y-115772419D02*
X158103884Y-114772419D01*
X158103884Y-114772419D02*
X158675312Y-115772419D01*
X158675312Y-115772419D02*
X158675312Y-114772419D01*
X159151503Y-115772419D02*
X159151503Y-114772419D01*
X159151503Y-114772419D02*
X159389598Y-114772419D01*
X159389598Y-114772419D02*
X159532455Y-114820038D01*
X159532455Y-114820038D02*
X159627693Y-114915276D01*
X159627693Y-114915276D02*
X159675312Y-115010514D01*
X159675312Y-115010514D02*
X159722931Y-115200990D01*
X159722931Y-115200990D02*
X159722931Y-115343847D01*
X159722931Y-115343847D02*
X159675312Y-115534323D01*
X159675312Y-115534323D02*
X159627693Y-115629561D01*
X159627693Y-115629561D02*
X159532455Y-115724800D01*
X159532455Y-115724800D02*
X159389598Y-115772419D01*
X159389598Y-115772419D02*
X159151503Y-115772419D01*
X86503884Y-54248609D02*
X86837217Y-54248609D01*
X86980074Y-54772419D02*
X86503884Y-54772419D01*
X86503884Y-54772419D02*
X86503884Y-53772419D01*
X86503884Y-53772419D02*
X86980074Y-53772419D01*
X87408646Y-54772419D02*
X87408646Y-53772419D01*
X87408646Y-53772419D02*
X87980074Y-54772419D01*
X87980074Y-54772419D02*
X87980074Y-53772419D01*
X156961027Y-112372419D02*
X157294360Y-113372419D01*
X157294360Y-113372419D02*
X157627693Y-112372419D01*
X157961027Y-113372419D02*
X157961027Y-112372419D01*
X157961027Y-112372419D02*
X158199122Y-112372419D01*
X158199122Y-112372419D02*
X158341979Y-112420038D01*
X158341979Y-112420038D02*
X158437217Y-112515276D01*
X158437217Y-112515276D02*
X158484836Y-112610514D01*
X158484836Y-112610514D02*
X158532455Y-112800990D01*
X158532455Y-112800990D02*
X158532455Y-112943847D01*
X158532455Y-112943847D02*
X158484836Y-113134323D01*
X158484836Y-113134323D02*
X158437217Y-113229561D01*
X158437217Y-113229561D02*
X158341979Y-113324800D01*
X158341979Y-113324800D02*
X158199122Y-113372419D01*
X158199122Y-113372419D02*
X157961027Y-113372419D01*
X158961027Y-113372419D02*
X158961027Y-112372419D01*
X158961027Y-112372419D02*
X159199122Y-112372419D01*
X159199122Y-112372419D02*
X159341979Y-112420038D01*
X159341979Y-112420038D02*
X159437217Y-112515276D01*
X159437217Y-112515276D02*
X159484836Y-112610514D01*
X159484836Y-112610514D02*
X159532455Y-112800990D01*
X159532455Y-112800990D02*
X159532455Y-112943847D01*
X159532455Y-112943847D02*
X159484836Y-113134323D01*
X159484836Y-113134323D02*
X159437217Y-113229561D01*
X159437217Y-113229561D02*
X159341979Y-113324800D01*
X159341979Y-113324800D02*
X159199122Y-113372419D01*
X159199122Y-113372419D02*
X158961027Y-113372419D01*
D11*
X140174510Y-135295912D02*
X140174510Y-133795912D01*
X140174510Y-133795912D02*
X140531653Y-133795912D01*
X140531653Y-133795912D02*
X140745939Y-133867341D01*
X140745939Y-133867341D02*
X140888796Y-134010198D01*
X140888796Y-134010198D02*
X140960225Y-134153055D01*
X140960225Y-134153055D02*
X141031653Y-134438769D01*
X141031653Y-134438769D02*
X141031653Y-134653055D01*
X141031653Y-134653055D02*
X140960225Y-134938769D01*
X140960225Y-134938769D02*
X140888796Y-135081626D01*
X140888796Y-135081626D02*
X140745939Y-135224484D01*
X140745939Y-135224484D02*
X140531653Y-135295912D01*
X140531653Y-135295912D02*
X140174510Y-135295912D01*
X142317368Y-135295912D02*
X142317368Y-134510198D01*
X142317368Y-134510198D02*
X142245939Y-134367341D01*
X142245939Y-134367341D02*
X142103082Y-134295912D01*
X142103082Y-134295912D02*
X141817368Y-134295912D01*
X141817368Y-134295912D02*
X141674510Y-134367341D01*
X142317368Y-135224484D02*
X142174510Y-135295912D01*
X142174510Y-135295912D02*
X141817368Y-135295912D01*
X141817368Y-135295912D02*
X141674510Y-135224484D01*
X141674510Y-135224484D02*
X141603082Y-135081626D01*
X141603082Y-135081626D02*
X141603082Y-134938769D01*
X141603082Y-134938769D02*
X141674510Y-134795912D01*
X141674510Y-134795912D02*
X141817368Y-134724484D01*
X141817368Y-134724484D02*
X142174510Y-134724484D01*
X142174510Y-134724484D02*
X142317368Y-134653055D01*
X143031653Y-134295912D02*
X143031653Y-135295912D01*
X143031653Y-134438769D02*
X143103082Y-134367341D01*
X143103082Y-134367341D02*
X143245939Y-134295912D01*
X143245939Y-134295912D02*
X143460225Y-134295912D01*
X143460225Y-134295912D02*
X143603082Y-134367341D01*
X143603082Y-134367341D02*
X143674511Y-134510198D01*
X143674511Y-134510198D02*
X143674511Y-135295912D01*
X144388796Y-135295912D02*
X144388796Y-134295912D01*
X144388796Y-133795912D02*
X144317368Y-133867341D01*
X144317368Y-133867341D02*
X144388796Y-133938769D01*
X144388796Y-133938769D02*
X144460225Y-133867341D01*
X144460225Y-133867341D02*
X144388796Y-133795912D01*
X144388796Y-133795912D02*
X144388796Y-133938769D01*
X145031654Y-135224484D02*
X145174511Y-135295912D01*
X145174511Y-135295912D02*
X145460225Y-135295912D01*
X145460225Y-135295912D02*
X145603082Y-135224484D01*
X145603082Y-135224484D02*
X145674511Y-135081626D01*
X145674511Y-135081626D02*
X145674511Y-135010198D01*
X145674511Y-135010198D02*
X145603082Y-134867341D01*
X145603082Y-134867341D02*
X145460225Y-134795912D01*
X145460225Y-134795912D02*
X145245940Y-134795912D01*
X145245940Y-134795912D02*
X145103082Y-134724484D01*
X145103082Y-134724484D02*
X145031654Y-134581626D01*
X145031654Y-134581626D02*
X145031654Y-134510198D01*
X145031654Y-134510198D02*
X145103082Y-134367341D01*
X145103082Y-134367341D02*
X145245940Y-134295912D01*
X145245940Y-134295912D02*
X145460225Y-134295912D01*
X145460225Y-134295912D02*
X145603082Y-134367341D01*
X148245940Y-133867341D02*
X148103083Y-133795912D01*
X148103083Y-133795912D02*
X147888797Y-133795912D01*
X147888797Y-133795912D02*
X147674511Y-133867341D01*
X147674511Y-133867341D02*
X147531654Y-134010198D01*
X147531654Y-134010198D02*
X147460225Y-134153055D01*
X147460225Y-134153055D02*
X147388797Y-134438769D01*
X147388797Y-134438769D02*
X147388797Y-134653055D01*
X147388797Y-134653055D02*
X147460225Y-134938769D01*
X147460225Y-134938769D02*
X147531654Y-135081626D01*
X147531654Y-135081626D02*
X147674511Y-135224484D01*
X147674511Y-135224484D02*
X147888797Y-135295912D01*
X147888797Y-135295912D02*
X148031654Y-135295912D01*
X148031654Y-135295912D02*
X148245940Y-135224484D01*
X148245940Y-135224484D02*
X148317368Y-135153055D01*
X148317368Y-135153055D02*
X148317368Y-134653055D01*
X148317368Y-134653055D02*
X148031654Y-134653055D01*
X149174511Y-135295912D02*
X149031654Y-135224484D01*
X149031654Y-135224484D02*
X148960225Y-135153055D01*
X148960225Y-135153055D02*
X148888797Y-135010198D01*
X148888797Y-135010198D02*
X148888797Y-134581626D01*
X148888797Y-134581626D02*
X148960225Y-134438769D01*
X148960225Y-134438769D02*
X149031654Y-134367341D01*
X149031654Y-134367341D02*
X149174511Y-134295912D01*
X149174511Y-134295912D02*
X149388797Y-134295912D01*
X149388797Y-134295912D02*
X149531654Y-134367341D01*
X149531654Y-134367341D02*
X149603083Y-134438769D01*
X149603083Y-134438769D02*
X149674511Y-134581626D01*
X149674511Y-134581626D02*
X149674511Y-135010198D01*
X149674511Y-135010198D02*
X149603083Y-135153055D01*
X149603083Y-135153055D02*
X149531654Y-135224484D01*
X149531654Y-135224484D02*
X149388797Y-135295912D01*
X149388797Y-135295912D02*
X149174511Y-135295912D01*
X150317368Y-134295912D02*
X150317368Y-135295912D01*
X150317368Y-134438769D02*
X150388797Y-134367341D01*
X150388797Y-134367341D02*
X150531654Y-134295912D01*
X150531654Y-134295912D02*
X150745940Y-134295912D01*
X150745940Y-134295912D02*
X150888797Y-134367341D01*
X150888797Y-134367341D02*
X150960226Y-134510198D01*
X150960226Y-134510198D02*
X150960226Y-135295912D01*
X151531654Y-134295912D02*
X152317369Y-134295912D01*
X152317369Y-134295912D02*
X151531654Y-135295912D01*
X151531654Y-135295912D02*
X152317369Y-135295912D01*
X153531655Y-135295912D02*
X153531655Y-134510198D01*
X153531655Y-134510198D02*
X153460226Y-134367341D01*
X153460226Y-134367341D02*
X153317369Y-134295912D01*
X153317369Y-134295912D02*
X153031655Y-134295912D01*
X153031655Y-134295912D02*
X152888797Y-134367341D01*
X153531655Y-135224484D02*
X153388797Y-135295912D01*
X153388797Y-135295912D02*
X153031655Y-135295912D01*
X153031655Y-135295912D02*
X152888797Y-135224484D01*
X152888797Y-135224484D02*
X152817369Y-135081626D01*
X152817369Y-135081626D02*
X152817369Y-134938769D01*
X152817369Y-134938769D02*
X152888797Y-134795912D01*
X152888797Y-134795912D02*
X153031655Y-134724484D01*
X153031655Y-134724484D02*
X153388797Y-134724484D01*
X153388797Y-134724484D02*
X153531655Y-134653055D01*
X154460226Y-135295912D02*
X154317369Y-135224484D01*
X154317369Y-135224484D02*
X154245940Y-135081626D01*
X154245940Y-135081626D02*
X154245940Y-133795912D01*
X155603083Y-135224484D02*
X155460226Y-135295912D01*
X155460226Y-135295912D02*
X155174512Y-135295912D01*
X155174512Y-135295912D02*
X155031654Y-135224484D01*
X155031654Y-135224484D02*
X154960226Y-135081626D01*
X154960226Y-135081626D02*
X154960226Y-134510198D01*
X154960226Y-134510198D02*
X155031654Y-134367341D01*
X155031654Y-134367341D02*
X155174512Y-134295912D01*
X155174512Y-134295912D02*
X155460226Y-134295912D01*
X155460226Y-134295912D02*
X155603083Y-134367341D01*
X155603083Y-134367341D02*
X155674512Y-134510198D01*
X155674512Y-134510198D02*
X155674512Y-134653055D01*
X155674512Y-134653055D02*
X154960226Y-134795912D01*
X156174511Y-134295912D02*
X156960226Y-134295912D01*
X156960226Y-134295912D02*
X156174511Y-135295912D01*
X156174511Y-135295912D02*
X156960226Y-135295912D01*
X139960225Y-136210828D02*
X140817368Y-136210828D01*
X140388796Y-137710828D02*
X140388796Y-136210828D01*
X141531653Y-137710828D02*
X141388796Y-137639400D01*
X141388796Y-137639400D02*
X141317367Y-137567971D01*
X141317367Y-137567971D02*
X141245939Y-137425114D01*
X141245939Y-137425114D02*
X141245939Y-136996542D01*
X141245939Y-136996542D02*
X141317367Y-136853685D01*
X141317367Y-136853685D02*
X141388796Y-136782257D01*
X141388796Y-136782257D02*
X141531653Y-136710828D01*
X141531653Y-136710828D02*
X141745939Y-136710828D01*
X141745939Y-136710828D02*
X141888796Y-136782257D01*
X141888796Y-136782257D02*
X141960225Y-136853685D01*
X141960225Y-136853685D02*
X142031653Y-136996542D01*
X142031653Y-136996542D02*
X142031653Y-137425114D01*
X142031653Y-137425114D02*
X141960225Y-137567971D01*
X141960225Y-137567971D02*
X141888796Y-137639400D01*
X141888796Y-137639400D02*
X141745939Y-137710828D01*
X141745939Y-137710828D02*
X141531653Y-137710828D01*
X142674510Y-137710828D02*
X142674510Y-136210828D01*
X142674510Y-136782257D02*
X142817368Y-136710828D01*
X142817368Y-136710828D02*
X143103082Y-136710828D01*
X143103082Y-136710828D02*
X143245939Y-136782257D01*
X143245939Y-136782257D02*
X143317368Y-136853685D01*
X143317368Y-136853685D02*
X143388796Y-136996542D01*
X143388796Y-136996542D02*
X143388796Y-137425114D01*
X143388796Y-137425114D02*
X143317368Y-137567971D01*
X143317368Y-137567971D02*
X143245939Y-137639400D01*
X143245939Y-137639400D02*
X143103082Y-137710828D01*
X143103082Y-137710828D02*
X142817368Y-137710828D01*
X142817368Y-137710828D02*
X142674510Y-137639400D01*
X144031653Y-137710828D02*
X144031653Y-136710828D01*
X144031653Y-136210828D02*
X143960225Y-136282257D01*
X143960225Y-136282257D02*
X144031653Y-136353685D01*
X144031653Y-136353685D02*
X144103082Y-136282257D01*
X144103082Y-136282257D02*
X144031653Y-136210828D01*
X144031653Y-136210828D02*
X144031653Y-136353685D01*
X145388797Y-137710828D02*
X145388797Y-136925114D01*
X145388797Y-136925114D02*
X145317368Y-136782257D01*
X145317368Y-136782257D02*
X145174511Y-136710828D01*
X145174511Y-136710828D02*
X144888797Y-136710828D01*
X144888797Y-136710828D02*
X144745939Y-136782257D01*
X145388797Y-137639400D02*
X145245939Y-137710828D01*
X145245939Y-137710828D02*
X144888797Y-137710828D01*
X144888797Y-137710828D02*
X144745939Y-137639400D01*
X144745939Y-137639400D02*
X144674511Y-137496542D01*
X144674511Y-137496542D02*
X144674511Y-137353685D01*
X144674511Y-137353685D02*
X144745939Y-137210828D01*
X144745939Y-137210828D02*
X144888797Y-137139400D01*
X144888797Y-137139400D02*
X145245939Y-137139400D01*
X145245939Y-137139400D02*
X145388797Y-137067971D01*
X146031654Y-137639400D02*
X146174511Y-137710828D01*
X146174511Y-137710828D02*
X146460225Y-137710828D01*
X146460225Y-137710828D02*
X146603082Y-137639400D01*
X146603082Y-137639400D02*
X146674511Y-137496542D01*
X146674511Y-137496542D02*
X146674511Y-137425114D01*
X146674511Y-137425114D02*
X146603082Y-137282257D01*
X146603082Y-137282257D02*
X146460225Y-137210828D01*
X146460225Y-137210828D02*
X146245940Y-137210828D01*
X146245940Y-137210828D02*
X146103082Y-137139400D01*
X146103082Y-137139400D02*
X146031654Y-136996542D01*
X146031654Y-136996542D02*
X146031654Y-136925114D01*
X146031654Y-136925114D02*
X146103082Y-136782257D01*
X146103082Y-136782257D02*
X146245940Y-136710828D01*
X146245940Y-136710828D02*
X146460225Y-136710828D01*
X146460225Y-136710828D02*
X146603082Y-136782257D01*
X148460225Y-137710828D02*
X148460225Y-136210828D01*
X148460225Y-136210828D02*
X148817368Y-136210828D01*
X148817368Y-136210828D02*
X149031654Y-136282257D01*
X149031654Y-136282257D02*
X149174511Y-136425114D01*
X149174511Y-136425114D02*
X149245940Y-136567971D01*
X149245940Y-136567971D02*
X149317368Y-136853685D01*
X149317368Y-136853685D02*
X149317368Y-137067971D01*
X149317368Y-137067971D02*
X149245940Y-137353685D01*
X149245940Y-137353685D02*
X149174511Y-137496542D01*
X149174511Y-137496542D02*
X149031654Y-137639400D01*
X149031654Y-137639400D02*
X148817368Y-137710828D01*
X148817368Y-137710828D02*
X148460225Y-137710828D01*
X150531654Y-137639400D02*
X150388797Y-137710828D01*
X150388797Y-137710828D02*
X150103083Y-137710828D01*
X150103083Y-137710828D02*
X149960225Y-137639400D01*
X149960225Y-137639400D02*
X149888797Y-137496542D01*
X149888797Y-137496542D02*
X149888797Y-136925114D01*
X149888797Y-136925114D02*
X149960225Y-136782257D01*
X149960225Y-136782257D02*
X150103083Y-136710828D01*
X150103083Y-136710828D02*
X150388797Y-136710828D01*
X150388797Y-136710828D02*
X150531654Y-136782257D01*
X150531654Y-136782257D02*
X150603083Y-136925114D01*
X150603083Y-136925114D02*
X150603083Y-137067971D01*
X150603083Y-137067971D02*
X149888797Y-137210828D01*
X151888797Y-137639400D02*
X151745939Y-137710828D01*
X151745939Y-137710828D02*
X151460225Y-137710828D01*
X151460225Y-137710828D02*
X151317368Y-137639400D01*
X151317368Y-137639400D02*
X151245939Y-137567971D01*
X151245939Y-137567971D02*
X151174511Y-137425114D01*
X151174511Y-137425114D02*
X151174511Y-136996542D01*
X151174511Y-136996542D02*
X151245939Y-136853685D01*
X151245939Y-136853685D02*
X151317368Y-136782257D01*
X151317368Y-136782257D02*
X151460225Y-136710828D01*
X151460225Y-136710828D02*
X151745939Y-136710828D01*
X151745939Y-136710828D02*
X151888797Y-136782257D01*
X152745939Y-137710828D02*
X152603082Y-137639400D01*
X152603082Y-137639400D02*
X152531653Y-137567971D01*
X152531653Y-137567971D02*
X152460225Y-137425114D01*
X152460225Y-137425114D02*
X152460225Y-136996542D01*
X152460225Y-136996542D02*
X152531653Y-136853685D01*
X152531653Y-136853685D02*
X152603082Y-136782257D01*
X152603082Y-136782257D02*
X152745939Y-136710828D01*
X152745939Y-136710828D02*
X152960225Y-136710828D01*
X152960225Y-136710828D02*
X153103082Y-136782257D01*
X153103082Y-136782257D02*
X153174511Y-136853685D01*
X153174511Y-136853685D02*
X153245939Y-136996542D01*
X153245939Y-136996542D02*
X153245939Y-137425114D01*
X153245939Y-137425114D02*
X153174511Y-137567971D01*
X153174511Y-137567971D02*
X153103082Y-137639400D01*
X153103082Y-137639400D02*
X152960225Y-137710828D01*
X152960225Y-137710828D02*
X152745939Y-137710828D01*
X154531654Y-136710828D02*
X154531654Y-137710828D01*
X153888796Y-136710828D02*
X153888796Y-137496542D01*
X153888796Y-137496542D02*
X153960225Y-137639400D01*
X153960225Y-137639400D02*
X154103082Y-137710828D01*
X154103082Y-137710828D02*
X154317368Y-137710828D01*
X154317368Y-137710828D02*
X154460225Y-137639400D01*
X154460225Y-137639400D02*
X154531654Y-137567971D01*
X155888797Y-137710828D02*
X155888797Y-136210828D01*
X155888797Y-137639400D02*
X155745939Y-137710828D01*
X155745939Y-137710828D02*
X155460225Y-137710828D01*
X155460225Y-137710828D02*
X155317368Y-137639400D01*
X155317368Y-137639400D02*
X155245939Y-137567971D01*
X155245939Y-137567971D02*
X155174511Y-137425114D01*
X155174511Y-137425114D02*
X155174511Y-136996542D01*
X155174511Y-136996542D02*
X155245939Y-136853685D01*
X155245939Y-136853685D02*
X155317368Y-136782257D01*
X155317368Y-136782257D02*
X155460225Y-136710828D01*
X155460225Y-136710828D02*
X155745939Y-136710828D01*
X155745939Y-136710828D02*
X155888797Y-136782257D01*
X83023082Y-135044484D02*
X83237368Y-135115912D01*
X83237368Y-135115912D02*
X83594510Y-135115912D01*
X83594510Y-135115912D02*
X83737368Y-135044484D01*
X83737368Y-135044484D02*
X83808796Y-134973055D01*
X83808796Y-134973055D02*
X83880225Y-134830198D01*
X83880225Y-134830198D02*
X83880225Y-134687341D01*
X83880225Y-134687341D02*
X83808796Y-134544484D01*
X83808796Y-134544484D02*
X83737368Y-134473055D01*
X83737368Y-134473055D02*
X83594510Y-134401626D01*
X83594510Y-134401626D02*
X83308796Y-134330198D01*
X83308796Y-134330198D02*
X83165939Y-134258769D01*
X83165939Y-134258769D02*
X83094510Y-134187341D01*
X83094510Y-134187341D02*
X83023082Y-134044484D01*
X83023082Y-134044484D02*
X83023082Y-133901626D01*
X83023082Y-133901626D02*
X83094510Y-133758769D01*
X83094510Y-133758769D02*
X83165939Y-133687341D01*
X83165939Y-133687341D02*
X83308796Y-133615912D01*
X83308796Y-133615912D02*
X83665939Y-133615912D01*
X83665939Y-133615912D02*
X83880225Y-133687341D01*
X84737367Y-135115912D02*
X84594510Y-135044484D01*
X84594510Y-135044484D02*
X84523081Y-134973055D01*
X84523081Y-134973055D02*
X84451653Y-134830198D01*
X84451653Y-134830198D02*
X84451653Y-134401626D01*
X84451653Y-134401626D02*
X84523081Y-134258769D01*
X84523081Y-134258769D02*
X84594510Y-134187341D01*
X84594510Y-134187341D02*
X84737367Y-134115912D01*
X84737367Y-134115912D02*
X84951653Y-134115912D01*
X84951653Y-134115912D02*
X85094510Y-134187341D01*
X85094510Y-134187341D02*
X85165939Y-134258769D01*
X85165939Y-134258769D02*
X85237367Y-134401626D01*
X85237367Y-134401626D02*
X85237367Y-134830198D01*
X85237367Y-134830198D02*
X85165939Y-134973055D01*
X85165939Y-134973055D02*
X85094510Y-135044484D01*
X85094510Y-135044484D02*
X84951653Y-135115912D01*
X84951653Y-135115912D02*
X84737367Y-135115912D01*
X86094510Y-135115912D02*
X85951653Y-135044484D01*
X85951653Y-135044484D02*
X85880224Y-134901626D01*
X85880224Y-134901626D02*
X85880224Y-133615912D01*
X87308796Y-135115912D02*
X87308796Y-134330198D01*
X87308796Y-134330198D02*
X87237367Y-134187341D01*
X87237367Y-134187341D02*
X87094510Y-134115912D01*
X87094510Y-134115912D02*
X86808796Y-134115912D01*
X86808796Y-134115912D02*
X86665938Y-134187341D01*
X87308796Y-135044484D02*
X87165938Y-135115912D01*
X87165938Y-135115912D02*
X86808796Y-135115912D01*
X86808796Y-135115912D02*
X86665938Y-135044484D01*
X86665938Y-135044484D02*
X86594510Y-134901626D01*
X86594510Y-134901626D02*
X86594510Y-134758769D01*
X86594510Y-134758769D02*
X86665938Y-134615912D01*
X86665938Y-134615912D02*
X86808796Y-134544484D01*
X86808796Y-134544484D02*
X87165938Y-134544484D01*
X87165938Y-134544484D02*
X87308796Y-134473055D01*
X88023081Y-135115912D02*
X88023081Y-134115912D01*
X88023081Y-134401626D02*
X88094510Y-134258769D01*
X88094510Y-134258769D02*
X88165939Y-134187341D01*
X88165939Y-134187341D02*
X88308796Y-134115912D01*
X88308796Y-134115912D02*
X88451653Y-134115912D01*
X89880224Y-133615912D02*
X90737367Y-133615912D01*
X90308795Y-135115912D02*
X90308795Y-133615912D01*
X91237366Y-135115912D02*
X91237366Y-134115912D01*
X91237366Y-134401626D02*
X91308795Y-134258769D01*
X91308795Y-134258769D02*
X91380224Y-134187341D01*
X91380224Y-134187341D02*
X91523081Y-134115912D01*
X91523081Y-134115912D02*
X91665938Y-134115912D01*
X92808795Y-135115912D02*
X92808795Y-134330198D01*
X92808795Y-134330198D02*
X92737366Y-134187341D01*
X92737366Y-134187341D02*
X92594509Y-134115912D01*
X92594509Y-134115912D02*
X92308795Y-134115912D01*
X92308795Y-134115912D02*
X92165937Y-134187341D01*
X92808795Y-135044484D02*
X92665937Y-135115912D01*
X92665937Y-135115912D02*
X92308795Y-135115912D01*
X92308795Y-135115912D02*
X92165937Y-135044484D01*
X92165937Y-135044484D02*
X92094509Y-134901626D01*
X92094509Y-134901626D02*
X92094509Y-134758769D01*
X92094509Y-134758769D02*
X92165937Y-134615912D01*
X92165937Y-134615912D02*
X92308795Y-134544484D01*
X92308795Y-134544484D02*
X92665937Y-134544484D01*
X92665937Y-134544484D02*
X92808795Y-134473055D01*
X94165938Y-135044484D02*
X94023080Y-135115912D01*
X94023080Y-135115912D02*
X93737366Y-135115912D01*
X93737366Y-135115912D02*
X93594509Y-135044484D01*
X93594509Y-135044484D02*
X93523080Y-134973055D01*
X93523080Y-134973055D02*
X93451652Y-134830198D01*
X93451652Y-134830198D02*
X93451652Y-134401626D01*
X93451652Y-134401626D02*
X93523080Y-134258769D01*
X93523080Y-134258769D02*
X93594509Y-134187341D01*
X93594509Y-134187341D02*
X93737366Y-134115912D01*
X93737366Y-134115912D02*
X94023080Y-134115912D01*
X94023080Y-134115912D02*
X94165938Y-134187341D01*
X94808794Y-135115912D02*
X94808794Y-133615912D01*
X94951652Y-134544484D02*
X95380223Y-135115912D01*
X95380223Y-134115912D02*
X94808794Y-134687341D01*
X96594509Y-135044484D02*
X96451652Y-135115912D01*
X96451652Y-135115912D02*
X96165938Y-135115912D01*
X96165938Y-135115912D02*
X96023080Y-135044484D01*
X96023080Y-135044484D02*
X95951652Y-134901626D01*
X95951652Y-134901626D02*
X95951652Y-134330198D01*
X95951652Y-134330198D02*
X96023080Y-134187341D01*
X96023080Y-134187341D02*
X96165938Y-134115912D01*
X96165938Y-134115912D02*
X96451652Y-134115912D01*
X96451652Y-134115912D02*
X96594509Y-134187341D01*
X96594509Y-134187341D02*
X96665938Y-134330198D01*
X96665938Y-134330198D02*
X96665938Y-134473055D01*
X96665938Y-134473055D02*
X95951652Y-134615912D01*
X97308794Y-135115912D02*
X97308794Y-134115912D01*
X97308794Y-134401626D02*
X97380223Y-134258769D01*
X97380223Y-134258769D02*
X97451652Y-134187341D01*
X97451652Y-134187341D02*
X97594509Y-134115912D01*
X97594509Y-134115912D02*
X97737366Y-134115912D01*
X83094510Y-137530828D02*
X83094510Y-136030828D01*
X83094510Y-136030828D02*
X83665939Y-136030828D01*
X83665939Y-136030828D02*
X83808796Y-136102257D01*
X83808796Y-136102257D02*
X83880225Y-136173685D01*
X83880225Y-136173685D02*
X83951653Y-136316542D01*
X83951653Y-136316542D02*
X83951653Y-136530828D01*
X83951653Y-136530828D02*
X83880225Y-136673685D01*
X83880225Y-136673685D02*
X83808796Y-136745114D01*
X83808796Y-136745114D02*
X83665939Y-136816542D01*
X83665939Y-136816542D02*
X83094510Y-136816542D01*
X85451653Y-137387971D02*
X85380225Y-137459400D01*
X85380225Y-137459400D02*
X85165939Y-137530828D01*
X85165939Y-137530828D02*
X85023082Y-137530828D01*
X85023082Y-137530828D02*
X84808796Y-137459400D01*
X84808796Y-137459400D02*
X84665939Y-137316542D01*
X84665939Y-137316542D02*
X84594510Y-137173685D01*
X84594510Y-137173685D02*
X84523082Y-136887971D01*
X84523082Y-136887971D02*
X84523082Y-136673685D01*
X84523082Y-136673685D02*
X84594510Y-136387971D01*
X84594510Y-136387971D02*
X84665939Y-136245114D01*
X84665939Y-136245114D02*
X84808796Y-136102257D01*
X84808796Y-136102257D02*
X85023082Y-136030828D01*
X85023082Y-136030828D02*
X85165939Y-136030828D01*
X85165939Y-136030828D02*
X85380225Y-136102257D01*
X85380225Y-136102257D02*
X85451653Y-136173685D01*
X86594510Y-136745114D02*
X86808796Y-136816542D01*
X86808796Y-136816542D02*
X86880225Y-136887971D01*
X86880225Y-136887971D02*
X86951653Y-137030828D01*
X86951653Y-137030828D02*
X86951653Y-137245114D01*
X86951653Y-137245114D02*
X86880225Y-137387971D01*
X86880225Y-137387971D02*
X86808796Y-137459400D01*
X86808796Y-137459400D02*
X86665939Y-137530828D01*
X86665939Y-137530828D02*
X86094510Y-137530828D01*
X86094510Y-137530828D02*
X86094510Y-136030828D01*
X86094510Y-136030828D02*
X86594510Y-136030828D01*
X86594510Y-136030828D02*
X86737368Y-136102257D01*
X86737368Y-136102257D02*
X86808796Y-136173685D01*
X86808796Y-136173685D02*
X86880225Y-136316542D01*
X86880225Y-136316542D02*
X86880225Y-136459400D01*
X86880225Y-136459400D02*
X86808796Y-136602257D01*
X86808796Y-136602257D02*
X86737368Y-136673685D01*
X86737368Y-136673685D02*
X86594510Y-136745114D01*
X86594510Y-136745114D02*
X86094510Y-136745114D01*
X88737367Y-137530828D02*
X88737367Y-136030828D01*
X88737367Y-136030828D02*
X89237367Y-137102257D01*
X89237367Y-137102257D02*
X89737367Y-136030828D01*
X89737367Y-136030828D02*
X89737367Y-137530828D01*
X91094511Y-137530828D02*
X91094511Y-136745114D01*
X91094511Y-136745114D02*
X91023082Y-136602257D01*
X91023082Y-136602257D02*
X90880225Y-136530828D01*
X90880225Y-136530828D02*
X90594511Y-136530828D01*
X90594511Y-136530828D02*
X90451653Y-136602257D01*
X91094511Y-137459400D02*
X90951653Y-137530828D01*
X90951653Y-137530828D02*
X90594511Y-137530828D01*
X90594511Y-137530828D02*
X90451653Y-137459400D01*
X90451653Y-137459400D02*
X90380225Y-137316542D01*
X90380225Y-137316542D02*
X90380225Y-137173685D01*
X90380225Y-137173685D02*
X90451653Y-137030828D01*
X90451653Y-137030828D02*
X90594511Y-136959400D01*
X90594511Y-136959400D02*
X90951653Y-136959400D01*
X90951653Y-136959400D02*
X91094511Y-136887971D01*
X91808796Y-137530828D02*
X91808796Y-136530828D01*
X91808796Y-136030828D02*
X91737368Y-136102257D01*
X91737368Y-136102257D02*
X91808796Y-136173685D01*
X91808796Y-136173685D02*
X91880225Y-136102257D01*
X91880225Y-136102257D02*
X91808796Y-136030828D01*
X91808796Y-136030828D02*
X91808796Y-136173685D01*
X92523082Y-136530828D02*
X92523082Y-137530828D01*
X92523082Y-136673685D02*
X92594511Y-136602257D01*
X92594511Y-136602257D02*
X92737368Y-136530828D01*
X92737368Y-136530828D02*
X92951654Y-136530828D01*
X92951654Y-136530828D02*
X93094511Y-136602257D01*
X93094511Y-136602257D02*
X93165940Y-136745114D01*
X93165940Y-136745114D02*
X93165940Y-137530828D01*
X94808797Y-136030828D02*
X95308797Y-137530828D01*
X95308797Y-137530828D02*
X95808797Y-136030828D01*
X97094511Y-137530828D02*
X96237368Y-137530828D01*
X96665939Y-137530828D02*
X96665939Y-136030828D01*
X96665939Y-136030828D02*
X96523082Y-136245114D01*
X96523082Y-136245114D02*
X96380225Y-136387971D01*
X96380225Y-136387971D02*
X96237368Y-136459400D01*
D10*
X157627693Y-109620038D02*
X157532455Y-109572419D01*
X157532455Y-109572419D02*
X157389598Y-109572419D01*
X157389598Y-109572419D02*
X157246741Y-109620038D01*
X157246741Y-109620038D02*
X157151503Y-109715276D01*
X157151503Y-109715276D02*
X157103884Y-109810514D01*
X157103884Y-109810514D02*
X157056265Y-110000990D01*
X157056265Y-110000990D02*
X157056265Y-110143847D01*
X157056265Y-110143847D02*
X157103884Y-110334323D01*
X157103884Y-110334323D02*
X157151503Y-110429561D01*
X157151503Y-110429561D02*
X157246741Y-110524800D01*
X157246741Y-110524800D02*
X157389598Y-110572419D01*
X157389598Y-110572419D02*
X157484836Y-110572419D01*
X157484836Y-110572419D02*
X157627693Y-110524800D01*
X157627693Y-110524800D02*
X157675312Y-110477180D01*
X157675312Y-110477180D02*
X157675312Y-110143847D01*
X157675312Y-110143847D02*
X157484836Y-110143847D01*
X158103884Y-110572419D02*
X158103884Y-109572419D01*
X158103884Y-109572419D02*
X158675312Y-110572419D01*
X158675312Y-110572419D02*
X158675312Y-109572419D01*
X159151503Y-110572419D02*
X159151503Y-109572419D01*
X159151503Y-109572419D02*
X159389598Y-109572419D01*
X159389598Y-109572419D02*
X159532455Y-109620038D01*
X159532455Y-109620038D02*
X159627693Y-109715276D01*
X159627693Y-109715276D02*
X159675312Y-109810514D01*
X159675312Y-109810514D02*
X159722931Y-110000990D01*
X159722931Y-110000990D02*
X159722931Y-110143847D01*
X159722931Y-110143847D02*
X159675312Y-110334323D01*
X159675312Y-110334323D02*
X159627693Y-110429561D01*
X159627693Y-110429561D02*
X159532455Y-110524800D01*
X159532455Y-110524800D02*
X159389598Y-110572419D01*
X159389598Y-110572419D02*
X159151503Y-110572419D01*
X93087217Y-65548609D02*
X93230074Y-65596228D01*
X93230074Y-65596228D02*
X93277693Y-65643847D01*
X93277693Y-65643847D02*
X93325312Y-65739085D01*
X93325312Y-65739085D02*
X93325312Y-65881942D01*
X93325312Y-65881942D02*
X93277693Y-65977180D01*
X93277693Y-65977180D02*
X93230074Y-66024800D01*
X93230074Y-66024800D02*
X93134836Y-66072419D01*
X93134836Y-66072419D02*
X92753884Y-66072419D01*
X92753884Y-66072419D02*
X92753884Y-65072419D01*
X92753884Y-65072419D02*
X93087217Y-65072419D01*
X93087217Y-65072419D02*
X93182455Y-65120038D01*
X93182455Y-65120038D02*
X93230074Y-65167657D01*
X93230074Y-65167657D02*
X93277693Y-65262895D01*
X93277693Y-65262895D02*
X93277693Y-65358133D01*
X93277693Y-65358133D02*
X93230074Y-65453371D01*
X93230074Y-65453371D02*
X93182455Y-65500990D01*
X93182455Y-65500990D02*
X93087217Y-65548609D01*
X93087217Y-65548609D02*
X92753884Y-65548609D01*
X93944360Y-65072419D02*
X94134836Y-65072419D01*
X94134836Y-65072419D02*
X94230074Y-65120038D01*
X94230074Y-65120038D02*
X94325312Y-65215276D01*
X94325312Y-65215276D02*
X94372931Y-65405752D01*
X94372931Y-65405752D02*
X94372931Y-65739085D01*
X94372931Y-65739085D02*
X94325312Y-65929561D01*
X94325312Y-65929561D02*
X94230074Y-66024800D01*
X94230074Y-66024800D02*
X94134836Y-66072419D01*
X94134836Y-66072419D02*
X93944360Y-66072419D01*
X93944360Y-66072419D02*
X93849122Y-66024800D01*
X93849122Y-66024800D02*
X93753884Y-65929561D01*
X93753884Y-65929561D02*
X93706265Y-65739085D01*
X93706265Y-65739085D02*
X93706265Y-65405752D01*
X93706265Y-65405752D02*
X93753884Y-65215276D01*
X93753884Y-65215276D02*
X93849122Y-65120038D01*
X93849122Y-65120038D02*
X93944360Y-65072419D01*
X94991979Y-65072419D02*
X95182455Y-65072419D01*
X95182455Y-65072419D02*
X95277693Y-65120038D01*
X95277693Y-65120038D02*
X95372931Y-65215276D01*
X95372931Y-65215276D02*
X95420550Y-65405752D01*
X95420550Y-65405752D02*
X95420550Y-65739085D01*
X95420550Y-65739085D02*
X95372931Y-65929561D01*
X95372931Y-65929561D02*
X95277693Y-66024800D01*
X95277693Y-66024800D02*
X95182455Y-66072419D01*
X95182455Y-66072419D02*
X94991979Y-66072419D01*
X94991979Y-66072419D02*
X94896741Y-66024800D01*
X94896741Y-66024800D02*
X94801503Y-65929561D01*
X94801503Y-65929561D02*
X94753884Y-65739085D01*
X94753884Y-65739085D02*
X94753884Y-65405752D01*
X94753884Y-65405752D02*
X94801503Y-65215276D01*
X94801503Y-65215276D02*
X94896741Y-65120038D01*
X94896741Y-65120038D02*
X94991979Y-65072419D01*
X95706265Y-65072419D02*
X96277693Y-65072419D01*
X95991979Y-66072419D02*
X95991979Y-65072419D01*
D12*
X161016318Y-79123332D02*
X161923461Y-79123332D01*
X161923461Y-79123332D02*
X162104889Y-79183809D01*
X162104889Y-79183809D02*
X162225842Y-79304761D01*
X162225842Y-79304761D02*
X162286318Y-79486190D01*
X162286318Y-79486190D02*
X162286318Y-79607142D01*
X162286318Y-78458094D02*
X162286318Y-78216190D01*
X162286318Y-78216190D02*
X162225842Y-78095237D01*
X162225842Y-78095237D02*
X162165365Y-78034761D01*
X162165365Y-78034761D02*
X161983937Y-77913809D01*
X161983937Y-77913809D02*
X161742032Y-77853332D01*
X161742032Y-77853332D02*
X161258222Y-77853332D01*
X161258222Y-77853332D02*
X161137270Y-77913809D01*
X161137270Y-77913809D02*
X161076794Y-77974285D01*
X161076794Y-77974285D02*
X161016318Y-78095237D01*
X161016318Y-78095237D02*
X161016318Y-78337142D01*
X161016318Y-78337142D02*
X161076794Y-78458094D01*
X161076794Y-78458094D02*
X161137270Y-78518571D01*
X161137270Y-78518571D02*
X161258222Y-78579047D01*
X161258222Y-78579047D02*
X161560603Y-78579047D01*
X161560603Y-78579047D02*
X161681556Y-78518571D01*
X161681556Y-78518571D02*
X161742032Y-78458094D01*
X161742032Y-78458094D02*
X161802508Y-78337142D01*
X161802508Y-78337142D02*
X161802508Y-78095237D01*
X161802508Y-78095237D02*
X161742032Y-77974285D01*
X161742032Y-77974285D02*
X161681556Y-77913809D01*
X161681556Y-77913809D02*
X161560603Y-77853332D01*
D13*
X78814819Y-59834166D02*
X78338628Y-60167499D01*
X78814819Y-60405594D02*
X77814819Y-60405594D01*
X77814819Y-60405594D02*
X77814819Y-60024642D01*
X77814819Y-60024642D02*
X77862438Y-59929404D01*
X77862438Y-59929404D02*
X77910057Y-59881785D01*
X77910057Y-59881785D02*
X78005295Y-59834166D01*
X78005295Y-59834166D02*
X78148152Y-59834166D01*
X78148152Y-59834166D02*
X78243390Y-59881785D01*
X78243390Y-59881785D02*
X78291009Y-59929404D01*
X78291009Y-59929404D02*
X78338628Y-60024642D01*
X78338628Y-60024642D02*
X78338628Y-60405594D01*
X77910057Y-59453213D02*
X77862438Y-59405594D01*
X77862438Y-59405594D02*
X77814819Y-59310356D01*
X77814819Y-59310356D02*
X77814819Y-59072261D01*
X77814819Y-59072261D02*
X77862438Y-58977023D01*
X77862438Y-58977023D02*
X77910057Y-58929404D01*
X77910057Y-58929404D02*
X78005295Y-58881785D01*
X78005295Y-58881785D02*
X78100533Y-58881785D01*
X78100533Y-58881785D02*
X78243390Y-58929404D01*
X78243390Y-58929404D02*
X78814819Y-59500832D01*
X78814819Y-59500832D02*
X78814819Y-58881785D01*
X146393333Y-46459580D02*
X146345714Y-46507200D01*
X146345714Y-46507200D02*
X146202857Y-46554819D01*
X146202857Y-46554819D02*
X146107619Y-46554819D01*
X146107619Y-46554819D02*
X145964762Y-46507200D01*
X145964762Y-46507200D02*
X145869524Y-46411961D01*
X145869524Y-46411961D02*
X145821905Y-46316723D01*
X145821905Y-46316723D02*
X145774286Y-46126247D01*
X145774286Y-46126247D02*
X145774286Y-45983390D01*
X145774286Y-45983390D02*
X145821905Y-45792914D01*
X145821905Y-45792914D02*
X145869524Y-45697676D01*
X145869524Y-45697676D02*
X145964762Y-45602438D01*
X145964762Y-45602438D02*
X146107619Y-45554819D01*
X146107619Y-45554819D02*
X146202857Y-45554819D01*
X146202857Y-45554819D02*
X146345714Y-45602438D01*
X146345714Y-45602438D02*
X146393333Y-45650057D01*
X146726667Y-45554819D02*
X147393333Y-45554819D01*
X147393333Y-45554819D02*
X146964762Y-46554819D01*
X81847142Y-79099580D02*
X81799523Y-79147200D01*
X81799523Y-79147200D02*
X81656666Y-79194819D01*
X81656666Y-79194819D02*
X81561428Y-79194819D01*
X81561428Y-79194819D02*
X81418571Y-79147200D01*
X81418571Y-79147200D02*
X81323333Y-79051961D01*
X81323333Y-79051961D02*
X81275714Y-78956723D01*
X81275714Y-78956723D02*
X81228095Y-78766247D01*
X81228095Y-78766247D02*
X81228095Y-78623390D01*
X81228095Y-78623390D02*
X81275714Y-78432914D01*
X81275714Y-78432914D02*
X81323333Y-78337676D01*
X81323333Y-78337676D02*
X81418571Y-78242438D01*
X81418571Y-78242438D02*
X81561428Y-78194819D01*
X81561428Y-78194819D02*
X81656666Y-78194819D01*
X81656666Y-78194819D02*
X81799523Y-78242438D01*
X81799523Y-78242438D02*
X81847142Y-78290057D01*
X82228095Y-78290057D02*
X82275714Y-78242438D01*
X82275714Y-78242438D02*
X82370952Y-78194819D01*
X82370952Y-78194819D02*
X82609047Y-78194819D01*
X82609047Y-78194819D02*
X82704285Y-78242438D01*
X82704285Y-78242438D02*
X82751904Y-78290057D01*
X82751904Y-78290057D02*
X82799523Y-78385295D01*
X82799523Y-78385295D02*
X82799523Y-78480533D01*
X82799523Y-78480533D02*
X82751904Y-78623390D01*
X82751904Y-78623390D02*
X82180476Y-79194819D01*
X82180476Y-79194819D02*
X82799523Y-79194819D01*
X83418571Y-78194819D02*
X83513809Y-78194819D01*
X83513809Y-78194819D02*
X83609047Y-78242438D01*
X83609047Y-78242438D02*
X83656666Y-78290057D01*
X83656666Y-78290057D02*
X83704285Y-78385295D01*
X83704285Y-78385295D02*
X83751904Y-78575771D01*
X83751904Y-78575771D02*
X83751904Y-78813866D01*
X83751904Y-78813866D02*
X83704285Y-79004342D01*
X83704285Y-79004342D02*
X83656666Y-79099580D01*
X83656666Y-79099580D02*
X83609047Y-79147200D01*
X83609047Y-79147200D02*
X83513809Y-79194819D01*
X83513809Y-79194819D02*
X83418571Y-79194819D01*
X83418571Y-79194819D02*
X83323333Y-79147200D01*
X83323333Y-79147200D02*
X83275714Y-79099580D01*
X83275714Y-79099580D02*
X83228095Y-79004342D01*
X83228095Y-79004342D02*
X83180476Y-78813866D01*
X83180476Y-78813866D02*
X83180476Y-78575771D01*
X83180476Y-78575771D02*
X83228095Y-78385295D01*
X83228095Y-78385295D02*
X83275714Y-78290057D01*
X83275714Y-78290057D02*
X83323333Y-78242438D01*
X83323333Y-78242438D02*
X83418571Y-78194819D01*
X86059580Y-65262857D02*
X86107200Y-65310476D01*
X86107200Y-65310476D02*
X86154819Y-65453333D01*
X86154819Y-65453333D02*
X86154819Y-65548571D01*
X86154819Y-65548571D02*
X86107200Y-65691428D01*
X86107200Y-65691428D02*
X86011961Y-65786666D01*
X86011961Y-65786666D02*
X85916723Y-65834285D01*
X85916723Y-65834285D02*
X85726247Y-65881904D01*
X85726247Y-65881904D02*
X85583390Y-65881904D01*
X85583390Y-65881904D02*
X85392914Y-65834285D01*
X85392914Y-65834285D02*
X85297676Y-65786666D01*
X85297676Y-65786666D02*
X85202438Y-65691428D01*
X85202438Y-65691428D02*
X85154819Y-65548571D01*
X85154819Y-65548571D02*
X85154819Y-65453333D01*
X85154819Y-65453333D02*
X85202438Y-65310476D01*
X85202438Y-65310476D02*
X85250057Y-65262857D01*
X85250057Y-64881904D02*
X85202438Y-64834285D01*
X85202438Y-64834285D02*
X85154819Y-64739047D01*
X85154819Y-64739047D02*
X85154819Y-64500952D01*
X85154819Y-64500952D02*
X85202438Y-64405714D01*
X85202438Y-64405714D02*
X85250057Y-64358095D01*
X85250057Y-64358095D02*
X85345295Y-64310476D01*
X85345295Y-64310476D02*
X85440533Y-64310476D01*
X85440533Y-64310476D02*
X85583390Y-64358095D01*
X85583390Y-64358095D02*
X86154819Y-64929523D01*
X86154819Y-64929523D02*
X86154819Y-64310476D01*
X86154819Y-63358095D02*
X86154819Y-63929523D01*
X86154819Y-63643809D02*
X85154819Y-63643809D01*
X85154819Y-63643809D02*
X85297676Y-63739047D01*
X85297676Y-63739047D02*
X85392914Y-63834285D01*
X85392914Y-63834285D02*
X85440533Y-63929523D01*
X124919580Y-93216666D02*
X124967200Y-93264285D01*
X124967200Y-93264285D02*
X125014819Y-93407142D01*
X125014819Y-93407142D02*
X125014819Y-93502380D01*
X125014819Y-93502380D02*
X124967200Y-93645237D01*
X124967200Y-93645237D02*
X124871961Y-93740475D01*
X124871961Y-93740475D02*
X124776723Y-93788094D01*
X124776723Y-93788094D02*
X124586247Y-93835713D01*
X124586247Y-93835713D02*
X124443390Y-93835713D01*
X124443390Y-93835713D02*
X124252914Y-93788094D01*
X124252914Y-93788094D02*
X124157676Y-93740475D01*
X124157676Y-93740475D02*
X124062438Y-93645237D01*
X124062438Y-93645237D02*
X124014819Y-93502380D01*
X124014819Y-93502380D02*
X124014819Y-93407142D01*
X124014819Y-93407142D02*
X124062438Y-93264285D01*
X124062438Y-93264285D02*
X124110057Y-93216666D01*
X124014819Y-92311904D02*
X124014819Y-92788094D01*
X124014819Y-92788094D02*
X124491009Y-92835713D01*
X124491009Y-92835713D02*
X124443390Y-92788094D01*
X124443390Y-92788094D02*
X124395771Y-92692856D01*
X124395771Y-92692856D02*
X124395771Y-92454761D01*
X124395771Y-92454761D02*
X124443390Y-92359523D01*
X124443390Y-92359523D02*
X124491009Y-92311904D01*
X124491009Y-92311904D02*
X124586247Y-92264285D01*
X124586247Y-92264285D02*
X124824342Y-92264285D01*
X124824342Y-92264285D02*
X124919580Y-92311904D01*
X124919580Y-92311904D02*
X124967200Y-92359523D01*
X124967200Y-92359523D02*
X125014819Y-92454761D01*
X125014819Y-92454761D02*
X125014819Y-92692856D01*
X125014819Y-92692856D02*
X124967200Y-92788094D01*
X124967200Y-92788094D02*
X124919580Y-92835713D01*
X112254819Y-75342857D02*
X111778628Y-75676190D01*
X112254819Y-75914285D02*
X111254819Y-75914285D01*
X111254819Y-75914285D02*
X111254819Y-75533333D01*
X111254819Y-75533333D02*
X111302438Y-75438095D01*
X111302438Y-75438095D02*
X111350057Y-75390476D01*
X111350057Y-75390476D02*
X111445295Y-75342857D01*
X111445295Y-75342857D02*
X111588152Y-75342857D01*
X111588152Y-75342857D02*
X111683390Y-75390476D01*
X111683390Y-75390476D02*
X111731009Y-75438095D01*
X111731009Y-75438095D02*
X111778628Y-75533333D01*
X111778628Y-75533333D02*
X111778628Y-75914285D01*
X112254819Y-74390476D02*
X112254819Y-74961904D01*
X112254819Y-74676190D02*
X111254819Y-74676190D01*
X111254819Y-74676190D02*
X111397676Y-74771428D01*
X111397676Y-74771428D02*
X111492914Y-74866666D01*
X111492914Y-74866666D02*
X111540533Y-74961904D01*
X111254819Y-73533333D02*
X111254819Y-73723809D01*
X111254819Y-73723809D02*
X111302438Y-73819047D01*
X111302438Y-73819047D02*
X111350057Y-73866666D01*
X111350057Y-73866666D02*
X111492914Y-73961904D01*
X111492914Y-73961904D02*
X111683390Y-74009523D01*
X111683390Y-74009523D02*
X112064342Y-74009523D01*
X112064342Y-74009523D02*
X112159580Y-73961904D01*
X112159580Y-73961904D02*
X112207200Y-73914285D01*
X112207200Y-73914285D02*
X112254819Y-73819047D01*
X112254819Y-73819047D02*
X112254819Y-73628571D01*
X112254819Y-73628571D02*
X112207200Y-73533333D01*
X112207200Y-73533333D02*
X112159580Y-73485714D01*
X112159580Y-73485714D02*
X112064342Y-73438095D01*
X112064342Y-73438095D02*
X111826247Y-73438095D01*
X111826247Y-73438095D02*
X111731009Y-73485714D01*
X111731009Y-73485714D02*
X111683390Y-73533333D01*
X111683390Y-73533333D02*
X111635771Y-73628571D01*
X111635771Y-73628571D02*
X111635771Y-73819047D01*
X111635771Y-73819047D02*
X111683390Y-73914285D01*
X111683390Y-73914285D02*
X111731009Y-73961904D01*
X111731009Y-73961904D02*
X111826247Y-74009523D01*
X109283333Y-98089580D02*
X109235714Y-98137200D01*
X109235714Y-98137200D02*
X109092857Y-98184819D01*
X109092857Y-98184819D02*
X108997619Y-98184819D01*
X108997619Y-98184819D02*
X108854762Y-98137200D01*
X108854762Y-98137200D02*
X108759524Y-98041961D01*
X108759524Y-98041961D02*
X108711905Y-97946723D01*
X108711905Y-97946723D02*
X108664286Y-97756247D01*
X108664286Y-97756247D02*
X108664286Y-97613390D01*
X108664286Y-97613390D02*
X108711905Y-97422914D01*
X108711905Y-97422914D02*
X108759524Y-97327676D01*
X108759524Y-97327676D02*
X108854762Y-97232438D01*
X108854762Y-97232438D02*
X108997619Y-97184819D01*
X108997619Y-97184819D02*
X109092857Y-97184819D01*
X109092857Y-97184819D02*
X109235714Y-97232438D01*
X109235714Y-97232438D02*
X109283333Y-97280057D01*
X109616667Y-97184819D02*
X110235714Y-97184819D01*
X110235714Y-97184819D02*
X109902381Y-97565771D01*
X109902381Y-97565771D02*
X110045238Y-97565771D01*
X110045238Y-97565771D02*
X110140476Y-97613390D01*
X110140476Y-97613390D02*
X110188095Y-97661009D01*
X110188095Y-97661009D02*
X110235714Y-97756247D01*
X110235714Y-97756247D02*
X110235714Y-97994342D01*
X110235714Y-97994342D02*
X110188095Y-98089580D01*
X110188095Y-98089580D02*
X110140476Y-98137200D01*
X110140476Y-98137200D02*
X110045238Y-98184819D01*
X110045238Y-98184819D02*
X109759524Y-98184819D01*
X109759524Y-98184819D02*
X109664286Y-98137200D01*
X109664286Y-98137200D02*
X109616667Y-98089580D01*
X146363333Y-48399580D02*
X146315714Y-48447200D01*
X146315714Y-48447200D02*
X146172857Y-48494819D01*
X146172857Y-48494819D02*
X146077619Y-48494819D01*
X146077619Y-48494819D02*
X145934762Y-48447200D01*
X145934762Y-48447200D02*
X145839524Y-48351961D01*
X145839524Y-48351961D02*
X145791905Y-48256723D01*
X145791905Y-48256723D02*
X145744286Y-48066247D01*
X145744286Y-48066247D02*
X145744286Y-47923390D01*
X145744286Y-47923390D02*
X145791905Y-47732914D01*
X145791905Y-47732914D02*
X145839524Y-47637676D01*
X145839524Y-47637676D02*
X145934762Y-47542438D01*
X145934762Y-47542438D02*
X146077619Y-47494819D01*
X146077619Y-47494819D02*
X146172857Y-47494819D01*
X146172857Y-47494819D02*
X146315714Y-47542438D01*
X146315714Y-47542438D02*
X146363333Y-47590057D01*
X146839524Y-48494819D02*
X147030000Y-48494819D01*
X147030000Y-48494819D02*
X147125238Y-48447200D01*
X147125238Y-48447200D02*
X147172857Y-48399580D01*
X147172857Y-48399580D02*
X147268095Y-48256723D01*
X147268095Y-48256723D02*
X147315714Y-48066247D01*
X147315714Y-48066247D02*
X147315714Y-47685295D01*
X147315714Y-47685295D02*
X147268095Y-47590057D01*
X147268095Y-47590057D02*
X147220476Y-47542438D01*
X147220476Y-47542438D02*
X147125238Y-47494819D01*
X147125238Y-47494819D02*
X146934762Y-47494819D01*
X146934762Y-47494819D02*
X146839524Y-47542438D01*
X146839524Y-47542438D02*
X146791905Y-47590057D01*
X146791905Y-47590057D02*
X146744286Y-47685295D01*
X146744286Y-47685295D02*
X146744286Y-47923390D01*
X146744286Y-47923390D02*
X146791905Y-48018628D01*
X146791905Y-48018628D02*
X146839524Y-48066247D01*
X146839524Y-48066247D02*
X146934762Y-48113866D01*
X146934762Y-48113866D02*
X147125238Y-48113866D01*
X147125238Y-48113866D02*
X147220476Y-48066247D01*
X147220476Y-48066247D02*
X147268095Y-48018628D01*
X147268095Y-48018628D02*
X147315714Y-47923390D01*
X83169580Y-60960357D02*
X83217200Y-61007976D01*
X83217200Y-61007976D02*
X83264819Y-61150833D01*
X83264819Y-61150833D02*
X83264819Y-61246071D01*
X83264819Y-61246071D02*
X83217200Y-61388928D01*
X83217200Y-61388928D02*
X83121961Y-61484166D01*
X83121961Y-61484166D02*
X83026723Y-61531785D01*
X83026723Y-61531785D02*
X82836247Y-61579404D01*
X82836247Y-61579404D02*
X82693390Y-61579404D01*
X82693390Y-61579404D02*
X82502914Y-61531785D01*
X82502914Y-61531785D02*
X82407676Y-61484166D01*
X82407676Y-61484166D02*
X82312438Y-61388928D01*
X82312438Y-61388928D02*
X82264819Y-61246071D01*
X82264819Y-61246071D02*
X82264819Y-61150833D01*
X82264819Y-61150833D02*
X82312438Y-61007976D01*
X82312438Y-61007976D02*
X82360057Y-60960357D01*
X83264819Y-60007976D02*
X83264819Y-60579404D01*
X83264819Y-60293690D02*
X82264819Y-60293690D01*
X82264819Y-60293690D02*
X82407676Y-60388928D01*
X82407676Y-60388928D02*
X82502914Y-60484166D01*
X82502914Y-60484166D02*
X82550533Y-60579404D01*
X82693390Y-59436547D02*
X82645771Y-59531785D01*
X82645771Y-59531785D02*
X82598152Y-59579404D01*
X82598152Y-59579404D02*
X82502914Y-59627023D01*
X82502914Y-59627023D02*
X82455295Y-59627023D01*
X82455295Y-59627023D02*
X82360057Y-59579404D01*
X82360057Y-59579404D02*
X82312438Y-59531785D01*
X82312438Y-59531785D02*
X82264819Y-59436547D01*
X82264819Y-59436547D02*
X82264819Y-59246071D01*
X82264819Y-59246071D02*
X82312438Y-59150833D01*
X82312438Y-59150833D02*
X82360057Y-59103214D01*
X82360057Y-59103214D02*
X82455295Y-59055595D01*
X82455295Y-59055595D02*
X82502914Y-59055595D01*
X82502914Y-59055595D02*
X82598152Y-59103214D01*
X82598152Y-59103214D02*
X82645771Y-59150833D01*
X82645771Y-59150833D02*
X82693390Y-59246071D01*
X82693390Y-59246071D02*
X82693390Y-59436547D01*
X82693390Y-59436547D02*
X82741009Y-59531785D01*
X82741009Y-59531785D02*
X82788628Y-59579404D01*
X82788628Y-59579404D02*
X82883866Y-59627023D01*
X82883866Y-59627023D02*
X83074342Y-59627023D01*
X83074342Y-59627023D02*
X83169580Y-59579404D01*
X83169580Y-59579404D02*
X83217200Y-59531785D01*
X83217200Y-59531785D02*
X83264819Y-59436547D01*
X83264819Y-59436547D02*
X83264819Y-59246071D01*
X83264819Y-59246071D02*
X83217200Y-59150833D01*
X83217200Y-59150833D02*
X83169580Y-59103214D01*
X83169580Y-59103214D02*
X83074342Y-59055595D01*
X83074342Y-59055595D02*
X82883866Y-59055595D01*
X82883866Y-59055595D02*
X82788628Y-59103214D01*
X82788628Y-59103214D02*
X82741009Y-59150833D01*
X82741009Y-59150833D02*
X82693390Y-59246071D01*
D12*
X76614318Y-74859762D02*
X75344318Y-74859762D01*
X76493365Y-73529285D02*
X76553842Y-73589761D01*
X76553842Y-73589761D02*
X76614318Y-73771190D01*
X76614318Y-73771190D02*
X76614318Y-73892142D01*
X76614318Y-73892142D02*
X76553842Y-74073571D01*
X76553842Y-74073571D02*
X76432889Y-74194523D01*
X76432889Y-74194523D02*
X76311937Y-74255000D01*
X76311937Y-74255000D02*
X76070032Y-74315476D01*
X76070032Y-74315476D02*
X75888603Y-74315476D01*
X75888603Y-74315476D02*
X75646699Y-74255000D01*
X75646699Y-74255000D02*
X75525746Y-74194523D01*
X75525746Y-74194523D02*
X75404794Y-74073571D01*
X75404794Y-74073571D02*
X75344318Y-73892142D01*
X75344318Y-73892142D02*
X75344318Y-73771190D01*
X75344318Y-73771190D02*
X75404794Y-73589761D01*
X75404794Y-73589761D02*
X75465270Y-73529285D01*
X75344318Y-72440714D02*
X75344318Y-72682619D01*
X75344318Y-72682619D02*
X75404794Y-72803571D01*
X75404794Y-72803571D02*
X75465270Y-72864047D01*
X75465270Y-72864047D02*
X75646699Y-72985000D01*
X75646699Y-72985000D02*
X75888603Y-73045476D01*
X75888603Y-73045476D02*
X76372413Y-73045476D01*
X76372413Y-73045476D02*
X76493365Y-72985000D01*
X76493365Y-72985000D02*
X76553842Y-72924523D01*
X76553842Y-72924523D02*
X76614318Y-72803571D01*
X76614318Y-72803571D02*
X76614318Y-72561666D01*
X76614318Y-72561666D02*
X76553842Y-72440714D01*
X76553842Y-72440714D02*
X76493365Y-72380238D01*
X76493365Y-72380238D02*
X76372413Y-72319761D01*
X76372413Y-72319761D02*
X76070032Y-72319761D01*
X76070032Y-72319761D02*
X75949080Y-72380238D01*
X75949080Y-72380238D02*
X75888603Y-72440714D01*
X75888603Y-72440714D02*
X75828127Y-72561666D01*
X75828127Y-72561666D02*
X75828127Y-72803571D01*
X75828127Y-72803571D02*
X75888603Y-72924523D01*
X75888603Y-72924523D02*
X75949080Y-72985000D01*
X75949080Y-72985000D02*
X76070032Y-73045476D01*
D13*
X89222676Y-88234819D02*
X88889343Y-87758628D01*
X88651248Y-88234819D02*
X88651248Y-87234819D01*
X88651248Y-87234819D02*
X89032200Y-87234819D01*
X89032200Y-87234819D02*
X89127438Y-87282438D01*
X89127438Y-87282438D02*
X89175057Y-87330057D01*
X89175057Y-87330057D02*
X89222676Y-87425295D01*
X89222676Y-87425295D02*
X89222676Y-87568152D01*
X89222676Y-87568152D02*
X89175057Y-87663390D01*
X89175057Y-87663390D02*
X89127438Y-87711009D01*
X89127438Y-87711009D02*
X89032200Y-87758628D01*
X89032200Y-87758628D02*
X88651248Y-87758628D01*
X90175057Y-88234819D02*
X89603629Y-88234819D01*
X89889343Y-88234819D02*
X89889343Y-87234819D01*
X89889343Y-87234819D02*
X89794105Y-87377676D01*
X89794105Y-87377676D02*
X89698867Y-87472914D01*
X89698867Y-87472914D02*
X89603629Y-87520533D01*
X90746486Y-87663390D02*
X90651248Y-87615771D01*
X90651248Y-87615771D02*
X90603629Y-87568152D01*
X90603629Y-87568152D02*
X90556010Y-87472914D01*
X90556010Y-87472914D02*
X90556010Y-87425295D01*
X90556010Y-87425295D02*
X90603629Y-87330057D01*
X90603629Y-87330057D02*
X90651248Y-87282438D01*
X90651248Y-87282438D02*
X90746486Y-87234819D01*
X90746486Y-87234819D02*
X90936962Y-87234819D01*
X90936962Y-87234819D02*
X91032200Y-87282438D01*
X91032200Y-87282438D02*
X91079819Y-87330057D01*
X91079819Y-87330057D02*
X91127438Y-87425295D01*
X91127438Y-87425295D02*
X91127438Y-87472914D01*
X91127438Y-87472914D02*
X91079819Y-87568152D01*
X91079819Y-87568152D02*
X91032200Y-87615771D01*
X91032200Y-87615771D02*
X90936962Y-87663390D01*
X90936962Y-87663390D02*
X90746486Y-87663390D01*
X90746486Y-87663390D02*
X90651248Y-87711009D01*
X90651248Y-87711009D02*
X90603629Y-87758628D01*
X90603629Y-87758628D02*
X90556010Y-87853866D01*
X90556010Y-87853866D02*
X90556010Y-88044342D01*
X90556010Y-88044342D02*
X90603629Y-88139580D01*
X90603629Y-88139580D02*
X90651248Y-88187200D01*
X90651248Y-88187200D02*
X90746486Y-88234819D01*
X90746486Y-88234819D02*
X90936962Y-88234819D01*
X90936962Y-88234819D02*
X91032200Y-88187200D01*
X91032200Y-88187200D02*
X91079819Y-88139580D01*
X91079819Y-88139580D02*
X91127438Y-88044342D01*
X91127438Y-88044342D02*
X91127438Y-87853866D01*
X91127438Y-87853866D02*
X91079819Y-87758628D01*
X91079819Y-87758628D02*
X91032200Y-87711009D01*
X91032200Y-87711009D02*
X90936962Y-87663390D01*
X116309580Y-75242857D02*
X116357200Y-75290476D01*
X116357200Y-75290476D02*
X116404819Y-75433333D01*
X116404819Y-75433333D02*
X116404819Y-75528571D01*
X116404819Y-75528571D02*
X116357200Y-75671428D01*
X116357200Y-75671428D02*
X116261961Y-75766666D01*
X116261961Y-75766666D02*
X116166723Y-75814285D01*
X116166723Y-75814285D02*
X115976247Y-75861904D01*
X115976247Y-75861904D02*
X115833390Y-75861904D01*
X115833390Y-75861904D02*
X115642914Y-75814285D01*
X115642914Y-75814285D02*
X115547676Y-75766666D01*
X115547676Y-75766666D02*
X115452438Y-75671428D01*
X115452438Y-75671428D02*
X115404819Y-75528571D01*
X115404819Y-75528571D02*
X115404819Y-75433333D01*
X115404819Y-75433333D02*
X115452438Y-75290476D01*
X115452438Y-75290476D02*
X115500057Y-75242857D01*
X116404819Y-74290476D02*
X116404819Y-74861904D01*
X116404819Y-74576190D02*
X115404819Y-74576190D01*
X115404819Y-74576190D02*
X115547676Y-74671428D01*
X115547676Y-74671428D02*
X115642914Y-74766666D01*
X115642914Y-74766666D02*
X115690533Y-74861904D01*
X115404819Y-73385714D02*
X115404819Y-73861904D01*
X115404819Y-73861904D02*
X115881009Y-73909523D01*
X115881009Y-73909523D02*
X115833390Y-73861904D01*
X115833390Y-73861904D02*
X115785771Y-73766666D01*
X115785771Y-73766666D02*
X115785771Y-73528571D01*
X115785771Y-73528571D02*
X115833390Y-73433333D01*
X115833390Y-73433333D02*
X115881009Y-73385714D01*
X115881009Y-73385714D02*
X115976247Y-73338095D01*
X115976247Y-73338095D02*
X116214342Y-73338095D01*
X116214342Y-73338095D02*
X116309580Y-73385714D01*
X116309580Y-73385714D02*
X116357200Y-73433333D01*
X116357200Y-73433333D02*
X116404819Y-73528571D01*
X116404819Y-73528571D02*
X116404819Y-73766666D01*
X116404819Y-73766666D02*
X116357200Y-73861904D01*
X116357200Y-73861904D02*
X116309580Y-73909523D01*
D12*
X76664818Y-86163332D02*
X77571961Y-86163332D01*
X77571961Y-86163332D02*
X77753389Y-86223809D01*
X77753389Y-86223809D02*
X77874342Y-86344761D01*
X77874342Y-86344761D02*
X77934818Y-86526190D01*
X77934818Y-86526190D02*
X77934818Y-86647142D01*
X76785770Y-85619047D02*
X76725294Y-85558571D01*
X76725294Y-85558571D02*
X76664818Y-85437618D01*
X76664818Y-85437618D02*
X76664818Y-85135237D01*
X76664818Y-85135237D02*
X76725294Y-85014285D01*
X76725294Y-85014285D02*
X76785770Y-84953809D01*
X76785770Y-84953809D02*
X76906722Y-84893332D01*
X76906722Y-84893332D02*
X77027675Y-84893332D01*
X77027675Y-84893332D02*
X77209103Y-84953809D01*
X77209103Y-84953809D02*
X77934818Y-85679523D01*
X77934818Y-85679523D02*
X77934818Y-84893332D01*
D13*
X80054819Y-65582857D02*
X79578628Y-65916190D01*
X80054819Y-66154285D02*
X79054819Y-66154285D01*
X79054819Y-66154285D02*
X79054819Y-65773333D01*
X79054819Y-65773333D02*
X79102438Y-65678095D01*
X79102438Y-65678095D02*
X79150057Y-65630476D01*
X79150057Y-65630476D02*
X79245295Y-65582857D01*
X79245295Y-65582857D02*
X79388152Y-65582857D01*
X79388152Y-65582857D02*
X79483390Y-65630476D01*
X79483390Y-65630476D02*
X79531009Y-65678095D01*
X79531009Y-65678095D02*
X79578628Y-65773333D01*
X79578628Y-65773333D02*
X79578628Y-66154285D01*
X80054819Y-64630476D02*
X80054819Y-65201904D01*
X80054819Y-64916190D02*
X79054819Y-64916190D01*
X79054819Y-64916190D02*
X79197676Y-65011428D01*
X79197676Y-65011428D02*
X79292914Y-65106666D01*
X79292914Y-65106666D02*
X79340533Y-65201904D01*
X79054819Y-63725714D02*
X79054819Y-64201904D01*
X79054819Y-64201904D02*
X79531009Y-64249523D01*
X79531009Y-64249523D02*
X79483390Y-64201904D01*
X79483390Y-64201904D02*
X79435771Y-64106666D01*
X79435771Y-64106666D02*
X79435771Y-63868571D01*
X79435771Y-63868571D02*
X79483390Y-63773333D01*
X79483390Y-63773333D02*
X79531009Y-63725714D01*
X79531009Y-63725714D02*
X79626247Y-63678095D01*
X79626247Y-63678095D02*
X79864342Y-63678095D01*
X79864342Y-63678095D02*
X79959580Y-63725714D01*
X79959580Y-63725714D02*
X80007200Y-63773333D01*
X80007200Y-63773333D02*
X80054819Y-63868571D01*
X80054819Y-63868571D02*
X80054819Y-64106666D01*
X80054819Y-64106666D02*
X80007200Y-64201904D01*
X80007200Y-64201904D02*
X79959580Y-64249523D01*
X89046610Y-85120885D02*
X88713277Y-84644694D01*
X88475182Y-85120885D02*
X88475182Y-84120885D01*
X88475182Y-84120885D02*
X88856134Y-84120885D01*
X88856134Y-84120885D02*
X88951372Y-84168504D01*
X88951372Y-84168504D02*
X88998991Y-84216123D01*
X88998991Y-84216123D02*
X89046610Y-84311361D01*
X89046610Y-84311361D02*
X89046610Y-84454218D01*
X89046610Y-84454218D02*
X88998991Y-84549456D01*
X88998991Y-84549456D02*
X88951372Y-84597075D01*
X88951372Y-84597075D02*
X88856134Y-84644694D01*
X88856134Y-84644694D02*
X88475182Y-84644694D01*
X89998991Y-85120885D02*
X89427563Y-85120885D01*
X89713277Y-85120885D02*
X89713277Y-84120885D01*
X89713277Y-84120885D02*
X89618039Y-84263742D01*
X89618039Y-84263742D02*
X89522801Y-84358980D01*
X89522801Y-84358980D02*
X89427563Y-84406599D01*
X90332325Y-84120885D02*
X90998991Y-84120885D01*
X90998991Y-84120885D02*
X90570420Y-85120885D01*
X142043333Y-59871069D02*
X141710000Y-59394878D01*
X141471905Y-59871069D02*
X141471905Y-58871069D01*
X141471905Y-58871069D02*
X141852857Y-58871069D01*
X141852857Y-58871069D02*
X141948095Y-58918688D01*
X141948095Y-58918688D02*
X141995714Y-58966307D01*
X141995714Y-58966307D02*
X142043333Y-59061545D01*
X142043333Y-59061545D02*
X142043333Y-59204402D01*
X142043333Y-59204402D02*
X141995714Y-59299640D01*
X141995714Y-59299640D02*
X141948095Y-59347259D01*
X141948095Y-59347259D02*
X141852857Y-59394878D01*
X141852857Y-59394878D02*
X141471905Y-59394878D01*
X142376667Y-58871069D02*
X143043333Y-58871069D01*
X143043333Y-58871069D02*
X142614762Y-59871069D01*
X114804819Y-105416666D02*
X114328628Y-105749999D01*
X114804819Y-105988094D02*
X113804819Y-105988094D01*
X113804819Y-105988094D02*
X113804819Y-105607142D01*
X113804819Y-105607142D02*
X113852438Y-105511904D01*
X113852438Y-105511904D02*
X113900057Y-105464285D01*
X113900057Y-105464285D02*
X113995295Y-105416666D01*
X113995295Y-105416666D02*
X114138152Y-105416666D01*
X114138152Y-105416666D02*
X114233390Y-105464285D01*
X114233390Y-105464285D02*
X114281009Y-105511904D01*
X114281009Y-105511904D02*
X114328628Y-105607142D01*
X114328628Y-105607142D02*
X114328628Y-105988094D01*
X114804819Y-104464285D02*
X114804819Y-105035713D01*
X114804819Y-104749999D02*
X113804819Y-104749999D01*
X113804819Y-104749999D02*
X113947676Y-104845237D01*
X113947676Y-104845237D02*
X114042914Y-104940475D01*
X114042914Y-104940475D02*
X114090533Y-105035713D01*
D12*
X94404318Y-70823332D02*
X95311461Y-70823332D01*
X95311461Y-70823332D02*
X95492889Y-70883809D01*
X95492889Y-70883809D02*
X95613842Y-71004761D01*
X95613842Y-71004761D02*
X95674318Y-71186190D01*
X95674318Y-71186190D02*
X95674318Y-71307142D01*
X94404318Y-69613809D02*
X94404318Y-70218571D01*
X94404318Y-70218571D02*
X95009080Y-70279047D01*
X95009080Y-70279047D02*
X94948603Y-70218571D01*
X94948603Y-70218571D02*
X94888127Y-70097618D01*
X94888127Y-70097618D02*
X94888127Y-69795237D01*
X94888127Y-69795237D02*
X94948603Y-69674285D01*
X94948603Y-69674285D02*
X95009080Y-69613809D01*
X95009080Y-69613809D02*
X95130032Y-69553332D01*
X95130032Y-69553332D02*
X95432413Y-69553332D01*
X95432413Y-69553332D02*
X95553365Y-69613809D01*
X95553365Y-69613809D02*
X95613842Y-69674285D01*
X95613842Y-69674285D02*
X95674318Y-69795237D01*
X95674318Y-69795237D02*
X95674318Y-70097618D01*
X95674318Y-70097618D02*
X95613842Y-70218571D01*
X95613842Y-70218571D02*
X95553365Y-70279047D01*
D13*
X144894819Y-46592916D02*
X144418628Y-46926249D01*
X144894819Y-47164344D02*
X143894819Y-47164344D01*
X143894819Y-47164344D02*
X143894819Y-46783392D01*
X143894819Y-46783392D02*
X143942438Y-46688154D01*
X143942438Y-46688154D02*
X143990057Y-46640535D01*
X143990057Y-46640535D02*
X144085295Y-46592916D01*
X144085295Y-46592916D02*
X144228152Y-46592916D01*
X144228152Y-46592916D02*
X144323390Y-46640535D01*
X144323390Y-46640535D02*
X144371009Y-46688154D01*
X144371009Y-46688154D02*
X144418628Y-46783392D01*
X144418628Y-46783392D02*
X144418628Y-47164344D01*
X144323390Y-46021487D02*
X144275771Y-46116725D01*
X144275771Y-46116725D02*
X144228152Y-46164344D01*
X144228152Y-46164344D02*
X144132914Y-46211963D01*
X144132914Y-46211963D02*
X144085295Y-46211963D01*
X144085295Y-46211963D02*
X143990057Y-46164344D01*
X143990057Y-46164344D02*
X143942438Y-46116725D01*
X143942438Y-46116725D02*
X143894819Y-46021487D01*
X143894819Y-46021487D02*
X143894819Y-45831011D01*
X143894819Y-45831011D02*
X143942438Y-45735773D01*
X143942438Y-45735773D02*
X143990057Y-45688154D01*
X143990057Y-45688154D02*
X144085295Y-45640535D01*
X144085295Y-45640535D02*
X144132914Y-45640535D01*
X144132914Y-45640535D02*
X144228152Y-45688154D01*
X144228152Y-45688154D02*
X144275771Y-45735773D01*
X144275771Y-45735773D02*
X144323390Y-45831011D01*
X144323390Y-45831011D02*
X144323390Y-46021487D01*
X144323390Y-46021487D02*
X144371009Y-46116725D01*
X144371009Y-46116725D02*
X144418628Y-46164344D01*
X144418628Y-46164344D02*
X144513866Y-46211963D01*
X144513866Y-46211963D02*
X144704342Y-46211963D01*
X144704342Y-46211963D02*
X144799580Y-46164344D01*
X144799580Y-46164344D02*
X144847200Y-46116725D01*
X144847200Y-46116725D02*
X144894819Y-46021487D01*
X144894819Y-46021487D02*
X144894819Y-45831011D01*
X144894819Y-45831011D02*
X144847200Y-45735773D01*
X144847200Y-45735773D02*
X144799580Y-45688154D01*
X144799580Y-45688154D02*
X144704342Y-45640535D01*
X144704342Y-45640535D02*
X144513866Y-45640535D01*
X144513866Y-45640535D02*
X144418628Y-45688154D01*
X144418628Y-45688154D02*
X144371009Y-45735773D01*
X144371009Y-45735773D02*
X144323390Y-45831011D01*
X83967142Y-99879580D02*
X83919523Y-99927200D01*
X83919523Y-99927200D02*
X83776666Y-99974819D01*
X83776666Y-99974819D02*
X83681428Y-99974819D01*
X83681428Y-99974819D02*
X83538571Y-99927200D01*
X83538571Y-99927200D02*
X83443333Y-99831961D01*
X83443333Y-99831961D02*
X83395714Y-99736723D01*
X83395714Y-99736723D02*
X83348095Y-99546247D01*
X83348095Y-99546247D02*
X83348095Y-99403390D01*
X83348095Y-99403390D02*
X83395714Y-99212914D01*
X83395714Y-99212914D02*
X83443333Y-99117676D01*
X83443333Y-99117676D02*
X83538571Y-99022438D01*
X83538571Y-99022438D02*
X83681428Y-98974819D01*
X83681428Y-98974819D02*
X83776666Y-98974819D01*
X83776666Y-98974819D02*
X83919523Y-99022438D01*
X83919523Y-99022438D02*
X83967142Y-99070057D01*
X84348095Y-99070057D02*
X84395714Y-99022438D01*
X84395714Y-99022438D02*
X84490952Y-98974819D01*
X84490952Y-98974819D02*
X84729047Y-98974819D01*
X84729047Y-98974819D02*
X84824285Y-99022438D01*
X84824285Y-99022438D02*
X84871904Y-99070057D01*
X84871904Y-99070057D02*
X84919523Y-99165295D01*
X84919523Y-99165295D02*
X84919523Y-99260533D01*
X84919523Y-99260533D02*
X84871904Y-99403390D01*
X84871904Y-99403390D02*
X84300476Y-99974819D01*
X84300476Y-99974819D02*
X84919523Y-99974819D01*
X85252857Y-98974819D02*
X85871904Y-98974819D01*
X85871904Y-98974819D02*
X85538571Y-99355771D01*
X85538571Y-99355771D02*
X85681428Y-99355771D01*
X85681428Y-99355771D02*
X85776666Y-99403390D01*
X85776666Y-99403390D02*
X85824285Y-99451009D01*
X85824285Y-99451009D02*
X85871904Y-99546247D01*
X85871904Y-99546247D02*
X85871904Y-99784342D01*
X85871904Y-99784342D02*
X85824285Y-99879580D01*
X85824285Y-99879580D02*
X85776666Y-99927200D01*
X85776666Y-99927200D02*
X85681428Y-99974819D01*
X85681428Y-99974819D02*
X85395714Y-99974819D01*
X85395714Y-99974819D02*
X85300476Y-99927200D01*
X85300476Y-99927200D02*
X85252857Y-99879580D01*
X151829580Y-66769107D02*
X151877200Y-66816726D01*
X151877200Y-66816726D02*
X151924819Y-66959583D01*
X151924819Y-66959583D02*
X151924819Y-67054821D01*
X151924819Y-67054821D02*
X151877200Y-67197678D01*
X151877200Y-67197678D02*
X151781961Y-67292916D01*
X151781961Y-67292916D02*
X151686723Y-67340535D01*
X151686723Y-67340535D02*
X151496247Y-67388154D01*
X151496247Y-67388154D02*
X151353390Y-67388154D01*
X151353390Y-67388154D02*
X151162914Y-67340535D01*
X151162914Y-67340535D02*
X151067676Y-67292916D01*
X151067676Y-67292916D02*
X150972438Y-67197678D01*
X150972438Y-67197678D02*
X150924819Y-67054821D01*
X150924819Y-67054821D02*
X150924819Y-66959583D01*
X150924819Y-66959583D02*
X150972438Y-66816726D01*
X150972438Y-66816726D02*
X151020057Y-66769107D01*
X151924819Y-65816726D02*
X151924819Y-66388154D01*
X151924819Y-66102440D02*
X150924819Y-66102440D01*
X150924819Y-66102440D02*
X151067676Y-66197678D01*
X151067676Y-66197678D02*
X151162914Y-66292916D01*
X151162914Y-66292916D02*
X151210533Y-66388154D01*
X151924819Y-64864345D02*
X151924819Y-65435773D01*
X151924819Y-65150059D02*
X150924819Y-65150059D01*
X150924819Y-65150059D02*
X151067676Y-65245297D01*
X151067676Y-65245297D02*
X151162914Y-65340535D01*
X151162914Y-65340535D02*
X151210533Y-65435773D01*
X142223333Y-57635830D02*
X142175714Y-57683450D01*
X142175714Y-57683450D02*
X142032857Y-57731069D01*
X142032857Y-57731069D02*
X141937619Y-57731069D01*
X141937619Y-57731069D02*
X141794762Y-57683450D01*
X141794762Y-57683450D02*
X141699524Y-57588211D01*
X141699524Y-57588211D02*
X141651905Y-57492973D01*
X141651905Y-57492973D02*
X141604286Y-57302497D01*
X141604286Y-57302497D02*
X141604286Y-57159640D01*
X141604286Y-57159640D02*
X141651905Y-56969164D01*
X141651905Y-56969164D02*
X141699524Y-56873926D01*
X141699524Y-56873926D02*
X141794762Y-56778688D01*
X141794762Y-56778688D02*
X141937619Y-56731069D01*
X141937619Y-56731069D02*
X142032857Y-56731069D01*
X142032857Y-56731069D02*
X142175714Y-56778688D01*
X142175714Y-56778688D02*
X142223333Y-56826307D01*
X143080476Y-56731069D02*
X142890000Y-56731069D01*
X142890000Y-56731069D02*
X142794762Y-56778688D01*
X142794762Y-56778688D02*
X142747143Y-56826307D01*
X142747143Y-56826307D02*
X142651905Y-56969164D01*
X142651905Y-56969164D02*
X142604286Y-57159640D01*
X142604286Y-57159640D02*
X142604286Y-57540592D01*
X142604286Y-57540592D02*
X142651905Y-57635830D01*
X142651905Y-57635830D02*
X142699524Y-57683450D01*
X142699524Y-57683450D02*
X142794762Y-57731069D01*
X142794762Y-57731069D02*
X142985238Y-57731069D01*
X142985238Y-57731069D02*
X143080476Y-57683450D01*
X143080476Y-57683450D02*
X143128095Y-57635830D01*
X143128095Y-57635830D02*
X143175714Y-57540592D01*
X143175714Y-57540592D02*
X143175714Y-57302497D01*
X143175714Y-57302497D02*
X143128095Y-57207259D01*
X143128095Y-57207259D02*
X143080476Y-57159640D01*
X143080476Y-57159640D02*
X142985238Y-57112021D01*
X142985238Y-57112021D02*
X142794762Y-57112021D01*
X142794762Y-57112021D02*
X142699524Y-57159640D01*
X142699524Y-57159640D02*
X142651905Y-57207259D01*
X142651905Y-57207259D02*
X142604286Y-57302497D01*
X152359580Y-52026666D02*
X152407200Y-52074285D01*
X152407200Y-52074285D02*
X152454819Y-52217142D01*
X152454819Y-52217142D02*
X152454819Y-52312380D01*
X152454819Y-52312380D02*
X152407200Y-52455237D01*
X152407200Y-52455237D02*
X152311961Y-52550475D01*
X152311961Y-52550475D02*
X152216723Y-52598094D01*
X152216723Y-52598094D02*
X152026247Y-52645713D01*
X152026247Y-52645713D02*
X151883390Y-52645713D01*
X151883390Y-52645713D02*
X151692914Y-52598094D01*
X151692914Y-52598094D02*
X151597676Y-52550475D01*
X151597676Y-52550475D02*
X151502438Y-52455237D01*
X151502438Y-52455237D02*
X151454819Y-52312380D01*
X151454819Y-52312380D02*
X151454819Y-52217142D01*
X151454819Y-52217142D02*
X151502438Y-52074285D01*
X151502438Y-52074285D02*
X151550057Y-52026666D01*
X151883390Y-51455237D02*
X151835771Y-51550475D01*
X151835771Y-51550475D02*
X151788152Y-51598094D01*
X151788152Y-51598094D02*
X151692914Y-51645713D01*
X151692914Y-51645713D02*
X151645295Y-51645713D01*
X151645295Y-51645713D02*
X151550057Y-51598094D01*
X151550057Y-51598094D02*
X151502438Y-51550475D01*
X151502438Y-51550475D02*
X151454819Y-51455237D01*
X151454819Y-51455237D02*
X151454819Y-51264761D01*
X151454819Y-51264761D02*
X151502438Y-51169523D01*
X151502438Y-51169523D02*
X151550057Y-51121904D01*
X151550057Y-51121904D02*
X151645295Y-51074285D01*
X151645295Y-51074285D02*
X151692914Y-51074285D01*
X151692914Y-51074285D02*
X151788152Y-51121904D01*
X151788152Y-51121904D02*
X151835771Y-51169523D01*
X151835771Y-51169523D02*
X151883390Y-51264761D01*
X151883390Y-51264761D02*
X151883390Y-51455237D01*
X151883390Y-51455237D02*
X151931009Y-51550475D01*
X151931009Y-51550475D02*
X151978628Y-51598094D01*
X151978628Y-51598094D02*
X152073866Y-51645713D01*
X152073866Y-51645713D02*
X152264342Y-51645713D01*
X152264342Y-51645713D02*
X152359580Y-51598094D01*
X152359580Y-51598094D02*
X152407200Y-51550475D01*
X152407200Y-51550475D02*
X152454819Y-51455237D01*
X152454819Y-51455237D02*
X152454819Y-51264761D01*
X152454819Y-51264761D02*
X152407200Y-51169523D01*
X152407200Y-51169523D02*
X152359580Y-51121904D01*
X152359580Y-51121904D02*
X152264342Y-51074285D01*
X152264342Y-51074285D02*
X152073866Y-51074285D01*
X152073866Y-51074285D02*
X151978628Y-51121904D01*
X151978628Y-51121904D02*
X151931009Y-51169523D01*
X151931009Y-51169523D02*
X151883390Y-51264761D01*
X140074819Y-57779107D02*
X139598628Y-58112440D01*
X140074819Y-58350535D02*
X139074819Y-58350535D01*
X139074819Y-58350535D02*
X139074819Y-57969583D01*
X139074819Y-57969583D02*
X139122438Y-57874345D01*
X139122438Y-57874345D02*
X139170057Y-57826726D01*
X139170057Y-57826726D02*
X139265295Y-57779107D01*
X139265295Y-57779107D02*
X139408152Y-57779107D01*
X139408152Y-57779107D02*
X139503390Y-57826726D01*
X139503390Y-57826726D02*
X139551009Y-57874345D01*
X139551009Y-57874345D02*
X139598628Y-57969583D01*
X139598628Y-57969583D02*
X139598628Y-58350535D01*
X140074819Y-56826726D02*
X140074819Y-57398154D01*
X140074819Y-57112440D02*
X139074819Y-57112440D01*
X139074819Y-57112440D02*
X139217676Y-57207678D01*
X139217676Y-57207678D02*
X139312914Y-57302916D01*
X139312914Y-57302916D02*
X139360533Y-57398154D01*
X139408152Y-55969583D02*
X140074819Y-55969583D01*
X139027200Y-56207678D02*
X139741485Y-56445773D01*
X139741485Y-56445773D02*
X139741485Y-55826726D01*
D12*
X150874318Y-57487916D02*
X150874318Y-58092678D01*
X150874318Y-58092678D02*
X149604318Y-58092678D01*
X149604318Y-57185535D02*
X149604318Y-56399344D01*
X149604318Y-56399344D02*
X150088127Y-56822678D01*
X150088127Y-56822678D02*
X150088127Y-56641249D01*
X150088127Y-56641249D02*
X150148603Y-56520297D01*
X150148603Y-56520297D02*
X150209080Y-56459821D01*
X150209080Y-56459821D02*
X150330032Y-56399344D01*
X150330032Y-56399344D02*
X150632413Y-56399344D01*
X150632413Y-56399344D02*
X150753365Y-56459821D01*
X150753365Y-56459821D02*
X150813842Y-56520297D01*
X150813842Y-56520297D02*
X150874318Y-56641249D01*
X150874318Y-56641249D02*
X150874318Y-57004106D01*
X150874318Y-57004106D02*
X150813842Y-57125059D01*
X150813842Y-57125059D02*
X150753365Y-57185535D01*
D13*
X116767887Y-93276412D02*
X116700543Y-93276412D01*
X116700543Y-93276412D02*
X116565856Y-93209068D01*
X116565856Y-93209068D02*
X116498513Y-93141725D01*
X116498513Y-93141725D02*
X116431169Y-93007038D01*
X116431169Y-93007038D02*
X116431169Y-92872351D01*
X116431169Y-92872351D02*
X116464841Y-92771336D01*
X116464841Y-92771336D02*
X116565856Y-92602977D01*
X116565856Y-92602977D02*
X116666871Y-92501962D01*
X116666871Y-92501962D02*
X116835230Y-92400946D01*
X116835230Y-92400946D02*
X116936245Y-92367275D01*
X116936245Y-92367275D02*
X117070932Y-92367275D01*
X117070932Y-92367275D02*
X117205619Y-92434618D01*
X117205619Y-92434618D02*
X117272963Y-92501962D01*
X117272963Y-92501962D02*
X117340306Y-92636649D01*
X117340306Y-92636649D02*
X117340306Y-92703992D01*
X117373978Y-94017190D02*
X116969917Y-93613129D01*
X117171948Y-93815160D02*
X117879054Y-93108053D01*
X117879054Y-93108053D02*
X117710696Y-93141725D01*
X117710696Y-93141725D02*
X117576009Y-93141725D01*
X117576009Y-93141725D02*
X117474993Y-93108053D01*
D12*
X123824318Y-79539762D02*
X122554318Y-79539762D01*
X123703365Y-78209285D02*
X123763842Y-78269761D01*
X123763842Y-78269761D02*
X123824318Y-78451190D01*
X123824318Y-78451190D02*
X123824318Y-78572142D01*
X123824318Y-78572142D02*
X123763842Y-78753571D01*
X123763842Y-78753571D02*
X123642889Y-78874523D01*
X123642889Y-78874523D02*
X123521937Y-78935000D01*
X123521937Y-78935000D02*
X123280032Y-78995476D01*
X123280032Y-78995476D02*
X123098603Y-78995476D01*
X123098603Y-78995476D02*
X122856699Y-78935000D01*
X122856699Y-78935000D02*
X122735746Y-78874523D01*
X122735746Y-78874523D02*
X122614794Y-78753571D01*
X122614794Y-78753571D02*
X122554318Y-78572142D01*
X122554318Y-78572142D02*
X122554318Y-78451190D01*
X122554318Y-78451190D02*
X122614794Y-78269761D01*
X122614794Y-78269761D02*
X122675270Y-78209285D01*
X122977651Y-77120714D02*
X123824318Y-77120714D01*
X122493842Y-77423095D02*
X123400984Y-77725476D01*
X123400984Y-77725476D02*
X123400984Y-76939285D01*
D13*
X132381863Y-60975074D02*
X132482878Y-60402655D01*
X131977802Y-60571013D02*
X132684909Y-59863907D01*
X132684909Y-59863907D02*
X132954283Y-60133281D01*
X132954283Y-60133281D02*
X132987955Y-60234296D01*
X132987955Y-60234296D02*
X132987955Y-60301639D01*
X132987955Y-60301639D02*
X132954283Y-60402655D01*
X132954283Y-60402655D02*
X132853268Y-60503670D01*
X132853268Y-60503670D02*
X132752252Y-60537342D01*
X132752252Y-60537342D02*
X132684909Y-60537342D01*
X132684909Y-60537342D02*
X132583894Y-60503670D01*
X132583894Y-60503670D02*
X132314520Y-60234296D01*
X133728733Y-60907731D02*
X133392016Y-60571013D01*
X133392016Y-60571013D02*
X133021626Y-60874059D01*
X133021626Y-60874059D02*
X133088970Y-60874059D01*
X133088970Y-60874059D02*
X133189985Y-60907731D01*
X133189985Y-60907731D02*
X133358344Y-61076090D01*
X133358344Y-61076090D02*
X133392016Y-61177105D01*
X133392016Y-61177105D02*
X133392016Y-61244448D01*
X133392016Y-61244448D02*
X133358344Y-61345464D01*
X133358344Y-61345464D02*
X133189985Y-61513822D01*
X133189985Y-61513822D02*
X133088970Y-61547494D01*
X133088970Y-61547494D02*
X133021626Y-61547494D01*
X133021626Y-61547494D02*
X132920611Y-61513822D01*
X132920611Y-61513822D02*
X132752252Y-61345464D01*
X132752252Y-61345464D02*
X132718581Y-61244448D01*
X132718581Y-61244448D02*
X132718581Y-61177105D01*
X100759580Y-51292857D02*
X100807200Y-51340476D01*
X100807200Y-51340476D02*
X100854819Y-51483333D01*
X100854819Y-51483333D02*
X100854819Y-51578571D01*
X100854819Y-51578571D02*
X100807200Y-51721428D01*
X100807200Y-51721428D02*
X100711961Y-51816666D01*
X100711961Y-51816666D02*
X100616723Y-51864285D01*
X100616723Y-51864285D02*
X100426247Y-51911904D01*
X100426247Y-51911904D02*
X100283390Y-51911904D01*
X100283390Y-51911904D02*
X100092914Y-51864285D01*
X100092914Y-51864285D02*
X99997676Y-51816666D01*
X99997676Y-51816666D02*
X99902438Y-51721428D01*
X99902438Y-51721428D02*
X99854819Y-51578571D01*
X99854819Y-51578571D02*
X99854819Y-51483333D01*
X99854819Y-51483333D02*
X99902438Y-51340476D01*
X99902438Y-51340476D02*
X99950057Y-51292857D01*
X100854819Y-50340476D02*
X100854819Y-50911904D01*
X100854819Y-50626190D02*
X99854819Y-50626190D01*
X99854819Y-50626190D02*
X99997676Y-50721428D01*
X99997676Y-50721428D02*
X100092914Y-50816666D01*
X100092914Y-50816666D02*
X100140533Y-50911904D01*
X99854819Y-50007142D02*
X99854819Y-49388095D01*
X99854819Y-49388095D02*
X100235771Y-49721428D01*
X100235771Y-49721428D02*
X100235771Y-49578571D01*
X100235771Y-49578571D02*
X100283390Y-49483333D01*
X100283390Y-49483333D02*
X100331009Y-49435714D01*
X100331009Y-49435714D02*
X100426247Y-49388095D01*
X100426247Y-49388095D02*
X100664342Y-49388095D01*
X100664342Y-49388095D02*
X100759580Y-49435714D01*
X100759580Y-49435714D02*
X100807200Y-49483333D01*
X100807200Y-49483333D02*
X100854819Y-49578571D01*
X100854819Y-49578571D02*
X100854819Y-49864285D01*
X100854819Y-49864285D02*
X100807200Y-49959523D01*
X100807200Y-49959523D02*
X100759580Y-50007142D01*
X91869642Y-76409580D02*
X91822023Y-76457200D01*
X91822023Y-76457200D02*
X91679166Y-76504819D01*
X91679166Y-76504819D02*
X91583928Y-76504819D01*
X91583928Y-76504819D02*
X91441071Y-76457200D01*
X91441071Y-76457200D02*
X91345833Y-76361961D01*
X91345833Y-76361961D02*
X91298214Y-76266723D01*
X91298214Y-76266723D02*
X91250595Y-76076247D01*
X91250595Y-76076247D02*
X91250595Y-75933390D01*
X91250595Y-75933390D02*
X91298214Y-75742914D01*
X91298214Y-75742914D02*
X91345833Y-75647676D01*
X91345833Y-75647676D02*
X91441071Y-75552438D01*
X91441071Y-75552438D02*
X91583928Y-75504819D01*
X91583928Y-75504819D02*
X91679166Y-75504819D01*
X91679166Y-75504819D02*
X91822023Y-75552438D01*
X91822023Y-75552438D02*
X91869642Y-75600057D01*
X92822023Y-76504819D02*
X92250595Y-76504819D01*
X92536309Y-76504819D02*
X92536309Y-75504819D01*
X92536309Y-75504819D02*
X92441071Y-75647676D01*
X92441071Y-75647676D02*
X92345833Y-75742914D01*
X92345833Y-75742914D02*
X92250595Y-75790533D01*
X93298214Y-76504819D02*
X93488690Y-76504819D01*
X93488690Y-76504819D02*
X93583928Y-76457200D01*
X93583928Y-76457200D02*
X93631547Y-76409580D01*
X93631547Y-76409580D02*
X93726785Y-76266723D01*
X93726785Y-76266723D02*
X93774404Y-76076247D01*
X93774404Y-76076247D02*
X93774404Y-75695295D01*
X93774404Y-75695295D02*
X93726785Y-75600057D01*
X93726785Y-75600057D02*
X93679166Y-75552438D01*
X93679166Y-75552438D02*
X93583928Y-75504819D01*
X93583928Y-75504819D02*
X93393452Y-75504819D01*
X93393452Y-75504819D02*
X93298214Y-75552438D01*
X93298214Y-75552438D02*
X93250595Y-75600057D01*
X93250595Y-75600057D02*
X93202976Y-75695295D01*
X93202976Y-75695295D02*
X93202976Y-75933390D01*
X93202976Y-75933390D02*
X93250595Y-76028628D01*
X93250595Y-76028628D02*
X93298214Y-76076247D01*
X93298214Y-76076247D02*
X93393452Y-76123866D01*
X93393452Y-76123866D02*
X93583928Y-76123866D01*
X93583928Y-76123866D02*
X93679166Y-76076247D01*
X93679166Y-76076247D02*
X93726785Y-76028628D01*
X93726785Y-76028628D02*
X93774404Y-75933390D01*
X124959580Y-96886666D02*
X125007200Y-96934285D01*
X125007200Y-96934285D02*
X125054819Y-97077142D01*
X125054819Y-97077142D02*
X125054819Y-97172380D01*
X125054819Y-97172380D02*
X125007200Y-97315237D01*
X125007200Y-97315237D02*
X124911961Y-97410475D01*
X124911961Y-97410475D02*
X124816723Y-97458094D01*
X124816723Y-97458094D02*
X124626247Y-97505713D01*
X124626247Y-97505713D02*
X124483390Y-97505713D01*
X124483390Y-97505713D02*
X124292914Y-97458094D01*
X124292914Y-97458094D02*
X124197676Y-97410475D01*
X124197676Y-97410475D02*
X124102438Y-97315237D01*
X124102438Y-97315237D02*
X124054819Y-97172380D01*
X124054819Y-97172380D02*
X124054819Y-97077142D01*
X124054819Y-97077142D02*
X124102438Y-96934285D01*
X124102438Y-96934285D02*
X124150057Y-96886666D01*
X124388152Y-96029523D02*
X125054819Y-96029523D01*
X124007200Y-96267618D02*
X124721485Y-96505713D01*
X124721485Y-96505713D02*
X124721485Y-95886666D01*
X84087142Y-101889580D02*
X84039523Y-101937200D01*
X84039523Y-101937200D02*
X83896666Y-101984819D01*
X83896666Y-101984819D02*
X83801428Y-101984819D01*
X83801428Y-101984819D02*
X83658571Y-101937200D01*
X83658571Y-101937200D02*
X83563333Y-101841961D01*
X83563333Y-101841961D02*
X83515714Y-101746723D01*
X83515714Y-101746723D02*
X83468095Y-101556247D01*
X83468095Y-101556247D02*
X83468095Y-101413390D01*
X83468095Y-101413390D02*
X83515714Y-101222914D01*
X83515714Y-101222914D02*
X83563333Y-101127676D01*
X83563333Y-101127676D02*
X83658571Y-101032438D01*
X83658571Y-101032438D02*
X83801428Y-100984819D01*
X83801428Y-100984819D02*
X83896666Y-100984819D01*
X83896666Y-100984819D02*
X84039523Y-101032438D01*
X84039523Y-101032438D02*
X84087142Y-101080057D01*
X84468095Y-101080057D02*
X84515714Y-101032438D01*
X84515714Y-101032438D02*
X84610952Y-100984819D01*
X84610952Y-100984819D02*
X84849047Y-100984819D01*
X84849047Y-100984819D02*
X84944285Y-101032438D01*
X84944285Y-101032438D02*
X84991904Y-101080057D01*
X84991904Y-101080057D02*
X85039523Y-101175295D01*
X85039523Y-101175295D02*
X85039523Y-101270533D01*
X85039523Y-101270533D02*
X84991904Y-101413390D01*
X84991904Y-101413390D02*
X84420476Y-101984819D01*
X84420476Y-101984819D02*
X85039523Y-101984819D01*
X85420476Y-101080057D02*
X85468095Y-101032438D01*
X85468095Y-101032438D02*
X85563333Y-100984819D01*
X85563333Y-100984819D02*
X85801428Y-100984819D01*
X85801428Y-100984819D02*
X85896666Y-101032438D01*
X85896666Y-101032438D02*
X85944285Y-101080057D01*
X85944285Y-101080057D02*
X85991904Y-101175295D01*
X85991904Y-101175295D02*
X85991904Y-101270533D01*
X85991904Y-101270533D02*
X85944285Y-101413390D01*
X85944285Y-101413390D02*
X85372857Y-101984819D01*
X85372857Y-101984819D02*
X85991904Y-101984819D01*
X142844819Y-62292916D02*
X142368628Y-62626249D01*
X142844819Y-62864344D02*
X141844819Y-62864344D01*
X141844819Y-62864344D02*
X141844819Y-62483392D01*
X141844819Y-62483392D02*
X141892438Y-62388154D01*
X141892438Y-62388154D02*
X141940057Y-62340535D01*
X141940057Y-62340535D02*
X142035295Y-62292916D01*
X142035295Y-62292916D02*
X142178152Y-62292916D01*
X142178152Y-62292916D02*
X142273390Y-62340535D01*
X142273390Y-62340535D02*
X142321009Y-62388154D01*
X142321009Y-62388154D02*
X142368628Y-62483392D01*
X142368628Y-62483392D02*
X142368628Y-62864344D01*
X141844819Y-61435773D02*
X141844819Y-61626249D01*
X141844819Y-61626249D02*
X141892438Y-61721487D01*
X141892438Y-61721487D02*
X141940057Y-61769106D01*
X141940057Y-61769106D02*
X142082914Y-61864344D01*
X142082914Y-61864344D02*
X142273390Y-61911963D01*
X142273390Y-61911963D02*
X142654342Y-61911963D01*
X142654342Y-61911963D02*
X142749580Y-61864344D01*
X142749580Y-61864344D02*
X142797200Y-61816725D01*
X142797200Y-61816725D02*
X142844819Y-61721487D01*
X142844819Y-61721487D02*
X142844819Y-61531011D01*
X142844819Y-61531011D02*
X142797200Y-61435773D01*
X142797200Y-61435773D02*
X142749580Y-61388154D01*
X142749580Y-61388154D02*
X142654342Y-61340535D01*
X142654342Y-61340535D02*
X142416247Y-61340535D01*
X142416247Y-61340535D02*
X142321009Y-61388154D01*
X142321009Y-61388154D02*
X142273390Y-61435773D01*
X142273390Y-61435773D02*
X142225771Y-61531011D01*
X142225771Y-61531011D02*
X142225771Y-61721487D01*
X142225771Y-61721487D02*
X142273390Y-61816725D01*
X142273390Y-61816725D02*
X142321009Y-61864344D01*
X142321009Y-61864344D02*
X142416247Y-61911963D01*
D12*
X118562143Y-131169080D02*
X118743571Y-131229556D01*
X118743571Y-131229556D02*
X118804048Y-131290032D01*
X118804048Y-131290032D02*
X118864524Y-131410984D01*
X118864524Y-131410984D02*
X118864524Y-131592413D01*
X118864524Y-131592413D02*
X118804048Y-131713365D01*
X118804048Y-131713365D02*
X118743571Y-131773842D01*
X118743571Y-131773842D02*
X118622619Y-131834318D01*
X118622619Y-131834318D02*
X118138809Y-131834318D01*
X118138809Y-131834318D02*
X118138809Y-130564318D01*
X118138809Y-130564318D02*
X118562143Y-130564318D01*
X118562143Y-130564318D02*
X118683095Y-130624794D01*
X118683095Y-130624794D02*
X118743571Y-130685270D01*
X118743571Y-130685270D02*
X118804048Y-130806222D01*
X118804048Y-130806222D02*
X118804048Y-130927175D01*
X118804048Y-130927175D02*
X118743571Y-131048127D01*
X118743571Y-131048127D02*
X118683095Y-131108603D01*
X118683095Y-131108603D02*
X118562143Y-131169080D01*
X118562143Y-131169080D02*
X118138809Y-131169080D01*
X119227381Y-130564318D02*
X119953095Y-130564318D01*
X119590238Y-131834318D02*
X119590238Y-130564318D01*
X121041667Y-131834318D02*
X120315952Y-131834318D01*
X120678809Y-131834318D02*
X120678809Y-130564318D01*
X120678809Y-130564318D02*
X120557857Y-130745746D01*
X120557857Y-130745746D02*
X120436905Y-130866699D01*
X120436905Y-130866699D02*
X120315952Y-130927175D01*
D13*
X98165510Y-61990870D02*
X97593091Y-61889855D01*
X97761449Y-62394931D02*
X97054343Y-61687824D01*
X97054343Y-61687824D02*
X97323717Y-61418450D01*
X97323717Y-61418450D02*
X97424732Y-61384778D01*
X97424732Y-61384778D02*
X97492075Y-61384778D01*
X97492075Y-61384778D02*
X97593091Y-61418450D01*
X97593091Y-61418450D02*
X97694106Y-61519465D01*
X97694106Y-61519465D02*
X97727778Y-61620481D01*
X97727778Y-61620481D02*
X97727778Y-61687824D01*
X97727778Y-61687824D02*
X97694106Y-61788839D01*
X97694106Y-61788839D02*
X97424732Y-62058213D01*
X97795121Y-61081733D02*
X97795121Y-61014389D01*
X97795121Y-61014389D02*
X97828793Y-60913374D01*
X97828793Y-60913374D02*
X97997152Y-60745015D01*
X97997152Y-60745015D02*
X98098167Y-60711343D01*
X98098167Y-60711343D02*
X98165510Y-60711343D01*
X98165510Y-60711343D02*
X98266526Y-60745015D01*
X98266526Y-60745015D02*
X98333869Y-60812359D01*
X98333869Y-60812359D02*
X98401213Y-60947046D01*
X98401213Y-60947046D02*
X98401213Y-61755168D01*
X98401213Y-61755168D02*
X98838945Y-61317435D01*
X98569572Y-60172595D02*
X98636915Y-60105252D01*
X98636915Y-60105252D02*
X98737930Y-60071580D01*
X98737930Y-60071580D02*
X98805274Y-60071580D01*
X98805274Y-60071580D02*
X98906289Y-60105252D01*
X98906289Y-60105252D02*
X99074648Y-60206267D01*
X99074648Y-60206267D02*
X99243007Y-60374626D01*
X99243007Y-60374626D02*
X99344022Y-60542984D01*
X99344022Y-60542984D02*
X99377694Y-60644000D01*
X99377694Y-60644000D02*
X99377694Y-60711343D01*
X99377694Y-60711343D02*
X99344022Y-60812358D01*
X99344022Y-60812358D02*
X99276678Y-60879702D01*
X99276678Y-60879702D02*
X99175663Y-60913374D01*
X99175663Y-60913374D02*
X99108320Y-60913374D01*
X99108320Y-60913374D02*
X99007304Y-60879702D01*
X99007304Y-60879702D02*
X98838946Y-60778687D01*
X98838946Y-60778687D02*
X98670587Y-60610328D01*
X98670587Y-60610328D02*
X98569572Y-60441969D01*
X98569572Y-60441969D02*
X98535900Y-60340954D01*
X98535900Y-60340954D02*
X98535900Y-60273610D01*
X98535900Y-60273610D02*
X98569572Y-60172595D01*
X114209580Y-75292857D02*
X114257200Y-75340476D01*
X114257200Y-75340476D02*
X114304819Y-75483333D01*
X114304819Y-75483333D02*
X114304819Y-75578571D01*
X114304819Y-75578571D02*
X114257200Y-75721428D01*
X114257200Y-75721428D02*
X114161961Y-75816666D01*
X114161961Y-75816666D02*
X114066723Y-75864285D01*
X114066723Y-75864285D02*
X113876247Y-75911904D01*
X113876247Y-75911904D02*
X113733390Y-75911904D01*
X113733390Y-75911904D02*
X113542914Y-75864285D01*
X113542914Y-75864285D02*
X113447676Y-75816666D01*
X113447676Y-75816666D02*
X113352438Y-75721428D01*
X113352438Y-75721428D02*
X113304819Y-75578571D01*
X113304819Y-75578571D02*
X113304819Y-75483333D01*
X113304819Y-75483333D02*
X113352438Y-75340476D01*
X113352438Y-75340476D02*
X113400057Y-75292857D01*
X114304819Y-74340476D02*
X114304819Y-74911904D01*
X114304819Y-74626190D02*
X113304819Y-74626190D01*
X113304819Y-74626190D02*
X113447676Y-74721428D01*
X113447676Y-74721428D02*
X113542914Y-74816666D01*
X113542914Y-74816666D02*
X113590533Y-74911904D01*
X113638152Y-73483333D02*
X114304819Y-73483333D01*
X113257200Y-73721428D02*
X113971485Y-73959523D01*
X113971485Y-73959523D02*
X113971485Y-73340476D01*
X146804819Y-66399107D02*
X146328628Y-66732440D01*
X146804819Y-66970535D02*
X145804819Y-66970535D01*
X145804819Y-66970535D02*
X145804819Y-66589583D01*
X145804819Y-66589583D02*
X145852438Y-66494345D01*
X145852438Y-66494345D02*
X145900057Y-66446726D01*
X145900057Y-66446726D02*
X145995295Y-66399107D01*
X145995295Y-66399107D02*
X146138152Y-66399107D01*
X146138152Y-66399107D02*
X146233390Y-66446726D01*
X146233390Y-66446726D02*
X146281009Y-66494345D01*
X146281009Y-66494345D02*
X146328628Y-66589583D01*
X146328628Y-66589583D02*
X146328628Y-66970535D01*
X146804819Y-65446726D02*
X146804819Y-66018154D01*
X146804819Y-65732440D02*
X145804819Y-65732440D01*
X145804819Y-65732440D02*
X145947676Y-65827678D01*
X145947676Y-65827678D02*
X146042914Y-65922916D01*
X146042914Y-65922916D02*
X146090533Y-66018154D01*
X145804819Y-64827678D02*
X145804819Y-64732440D01*
X145804819Y-64732440D02*
X145852438Y-64637202D01*
X145852438Y-64637202D02*
X145900057Y-64589583D01*
X145900057Y-64589583D02*
X145995295Y-64541964D01*
X145995295Y-64541964D02*
X146185771Y-64494345D01*
X146185771Y-64494345D02*
X146423866Y-64494345D01*
X146423866Y-64494345D02*
X146614342Y-64541964D01*
X146614342Y-64541964D02*
X146709580Y-64589583D01*
X146709580Y-64589583D02*
X146757200Y-64637202D01*
X146757200Y-64637202D02*
X146804819Y-64732440D01*
X146804819Y-64732440D02*
X146804819Y-64827678D01*
X146804819Y-64827678D02*
X146757200Y-64922916D01*
X146757200Y-64922916D02*
X146709580Y-64970535D01*
X146709580Y-64970535D02*
X146614342Y-65018154D01*
X146614342Y-65018154D02*
X146423866Y-65065773D01*
X146423866Y-65065773D02*
X146185771Y-65065773D01*
X146185771Y-65065773D02*
X145995295Y-65018154D01*
X145995295Y-65018154D02*
X145900057Y-64970535D01*
X145900057Y-64970535D02*
X145852438Y-64922916D01*
X145852438Y-64922916D02*
X145804819Y-64827678D01*
D12*
X131366667Y-48880568D02*
X131366667Y-49787711D01*
X131366667Y-49787711D02*
X131306190Y-49969139D01*
X131306190Y-49969139D02*
X131185238Y-50090092D01*
X131185238Y-50090092D02*
X131003809Y-50150568D01*
X131003809Y-50150568D02*
X130882857Y-50150568D01*
X131850476Y-48880568D02*
X132697143Y-48880568D01*
X132697143Y-48880568D02*
X132152857Y-50150568D01*
D13*
X94217036Y-62426174D02*
X93644617Y-62325159D01*
X93812975Y-62830235D02*
X93105869Y-62123128D01*
X93105869Y-62123128D02*
X93375243Y-61853754D01*
X93375243Y-61853754D02*
X93476258Y-61820082D01*
X93476258Y-61820082D02*
X93543601Y-61820082D01*
X93543601Y-61820082D02*
X93644617Y-61853754D01*
X93644617Y-61853754D02*
X93745632Y-61954769D01*
X93745632Y-61954769D02*
X93779304Y-62055785D01*
X93779304Y-62055785D02*
X93779304Y-62123128D01*
X93779304Y-62123128D02*
X93745632Y-62224143D01*
X93745632Y-62224143D02*
X93476258Y-62493517D01*
X94890471Y-61752739D02*
X94486410Y-62156800D01*
X94688441Y-61954769D02*
X93981334Y-61247663D01*
X93981334Y-61247663D02*
X94015006Y-61416021D01*
X94015006Y-61416021D02*
X94015006Y-61550708D01*
X94015006Y-61550708D02*
X93981334Y-61651724D01*
X95227189Y-61416021D02*
X95361876Y-61281334D01*
X95361876Y-61281334D02*
X95395548Y-61180319D01*
X95395548Y-61180319D02*
X95395548Y-61112975D01*
X95395548Y-61112975D02*
X95361876Y-60944617D01*
X95361876Y-60944617D02*
X95260861Y-60776258D01*
X95260861Y-60776258D02*
X94991487Y-60506884D01*
X94991487Y-60506884D02*
X94890472Y-60473212D01*
X94890472Y-60473212D02*
X94823128Y-60473212D01*
X94823128Y-60473212D02*
X94722113Y-60506884D01*
X94722113Y-60506884D02*
X94587426Y-60641571D01*
X94587426Y-60641571D02*
X94553754Y-60742586D01*
X94553754Y-60742586D02*
X94553754Y-60809930D01*
X94553754Y-60809930D02*
X94587426Y-60910945D01*
X94587426Y-60910945D02*
X94755785Y-61079304D01*
X94755785Y-61079304D02*
X94856800Y-61112975D01*
X94856800Y-61112975D02*
X94924143Y-61112975D01*
X94924143Y-61112975D02*
X95025159Y-61079304D01*
X95025159Y-61079304D02*
X95159846Y-60944617D01*
X95159846Y-60944617D02*
X95193517Y-60843601D01*
X95193517Y-60843601D02*
X95193517Y-60776258D01*
X95193517Y-60776258D02*
X95159846Y-60675243D01*
X113757142Y-83609580D02*
X113709523Y-83657200D01*
X113709523Y-83657200D02*
X113566666Y-83704819D01*
X113566666Y-83704819D02*
X113471428Y-83704819D01*
X113471428Y-83704819D02*
X113328571Y-83657200D01*
X113328571Y-83657200D02*
X113233333Y-83561961D01*
X113233333Y-83561961D02*
X113185714Y-83466723D01*
X113185714Y-83466723D02*
X113138095Y-83276247D01*
X113138095Y-83276247D02*
X113138095Y-83133390D01*
X113138095Y-83133390D02*
X113185714Y-82942914D01*
X113185714Y-82942914D02*
X113233333Y-82847676D01*
X113233333Y-82847676D02*
X113328571Y-82752438D01*
X113328571Y-82752438D02*
X113471428Y-82704819D01*
X113471428Y-82704819D02*
X113566666Y-82704819D01*
X113566666Y-82704819D02*
X113709523Y-82752438D01*
X113709523Y-82752438D02*
X113757142Y-82800057D01*
X114709523Y-83704819D02*
X114138095Y-83704819D01*
X114423809Y-83704819D02*
X114423809Y-82704819D01*
X114423809Y-82704819D02*
X114328571Y-82847676D01*
X114328571Y-82847676D02*
X114233333Y-82942914D01*
X114233333Y-82942914D02*
X114138095Y-82990533D01*
X115090476Y-82800057D02*
X115138095Y-82752438D01*
X115138095Y-82752438D02*
X115233333Y-82704819D01*
X115233333Y-82704819D02*
X115471428Y-82704819D01*
X115471428Y-82704819D02*
X115566666Y-82752438D01*
X115566666Y-82752438D02*
X115614285Y-82800057D01*
X115614285Y-82800057D02*
X115661904Y-82895295D01*
X115661904Y-82895295D02*
X115661904Y-82990533D01*
X115661904Y-82990533D02*
X115614285Y-83133390D01*
X115614285Y-83133390D02*
X115042857Y-83704819D01*
X115042857Y-83704819D02*
X115661904Y-83704819D01*
X121094819Y-74972857D02*
X120618628Y-75306190D01*
X121094819Y-75544285D02*
X120094819Y-75544285D01*
X120094819Y-75544285D02*
X120094819Y-75163333D01*
X120094819Y-75163333D02*
X120142438Y-75068095D01*
X120142438Y-75068095D02*
X120190057Y-75020476D01*
X120190057Y-75020476D02*
X120285295Y-74972857D01*
X120285295Y-74972857D02*
X120428152Y-74972857D01*
X120428152Y-74972857D02*
X120523390Y-75020476D01*
X120523390Y-75020476D02*
X120571009Y-75068095D01*
X120571009Y-75068095D02*
X120618628Y-75163333D01*
X120618628Y-75163333D02*
X120618628Y-75544285D01*
X121094819Y-74020476D02*
X121094819Y-74591904D01*
X121094819Y-74306190D02*
X120094819Y-74306190D01*
X120094819Y-74306190D02*
X120237676Y-74401428D01*
X120237676Y-74401428D02*
X120332914Y-74496666D01*
X120332914Y-74496666D02*
X120380533Y-74591904D01*
X120190057Y-73639523D02*
X120142438Y-73591904D01*
X120142438Y-73591904D02*
X120094819Y-73496666D01*
X120094819Y-73496666D02*
X120094819Y-73258571D01*
X120094819Y-73258571D02*
X120142438Y-73163333D01*
X120142438Y-73163333D02*
X120190057Y-73115714D01*
X120190057Y-73115714D02*
X120285295Y-73068095D01*
X120285295Y-73068095D02*
X120380533Y-73068095D01*
X120380533Y-73068095D02*
X120523390Y-73115714D01*
X120523390Y-73115714D02*
X121094819Y-73687142D01*
X121094819Y-73687142D02*
X121094819Y-73068095D01*
D12*
X74842318Y-105423332D02*
X75749461Y-105423332D01*
X75749461Y-105423332D02*
X75930889Y-105483809D01*
X75930889Y-105483809D02*
X76051842Y-105604761D01*
X76051842Y-105604761D02*
X76112318Y-105786190D01*
X76112318Y-105786190D02*
X76112318Y-105907142D01*
X76112318Y-104153332D02*
X76112318Y-104879047D01*
X76112318Y-104516190D02*
X74842318Y-104516190D01*
X74842318Y-104516190D02*
X75023746Y-104637142D01*
X75023746Y-104637142D02*
X75144699Y-104758094D01*
X75144699Y-104758094D02*
X75205175Y-104879047D01*
D13*
X119174819Y-74822857D02*
X118698628Y-75156190D01*
X119174819Y-75394285D02*
X118174819Y-75394285D01*
X118174819Y-75394285D02*
X118174819Y-75013333D01*
X118174819Y-75013333D02*
X118222438Y-74918095D01*
X118222438Y-74918095D02*
X118270057Y-74870476D01*
X118270057Y-74870476D02*
X118365295Y-74822857D01*
X118365295Y-74822857D02*
X118508152Y-74822857D01*
X118508152Y-74822857D02*
X118603390Y-74870476D01*
X118603390Y-74870476D02*
X118651009Y-74918095D01*
X118651009Y-74918095D02*
X118698628Y-75013333D01*
X118698628Y-75013333D02*
X118698628Y-75394285D01*
X119174819Y-73870476D02*
X119174819Y-74441904D01*
X119174819Y-74156190D02*
X118174819Y-74156190D01*
X118174819Y-74156190D02*
X118317676Y-74251428D01*
X118317676Y-74251428D02*
X118412914Y-74346666D01*
X118412914Y-74346666D02*
X118460533Y-74441904D01*
X118174819Y-73537142D02*
X118174819Y-72918095D01*
X118174819Y-72918095D02*
X118555771Y-73251428D01*
X118555771Y-73251428D02*
X118555771Y-73108571D01*
X118555771Y-73108571D02*
X118603390Y-73013333D01*
X118603390Y-73013333D02*
X118651009Y-72965714D01*
X118651009Y-72965714D02*
X118746247Y-72918095D01*
X118746247Y-72918095D02*
X118984342Y-72918095D01*
X118984342Y-72918095D02*
X119079580Y-72965714D01*
X119079580Y-72965714D02*
X119127200Y-73013333D01*
X119127200Y-73013333D02*
X119174819Y-73108571D01*
X119174819Y-73108571D02*
X119174819Y-73394285D01*
X119174819Y-73394285D02*
X119127200Y-73489523D01*
X119127200Y-73489523D02*
X119079580Y-73537142D01*
X80869580Y-60860357D02*
X80917200Y-60907976D01*
X80917200Y-60907976D02*
X80964819Y-61050833D01*
X80964819Y-61050833D02*
X80964819Y-61146071D01*
X80964819Y-61146071D02*
X80917200Y-61288928D01*
X80917200Y-61288928D02*
X80821961Y-61384166D01*
X80821961Y-61384166D02*
X80726723Y-61431785D01*
X80726723Y-61431785D02*
X80536247Y-61479404D01*
X80536247Y-61479404D02*
X80393390Y-61479404D01*
X80393390Y-61479404D02*
X80202914Y-61431785D01*
X80202914Y-61431785D02*
X80107676Y-61384166D01*
X80107676Y-61384166D02*
X80012438Y-61288928D01*
X80012438Y-61288928D02*
X79964819Y-61146071D01*
X79964819Y-61146071D02*
X79964819Y-61050833D01*
X79964819Y-61050833D02*
X80012438Y-60907976D01*
X80012438Y-60907976D02*
X80060057Y-60860357D01*
X80964819Y-59907976D02*
X80964819Y-60479404D01*
X80964819Y-60193690D02*
X79964819Y-60193690D01*
X79964819Y-60193690D02*
X80107676Y-60288928D01*
X80107676Y-60288928D02*
X80202914Y-60384166D01*
X80202914Y-60384166D02*
X80250533Y-60479404D01*
X79964819Y-59574642D02*
X79964819Y-58907976D01*
X79964819Y-58907976D02*
X80964819Y-59336547D01*
X136281863Y-61975074D02*
X136382878Y-61402655D01*
X135877802Y-61571013D02*
X136584909Y-60863907D01*
X136584909Y-60863907D02*
X136854283Y-61133281D01*
X136854283Y-61133281D02*
X136887955Y-61234296D01*
X136887955Y-61234296D02*
X136887955Y-61301639D01*
X136887955Y-61301639D02*
X136854283Y-61402655D01*
X136854283Y-61402655D02*
X136753268Y-61503670D01*
X136753268Y-61503670D02*
X136652252Y-61537342D01*
X136652252Y-61537342D02*
X136584909Y-61537342D01*
X136584909Y-61537342D02*
X136483894Y-61503670D01*
X136483894Y-61503670D02*
X136214520Y-61234296D01*
X137224672Y-61503670D02*
X137662405Y-61941403D01*
X137662405Y-61941403D02*
X137157329Y-61975074D01*
X137157329Y-61975074D02*
X137258344Y-62076090D01*
X137258344Y-62076090D02*
X137292016Y-62177105D01*
X137292016Y-62177105D02*
X137292016Y-62244448D01*
X137292016Y-62244448D02*
X137258344Y-62345464D01*
X137258344Y-62345464D02*
X137089985Y-62513822D01*
X137089985Y-62513822D02*
X136988970Y-62547494D01*
X136988970Y-62547494D02*
X136921626Y-62547494D01*
X136921626Y-62547494D02*
X136820611Y-62513822D01*
X136820611Y-62513822D02*
X136618581Y-62311792D01*
X136618581Y-62311792D02*
X136584909Y-62210777D01*
X136584909Y-62210777D02*
X136584909Y-62143433D01*
D12*
X115174318Y-98139762D02*
X113904318Y-98139762D01*
X115053365Y-96809285D02*
X115113842Y-96869761D01*
X115113842Y-96869761D02*
X115174318Y-97051190D01*
X115174318Y-97051190D02*
X115174318Y-97172142D01*
X115174318Y-97172142D02*
X115113842Y-97353571D01*
X115113842Y-97353571D02*
X114992889Y-97474523D01*
X114992889Y-97474523D02*
X114871937Y-97535000D01*
X114871937Y-97535000D02*
X114630032Y-97595476D01*
X114630032Y-97595476D02*
X114448603Y-97595476D01*
X114448603Y-97595476D02*
X114206699Y-97535000D01*
X114206699Y-97535000D02*
X114085746Y-97474523D01*
X114085746Y-97474523D02*
X113964794Y-97353571D01*
X113964794Y-97353571D02*
X113904318Y-97172142D01*
X113904318Y-97172142D02*
X113904318Y-97051190D01*
X113904318Y-97051190D02*
X113964794Y-96869761D01*
X113964794Y-96869761D02*
X114025270Y-96809285D01*
X113904318Y-96385952D02*
X113904318Y-95599761D01*
X113904318Y-95599761D02*
X114388127Y-96023095D01*
X114388127Y-96023095D02*
X114388127Y-95841666D01*
X114388127Y-95841666D02*
X114448603Y-95720714D01*
X114448603Y-95720714D02*
X114509080Y-95660238D01*
X114509080Y-95660238D02*
X114630032Y-95599761D01*
X114630032Y-95599761D02*
X114932413Y-95599761D01*
X114932413Y-95599761D02*
X115053365Y-95660238D01*
X115053365Y-95660238D02*
X115113842Y-95720714D01*
X115113842Y-95720714D02*
X115174318Y-95841666D01*
X115174318Y-95841666D02*
X115174318Y-96204523D01*
X115174318Y-96204523D02*
X115113842Y-96325476D01*
X115113842Y-96325476D02*
X115053365Y-96385952D01*
D13*
X90388673Y-62846857D02*
X89816254Y-62745842D01*
X89984612Y-63250918D02*
X89277506Y-62543811D01*
X89277506Y-62543811D02*
X89546880Y-62274437D01*
X89546880Y-62274437D02*
X89647895Y-62240765D01*
X89647895Y-62240765D02*
X89715238Y-62240765D01*
X89715238Y-62240765D02*
X89816254Y-62274437D01*
X89816254Y-62274437D02*
X89917269Y-62375452D01*
X89917269Y-62375452D02*
X89950941Y-62476468D01*
X89950941Y-62476468D02*
X89950941Y-62543811D01*
X89950941Y-62543811D02*
X89917269Y-62644826D01*
X89917269Y-62644826D02*
X89647895Y-62914200D01*
X91062108Y-62173422D02*
X90658047Y-62577483D01*
X90860078Y-62375452D02*
X90152971Y-61668346D01*
X90152971Y-61668346D02*
X90186643Y-61836704D01*
X90186643Y-61836704D02*
X90186643Y-61971391D01*
X90186643Y-61971391D02*
X90152971Y-62072407D01*
X91735544Y-61499987D02*
X91331483Y-61904048D01*
X91533513Y-61702017D02*
X90826406Y-60994910D01*
X90826406Y-60994910D02*
X90860078Y-61163269D01*
X90860078Y-61163269D02*
X90860078Y-61297956D01*
X90860078Y-61297956D02*
X90826406Y-61398971D01*
X139908220Y-62712362D02*
X140009235Y-62139943D01*
X139504159Y-62308301D02*
X140211266Y-61601195D01*
X140211266Y-61601195D02*
X140480640Y-61870569D01*
X140480640Y-61870569D02*
X140514312Y-61971584D01*
X140514312Y-61971584D02*
X140514312Y-62038927D01*
X140514312Y-62038927D02*
X140480640Y-62139943D01*
X140480640Y-62139943D02*
X140379625Y-62240958D01*
X140379625Y-62240958D02*
X140278609Y-62274630D01*
X140278609Y-62274630D02*
X140211266Y-62274630D01*
X140211266Y-62274630D02*
X140110251Y-62240958D01*
X140110251Y-62240958D02*
X139840877Y-61971584D01*
X140985716Y-62847049D02*
X140514312Y-63318454D01*
X141086731Y-62409317D02*
X140413296Y-62746034D01*
X140413296Y-62746034D02*
X140851029Y-63183767D01*
D12*
X160928318Y-96623332D02*
X161835461Y-96623332D01*
X161835461Y-96623332D02*
X162016889Y-96683809D01*
X162016889Y-96683809D02*
X162137842Y-96804761D01*
X162137842Y-96804761D02*
X162198318Y-96986190D01*
X162198318Y-96986190D02*
X162198318Y-97107142D01*
X161472603Y-95837142D02*
X161412127Y-95958094D01*
X161412127Y-95958094D02*
X161351651Y-96018571D01*
X161351651Y-96018571D02*
X161230699Y-96079047D01*
X161230699Y-96079047D02*
X161170222Y-96079047D01*
X161170222Y-96079047D02*
X161049270Y-96018571D01*
X161049270Y-96018571D02*
X160988794Y-95958094D01*
X160988794Y-95958094D02*
X160928318Y-95837142D01*
X160928318Y-95837142D02*
X160928318Y-95595237D01*
X160928318Y-95595237D02*
X160988794Y-95474285D01*
X160988794Y-95474285D02*
X161049270Y-95413809D01*
X161049270Y-95413809D02*
X161170222Y-95353332D01*
X161170222Y-95353332D02*
X161230699Y-95353332D01*
X161230699Y-95353332D02*
X161351651Y-95413809D01*
X161351651Y-95413809D02*
X161412127Y-95474285D01*
X161412127Y-95474285D02*
X161472603Y-95595237D01*
X161472603Y-95595237D02*
X161472603Y-95837142D01*
X161472603Y-95837142D02*
X161533080Y-95958094D01*
X161533080Y-95958094D02*
X161593556Y-96018571D01*
X161593556Y-96018571D02*
X161714508Y-96079047D01*
X161714508Y-96079047D02*
X161956413Y-96079047D01*
X161956413Y-96079047D02*
X162077365Y-96018571D01*
X162077365Y-96018571D02*
X162137842Y-95958094D01*
X162137842Y-95958094D02*
X162198318Y-95837142D01*
X162198318Y-95837142D02*
X162198318Y-95595237D01*
X162198318Y-95595237D02*
X162137842Y-95474285D01*
X162137842Y-95474285D02*
X162077365Y-95413809D01*
X162077365Y-95413809D02*
X161956413Y-95353332D01*
X161956413Y-95353332D02*
X161714508Y-95353332D01*
X161714508Y-95353332D02*
X161593556Y-95413809D01*
X161593556Y-95413809D02*
X161533080Y-95474285D01*
X161533080Y-95474285D02*
X161472603Y-95595237D01*
D13*
X98659580Y-51142857D02*
X98707200Y-51190476D01*
X98707200Y-51190476D02*
X98754819Y-51333333D01*
X98754819Y-51333333D02*
X98754819Y-51428571D01*
X98754819Y-51428571D02*
X98707200Y-51571428D01*
X98707200Y-51571428D02*
X98611961Y-51666666D01*
X98611961Y-51666666D02*
X98516723Y-51714285D01*
X98516723Y-51714285D02*
X98326247Y-51761904D01*
X98326247Y-51761904D02*
X98183390Y-51761904D01*
X98183390Y-51761904D02*
X97992914Y-51714285D01*
X97992914Y-51714285D02*
X97897676Y-51666666D01*
X97897676Y-51666666D02*
X97802438Y-51571428D01*
X97802438Y-51571428D02*
X97754819Y-51428571D01*
X97754819Y-51428571D02*
X97754819Y-51333333D01*
X97754819Y-51333333D02*
X97802438Y-51190476D01*
X97802438Y-51190476D02*
X97850057Y-51142857D01*
X98754819Y-50190476D02*
X98754819Y-50761904D01*
X98754819Y-50476190D02*
X97754819Y-50476190D01*
X97754819Y-50476190D02*
X97897676Y-50571428D01*
X97897676Y-50571428D02*
X97992914Y-50666666D01*
X97992914Y-50666666D02*
X98040533Y-50761904D01*
X97754819Y-49333333D02*
X97754819Y-49523809D01*
X97754819Y-49523809D02*
X97802438Y-49619047D01*
X97802438Y-49619047D02*
X97850057Y-49666666D01*
X97850057Y-49666666D02*
X97992914Y-49761904D01*
X97992914Y-49761904D02*
X98183390Y-49809523D01*
X98183390Y-49809523D02*
X98564342Y-49809523D01*
X98564342Y-49809523D02*
X98659580Y-49761904D01*
X98659580Y-49761904D02*
X98707200Y-49714285D01*
X98707200Y-49714285D02*
X98754819Y-49619047D01*
X98754819Y-49619047D02*
X98754819Y-49428571D01*
X98754819Y-49428571D02*
X98707200Y-49333333D01*
X98707200Y-49333333D02*
X98659580Y-49285714D01*
X98659580Y-49285714D02*
X98564342Y-49238095D01*
X98564342Y-49238095D02*
X98326247Y-49238095D01*
X98326247Y-49238095D02*
X98231009Y-49285714D01*
X98231009Y-49285714D02*
X98183390Y-49333333D01*
X98183390Y-49333333D02*
X98135771Y-49428571D01*
X98135771Y-49428571D02*
X98135771Y-49619047D01*
X98135771Y-49619047D02*
X98183390Y-49714285D01*
X98183390Y-49714285D02*
X98231009Y-49761904D01*
X98231009Y-49761904D02*
X98326247Y-49809523D01*
X120677887Y-89496412D02*
X120610543Y-89496412D01*
X120610543Y-89496412D02*
X120475856Y-89429068D01*
X120475856Y-89429068D02*
X120408513Y-89361725D01*
X120408513Y-89361725D02*
X120341169Y-89227038D01*
X120341169Y-89227038D02*
X120341169Y-89092351D01*
X120341169Y-89092351D02*
X120374841Y-88991336D01*
X120374841Y-88991336D02*
X120475856Y-88822977D01*
X120475856Y-88822977D02*
X120576871Y-88721962D01*
X120576871Y-88721962D02*
X120745230Y-88620946D01*
X120745230Y-88620946D02*
X120846245Y-88587275D01*
X120846245Y-88587275D02*
X120980932Y-88587275D01*
X120980932Y-88587275D02*
X121115619Y-88654618D01*
X121115619Y-88654618D02*
X121182963Y-88721962D01*
X121182963Y-88721962D02*
X121250306Y-88856649D01*
X121250306Y-88856649D02*
X121250306Y-88923992D01*
X121519680Y-89193366D02*
X121587024Y-89193366D01*
X121587024Y-89193366D02*
X121688039Y-89227038D01*
X121688039Y-89227038D02*
X121856398Y-89395397D01*
X121856398Y-89395397D02*
X121890070Y-89496412D01*
X121890070Y-89496412D02*
X121890070Y-89563755D01*
X121890070Y-89563755D02*
X121856398Y-89664771D01*
X121856398Y-89664771D02*
X121789054Y-89732114D01*
X121789054Y-89732114D02*
X121654367Y-89799458D01*
X121654367Y-89799458D02*
X120846245Y-89799458D01*
X120846245Y-89799458D02*
X121283978Y-90237190D01*
X149639580Y-66839107D02*
X149687200Y-66886726D01*
X149687200Y-66886726D02*
X149734819Y-67029583D01*
X149734819Y-67029583D02*
X149734819Y-67124821D01*
X149734819Y-67124821D02*
X149687200Y-67267678D01*
X149687200Y-67267678D02*
X149591961Y-67362916D01*
X149591961Y-67362916D02*
X149496723Y-67410535D01*
X149496723Y-67410535D02*
X149306247Y-67458154D01*
X149306247Y-67458154D02*
X149163390Y-67458154D01*
X149163390Y-67458154D02*
X148972914Y-67410535D01*
X148972914Y-67410535D02*
X148877676Y-67362916D01*
X148877676Y-67362916D02*
X148782438Y-67267678D01*
X148782438Y-67267678D02*
X148734819Y-67124821D01*
X148734819Y-67124821D02*
X148734819Y-67029583D01*
X148734819Y-67029583D02*
X148782438Y-66886726D01*
X148782438Y-66886726D02*
X148830057Y-66839107D01*
X149734819Y-65886726D02*
X149734819Y-66458154D01*
X149734819Y-66172440D02*
X148734819Y-66172440D01*
X148734819Y-66172440D02*
X148877676Y-66267678D01*
X148877676Y-66267678D02*
X148972914Y-66362916D01*
X148972914Y-66362916D02*
X149020533Y-66458154D01*
X148734819Y-65267678D02*
X148734819Y-65172440D01*
X148734819Y-65172440D02*
X148782438Y-65077202D01*
X148782438Y-65077202D02*
X148830057Y-65029583D01*
X148830057Y-65029583D02*
X148925295Y-64981964D01*
X148925295Y-64981964D02*
X149115771Y-64934345D01*
X149115771Y-64934345D02*
X149353866Y-64934345D01*
X149353866Y-64934345D02*
X149544342Y-64981964D01*
X149544342Y-64981964D02*
X149639580Y-65029583D01*
X149639580Y-65029583D02*
X149687200Y-65077202D01*
X149687200Y-65077202D02*
X149734819Y-65172440D01*
X149734819Y-65172440D02*
X149734819Y-65267678D01*
X149734819Y-65267678D02*
X149687200Y-65362916D01*
X149687200Y-65362916D02*
X149639580Y-65410535D01*
X149639580Y-65410535D02*
X149544342Y-65458154D01*
X149544342Y-65458154D02*
X149353866Y-65505773D01*
X149353866Y-65505773D02*
X149115771Y-65505773D01*
X149115771Y-65505773D02*
X148925295Y-65458154D01*
X148925295Y-65458154D02*
X148830057Y-65410535D01*
X148830057Y-65410535D02*
X148782438Y-65362916D01*
X148782438Y-65362916D02*
X148734819Y-65267678D01*
D12*
X82582618Y-69334318D02*
X82582618Y-68064318D01*
X82582618Y-68064318D02*
X82884999Y-68064318D01*
X82884999Y-68064318D02*
X83066428Y-68124794D01*
X83066428Y-68124794D02*
X83187380Y-68245746D01*
X83187380Y-68245746D02*
X83247857Y-68366699D01*
X83247857Y-68366699D02*
X83308333Y-68608603D01*
X83308333Y-68608603D02*
X83308333Y-68790032D01*
X83308333Y-68790032D02*
X83247857Y-69031937D01*
X83247857Y-69031937D02*
X83187380Y-69152889D01*
X83187380Y-69152889D02*
X83066428Y-69273842D01*
X83066428Y-69273842D02*
X82884999Y-69334318D01*
X82884999Y-69334318D02*
X82582618Y-69334318D01*
X84517857Y-69334318D02*
X83792142Y-69334318D01*
X84154999Y-69334318D02*
X84154999Y-68064318D01*
X84154999Y-68064318D02*
X84034047Y-68245746D01*
X84034047Y-68245746D02*
X83913095Y-68366699D01*
X83913095Y-68366699D02*
X83792142Y-68427175D01*
D13*
X144383333Y-56171069D02*
X144050000Y-55694878D01*
X143811905Y-56171069D02*
X143811905Y-55171069D01*
X143811905Y-55171069D02*
X144192857Y-55171069D01*
X144192857Y-55171069D02*
X144288095Y-55218688D01*
X144288095Y-55218688D02*
X144335714Y-55266307D01*
X144335714Y-55266307D02*
X144383333Y-55361545D01*
X144383333Y-55361545D02*
X144383333Y-55504402D01*
X144383333Y-55504402D02*
X144335714Y-55599640D01*
X144335714Y-55599640D02*
X144288095Y-55647259D01*
X144288095Y-55647259D02*
X144192857Y-55694878D01*
X144192857Y-55694878D02*
X143811905Y-55694878D01*
X144859524Y-56171069D02*
X145050000Y-56171069D01*
X145050000Y-56171069D02*
X145145238Y-56123450D01*
X145145238Y-56123450D02*
X145192857Y-56075830D01*
X145192857Y-56075830D02*
X145288095Y-55932973D01*
X145288095Y-55932973D02*
X145335714Y-55742497D01*
X145335714Y-55742497D02*
X145335714Y-55361545D01*
X145335714Y-55361545D02*
X145288095Y-55266307D01*
X145288095Y-55266307D02*
X145240476Y-55218688D01*
X145240476Y-55218688D02*
X145145238Y-55171069D01*
X145145238Y-55171069D02*
X144954762Y-55171069D01*
X144954762Y-55171069D02*
X144859524Y-55218688D01*
X144859524Y-55218688D02*
X144811905Y-55266307D01*
X144811905Y-55266307D02*
X144764286Y-55361545D01*
X144764286Y-55361545D02*
X144764286Y-55599640D01*
X144764286Y-55599640D02*
X144811905Y-55694878D01*
X144811905Y-55694878D02*
X144859524Y-55742497D01*
X144859524Y-55742497D02*
X144954762Y-55790116D01*
X144954762Y-55790116D02*
X145145238Y-55790116D01*
X145145238Y-55790116D02*
X145240476Y-55742497D01*
X145240476Y-55742497D02*
X145288095Y-55694878D01*
X145288095Y-55694878D02*
X145335714Y-55599640D01*
D12*
X87304318Y-49753332D02*
X88211461Y-49753332D01*
X88211461Y-49753332D02*
X88392889Y-49813809D01*
X88392889Y-49813809D02*
X88513842Y-49934761D01*
X88513842Y-49934761D02*
X88574318Y-50116190D01*
X88574318Y-50116190D02*
X88574318Y-50237142D01*
X87727651Y-48604285D02*
X88574318Y-48604285D01*
X87243842Y-48906666D02*
X88150984Y-49209047D01*
X88150984Y-49209047D02*
X88150984Y-48422856D01*
D10*
X158500000Y-82200000D02*
G75*
G02*
X158400000Y-82200000I-50000J0D01*
G01*
X158400000Y-82200000D02*
G75*
G02*
X158500000Y-82200000I50000J0D01*
G01*
D14*
X164288000Y-82700000D02*
X164288000Y-74700000D01*
X162400000Y-73700000D02*
X160038000Y-73700000D01*
X160038000Y-83700000D02*
X162400000Y-83700000D01*
X160038000Y-82700000D02*
X160038000Y-83700000D01*
X160038000Y-73700000D02*
X160038000Y-74700000D01*
D10*
X158500000Y-82200000D02*
X158500000Y-82200000D01*
X158400000Y-82200000D02*
X158400000Y-82200000D01*
D15*
X77675000Y-56894564D02*
X77675000Y-56440436D01*
X79145000Y-56894564D02*
X79145000Y-56440436D01*
X149248748Y-45265000D02*
X149771252Y-45265000D01*
X149248748Y-46735000D02*
X149771252Y-46735000D01*
X82118748Y-76215000D02*
X82641252Y-76215000D01*
X82118748Y-77685000D02*
X82641252Y-77685000D01*
X82925000Y-65181252D02*
X82925000Y-64658748D01*
X84395000Y-65181252D02*
X84395000Y-64658748D01*
X122065000Y-93261253D02*
X122065000Y-92738747D01*
X123535000Y-93261253D02*
X123535000Y-92738747D01*
X111015000Y-77822936D02*
X111015000Y-78277064D01*
X112485000Y-77822936D02*
X112485000Y-78277064D01*
X109711252Y-95315000D02*
X109188748Y-95315000D01*
X109711252Y-96785000D02*
X109188748Y-96785000D01*
X149248748Y-47315000D02*
X149771252Y-47315000D01*
X149248748Y-48785000D02*
X149771252Y-48785000D01*
X82025000Y-56406248D02*
X82025000Y-56928752D01*
X83495000Y-56406248D02*
X83495000Y-56928752D01*
D14*
X72790000Y-71870000D02*
X79290000Y-71870000D01*
X72790000Y-75370000D02*
X72790000Y-71870000D01*
X72915000Y-77645000D02*
X72915000Y-75895000D01*
X79290000Y-71870000D02*
X79290000Y-75370000D01*
X79290000Y-75370000D02*
X72790000Y-75370000D01*
D15*
X86102936Y-87045000D02*
X86557064Y-87045000D01*
X86102936Y-88515000D02*
X86557064Y-88515000D01*
X115165000Y-78311252D02*
X115165000Y-77788748D01*
X116635000Y-78311252D02*
X116635000Y-77788748D01*
D14*
X73394500Y-81270000D02*
X73394500Y-90210000D01*
X73394500Y-90210000D02*
X74872500Y-90210000D01*
X74872500Y-81270000D02*
X73394500Y-81270000D01*
X78872500Y-81270000D02*
X77472500Y-81270000D01*
X78872500Y-90210000D02*
X77472500Y-90210000D01*
D10*
X81772500Y-82540000D02*
X81772500Y-82540000D01*
X81872500Y-82540000D02*
X81872500Y-82540000D01*
X81772500Y-82540000D02*
G75*
G02*
X81872500Y-82540000I50000J0D01*
G01*
X81872500Y-82540000D02*
G75*
G02*
X81772500Y-82540000I-50000J0D01*
G01*
D15*
X80515000Y-65167064D02*
X80515000Y-64712936D01*
X81985000Y-65167064D02*
X81985000Y-64712936D01*
X86487064Y-83825000D02*
X86032936Y-83825000D01*
X86487064Y-85295000D02*
X86032936Y-85295000D01*
X145032936Y-58631250D02*
X145487064Y-58631250D01*
X145032936Y-60101250D02*
X145487064Y-60101250D01*
X113665000Y-102577064D02*
X113665000Y-102122936D01*
X115135000Y-102577064D02*
X115135000Y-102122936D01*
D10*
X97550000Y-67400000D02*
X91550000Y-67400000D01*
X97550000Y-73400000D02*
X91550000Y-73400000D01*
D14*
X101050000Y-72630000D02*
X101050000Y-72630000D01*
X101250000Y-72630000D02*
X101250000Y-72630000D01*
X101050000Y-72630000D02*
G75*
G02*
X101250000Y-72630000I100000J0D01*
G01*
X101250000Y-72630000D02*
G75*
G02*
X101050000Y-72630000I-100000J0D01*
G01*
D15*
X143779830Y-49174356D02*
X143779830Y-49628484D01*
X145249830Y-49174356D02*
X145249830Y-49628484D01*
X81018748Y-98725000D02*
X81541252Y-98725000D01*
X81018748Y-100195000D02*
X81541252Y-100195000D01*
X150735000Y-63037502D02*
X150735000Y-62514998D01*
X152205000Y-63037502D02*
X152205000Y-62514998D01*
X145078748Y-56541250D02*
X145601252Y-56541250D01*
X145078748Y-58011250D02*
X145601252Y-58011250D01*
X149505000Y-51564998D02*
X149505000Y-52087502D01*
X150975000Y-51564998D02*
X150975000Y-52087502D01*
X138925000Y-53399186D02*
X138925000Y-53853314D01*
X140395000Y-53399186D02*
X140395000Y-53853314D01*
D14*
X147800000Y-54776250D02*
X147800000Y-59776250D01*
X152800000Y-59776250D02*
X152800000Y-54776250D01*
D15*
X118075010Y-92644457D02*
X117705543Y-92274990D01*
X119114457Y-91605010D02*
X118744990Y-91235543D01*
D16*
X122225000Y-75950000D02*
G75*
G02*
X121975000Y-75950000I-125000J0D01*
G01*
X121975000Y-75950000D02*
G75*
G02*
X122225000Y-75950000I125000J0D01*
G01*
D15*
X130340835Y-59330282D02*
X130019718Y-59009165D01*
X131380282Y-58290835D02*
X131059165Y-57969718D01*
D10*
X118950000Y-96399999D02*
X118950000Y-97199999D01*
X120450000Y-96399999D02*
X120450000Y-97199999D01*
D15*
X99715000Y-47261253D02*
X99715000Y-46738747D01*
X101185000Y-47261253D02*
X101185000Y-46738747D01*
X89223752Y-75265000D02*
X88701248Y-75265000D01*
X89223752Y-76735000D02*
X88701248Y-76735000D01*
X122065000Y-97121253D02*
X122065000Y-96598747D01*
X123535000Y-97121253D02*
X123535000Y-96598747D01*
X81018747Y-100755000D02*
X81541253Y-100755000D01*
X81018747Y-102225000D02*
X81541253Y-102225000D01*
X143405000Y-62523314D02*
X143405000Y-62069186D01*
X144875000Y-62523314D02*
X144875000Y-62069186D01*
D10*
X102659999Y-131260000D02*
X102659999Y-131260000D01*
X102760000Y-131260000D02*
X102760000Y-131260000D01*
D14*
X105310000Y-123260000D02*
X133810000Y-123260000D01*
X105310000Y-128660000D02*
X105310000Y-123260000D01*
X105310000Y-139260000D02*
X105310000Y-133860000D01*
X133810000Y-123260000D02*
X133810000Y-128660000D01*
X133810000Y-133860000D02*
X133810000Y-139260000D01*
X133810000Y-139260000D02*
X105310000Y-139260000D01*
D10*
X102659999Y-131260000D02*
G75*
G02*
X102759999Y-131260000I50000J0D01*
G01*
X102760000Y-131260000D02*
G75*
G02*
X102659998Y-131260000I-50001J1D01*
G01*
D15*
X100069718Y-58390835D02*
X100390835Y-58069718D01*
X101109165Y-59430282D02*
X101430282Y-59109165D01*
X113115000Y-77788748D02*
X113115000Y-78311252D01*
X114585000Y-77788748D02*
X114585000Y-78311252D01*
X145565000Y-62129186D02*
X145565000Y-62583314D01*
X147035000Y-62129186D02*
X147035000Y-62583314D01*
D10*
X126540000Y-45776250D02*
X137040000Y-45776250D01*
X126540000Y-53376250D02*
X126540000Y-45776250D01*
X137040000Y-45776250D02*
X137040000Y-53376250D01*
X137040000Y-53376250D02*
X126540000Y-53376250D01*
D14*
X139130000Y-49251250D02*
X139130000Y-48101250D01*
X139190000Y-47401250D02*
X142090000Y-47401250D01*
X139190000Y-47751250D02*
X139190000Y-47401250D01*
X142090000Y-47401250D02*
X142090000Y-47751250D01*
X142090000Y-47751250D02*
X139190000Y-47751250D01*
D15*
X96169718Y-58790835D02*
X96490835Y-58469718D01*
X97209165Y-59830282D02*
X97530282Y-59509165D01*
X114151247Y-80665000D02*
X114673753Y-80665000D01*
X114151247Y-82135000D02*
X114673753Y-82135000D01*
X119905000Y-71107064D02*
X119905000Y-70652936D01*
X121375000Y-71107064D02*
X121375000Y-70652936D01*
D14*
X72962000Y-101000000D02*
X72962000Y-109000000D01*
X74850000Y-110000000D02*
X77212000Y-110000000D01*
X77212000Y-100000000D02*
X74850000Y-100000000D01*
X77212000Y-101000000D02*
X77212000Y-100000000D01*
X77212000Y-110000000D02*
X77212000Y-109000000D01*
D10*
X78750000Y-101500000D02*
X78750000Y-101500000D01*
X78850000Y-101500000D02*
X78850000Y-101500000D01*
X78750000Y-101500000D02*
G75*
G02*
X78850000Y-101500000I50000J0D01*
G01*
X78850000Y-101500000D02*
G75*
G02*
X78750000Y-101500000I-50000J0D01*
G01*
D14*
X81800000Y-74765000D02*
X81800000Y-73615000D01*
X81860000Y-72915000D02*
X84760000Y-72915000D01*
X81860000Y-73265000D02*
X81860000Y-72915000D01*
X84760000Y-72915000D02*
X84760000Y-73265000D01*
X84760000Y-73265000D02*
X81860000Y-73265000D01*
D10*
X104500000Y-45740000D02*
X104500000Y-45740000D01*
X104600000Y-45740000D02*
X104600000Y-45740000D01*
D14*
X105500000Y-38250000D02*
X123500000Y-38250000D01*
X105500000Y-45000000D02*
X105500000Y-38250000D01*
X105500000Y-63000000D02*
X105500000Y-63750000D01*
X105500000Y-63750000D02*
X106700000Y-63750000D01*
X123500000Y-38250000D02*
X123500000Y-45000000D01*
X123500000Y-63000000D02*
X123500000Y-63750000D01*
X123500000Y-63750000D02*
X122300000Y-63750000D01*
D10*
X104500000Y-45740000D02*
G75*
G02*
X104600000Y-45740000I50000J0D01*
G01*
X104600000Y-45740000D02*
G75*
G02*
X104500000Y-45740000I-50000J0D01*
G01*
D15*
X117935000Y-71107064D02*
X117935000Y-70652936D01*
X119405000Y-71107064D02*
X119405000Y-70652936D01*
X79775000Y-56406248D02*
X79775000Y-56928752D01*
X81245000Y-56406248D02*
X81245000Y-56928752D01*
X134240835Y-60330282D02*
X133919718Y-60009165D01*
X135280282Y-59290835D02*
X134959165Y-58969718D01*
D14*
X117100000Y-94563000D02*
X117100000Y-94563000D01*
X117100000Y-94563000D02*
X117100000Y-94563000D01*
X117200000Y-94563000D02*
X117200000Y-94563000D01*
X117100000Y-94563000D02*
G75*
G02*
X117200000Y-94563000I50000J0D01*
G01*
X117200000Y-94563000D02*
G75*
G02*
X117100000Y-94563000I-50000J0D01*
G01*
X117200000Y-94563000D02*
G75*
G02*
X117100000Y-94563000I-50000J0D01*
G01*
X145890000Y-51051250D02*
X148790000Y-51051250D01*
X145890000Y-51601250D02*
X145890000Y-51051250D01*
X148790000Y-51051250D02*
X148790000Y-51601250D01*
X148790000Y-51601250D02*
X145890000Y-51601250D01*
X148940000Y-49451250D02*
X148940000Y-50701250D01*
D15*
X92219718Y-59290835D02*
X92540835Y-58969718D01*
X93259165Y-60330282D02*
X93580282Y-60009165D01*
X137867192Y-61067570D02*
X137546075Y-60746453D01*
X138906639Y-60028123D02*
X138585522Y-59707006D01*
D10*
X158312000Y-99700000D02*
X158312000Y-99700000D01*
X158412000Y-99700000D02*
X158412000Y-99700000D01*
D14*
X159950000Y-91200000D02*
X159950000Y-92200000D01*
X159950000Y-100200000D02*
X159950000Y-101200000D01*
X159950000Y-101200000D02*
X162312000Y-101200000D01*
X162312000Y-91200000D02*
X159950000Y-91200000D01*
X164200000Y-100200000D02*
X164200000Y-92200000D01*
D10*
X158312000Y-99700000D02*
G75*
G02*
X158412000Y-99700000I50000J0D01*
G01*
X158412000Y-99700000D02*
G75*
G02*
X158312000Y-99700000I-50000J0D01*
G01*
D15*
X97550929Y-47273753D02*
X97550929Y-46751247D01*
X99020929Y-47273753D02*
X99020929Y-46751247D01*
X119465010Y-91234457D02*
X119095543Y-90864990D01*
X120504457Y-90195010D02*
X120134990Y-89825543D01*
X148545000Y-62484998D02*
X148545000Y-63007502D01*
X150015000Y-62484998D02*
X150015000Y-63007502D01*
D14*
X80922000Y-70062000D02*
X86445000Y-70062000D01*
X86118000Y-67458000D02*
X80922000Y-67458000D01*
D15*
X143779830Y-52974356D02*
X143779830Y-53428484D01*
X145249830Y-52974356D02*
X145249830Y-53428484D01*
D10*
X90450000Y-46330000D02*
X84450000Y-46330000D01*
X90450000Y-52330000D02*
X84450000Y-52330000D01*
D14*
X93950000Y-51560000D02*
X93950000Y-51560000D01*
X94150000Y-51560000D02*
X94150000Y-51560000D01*
X93950000Y-51560000D02*
G75*
G02*
X94150000Y-51560000I100000J0D01*
G01*
X94150000Y-51560000D02*
G75*
G02*
X93950000Y-51560000I-100000J0D01*
G01*
X141025000Y-50556250D02*
X141025000Y-52256250D01*
X142275000Y-49836250D02*
X142275000Y-52256250D01*
M02*
