%TF.GenerationSoftware,KiCad,Pcbnew,9.0.7*%
%TF.CreationDate,2026-04-18T11:13:52-03:00*%
%TF.ProjectId,Solar_Tracker_PCB_Main,536f6c61-725f-4547-9261-636b65725f50,rev?*%
%TF.SameCoordinates,Original*%
%TF.FileFunction,Copper,L4,Bot*%
%TF.FilePolarity,Positive*%
%FSLAX46Y46*%
G04 Gerber Fmt 4.6, Leading zero omitted, Abs format (unit mm)*
G04 Created by KiCad (PCBNEW 9.0.7) date 2026-04-18 11:13:52*
%MOMM*%
%LPD*%
G01*
G04 APERTURE LIST*
%TA.AperFunction,ComponentPad*%
%ADD10R,1.700000X1.700000*%
%TD*%
%TA.AperFunction,ComponentPad*%
%ADD11C,1.700000*%
%TD*%
%TA.AperFunction,ComponentPad*%
%ADD12C,5.000000*%
%TD*%
%TA.AperFunction,ComponentPad*%
%ADD13C,1.950000*%
%TD*%
%TA.AperFunction,ViaPad*%
%ADD14C,0.700000*%
%TD*%
%TA.AperFunction,Conductor*%
%ADD15C,0.200000*%
%TD*%
G04 APERTURE END LIST*
D10*
X161700000Y-107550000D03*
D11*
X161700000Y-110090000D03*
X161700000Y-112630000D03*
X161700000Y-115170000D03*
X161700000Y-117710000D03*
X161700000Y-120250000D03*
D12*
X161000000Y-49000000D03*
X76000000Y-136500000D03*
X161000000Y-136500000D03*
D13*
X129290000Y-49876250D03*
X134290000Y-49876250D03*
D12*
X76000000Y-49000000D03*
D14*
X117895654Y-96904892D03*
X103790000Y-47010000D03*
X160160000Y-112600000D03*
X85700000Y-70400000D03*
X135750000Y-58670000D03*
X120730000Y-92880000D03*
X160220000Y-117710000D03*
X132424677Y-58380028D03*
X76010000Y-101490000D03*
X122510000Y-76350000D03*
X111750000Y-75750000D03*
X99370000Y-49350000D03*
X80240000Y-98110000D03*
X78400000Y-59130000D03*
X115751991Y-92820133D03*
X85490000Y-74200000D03*
X91080000Y-61380000D03*
X99010000Y-60440000D03*
X114400000Y-104750000D03*
X139850000Y-58200000D03*
X119650000Y-73100000D03*
X95050000Y-60970000D03*
X160200000Y-107560000D03*
X121900000Y-64950000D03*
X101500000Y-66900000D03*
X94760000Y-65570000D03*
X90450000Y-105500000D03*
X90900000Y-65420000D03*
X90575000Y-103000000D03*
X99300000Y-65510000D03*
X90450000Y-107475000D03*
X107515000Y-70450000D03*
X152750000Y-99750000D03*
X152750000Y-95700000D03*
X112600000Y-68535000D03*
X108780000Y-69850000D03*
X152750000Y-98700003D03*
X152750000Y-94700000D03*
X113850000Y-68000000D03*
X115140000Y-67250000D03*
X152750000Y-93750000D03*
X110050000Y-69500000D03*
X152750000Y-97750000D03*
X152750000Y-96700000D03*
X111320000Y-68950000D03*
X115340000Y-104730000D03*
X122800000Y-90700000D03*
X163750000Y-56080000D03*
X93720000Y-47100000D03*
X77490000Y-59130000D03*
X91750000Y-56080000D03*
X136750000Y-101080000D03*
X145750000Y-128080000D03*
X73750000Y-128080000D03*
X118750000Y-56080000D03*
X86600000Y-75970000D03*
X163750000Y-65080000D03*
X151880000Y-46030000D03*
X87930000Y-62030000D03*
X163430000Y-90100000D03*
X119680000Y-74080000D03*
X88540000Y-84550000D03*
X163590000Y-84710000D03*
X88980000Y-80080000D03*
X91750000Y-74080000D03*
X145750000Y-92080000D03*
X120190000Y-75360000D03*
X154750000Y-137080000D03*
X80550000Y-72320000D03*
X84770000Y-76960000D03*
X118750000Y-119080000D03*
X82750000Y-128080000D03*
X113340000Y-93860000D03*
X159670000Y-91700000D03*
X91750000Y-119080000D03*
X145750000Y-119080000D03*
X95664088Y-61627951D03*
X117956000Y-75204000D03*
X127750000Y-137080000D03*
X136750000Y-119080000D03*
X136750000Y-137080000D03*
X163750000Y-47080000D03*
X127750000Y-74080000D03*
X100650000Y-68120000D03*
X91750000Y-92080000D03*
X163500000Y-102240000D03*
X109750000Y-119080000D03*
X99580000Y-61150000D03*
X103330000Y-59770000D03*
X151470000Y-65100000D03*
X73750000Y-56080000D03*
X73750000Y-83080000D03*
X163310000Y-110070000D03*
X83620000Y-99470000D03*
X100750000Y-119080000D03*
X118750000Y-137080000D03*
X136750000Y-92080000D03*
X96790000Y-46010000D03*
X100750000Y-137080000D03*
X103790000Y-45740000D03*
X100750000Y-92080000D03*
X91750000Y-137080000D03*
X127750000Y-128080000D03*
X118750000Y-47080000D03*
X149250000Y-65110000D03*
X110700000Y-75710000D03*
X72540000Y-76750000D03*
X82750000Y-119080000D03*
X154750000Y-56080000D03*
X136750000Y-83080000D03*
X141070000Y-54650000D03*
X154750000Y-83080000D03*
X154750000Y-110080000D03*
X163750000Y-137080000D03*
X129290000Y-48410000D03*
X88400000Y-68190000D03*
X91750000Y-101080000D03*
X145750000Y-74080000D03*
X86600000Y-70400000D03*
X127750000Y-119080000D03*
X118750000Y-83080000D03*
X109750000Y-128080000D03*
X108610000Y-73460000D03*
X73660000Y-98930000D03*
X118750000Y-110080000D03*
X107140000Y-96050000D03*
X83620000Y-101510000D03*
X145750000Y-83080000D03*
X75820000Y-106510000D03*
X116651935Y-92809864D03*
X91750000Y-110080000D03*
X73750000Y-137080000D03*
X127750000Y-110080000D03*
X79280000Y-98050000D03*
X160200000Y-116720000D03*
X100750000Y-101080000D03*
X109750000Y-92080000D03*
X73560000Y-111100000D03*
X154750000Y-119080000D03*
X163750000Y-128080000D03*
X76170000Y-92500000D03*
X109750000Y-110080000D03*
X80510000Y-59150000D03*
X109750000Y-56080000D03*
X125130000Y-45760000D03*
X109750000Y-47080000D03*
X80190000Y-78960000D03*
X136750000Y-65080000D03*
X100750000Y-128080000D03*
X121300000Y-96800000D03*
X83650000Y-62570000D03*
X131769152Y-57763350D03*
X109750000Y-101080000D03*
X163290000Y-115210000D03*
X127750000Y-83080000D03*
X75890000Y-104510000D03*
X99380588Y-50249941D03*
X81170000Y-47100000D03*
X81190000Y-62630000D03*
X127750000Y-65080000D03*
X154750000Y-92080000D03*
X73750000Y-119080000D03*
X123402201Y-76468244D03*
X82750000Y-59080000D03*
X76330000Y-78910000D03*
X73750000Y-47080000D03*
X82750000Y-110080000D03*
X88600000Y-87730000D03*
X136750000Y-110080000D03*
X136750000Y-128080000D03*
X159700000Y-74280000D03*
X112100000Y-81400000D03*
X163370000Y-120290000D03*
X91750000Y-128080000D03*
X145750000Y-137080000D03*
X160128255Y-111700558D03*
X114430000Y-100350000D03*
X144760000Y-45980000D03*
X163540000Y-72650000D03*
X118750000Y-128080000D03*
X85520000Y-73190000D03*
X73750000Y-74080000D03*
X80170000Y-92530000D03*
X140840000Y-58180000D03*
X143050000Y-54240000D03*
X151850000Y-48100000D03*
X160230000Y-106650000D03*
X131680000Y-131220000D03*
X121389104Y-93492851D03*
X109750000Y-137080000D03*
X146260000Y-64790000D03*
X101130000Y-79480000D03*
X136750000Y-74080000D03*
X100750000Y-110080000D03*
X135040000Y-57930000D03*
X145750000Y-101080000D03*
X154750000Y-101080000D03*
X145750000Y-110080000D03*
X75980000Y-102510000D03*
X136750000Y-56080000D03*
X127750000Y-56080000D03*
X154750000Y-128080000D03*
X82750000Y-137080000D03*
X120030000Y-88810000D03*
X113850000Y-75740000D03*
X91704505Y-62028072D03*
X115900000Y-75790000D03*
X156360556Y-79850000D03*
X126850000Y-57825000D03*
X155650000Y-78850000D03*
X120750000Y-58200000D03*
X120675000Y-60500000D03*
X154450000Y-76850000D03*
X126850000Y-56800000D03*
X157100000Y-80900000D03*
X120725000Y-59275000D03*
X155050000Y-77850000D03*
X153800000Y-75850000D03*
X120750000Y-61787804D03*
X153250000Y-82000000D03*
X116365415Y-66500832D03*
X88030000Y-65800000D03*
X142070000Y-64050000D03*
D15*
X101500000Y-66900000D02*
X101600000Y-66900000D01*
X120960000Y-64910000D02*
X121000000Y-64950000D01*
X101600000Y-66900000D02*
X103590000Y-64910000D01*
X103590000Y-64910000D02*
X120960000Y-64910000D01*
X121000000Y-64950000D02*
X121900000Y-64950000D01*
X94000000Y-104780000D02*
X93280000Y-105500000D01*
X94000000Y-66330000D02*
X94000000Y-104780000D01*
X93280000Y-105500000D02*
X90450000Y-105500000D01*
X94760000Y-65570000D02*
X94000000Y-66330000D01*
X90630000Y-65690000D02*
X90630000Y-102945000D01*
X90630000Y-102945000D02*
X90575000Y-103000000D01*
X90900000Y-65420000D02*
X90630000Y-65690000D01*
X90550000Y-107550000D02*
X90475000Y-107475000D01*
X98740000Y-66070000D02*
X98740000Y-106335000D01*
X97625000Y-107450000D02*
X90550000Y-107450000D01*
X90475000Y-107475000D02*
X90450000Y-107475000D01*
X98740000Y-106335000D02*
X97625000Y-107450000D01*
X90550000Y-107450000D02*
X90550000Y-107550000D01*
X99300000Y-65510000D02*
X98740000Y-66070000D01*
X107515000Y-70450000D02*
X107550000Y-70450000D01*
X146591536Y-70950000D02*
X149344000Y-73702464D01*
X107550000Y-70450000D02*
X108050000Y-70950000D01*
X108050000Y-70950000D02*
X146591536Y-70950000D01*
X149344000Y-73702464D02*
X149344000Y-98594000D01*
X150500000Y-99750000D02*
X152750000Y-99750000D01*
X149344000Y-98594000D02*
X150500000Y-99750000D01*
X152675000Y-95625000D02*
X151625000Y-95625000D01*
X152750000Y-95700000D02*
X152675000Y-95625000D01*
X151248000Y-95248000D02*
X151248000Y-72798000D01*
X112600000Y-68680000D02*
X112600000Y-68535000D01*
X151248000Y-72798000D02*
X147423000Y-68973000D01*
X151625000Y-95625000D02*
X151248000Y-95248000D01*
X112893000Y-68973000D02*
X112600000Y-68680000D01*
X147423000Y-68973000D02*
X112893000Y-68973000D01*
X146772768Y-70352000D02*
X149895000Y-73474232D01*
X110020768Y-70350000D02*
X110021768Y-70351000D01*
X109280000Y-70350000D02*
X110020768Y-70350000D01*
X149895000Y-97395000D02*
X151200003Y-98700003D01*
X111144668Y-70351000D02*
X111145668Y-70352000D01*
X108780000Y-69850000D02*
X109280000Y-70350000D01*
X110021768Y-70351000D02*
X111144668Y-70351000D01*
X149895000Y-73474232D02*
X149895000Y-97395000D01*
X111145668Y-70352000D02*
X146772768Y-70352000D01*
X151200003Y-98700003D02*
X152750000Y-98700003D01*
X151698000Y-72648000D02*
X147622000Y-68572000D01*
X113850000Y-68050000D02*
X113850000Y-68000000D01*
X151950000Y-94700000D02*
X151698000Y-94448000D01*
X152750000Y-94700000D02*
X151950000Y-94700000D01*
X114372000Y-68572000D02*
X113850000Y-68050000D01*
X147622000Y-68572000D02*
X114372000Y-68572000D01*
X151698000Y-94448000D02*
X151698000Y-72648000D01*
X152249000Y-93750000D02*
X152750000Y-93750000D01*
X115140000Y-67250000D02*
X115180000Y-67250000D01*
X147796000Y-68171000D02*
X152099000Y-72474000D01*
X152099000Y-72474000D02*
X152099000Y-93600000D01*
X115180000Y-67250000D02*
X116101000Y-68171000D01*
X116101000Y-68171000D02*
X147796000Y-68171000D01*
X152099000Y-93600000D02*
X152249000Y-93750000D01*
X150446000Y-96946000D02*
X150446000Y-73350993D01*
X146896007Y-69801000D02*
X111373900Y-69801000D01*
X150446000Y-73350993D02*
X146896007Y-69801000D01*
X152750000Y-97750000D02*
X151250000Y-97750000D01*
X110350000Y-69800000D02*
X110050000Y-69500000D01*
X111373900Y-69801000D02*
X111372900Y-69800000D01*
X111372900Y-69800000D02*
X110350000Y-69800000D01*
X151250000Y-97750000D02*
X150446000Y-96946000D01*
X152750000Y-96700000D02*
X151450000Y-96700000D01*
X111320000Y-69180000D02*
X111320000Y-68950000D01*
X150847000Y-72997000D02*
X147250000Y-69400000D01*
X150847000Y-96097000D02*
X150847000Y-72997000D01*
X147250000Y-69400000D02*
X111540000Y-69400000D01*
X111540000Y-69400000D02*
X111320000Y-69180000D01*
X151450000Y-96700000D02*
X150847000Y-96097000D01*
X156300000Y-62081600D02*
X154220400Y-60002000D01*
X156360556Y-79850000D02*
X156350000Y-79850000D01*
X154220400Y-60002000D02*
X129917800Y-60002000D01*
X129917800Y-60002000D02*
X129915800Y-60000000D01*
X129915800Y-60000000D02*
X129025000Y-60000000D01*
X129025000Y-60000000D02*
X126850000Y-57825000D01*
X156300000Y-79800000D02*
X156300000Y-62081600D01*
X156350000Y-79850000D02*
X156300000Y-79800000D01*
X155650000Y-78850000D02*
X155700000Y-78800000D01*
X129749700Y-60401000D02*
X128858900Y-60401000D01*
X122775000Y-60400000D02*
X120750000Y-58375000D01*
X154054300Y-60403000D02*
X129751700Y-60403000D01*
X155700000Y-78800000D02*
X155700000Y-62048700D01*
X128857900Y-60400000D02*
X122775000Y-60400000D01*
X128858900Y-60401000D02*
X128857900Y-60400000D01*
X155700000Y-62048700D02*
X154054300Y-60403000D01*
X129751700Y-60403000D02*
X129749700Y-60401000D01*
X120750000Y-58375000D02*
X120750000Y-58200000D01*
X128526700Y-61203000D02*
X128525700Y-61202000D01*
X129417500Y-61203000D02*
X128526700Y-61203000D01*
X120948319Y-60773319D02*
X120948319Y-60775000D01*
X122447096Y-61200000D02*
X121375000Y-61200000D01*
X153722100Y-61205000D02*
X129419500Y-61205000D01*
X121375000Y-61200000D02*
X120675000Y-60500000D01*
X122449096Y-61202000D02*
X122447096Y-61200000D01*
X129419500Y-61205000D02*
X129417500Y-61203000D01*
X128525700Y-61202000D02*
X122449096Y-61202000D01*
X154450000Y-61932900D02*
X153722100Y-61205000D01*
X154450000Y-76850000D02*
X154450000Y-61932900D01*
X154386500Y-59601000D02*
X130083900Y-59601000D01*
X126850000Y-56825000D02*
X126850000Y-56800000D01*
X157075000Y-80875000D02*
X157075000Y-62289500D01*
X157100000Y-80900000D02*
X157075000Y-80875000D01*
X157075000Y-62289500D02*
X154386500Y-59601000D01*
X130081900Y-59599000D02*
X129624000Y-59599000D01*
X130083900Y-59601000D02*
X130081900Y-59599000D01*
X129624000Y-59599000D02*
X126850000Y-56825000D01*
X155050000Y-77850000D02*
X155100000Y-77800000D01*
X129583600Y-60802000D02*
X128692800Y-60802000D01*
X122615196Y-60801000D02*
X122613196Y-60799000D01*
X122249000Y-60799000D02*
X120725000Y-59275000D01*
X129585600Y-60804000D02*
X129583600Y-60802000D01*
X122613196Y-60799000D02*
X122249000Y-60799000D01*
X155100000Y-77800000D02*
X155100000Y-62015800D01*
X153888200Y-60804000D02*
X129585600Y-60804000D01*
X128692800Y-60802000D02*
X128691800Y-60801000D01*
X155100000Y-62015800D02*
X153888200Y-60804000D01*
X128691800Y-60801000D02*
X122615196Y-60801000D01*
X153800000Y-75850000D02*
X153850000Y-75800000D01*
X153850000Y-61900000D02*
X153556000Y-61606000D01*
X128360600Y-61604000D02*
X128359600Y-61603000D01*
X153850000Y-75800000D02*
X153850000Y-61900000D01*
X122282996Y-61603000D02*
X122280996Y-61601000D01*
X122280996Y-61601000D02*
X122197096Y-61601000D01*
X129251400Y-61604000D02*
X128360600Y-61604000D01*
X121848096Y-61950000D02*
X120912196Y-61950000D01*
X153556000Y-61606000D02*
X129253400Y-61606000D01*
X128359600Y-61603000D02*
X122282996Y-61603000D01*
X129253400Y-61606000D02*
X129251400Y-61604000D01*
X120912196Y-61950000D02*
X120750000Y-61787804D01*
X122197096Y-61601000D02*
X121848096Y-61950000D01*
X116500832Y-66500832D02*
X116365415Y-66500832D01*
X117620000Y-67620000D02*
X116500832Y-66500832D01*
X148024232Y-67620000D02*
X117620000Y-67620000D01*
X152650000Y-72245768D02*
X148024232Y-67620000D01*
X152650000Y-81400000D02*
X152650000Y-72245768D01*
X153250000Y-82000000D02*
X152650000Y-81400000D01*
X89780000Y-64050000D02*
X142070000Y-64050000D01*
X89780000Y-64050000D02*
X88030000Y-65800000D01*
%TA.AperFunction,Conductor*%
G36*
X163504418Y-44800816D02*
G01*
X163733020Y-44817165D01*
X163750529Y-44819683D01*
X163970144Y-44867458D01*
X163987103Y-44872437D01*
X164197694Y-44950983D01*
X164213777Y-44958327D01*
X164411036Y-45066040D01*
X164425919Y-45075605D01*
X164605836Y-45210289D01*
X164619207Y-45221875D01*
X164778124Y-45380792D01*
X164789710Y-45394163D01*
X164924394Y-45574080D01*
X164933959Y-45588963D01*
X165041669Y-45786217D01*
X165049019Y-45802311D01*
X165127559Y-46012887D01*
X165132543Y-46029862D01*
X165180316Y-46249470D01*
X165182834Y-46266982D01*
X165199184Y-46495581D01*
X165199500Y-46504427D01*
X165199500Y-138995572D01*
X165199184Y-139004418D01*
X165182834Y-139233017D01*
X165180316Y-139250529D01*
X165132543Y-139470137D01*
X165127559Y-139487112D01*
X165049019Y-139697688D01*
X165041669Y-139713782D01*
X164933959Y-139911036D01*
X164924394Y-139925919D01*
X164789710Y-140105836D01*
X164778124Y-140119207D01*
X164619207Y-140278124D01*
X164605836Y-140289710D01*
X164425919Y-140424394D01*
X164411036Y-140433959D01*
X164213782Y-140541669D01*
X164197688Y-140549019D01*
X163987112Y-140627559D01*
X163970137Y-140632543D01*
X163750529Y-140680316D01*
X163733017Y-140682834D01*
X163504418Y-140699184D01*
X163495572Y-140699500D01*
X73504428Y-140699500D01*
X73495582Y-140699184D01*
X73266982Y-140682834D01*
X73249470Y-140680316D01*
X73029862Y-140632543D01*
X73012887Y-140627559D01*
X72802311Y-140549019D01*
X72786217Y-140541669D01*
X72588963Y-140433959D01*
X72574080Y-140424394D01*
X72394163Y-140289710D01*
X72380792Y-140278124D01*
X72221875Y-140119207D01*
X72210289Y-140105836D01*
X72075605Y-139925919D01*
X72066040Y-139911036D01*
X71958330Y-139713782D01*
X71950983Y-139697694D01*
X71872437Y-139487103D01*
X71867458Y-139470144D01*
X71819683Y-139250529D01*
X71817165Y-139233017D01*
X71800816Y-139004418D01*
X71800500Y-138995572D01*
X71800500Y-117626228D01*
X159369500Y-117626228D01*
X159369500Y-117793771D01*
X159402182Y-117958074D01*
X159402184Y-117958082D01*
X159466295Y-118112860D01*
X159559373Y-118252162D01*
X159677837Y-118370626D01*
X159770494Y-118432537D01*
X159817137Y-118463703D01*
X159971918Y-118527816D01*
X160118532Y-118556979D01*
X160136228Y-118560499D01*
X160136232Y-118560500D01*
X160136233Y-118560500D01*
X160303768Y-118560500D01*
X160303769Y-118560499D01*
X160468082Y-118527816D01*
X160498286Y-118515304D01*
X160567751Y-118507835D01*
X160630231Y-118539107D01*
X160646056Y-118556979D01*
X160669897Y-118589793D01*
X160820213Y-118740109D01*
X160992179Y-118865048D01*
X160992181Y-118865049D01*
X160992184Y-118865051D01*
X161181588Y-118961557D01*
X161383757Y-119027246D01*
X161593713Y-119060500D01*
X161593714Y-119060500D01*
X161806286Y-119060500D01*
X161806287Y-119060500D01*
X162016243Y-119027246D01*
X162218412Y-118961557D01*
X162407816Y-118865051D01*
X162429789Y-118849086D01*
X162579786Y-118740109D01*
X162579788Y-118740106D01*
X162579792Y-118740104D01*
X162730104Y-118589792D01*
X162730106Y-118589788D01*
X162730109Y-118589786D01*
X162855048Y-118417820D01*
X162855047Y-118417820D01*
X162855051Y-118417816D01*
X162951557Y-118228412D01*
X163017246Y-118026243D01*
X163050500Y-117816287D01*
X163050500Y-117603713D01*
X163017246Y-117393757D01*
X162951557Y-117191588D01*
X162855051Y-117002184D01*
X162855049Y-117002181D01*
X162855048Y-117002179D01*
X162730109Y-116830213D01*
X162579786Y-116679890D01*
X162407820Y-116554951D01*
X162218414Y-116458444D01*
X162218413Y-116458443D01*
X162218412Y-116458443D01*
X162016243Y-116392754D01*
X162016241Y-116392753D01*
X162016240Y-116392753D01*
X161854957Y-116367208D01*
X161806287Y-116359500D01*
X161593713Y-116359500D01*
X161545042Y-116367208D01*
X161383760Y-116392753D01*
X161181585Y-116458444D01*
X160992179Y-116554951D01*
X160820213Y-116679890D01*
X160669894Y-116830209D01*
X160646056Y-116863020D01*
X160590725Y-116905685D01*
X160521112Y-116911664D01*
X160498291Y-116904697D01*
X160468082Y-116892184D01*
X160468078Y-116892183D01*
X160468074Y-116892182D01*
X160303771Y-116859500D01*
X160303767Y-116859500D01*
X160136233Y-116859500D01*
X160136228Y-116859500D01*
X159971925Y-116892182D01*
X159971917Y-116892184D01*
X159817139Y-116956295D01*
X159677837Y-117049373D01*
X159559373Y-117167837D01*
X159466295Y-117307139D01*
X159402184Y-117461917D01*
X159402182Y-117461925D01*
X159369500Y-117626228D01*
X71800500Y-117626228D01*
X71800500Y-112516228D01*
X159309500Y-112516228D01*
X159309500Y-112683771D01*
X159342182Y-112848074D01*
X159342184Y-112848082D01*
X159406295Y-113002860D01*
X159499373Y-113142162D01*
X159617837Y-113260626D01*
X159710494Y-113322537D01*
X159757137Y-113353703D01*
X159911918Y-113417816D01*
X160076228Y-113450499D01*
X160076232Y-113450500D01*
X160076233Y-113450500D01*
X160243768Y-113450500D01*
X160243769Y-113450499D01*
X160408082Y-113417816D01*
X160467651Y-113393140D01*
X160537120Y-113385671D01*
X160599600Y-113416945D01*
X160615424Y-113434817D01*
X160669892Y-113509788D01*
X160820213Y-113660109D01*
X160992179Y-113785048D01*
X160992181Y-113785049D01*
X160992184Y-113785051D01*
X161181588Y-113881557D01*
X161383757Y-113947246D01*
X161593713Y-113980500D01*
X161593714Y-113980500D01*
X161806286Y-113980500D01*
X161806287Y-113980500D01*
X162016243Y-113947246D01*
X162218412Y-113881557D01*
X162407816Y-113785051D01*
X162429789Y-113769086D01*
X162579786Y-113660109D01*
X162579788Y-113660106D01*
X162579792Y-113660104D01*
X162730104Y-113509792D01*
X162730106Y-113509788D01*
X162730109Y-113509786D01*
X162855048Y-113337820D01*
X162855047Y-113337820D01*
X162855051Y-113337816D01*
X162951557Y-113148412D01*
X163017246Y-112946243D01*
X163050500Y-112736287D01*
X163050500Y-112523713D01*
X163017246Y-112313757D01*
X162951557Y-112111588D01*
X162855051Y-111922184D01*
X162855049Y-111922181D01*
X162855048Y-111922179D01*
X162730109Y-111750213D01*
X162579786Y-111599890D01*
X162407820Y-111474951D01*
X162218414Y-111378444D01*
X162218413Y-111378443D01*
X162218412Y-111378443D01*
X162016243Y-111312754D01*
X162016241Y-111312753D01*
X162016240Y-111312753D01*
X161854957Y-111287208D01*
X161806287Y-111279500D01*
X161593713Y-111279500D01*
X161545042Y-111287208D01*
X161383760Y-111312753D01*
X161181585Y-111378444D01*
X160992179Y-111474951D01*
X160820213Y-111599890D01*
X160669898Y-111750205D01*
X160669893Y-111750211D01*
X160648929Y-111779065D01*
X160593598Y-111821729D01*
X160523985Y-111827707D01*
X160501161Y-111820738D01*
X160408086Y-111782185D01*
X160408074Y-111782182D01*
X160243771Y-111749500D01*
X160243767Y-111749500D01*
X160076233Y-111749500D01*
X160076228Y-111749500D01*
X159911925Y-111782182D01*
X159911917Y-111782184D01*
X159757139Y-111846295D01*
X159617837Y-111939373D01*
X159499373Y-112057837D01*
X159406295Y-112197139D01*
X159342184Y-112351917D01*
X159342182Y-112351925D01*
X159309500Y-112516228D01*
X71800500Y-112516228D01*
X71800500Y-101406228D01*
X75159500Y-101406228D01*
X75159500Y-101573771D01*
X75192182Y-101738074D01*
X75192184Y-101738082D01*
X75256295Y-101892860D01*
X75349373Y-102032162D01*
X75467837Y-102150626D01*
X75560494Y-102212537D01*
X75607137Y-102243703D01*
X75761918Y-102307816D01*
X75926228Y-102340499D01*
X75926232Y-102340500D01*
X75926233Y-102340500D01*
X76093768Y-102340500D01*
X76093769Y-102340499D01*
X76258082Y-102307816D01*
X76412863Y-102243703D01*
X76552162Y-102150626D01*
X76670626Y-102032162D01*
X76763703Y-101892863D01*
X76827816Y-101738082D01*
X76860500Y-101573767D01*
X76860500Y-101406233D01*
X76827816Y-101241918D01*
X76763703Y-101087137D01*
X76732537Y-101040494D01*
X76670626Y-100947837D01*
X76552162Y-100829373D01*
X76412860Y-100736295D01*
X76258082Y-100672184D01*
X76258074Y-100672182D01*
X76093771Y-100639500D01*
X76093767Y-100639500D01*
X75926233Y-100639500D01*
X75926228Y-100639500D01*
X75761925Y-100672182D01*
X75761917Y-100672184D01*
X75607139Y-100736295D01*
X75467837Y-100829373D01*
X75349373Y-100947837D01*
X75256295Y-101087139D01*
X75192184Y-101241917D01*
X75192182Y-101241925D01*
X75159500Y-101406228D01*
X71800500Y-101406228D01*
X71800500Y-98026228D01*
X79389500Y-98026228D01*
X79389500Y-98193771D01*
X79422182Y-98358074D01*
X79422184Y-98358082D01*
X79486295Y-98512860D01*
X79579373Y-98652162D01*
X79697837Y-98770626D01*
X79780389Y-98825785D01*
X79837137Y-98863703D01*
X79991918Y-98927816D01*
X80156228Y-98960499D01*
X80156232Y-98960500D01*
X80156233Y-98960500D01*
X80323768Y-98960500D01*
X80323769Y-98960499D01*
X80488082Y-98927816D01*
X80642863Y-98863703D01*
X80782162Y-98770626D01*
X80900626Y-98652162D01*
X80993703Y-98512863D01*
X81057816Y-98358082D01*
X81090500Y-98193767D01*
X81090500Y-98026233D01*
X81057816Y-97861918D01*
X80993703Y-97707137D01*
X80962537Y-97660494D01*
X80900626Y-97567837D01*
X80782162Y-97449373D01*
X80642860Y-97356295D01*
X80488082Y-97292184D01*
X80488074Y-97292182D01*
X80323771Y-97259500D01*
X80323767Y-97259500D01*
X80156233Y-97259500D01*
X80156228Y-97259500D01*
X79991925Y-97292182D01*
X79991917Y-97292184D01*
X79837139Y-97356295D01*
X79697837Y-97449373D01*
X79579373Y-97567837D01*
X79486295Y-97707139D01*
X79422184Y-97861917D01*
X79422182Y-97861925D01*
X79389500Y-98026228D01*
X71800500Y-98026228D01*
X71800500Y-88560817D01*
X79150000Y-88560817D01*
X79150000Y-88699182D01*
X79185812Y-88832835D01*
X79185813Y-88832838D01*
X79254992Y-88952661D01*
X79254994Y-88952664D01*
X79254995Y-88952665D01*
X79352835Y-89050505D01*
X79472664Y-89119688D01*
X79606317Y-89155500D01*
X79606319Y-89155500D01*
X79744681Y-89155500D01*
X79744683Y-89155500D01*
X79878336Y-89119688D01*
X79998165Y-89050505D01*
X80096005Y-88952665D01*
X80165188Y-88832836D01*
X80201000Y-88699183D01*
X80201000Y-88560817D01*
X80165188Y-88427164D01*
X80096005Y-88307335D01*
X79998165Y-88209495D01*
X79998164Y-88209494D01*
X79998161Y-88209492D01*
X79878338Y-88140313D01*
X79878337Y-88140312D01*
X79878336Y-88140312D01*
X79744683Y-88104500D01*
X79606317Y-88104500D01*
X79472664Y-88140312D01*
X79472661Y-88140313D01*
X79352838Y-88209492D01*
X79352833Y-88209496D01*
X79254996Y-88307333D01*
X79254992Y-88307338D01*
X79185813Y-88427161D01*
X79185812Y-88427164D01*
X79150000Y-88560817D01*
X71800500Y-88560817D01*
X71800500Y-82780817D01*
X79150000Y-82780817D01*
X79150000Y-82919182D01*
X79185812Y-83052835D01*
X79185813Y-83052838D01*
X79254992Y-83172661D01*
X79254994Y-83172664D01*
X79254995Y-83172665D01*
X79352835Y-83270505D01*
X79472664Y-83339688D01*
X79606317Y-83375500D01*
X79606319Y-83375500D01*
X79744681Y-83375500D01*
X79744683Y-83375500D01*
X79878336Y-83339688D01*
X79998165Y-83270505D01*
X80096005Y-83172665D01*
X80165188Y-83052836D01*
X80201000Y-82919183D01*
X80201000Y-82780817D01*
X80165188Y-82647164D01*
X80130596Y-82587249D01*
X80096007Y-82527338D01*
X80096003Y-82527333D01*
X79998166Y-82429496D01*
X79998161Y-82429492D01*
X79878338Y-82360313D01*
X79878337Y-82360312D01*
X79878336Y-82360312D01*
X79744683Y-82324500D01*
X79606317Y-82324500D01*
X79472664Y-82360312D01*
X79472661Y-82360313D01*
X79352838Y-82429492D01*
X79352833Y-82429496D01*
X79254996Y-82527333D01*
X79254992Y-82527338D01*
X79185813Y-82647161D01*
X79185812Y-82647164D01*
X79150000Y-82780817D01*
X71800500Y-82780817D01*
X71800500Y-74116228D01*
X84639500Y-74116228D01*
X84639500Y-74283771D01*
X84672182Y-74448074D01*
X84672184Y-74448082D01*
X84736295Y-74602860D01*
X84829373Y-74742162D01*
X84947837Y-74860626D01*
X85040494Y-74922537D01*
X85087137Y-74953703D01*
X85241918Y-75017816D01*
X85406228Y-75050499D01*
X85406232Y-75050500D01*
X85406233Y-75050500D01*
X85573768Y-75050500D01*
X85573769Y-75050499D01*
X85738082Y-75017816D01*
X85892863Y-74953703D01*
X86032162Y-74860626D01*
X86150626Y-74742162D01*
X86243703Y-74602863D01*
X86307816Y-74448082D01*
X86340500Y-74283767D01*
X86340500Y-74116233D01*
X86307816Y-73951918D01*
X86243703Y-73797137D01*
X86212537Y-73750494D01*
X86150626Y-73657837D01*
X86032162Y-73539373D01*
X85892860Y-73446295D01*
X85738082Y-73382184D01*
X85738074Y-73382182D01*
X85573771Y-73349500D01*
X85573767Y-73349500D01*
X85406233Y-73349500D01*
X85406228Y-73349500D01*
X85241925Y-73382182D01*
X85241917Y-73382184D01*
X85087139Y-73446295D01*
X84947837Y-73539373D01*
X84829373Y-73657837D01*
X84736295Y-73797139D01*
X84672184Y-73951917D01*
X84672182Y-73951925D01*
X84639500Y-74116228D01*
X71800500Y-74116228D01*
X71800500Y-70316228D01*
X84849500Y-70316228D01*
X84849500Y-70483771D01*
X84882182Y-70648074D01*
X84882184Y-70648082D01*
X84946295Y-70802860D01*
X85039373Y-70942162D01*
X85157837Y-71060626D01*
X85232668Y-71110626D01*
X85297137Y-71153703D01*
X85451918Y-71217816D01*
X85616228Y-71250499D01*
X85616232Y-71250500D01*
X85616233Y-71250500D01*
X85783768Y-71250500D01*
X85783769Y-71250499D01*
X85948082Y-71217816D01*
X86102863Y-71153703D01*
X86242162Y-71060626D01*
X86360626Y-70942162D01*
X86453703Y-70802863D01*
X86517816Y-70648082D01*
X86550500Y-70483767D01*
X86550500Y-70316233D01*
X86517816Y-70151918D01*
X86453703Y-69997137D01*
X86394035Y-69907838D01*
X86360626Y-69857837D01*
X86242162Y-69739373D01*
X86102860Y-69646295D01*
X85948082Y-69582184D01*
X85948074Y-69582182D01*
X85783771Y-69549500D01*
X85783767Y-69549500D01*
X85616233Y-69549500D01*
X85616228Y-69549500D01*
X85451925Y-69582182D01*
X85451917Y-69582184D01*
X85297139Y-69646295D01*
X85157837Y-69739373D01*
X85039373Y-69857837D01*
X84946295Y-69997139D01*
X84882184Y-70151917D01*
X84882182Y-70151925D01*
X84849500Y-70316228D01*
X71800500Y-70316228D01*
X71800500Y-65716228D01*
X87179500Y-65716228D01*
X87179500Y-65883771D01*
X87212182Y-66048074D01*
X87212184Y-66048082D01*
X87276295Y-66202860D01*
X87369373Y-66342162D01*
X87487837Y-66460626D01*
X87541220Y-66496295D01*
X87627137Y-66553703D01*
X87781918Y-66617816D01*
X87946228Y-66650499D01*
X87946232Y-66650500D01*
X87946233Y-66650500D01*
X88113768Y-66650500D01*
X88113769Y-66650499D01*
X88278082Y-66617816D01*
X88432863Y-66553703D01*
X88572162Y-66460626D01*
X88690626Y-66342162D01*
X88783703Y-66202863D01*
X88847816Y-66048082D01*
X88880500Y-65883767D01*
X88880500Y-65850097D01*
X88900185Y-65783058D01*
X88916819Y-65762416D01*
X89992417Y-64686819D01*
X90019344Y-64672115D01*
X90045163Y-64655523D01*
X90051363Y-64654631D01*
X90053740Y-64653334D01*
X90080098Y-64650500D01*
X90167349Y-64650500D01*
X90234388Y-64670185D01*
X90280143Y-64722989D01*
X90290087Y-64792147D01*
X90261062Y-64855703D01*
X90255030Y-64862181D01*
X90239376Y-64877834D01*
X90239373Y-64877837D01*
X90146295Y-65017139D01*
X90082184Y-65171917D01*
X90082182Y-65171925D01*
X90049500Y-65336228D01*
X90049500Y-65503766D01*
X90049632Y-65505108D01*
X90049500Y-65506717D01*
X90049500Y-65509859D01*
X90049242Y-65509859D01*
X90046003Y-65549347D01*
X90029499Y-65610941D01*
X90029499Y-65779046D01*
X90029500Y-65779059D01*
X90029500Y-102291349D01*
X90009815Y-102358388D01*
X89993181Y-102379030D01*
X89914376Y-102457834D01*
X89914373Y-102457837D01*
X89821295Y-102597139D01*
X89757184Y-102751917D01*
X89757182Y-102751925D01*
X89724500Y-102916228D01*
X89724500Y-103083771D01*
X89757182Y-103248074D01*
X89757184Y-103248082D01*
X89821295Y-103402860D01*
X89914373Y-103542162D01*
X90032837Y-103660626D01*
X90125494Y-103722537D01*
X90172137Y-103753703D01*
X90326918Y-103817816D01*
X90491228Y-103850499D01*
X90491232Y-103850500D01*
X90491233Y-103850500D01*
X90658768Y-103850500D01*
X90658769Y-103850499D01*
X90823082Y-103817816D01*
X90977863Y-103753703D01*
X91117162Y-103660626D01*
X91235626Y-103542162D01*
X91328703Y-103402863D01*
X91392816Y-103248082D01*
X91425500Y-103083767D01*
X91425500Y-102916233D01*
X91392816Y-102751918D01*
X91328703Y-102597137D01*
X91251398Y-102481442D01*
X91230520Y-102414764D01*
X91230500Y-102412551D01*
X91230500Y-66286531D01*
X91250185Y-66219492D01*
X91298189Y-66177895D01*
X91297485Y-66176578D01*
X91302857Y-66173705D01*
X91302863Y-66173703D01*
X91442162Y-66080626D01*
X91560626Y-65962162D01*
X91653703Y-65822863D01*
X91717816Y-65668082D01*
X91750500Y-65503767D01*
X91750500Y-65336233D01*
X91717816Y-65171918D01*
X91660592Y-65033768D01*
X91653704Y-65017139D01*
X91560626Y-64877837D01*
X91544970Y-64862181D01*
X91511485Y-64800858D01*
X91516469Y-64731166D01*
X91558341Y-64675233D01*
X91623805Y-64650816D01*
X91632651Y-64650500D01*
X94196497Y-64650500D01*
X94263536Y-64670185D01*
X94309291Y-64722989D01*
X94319235Y-64792147D01*
X94290210Y-64855703D01*
X94265387Y-64877602D01*
X94217842Y-64909370D01*
X94217834Y-64909376D01*
X94099373Y-65027837D01*
X94006295Y-65167139D01*
X93942184Y-65321917D01*
X93942182Y-65321925D01*
X93909500Y-65486228D01*
X93909500Y-65519902D01*
X93889815Y-65586941D01*
X93873181Y-65607583D01*
X93519481Y-65961282D01*
X93519479Y-65961284D01*
X93502355Y-65990945D01*
X93485400Y-66020313D01*
X93440423Y-66098215D01*
X93399499Y-66250943D01*
X93399499Y-66250945D01*
X93399499Y-66419046D01*
X93399500Y-66419059D01*
X93399500Y-104479902D01*
X93379815Y-104546941D01*
X93363181Y-104567583D01*
X93067584Y-104863181D01*
X93006261Y-104896666D01*
X92979903Y-104899500D01*
X91103651Y-104899500D01*
X91036612Y-104879815D01*
X91015970Y-104863181D01*
X90992162Y-104839373D01*
X90852860Y-104746295D01*
X90698082Y-104682184D01*
X90698074Y-104682182D01*
X90533771Y-104649500D01*
X90533767Y-104649500D01*
X90366233Y-104649500D01*
X90366228Y-104649500D01*
X90201925Y-104682182D01*
X90201917Y-104682184D01*
X90047139Y-104746295D01*
X89907837Y-104839373D01*
X89789373Y-104957837D01*
X89696295Y-105097139D01*
X89632184Y-105251917D01*
X89632182Y-105251925D01*
X89599500Y-105416228D01*
X89599500Y-105583771D01*
X89632182Y-105748074D01*
X89632184Y-105748082D01*
X89696295Y-105902860D01*
X89789373Y-106042162D01*
X89907837Y-106160626D01*
X90000494Y-106222537D01*
X90047137Y-106253703D01*
X90047138Y-106253703D01*
X90047139Y-106253704D01*
X90082201Y-106268227D01*
X90201918Y-106317816D01*
X90325773Y-106342452D01*
X90366228Y-106350499D01*
X90366232Y-106350500D01*
X90366233Y-106350500D01*
X90533768Y-106350500D01*
X90533769Y-106350499D01*
X90698082Y-106317816D01*
X90852863Y-106253703D01*
X90992162Y-106160626D01*
X90992165Y-106160623D01*
X91015970Y-106136819D01*
X91077293Y-106103334D01*
X91103651Y-106100500D01*
X93193331Y-106100500D01*
X93193347Y-106100501D01*
X93200943Y-106100501D01*
X93359054Y-106100501D01*
X93359057Y-106100501D01*
X93511785Y-106059577D01*
X93561904Y-106030639D01*
X93648716Y-105980520D01*
X93760520Y-105868716D01*
X93760520Y-105868714D01*
X93770728Y-105858507D01*
X93770729Y-105858504D01*
X94480520Y-105148716D01*
X94559577Y-105011784D01*
X94600501Y-104859057D01*
X94600501Y-104700942D01*
X94600501Y-104693347D01*
X94600500Y-104693329D01*
X94600500Y-66630097D01*
X94609144Y-66600656D01*
X94615668Y-66570670D01*
X94619422Y-66565654D01*
X94620185Y-66563058D01*
X94636819Y-66542416D01*
X94722416Y-66456819D01*
X94783739Y-66423334D01*
X94810097Y-66420500D01*
X94843768Y-66420500D01*
X94843769Y-66420499D01*
X95008082Y-66387816D01*
X95162863Y-66323703D01*
X95302162Y-66230626D01*
X95420626Y-66112162D01*
X95513703Y-65972863D01*
X95577816Y-65818082D01*
X95610500Y-65653767D01*
X95610500Y-65486233D01*
X95577816Y-65321918D01*
X95515686Y-65171925D01*
X95513704Y-65167139D01*
X95495151Y-65139373D01*
X95482537Y-65120494D01*
X95420626Y-65027837D01*
X95302165Y-64909376D01*
X95302157Y-64909370D01*
X95254613Y-64877602D01*
X95209807Y-64823990D01*
X95201100Y-64754665D01*
X95231254Y-64691638D01*
X95290697Y-64654918D01*
X95323503Y-64650500D01*
X98657349Y-64650500D01*
X98724388Y-64670185D01*
X98770143Y-64722989D01*
X98780087Y-64792147D01*
X98751062Y-64855703D01*
X98745030Y-64862181D01*
X98639376Y-64967834D01*
X98639373Y-64967837D01*
X98546295Y-65107139D01*
X98482184Y-65261917D01*
X98482182Y-65261925D01*
X98449500Y-65426228D01*
X98449500Y-65459900D01*
X98440856Y-65489336D01*
X98434333Y-65519326D01*
X98430577Y-65524342D01*
X98429815Y-65526939D01*
X98413182Y-65547580D01*
X98364224Y-65596538D01*
X98364212Y-65596552D01*
X98259478Y-65701286D01*
X98257213Y-65705210D01*
X98221068Y-65767816D01*
X98180423Y-65838215D01*
X98139499Y-65990943D01*
X98139499Y-65990945D01*
X98139499Y-66159046D01*
X98139500Y-66159059D01*
X98139500Y-106034903D01*
X98119815Y-106101942D01*
X98103181Y-106122584D01*
X97412584Y-106813181D01*
X97351261Y-106846666D01*
X97324903Y-106849500D01*
X91078651Y-106849500D01*
X91011612Y-106829815D01*
X90997021Y-106818057D01*
X90996872Y-106818239D01*
X90992162Y-106814373D01*
X90852860Y-106721295D01*
X90698082Y-106657184D01*
X90698074Y-106657182D01*
X90533771Y-106624500D01*
X90533767Y-106624500D01*
X90366233Y-106624500D01*
X90366228Y-106624500D01*
X90201925Y-106657182D01*
X90201917Y-106657184D01*
X90047139Y-106721295D01*
X89907837Y-106814373D01*
X89789373Y-106932837D01*
X89696295Y-107072139D01*
X89632184Y-107226917D01*
X89632182Y-107226925D01*
X89599500Y-107391228D01*
X89599500Y-107558771D01*
X89632182Y-107723074D01*
X89632184Y-107723082D01*
X89696295Y-107877860D01*
X89789373Y-108017162D01*
X89907837Y-108135626D01*
X90000494Y-108197537D01*
X90047137Y-108228703D01*
X90201918Y-108292816D01*
X90366228Y-108325499D01*
X90366232Y-108325500D01*
X90366233Y-108325500D01*
X90533768Y-108325500D01*
X90533769Y-108325499D01*
X90698082Y-108292816D01*
X90852863Y-108228703D01*
X90992162Y-108135626D01*
X91040968Y-108086820D01*
X91102291Y-108053334D01*
X91128650Y-108050500D01*
X97538331Y-108050500D01*
X97538347Y-108050501D01*
X97545943Y-108050501D01*
X97704054Y-108050501D01*
X97704057Y-108050501D01*
X97856785Y-108009577D01*
X97917247Y-107974669D01*
X97993716Y-107930520D01*
X98105520Y-107818716D01*
X98105520Y-107818714D01*
X98115724Y-107808511D01*
X98115728Y-107808506D01*
X98448006Y-107476228D01*
X159349500Y-107476228D01*
X159349500Y-107643771D01*
X159382182Y-107808074D01*
X159382184Y-107808082D01*
X159446295Y-107962860D01*
X159539373Y-108102162D01*
X159657837Y-108220626D01*
X159750494Y-108282537D01*
X159797137Y-108313703D01*
X159951918Y-108377816D01*
X160116228Y-108410499D01*
X160116232Y-108410500D01*
X160234878Y-108410500D01*
X160301917Y-108430185D01*
X160347672Y-108482989D01*
X160355555Y-108505985D01*
X160355909Y-108507484D01*
X160406202Y-108642328D01*
X160406206Y-108642335D01*
X160492452Y-108757544D01*
X160492455Y-108757547D01*
X160607664Y-108843793D01*
X160607671Y-108843797D01*
X160742517Y-108894091D01*
X160742516Y-108894091D01*
X160749444Y-108894835D01*
X160802127Y-108900500D01*
X162597872Y-108900499D01*
X162657483Y-108894091D01*
X162792331Y-108843796D01*
X162907546Y-108757546D01*
X162993796Y-108642331D01*
X163044091Y-108507483D01*
X163050500Y-108447873D01*
X163050499Y-106652128D01*
X163044091Y-106592517D01*
X162993796Y-106457669D01*
X162993795Y-106457668D01*
X162993793Y-106457664D01*
X162907547Y-106342455D01*
X162907544Y-106342452D01*
X162792335Y-106256206D01*
X162792328Y-106256202D01*
X162657482Y-106205908D01*
X162657483Y-106205908D01*
X162597883Y-106199501D01*
X162597881Y-106199500D01*
X162597873Y-106199500D01*
X162597864Y-106199500D01*
X160802129Y-106199500D01*
X160802123Y-106199501D01*
X160742516Y-106205908D01*
X160607671Y-106256202D01*
X160607664Y-106256206D01*
X160492455Y-106342452D01*
X160492452Y-106342455D01*
X160406206Y-106457664D01*
X160406202Y-106457671D01*
X160355908Y-106592516D01*
X160355238Y-106598756D01*
X160328500Y-106663307D01*
X160271107Y-106703155D01*
X160231949Y-106709500D01*
X160116228Y-106709500D01*
X159951925Y-106742182D01*
X159951917Y-106742184D01*
X159797139Y-106806295D01*
X159657837Y-106899373D01*
X159539373Y-107017837D01*
X159446295Y-107157139D01*
X159382184Y-107311917D01*
X159382182Y-107311925D01*
X159349500Y-107476228D01*
X98448006Y-107476228D01*
X99098506Y-106825728D01*
X99098511Y-106825724D01*
X99108714Y-106815520D01*
X99108716Y-106815520D01*
X99220520Y-106703716D01*
X99284720Y-106592517D01*
X99299577Y-106566785D01*
X99340500Y-106414057D01*
X99340500Y-106255943D01*
X99340500Y-104666228D01*
X113549500Y-104666228D01*
X113549500Y-104833771D01*
X113582182Y-104998074D01*
X113582184Y-104998082D01*
X113646295Y-105152860D01*
X113739373Y-105292162D01*
X113857837Y-105410626D01*
X113866229Y-105416233D01*
X113997137Y-105503703D01*
X114151918Y-105567816D01*
X114316228Y-105600499D01*
X114316232Y-105600500D01*
X114316233Y-105600500D01*
X114483768Y-105600500D01*
X114483769Y-105600499D01*
X114648082Y-105567816D01*
X114802863Y-105503703D01*
X114942162Y-105410626D01*
X115060626Y-105292162D01*
X115153703Y-105152863D01*
X115217816Y-104998082D01*
X115250500Y-104833767D01*
X115250500Y-104666233D01*
X115217816Y-104501918D01*
X115153703Y-104347137D01*
X115122537Y-104300494D01*
X115060626Y-104207837D01*
X114942162Y-104089373D01*
X114802860Y-103996295D01*
X114648082Y-103932184D01*
X114648074Y-103932182D01*
X114483771Y-103899500D01*
X114483767Y-103899500D01*
X114316233Y-103899500D01*
X114316228Y-103899500D01*
X114151925Y-103932182D01*
X114151917Y-103932184D01*
X113997139Y-103996295D01*
X113857837Y-104089373D01*
X113739373Y-104207837D01*
X113646295Y-104347139D01*
X113582184Y-104501917D01*
X113582182Y-104501925D01*
X113549500Y-104666228D01*
X99340500Y-104666228D01*
X99340500Y-92736361D01*
X114901491Y-92736361D01*
X114901491Y-92903904D01*
X114934173Y-93068207D01*
X114934175Y-93068215D01*
X114998286Y-93222993D01*
X115091364Y-93362295D01*
X115209828Y-93480759D01*
X115299426Y-93540626D01*
X115349128Y-93573836D01*
X115503909Y-93637949D01*
X115646104Y-93666233D01*
X115668219Y-93670632D01*
X115668223Y-93670633D01*
X115668224Y-93670633D01*
X115835759Y-93670633D01*
X115835760Y-93670632D01*
X116000073Y-93637949D01*
X116154854Y-93573836D01*
X116294153Y-93480759D01*
X116412617Y-93362295D01*
X116505694Y-93222996D01*
X116569807Y-93068215D01*
X116602491Y-92903900D01*
X116602491Y-92796228D01*
X119879500Y-92796228D01*
X119879500Y-92963771D01*
X119912182Y-93128074D01*
X119912184Y-93128082D01*
X119976295Y-93282860D01*
X120069373Y-93422162D01*
X120187837Y-93540626D01*
X120280494Y-93602537D01*
X120327137Y-93633703D01*
X120327138Y-93633703D01*
X120327139Y-93633704D01*
X120337390Y-93637950D01*
X120481918Y-93697816D01*
X120646228Y-93730499D01*
X120646232Y-93730500D01*
X120646233Y-93730500D01*
X120813768Y-93730500D01*
X120813769Y-93730499D01*
X120978082Y-93697816D01*
X121132863Y-93633703D01*
X121272162Y-93540626D01*
X121390626Y-93422162D01*
X121483703Y-93282863D01*
X121547816Y-93128082D01*
X121580500Y-92963767D01*
X121580500Y-92796233D01*
X121547816Y-92631918D01*
X121483703Y-92477137D01*
X121443701Y-92417270D01*
X121390626Y-92337837D01*
X121272162Y-92219373D01*
X121132860Y-92126295D01*
X120978082Y-92062184D01*
X120978074Y-92062182D01*
X120813771Y-92029500D01*
X120813767Y-92029500D01*
X120646233Y-92029500D01*
X120646228Y-92029500D01*
X120481925Y-92062182D01*
X120481917Y-92062184D01*
X120327139Y-92126295D01*
X120187837Y-92219373D01*
X120069373Y-92337837D01*
X119976295Y-92477139D01*
X119912184Y-92631917D01*
X119912182Y-92631925D01*
X119879500Y-92796228D01*
X116602491Y-92796228D01*
X116602491Y-92736366D01*
X116569807Y-92572051D01*
X116505694Y-92417270D01*
X116452619Y-92337838D01*
X116412617Y-92277970D01*
X116294153Y-92159506D01*
X116154851Y-92066428D01*
X116000073Y-92002317D01*
X116000065Y-92002315D01*
X115835762Y-91969633D01*
X115835758Y-91969633D01*
X115668224Y-91969633D01*
X115668219Y-91969633D01*
X115503916Y-92002315D01*
X115503908Y-92002317D01*
X115349130Y-92066428D01*
X115209828Y-92159506D01*
X115091364Y-92277970D01*
X114998286Y-92417272D01*
X114934175Y-92572050D01*
X114934173Y-92572058D01*
X114901491Y-92736361D01*
X99340500Y-92736361D01*
X99340500Y-75666228D01*
X110899500Y-75666228D01*
X110899500Y-75833771D01*
X110932182Y-75998074D01*
X110932184Y-75998082D01*
X110996295Y-76152860D01*
X111089373Y-76292162D01*
X111207837Y-76410626D01*
X111300494Y-76472537D01*
X111347137Y-76503703D01*
X111501918Y-76567816D01*
X111654037Y-76598074D01*
X111666228Y-76600499D01*
X111666232Y-76600500D01*
X111666233Y-76600500D01*
X111833768Y-76600500D01*
X111833769Y-76600499D01*
X111998082Y-76567816D01*
X112152863Y-76503703D01*
X112292162Y-76410626D01*
X112410626Y-76292162D01*
X112427955Y-76266228D01*
X121659500Y-76266228D01*
X121659500Y-76433771D01*
X121692182Y-76598074D01*
X121692184Y-76598082D01*
X121756295Y-76752860D01*
X121849373Y-76892162D01*
X121967837Y-77010626D01*
X122060494Y-77072537D01*
X122107137Y-77103703D01*
X122261918Y-77167816D01*
X122426228Y-77200499D01*
X122426232Y-77200500D01*
X122426233Y-77200500D01*
X122593768Y-77200500D01*
X122593769Y-77200499D01*
X122758082Y-77167816D01*
X122912863Y-77103703D01*
X123052162Y-77010626D01*
X123170626Y-76892162D01*
X123263703Y-76752863D01*
X123327816Y-76598082D01*
X123360500Y-76433767D01*
X123360500Y-76266233D01*
X123327816Y-76101918D01*
X123263703Y-75947137D01*
X123187952Y-75833768D01*
X123170626Y-75807837D01*
X123052162Y-75689373D01*
X122912860Y-75596295D01*
X122758082Y-75532184D01*
X122758074Y-75532182D01*
X122593771Y-75499500D01*
X122593767Y-75499500D01*
X122426233Y-75499500D01*
X122426228Y-75499500D01*
X122261925Y-75532182D01*
X122261917Y-75532184D01*
X122107139Y-75596295D01*
X121967837Y-75689373D01*
X121849373Y-75807837D01*
X121756295Y-75947139D01*
X121692184Y-76101917D01*
X121692182Y-76101925D01*
X121659500Y-76266228D01*
X112427955Y-76266228D01*
X112503703Y-76152863D01*
X112567816Y-75998082D01*
X112600500Y-75833767D01*
X112600500Y-75666233D01*
X112567816Y-75501918D01*
X112503703Y-75347137D01*
X112472537Y-75300494D01*
X112410626Y-75207837D01*
X112292162Y-75089373D01*
X112152860Y-74996295D01*
X111998082Y-74932184D01*
X111998074Y-74932182D01*
X111833771Y-74899500D01*
X111833767Y-74899500D01*
X111666233Y-74899500D01*
X111666228Y-74899500D01*
X111501925Y-74932182D01*
X111501917Y-74932184D01*
X111347139Y-74996295D01*
X111207837Y-75089373D01*
X111089373Y-75207837D01*
X110996295Y-75347139D01*
X110932184Y-75501917D01*
X110932182Y-75501925D01*
X110899500Y-75666228D01*
X99340500Y-75666228D01*
X99340500Y-73016228D01*
X118799500Y-73016228D01*
X118799500Y-73183771D01*
X118832182Y-73348074D01*
X118832184Y-73348082D01*
X118896295Y-73502860D01*
X118989373Y-73642162D01*
X119107837Y-73760626D01*
X119162480Y-73797137D01*
X119247137Y-73853703D01*
X119401918Y-73917816D01*
X119566228Y-73950499D01*
X119566232Y-73950500D01*
X119566233Y-73950500D01*
X119733768Y-73950500D01*
X119733769Y-73950499D01*
X119898082Y-73917816D01*
X120052863Y-73853703D01*
X120192162Y-73760626D01*
X120310626Y-73642162D01*
X120403703Y-73502863D01*
X120467816Y-73348082D01*
X120500500Y-73183767D01*
X120500500Y-73016233D01*
X120467816Y-72851918D01*
X120403703Y-72697137D01*
X120372537Y-72650494D01*
X120310626Y-72557837D01*
X120192162Y-72439373D01*
X120052860Y-72346295D01*
X119898082Y-72282184D01*
X119898074Y-72282182D01*
X119733771Y-72249500D01*
X119733767Y-72249500D01*
X119566233Y-72249500D01*
X119566228Y-72249500D01*
X119401925Y-72282182D01*
X119401917Y-72282184D01*
X119247139Y-72346295D01*
X119107837Y-72439373D01*
X118989373Y-72557837D01*
X118896295Y-72697139D01*
X118832184Y-72851917D01*
X118832182Y-72851925D01*
X118799500Y-73016228D01*
X99340500Y-73016228D01*
X99340500Y-66470870D01*
X99360185Y-66403831D01*
X99412989Y-66358076D01*
X99440301Y-66349254D01*
X99548082Y-66327816D01*
X99702863Y-66263703D01*
X99842162Y-66170626D01*
X99960626Y-66052162D01*
X100053703Y-65912863D01*
X100117816Y-65758082D01*
X100150500Y-65593767D01*
X100150500Y-65426233D01*
X100117816Y-65261918D01*
X100053703Y-65107137D01*
X99970212Y-64982184D01*
X99960626Y-64967837D01*
X99854970Y-64862181D01*
X99821485Y-64800858D01*
X99826469Y-64731166D01*
X99868341Y-64675233D01*
X99933805Y-64650816D01*
X99942651Y-64650500D01*
X102700903Y-64650500D01*
X102767942Y-64670185D01*
X102813697Y-64722989D01*
X102823641Y-64792147D01*
X102794616Y-64855703D01*
X102788586Y-64862178D01*
X102190864Y-65459900D01*
X101637583Y-66013181D01*
X101576260Y-66046666D01*
X101549902Y-66049500D01*
X101416228Y-66049500D01*
X101251925Y-66082182D01*
X101251917Y-66082184D01*
X101097139Y-66146295D01*
X100957837Y-66239373D01*
X100839373Y-66357837D01*
X100746295Y-66497139D01*
X100682184Y-66651917D01*
X100682182Y-66651925D01*
X100649500Y-66816228D01*
X100649500Y-66983771D01*
X100682182Y-67148074D01*
X100682184Y-67148082D01*
X100746295Y-67302860D01*
X100839373Y-67442162D01*
X100957837Y-67560626D01*
X101050494Y-67622537D01*
X101097137Y-67653703D01*
X101251918Y-67717816D01*
X101410034Y-67749267D01*
X101416228Y-67750499D01*
X101416232Y-67750500D01*
X101416233Y-67750500D01*
X101583768Y-67750500D01*
X101583769Y-67750499D01*
X101748082Y-67717816D01*
X101902863Y-67653703D01*
X102042162Y-67560626D01*
X102160626Y-67442162D01*
X102253703Y-67302863D01*
X102317816Y-67148082D01*
X102339445Y-67039340D01*
X102371829Y-66977432D01*
X102373324Y-66975909D01*
X103802416Y-65546819D01*
X103863739Y-65513334D01*
X103890097Y-65510500D01*
X115910434Y-65510500D01*
X115977473Y-65530185D01*
X116023228Y-65582989D01*
X116033172Y-65652147D01*
X116004147Y-65715703D01*
X115966991Y-65742498D01*
X115967930Y-65744254D01*
X115962554Y-65747127D01*
X115823252Y-65840205D01*
X115704788Y-65958669D01*
X115611710Y-66097971D01*
X115547599Y-66252749D01*
X115547597Y-66252755D01*
X115531385Y-66334260D01*
X115499000Y-66396171D01*
X115438284Y-66430745D01*
X115385577Y-66431685D01*
X115223771Y-66399500D01*
X115223767Y-66399500D01*
X115056233Y-66399500D01*
X115056228Y-66399500D01*
X114891925Y-66432182D01*
X114891917Y-66432184D01*
X114737139Y-66496295D01*
X114597837Y-66589373D01*
X114479373Y-66707837D01*
X114386295Y-66847139D01*
X114322184Y-67001917D01*
X114322182Y-67001925D01*
X114301474Y-67106031D01*
X114269089Y-67167942D01*
X114208373Y-67202516D01*
X114138604Y-67198777D01*
X114132411Y-67196403D01*
X114098082Y-67182184D01*
X114098074Y-67182182D01*
X113933771Y-67149500D01*
X113933767Y-67149500D01*
X113766233Y-67149500D01*
X113766228Y-67149500D01*
X113601925Y-67182182D01*
X113601917Y-67182184D01*
X113447139Y-67246295D01*
X113307837Y-67339373D01*
X113189373Y-67457837D01*
X113096295Y-67597139D01*
X113096295Y-67597140D01*
X113064954Y-67672801D01*
X113021112Y-67727203D01*
X112954818Y-67749267D01*
X112902942Y-67739907D01*
X112848086Y-67717185D01*
X112848074Y-67717182D01*
X112683771Y-67684500D01*
X112683767Y-67684500D01*
X112516233Y-67684500D01*
X112516228Y-67684500D01*
X112351925Y-67717182D01*
X112351917Y-67717184D01*
X112197139Y-67781295D01*
X112057837Y-67874373D01*
X111939373Y-67992837D01*
X111842913Y-68137202D01*
X111840691Y-68135717D01*
X111799769Y-68177306D01*
X111731618Y-68192708D01*
X111692012Y-68183518D01*
X111568082Y-68132184D01*
X111568074Y-68132182D01*
X111403771Y-68099500D01*
X111403767Y-68099500D01*
X111236233Y-68099500D01*
X111236228Y-68099500D01*
X111071925Y-68132182D01*
X111071917Y-68132184D01*
X110917139Y-68196295D01*
X110777837Y-68289373D01*
X110659373Y-68407837D01*
X110566296Y-68547137D01*
X110526723Y-68642675D01*
X110482881Y-68697078D01*
X110416587Y-68719142D01*
X110364709Y-68709782D01*
X110298082Y-68682184D01*
X110298074Y-68682182D01*
X110133771Y-68649500D01*
X110133767Y-68649500D01*
X109966233Y-68649500D01*
X109966228Y-68649500D01*
X109801925Y-68682182D01*
X109801917Y-68682184D01*
X109647139Y-68746295D01*
X109507837Y-68839373D01*
X109389376Y-68957834D01*
X109389373Y-68957838D01*
X109328684Y-69048666D01*
X109275072Y-69093471D01*
X109205747Y-69102178D01*
X109178129Y-69094336D01*
X109028082Y-69032184D01*
X109028074Y-69032182D01*
X108863771Y-68999500D01*
X108863767Y-68999500D01*
X108696233Y-68999500D01*
X108696228Y-68999500D01*
X108531925Y-69032182D01*
X108531917Y-69032184D01*
X108377139Y-69096295D01*
X108237837Y-69189373D01*
X108119373Y-69307837D01*
X108026295Y-69447139D01*
X107969778Y-69583584D01*
X107925937Y-69637987D01*
X107859642Y-69660052D01*
X107807764Y-69650692D01*
X107763082Y-69632184D01*
X107763074Y-69632182D01*
X107598771Y-69599500D01*
X107598767Y-69599500D01*
X107431233Y-69599500D01*
X107431228Y-69599500D01*
X107266925Y-69632182D01*
X107266917Y-69632184D01*
X107112139Y-69696295D01*
X106972837Y-69789373D01*
X106854373Y-69907837D01*
X106761295Y-70047139D01*
X106697184Y-70201917D01*
X106697182Y-70201925D01*
X106664500Y-70366228D01*
X106664500Y-70533771D01*
X106697182Y-70698074D01*
X106697184Y-70698082D01*
X106761295Y-70852860D01*
X106854373Y-70992162D01*
X106972837Y-71110626D01*
X107065494Y-71172537D01*
X107112137Y-71203703D01*
X107266918Y-71267816D01*
X107431228Y-71300499D01*
X107431232Y-71300500D01*
X107431233Y-71300500D01*
X107499902Y-71300500D01*
X107566941Y-71320185D01*
X107587583Y-71336819D01*
X107681284Y-71430520D01*
X107681286Y-71430521D01*
X107681290Y-71430524D01*
X107818209Y-71509573D01*
X107818216Y-71509577D01*
X107970943Y-71550501D01*
X107970945Y-71550501D01*
X108136654Y-71550501D01*
X108136670Y-71550500D01*
X146291439Y-71550500D01*
X146358478Y-71570185D01*
X146379120Y-71586819D01*
X148707181Y-73914880D01*
X148740666Y-73976203D01*
X148743500Y-74002561D01*
X148743500Y-98507330D01*
X148743499Y-98507348D01*
X148743499Y-98673054D01*
X148743498Y-98673054D01*
X148784424Y-98825789D01*
X148784425Y-98825790D01*
X148806314Y-98863702D01*
X148806315Y-98863703D01*
X148863477Y-98962712D01*
X148863481Y-98962717D01*
X148982349Y-99081585D01*
X148982355Y-99081590D01*
X150015139Y-100114374D01*
X150015149Y-100114385D01*
X150019479Y-100118715D01*
X150019480Y-100118716D01*
X150131284Y-100230520D01*
X150218095Y-100280639D01*
X150218097Y-100280641D01*
X150256151Y-100302611D01*
X150268215Y-100309577D01*
X150420943Y-100350501D01*
X150420946Y-100350501D01*
X150586653Y-100350501D01*
X150586669Y-100350500D01*
X152096349Y-100350500D01*
X152163388Y-100370185D01*
X152184030Y-100386819D01*
X152207837Y-100410626D01*
X152300494Y-100472537D01*
X152347137Y-100503703D01*
X152501918Y-100567816D01*
X152666228Y-100600499D01*
X152666232Y-100600500D01*
X152666233Y-100600500D01*
X152833768Y-100600500D01*
X152833769Y-100600499D01*
X152998082Y-100567816D01*
X153152863Y-100503703D01*
X153292162Y-100410626D01*
X153410626Y-100292162D01*
X153503703Y-100152863D01*
X153567816Y-99998082D01*
X153600500Y-99833767D01*
X153600500Y-99666233D01*
X153567816Y-99501918D01*
X153503703Y-99347137D01*
X153468124Y-99293890D01*
X153447247Y-99227215D01*
X153465731Y-99159835D01*
X153468107Y-99156137D01*
X153503703Y-99102866D01*
X153567816Y-98948085D01*
X153600500Y-98783770D01*
X153600500Y-98616236D01*
X153567816Y-98451921D01*
X153503703Y-98297140D01*
X153501533Y-98293892D01*
X153500919Y-98291933D01*
X153500834Y-98291773D01*
X153500864Y-98291756D01*
X153480654Y-98227219D01*
X153499136Y-98159838D01*
X153501502Y-98156155D01*
X153503703Y-98152863D01*
X153567816Y-97998082D01*
X153600500Y-97833767D01*
X153600500Y-97666233D01*
X153567816Y-97501918D01*
X153527386Y-97404313D01*
X153503705Y-97347141D01*
X153503704Y-97347139D01*
X153503703Y-97347137D01*
X153468122Y-97293887D01*
X153447246Y-97227215D01*
X153465730Y-97159834D01*
X153468085Y-97156167D01*
X153503703Y-97102863D01*
X153567816Y-96948082D01*
X153600500Y-96783767D01*
X153600500Y-96616233D01*
X153567816Y-96451918D01*
X153503703Y-96297137D01*
X153484828Y-96268890D01*
X153463951Y-96202214D01*
X153482435Y-96134834D01*
X153484829Y-96131109D01*
X153503703Y-96102863D01*
X153567816Y-95948082D01*
X153600500Y-95783767D01*
X153600500Y-95616233D01*
X153567816Y-95451918D01*
X153503703Y-95297137D01*
X153484828Y-95268890D01*
X153463951Y-95202214D01*
X153482435Y-95134834D01*
X153484829Y-95131109D01*
X153503703Y-95102863D01*
X153567816Y-94948082D01*
X153600500Y-94783767D01*
X153600500Y-94616233D01*
X153567816Y-94451918D01*
X153503703Y-94297137D01*
X153501536Y-94293893D01*
X153500922Y-94291936D01*
X153500834Y-94291770D01*
X153500865Y-94291753D01*
X153480655Y-94227221D01*
X153499135Y-94159840D01*
X153501509Y-94156145D01*
X153503703Y-94152863D01*
X153567816Y-93998082D01*
X153600500Y-93833767D01*
X153600500Y-93666233D01*
X153567816Y-93501918D01*
X153503703Y-93347137D01*
X153460754Y-93282860D01*
X153410626Y-93207837D01*
X153292162Y-93089373D01*
X153152860Y-92996295D01*
X152998082Y-92932184D01*
X152998074Y-92932182D01*
X152833771Y-92899500D01*
X152833767Y-92899500D01*
X152823500Y-92899500D01*
X152756461Y-92879815D01*
X152710706Y-92827011D01*
X152699500Y-92775500D01*
X152699500Y-82878129D01*
X152719185Y-82811090D01*
X152771989Y-82765335D01*
X152841147Y-82755391D01*
X152870952Y-82763567D01*
X153001918Y-82817816D01*
X153166228Y-82850499D01*
X153166232Y-82850500D01*
X153166233Y-82850500D01*
X153333768Y-82850500D01*
X153333769Y-82850499D01*
X153498082Y-82817816D01*
X153652863Y-82753703D01*
X153792162Y-82660626D01*
X153910626Y-82542162D01*
X154003703Y-82402863D01*
X154067816Y-82248082D01*
X154100500Y-82083767D01*
X154100500Y-81916233D01*
X154067816Y-81751918D01*
X154003703Y-81597137D01*
X153972537Y-81550494D01*
X153910626Y-81457837D01*
X153792162Y-81339373D01*
X153652860Y-81246295D01*
X153498082Y-81182184D01*
X153498076Y-81182182D01*
X153350308Y-81152789D01*
X153288397Y-81120404D01*
X153253823Y-81059688D01*
X153250500Y-81031172D01*
X153250500Y-76728543D01*
X153259739Y-76697076D01*
X153267858Y-76665269D01*
X153269539Y-76663703D01*
X153270185Y-76661504D01*
X153294967Y-76640030D01*
X153318996Y-76617659D01*
X153321255Y-76617251D01*
X153322989Y-76615749D01*
X153355468Y-76611078D01*
X153387755Y-76605254D01*
X153390718Y-76606010D01*
X153392147Y-76605805D01*
X153421951Y-76613981D01*
X153522953Y-76655818D01*
X153577356Y-76699659D01*
X153599421Y-76765954D01*
X153599500Y-76770379D01*
X153599500Y-76933771D01*
X153632182Y-77098074D01*
X153632184Y-77098082D01*
X153696295Y-77252860D01*
X153789373Y-77392162D01*
X153907837Y-77510626D01*
X154000494Y-77572537D01*
X154047137Y-77603703D01*
X154047138Y-77603703D01*
X154047139Y-77603704D01*
X154047141Y-77603705D01*
X154123942Y-77635517D01*
X154178346Y-77679358D01*
X154200411Y-77745652D01*
X154199894Y-77762219D01*
X154199500Y-77766223D01*
X154199500Y-77933771D01*
X154232182Y-78098074D01*
X154232184Y-78098082D01*
X154296295Y-78252860D01*
X154389373Y-78392162D01*
X154507837Y-78510626D01*
X154600494Y-78572537D01*
X154647137Y-78603703D01*
X154647138Y-78603703D01*
X154647139Y-78603704D01*
X154647141Y-78603705D01*
X154723942Y-78635517D01*
X154778346Y-78679358D01*
X154800411Y-78745652D01*
X154799894Y-78762219D01*
X154799500Y-78766223D01*
X154799500Y-78933771D01*
X154832182Y-79098074D01*
X154832184Y-79098082D01*
X154896295Y-79252860D01*
X154989373Y-79392162D01*
X155107837Y-79510626D01*
X155200494Y-79572537D01*
X155247137Y-79603703D01*
X155401918Y-79667816D01*
X155410242Y-79669471D01*
X155472152Y-79701851D01*
X155506730Y-79762564D01*
X155510056Y-79791089D01*
X155510056Y-79933771D01*
X155542738Y-80098074D01*
X155542740Y-80098082D01*
X155606851Y-80252860D01*
X155699929Y-80392162D01*
X155818393Y-80510626D01*
X155911050Y-80572537D01*
X155957693Y-80603703D01*
X156112474Y-80667816D01*
X156151065Y-80675492D01*
X156212975Y-80707875D01*
X156247550Y-80768591D01*
X156248302Y-80809992D01*
X156250097Y-80810169D01*
X156249500Y-80816231D01*
X156249500Y-80983771D01*
X156282182Y-81148074D01*
X156282184Y-81148082D01*
X156346295Y-81302860D01*
X156439373Y-81442162D01*
X156557837Y-81560626D01*
X156612480Y-81597137D01*
X156697137Y-81653703D01*
X156851918Y-81717816D01*
X157016228Y-81750499D01*
X157016232Y-81750500D01*
X157016233Y-81750500D01*
X157183768Y-81750500D01*
X157183769Y-81750499D01*
X157348082Y-81717816D01*
X157502863Y-81653703D01*
X157642162Y-81560626D01*
X157760626Y-81442162D01*
X157853703Y-81302863D01*
X157917816Y-81148082D01*
X157950500Y-80983767D01*
X157950500Y-80816233D01*
X157917816Y-80651918D01*
X157853703Y-80497137D01*
X157783561Y-80392162D01*
X157760626Y-80357837D01*
X157711819Y-80309030D01*
X157678334Y-80247707D01*
X157675500Y-80221349D01*
X157675500Y-62210445D01*
X157675500Y-62210443D01*
X157662160Y-62160658D01*
X157634577Y-62057715D01*
X157586657Y-61974716D01*
X157555520Y-61920784D01*
X157443716Y-61808980D01*
X157443715Y-61808979D01*
X157439385Y-61804649D01*
X157439374Y-61804639D01*
X154874090Y-59239355D01*
X154874088Y-59239352D01*
X154755217Y-59120481D01*
X154755216Y-59120480D01*
X154668404Y-59070360D01*
X154668404Y-59070359D01*
X154668400Y-59070358D01*
X154618285Y-59041423D01*
X154465557Y-59000499D01*
X154307443Y-59000499D01*
X154299847Y-59000499D01*
X154299831Y-59000500D01*
X140551651Y-59000500D01*
X140484612Y-58980815D01*
X140438857Y-58928011D01*
X140428913Y-58858853D01*
X140457938Y-58795297D01*
X140463970Y-58788819D01*
X140510623Y-58742165D01*
X140510626Y-58742162D01*
X140520665Y-58727137D01*
X140603703Y-58602863D01*
X140667816Y-58448082D01*
X140700500Y-58283767D01*
X140700500Y-58116233D01*
X140667816Y-57951918D01*
X140603703Y-57797137D01*
X140551761Y-57719401D01*
X140510626Y-57657837D01*
X140392162Y-57539373D01*
X140252860Y-57446295D01*
X140098082Y-57382184D01*
X140098074Y-57382182D01*
X139933771Y-57349500D01*
X139933767Y-57349500D01*
X139766233Y-57349500D01*
X139766228Y-57349500D01*
X139601925Y-57382182D01*
X139601917Y-57382184D01*
X139447139Y-57446295D01*
X139307837Y-57539373D01*
X139189373Y-57657837D01*
X139096295Y-57797139D01*
X139032184Y-57951917D01*
X139032182Y-57951925D01*
X138999500Y-58116228D01*
X138999500Y-58283771D01*
X139032182Y-58448074D01*
X139032184Y-58448082D01*
X139096295Y-58602860D01*
X139189373Y-58742162D01*
X139236030Y-58788819D01*
X139269515Y-58850142D01*
X139264531Y-58919834D01*
X139222659Y-58975767D01*
X139157195Y-59000184D01*
X139148349Y-59000500D01*
X136702516Y-59000500D01*
X136635477Y-58980815D01*
X136589722Y-58928011D01*
X136579778Y-58858853D01*
X136580899Y-58852308D01*
X136592239Y-58795297D01*
X136600500Y-58753767D01*
X136600500Y-58586233D01*
X136567816Y-58421918D01*
X136510592Y-58283768D01*
X136503704Y-58267139D01*
X136410626Y-58127837D01*
X136292162Y-58009373D01*
X136152860Y-57916295D01*
X135998082Y-57852184D01*
X135998074Y-57852182D01*
X135833771Y-57819500D01*
X135833767Y-57819500D01*
X135666233Y-57819500D01*
X135666228Y-57819500D01*
X135501925Y-57852182D01*
X135501917Y-57852184D01*
X135347139Y-57916295D01*
X135207837Y-58009373D01*
X135089373Y-58127837D01*
X134996295Y-58267139D01*
X134932184Y-58421917D01*
X134932182Y-58421925D01*
X134899500Y-58586228D01*
X134899500Y-58753768D01*
X134919101Y-58852308D01*
X134912874Y-58921900D01*
X134870011Y-58977077D01*
X134804121Y-59000322D01*
X134797484Y-59000500D01*
X133264966Y-59000500D01*
X133197927Y-58980815D01*
X133152172Y-58928011D01*
X133142228Y-58858853D01*
X133161863Y-58807610D01*
X133178380Y-58782891D01*
X133242493Y-58628110D01*
X133275177Y-58463795D01*
X133275177Y-58296261D01*
X133242493Y-58131946D01*
X133178380Y-57977165D01*
X133137708Y-57916295D01*
X133085303Y-57837865D01*
X132966839Y-57719401D01*
X132827537Y-57626323D01*
X132672759Y-57562212D01*
X132672751Y-57562210D01*
X132508448Y-57529528D01*
X132508444Y-57529528D01*
X132340910Y-57529528D01*
X132340905Y-57529528D01*
X132176602Y-57562210D01*
X132176594Y-57562212D01*
X132021816Y-57626323D01*
X131882514Y-57719401D01*
X131764050Y-57837865D01*
X131670972Y-57977167D01*
X131606861Y-58131945D01*
X131606859Y-58131953D01*
X131574177Y-58296256D01*
X131574177Y-58463799D01*
X131606859Y-58628102D01*
X131606861Y-58628110D01*
X131658910Y-58753768D01*
X131670974Y-58782891D01*
X131687491Y-58807610D01*
X131708368Y-58874288D01*
X131689883Y-58941668D01*
X131637904Y-58988357D01*
X131584388Y-59000500D01*
X130184281Y-59000500D01*
X130182969Y-59000493D01*
X130167799Y-59000332D01*
X130160957Y-58998499D01*
X130002843Y-58998499D01*
X130002839Y-58998500D01*
X129924097Y-58998500D01*
X129857058Y-58978815D01*
X129836416Y-58962181D01*
X127736819Y-56862584D01*
X127703334Y-56801261D01*
X127700500Y-56774903D01*
X127700500Y-56716232D01*
X127700499Y-56716228D01*
X127667817Y-56551925D01*
X127667816Y-56551918D01*
X127603703Y-56397137D01*
X127572537Y-56350494D01*
X127510626Y-56257837D01*
X127392162Y-56139373D01*
X127252860Y-56046295D01*
X127098082Y-55982184D01*
X127098074Y-55982182D01*
X126933771Y-55949500D01*
X126933767Y-55949500D01*
X126766233Y-55949500D01*
X126766228Y-55949500D01*
X126601925Y-55982182D01*
X126601917Y-55982184D01*
X126447139Y-56046295D01*
X126307837Y-56139373D01*
X126189373Y-56257837D01*
X126096295Y-56397139D01*
X126032184Y-56551917D01*
X126032182Y-56551925D01*
X125999500Y-56716228D01*
X125999500Y-56883771D01*
X126032182Y-57048074D01*
X126032184Y-57048082D01*
X126096295Y-57202859D01*
X126096300Y-57202869D01*
X126123522Y-57243609D01*
X126144400Y-57310287D01*
X126125915Y-57377667D01*
X126123522Y-57381391D01*
X126096300Y-57422130D01*
X126096295Y-57422140D01*
X126032184Y-57576917D01*
X126032182Y-57576925D01*
X125999500Y-57741228D01*
X125999500Y-57908771D01*
X126032182Y-58073074D01*
X126032184Y-58073082D01*
X126096295Y-58227860D01*
X126189373Y-58367162D01*
X126307837Y-58485626D01*
X126400494Y-58547537D01*
X126447137Y-58578703D01*
X126447138Y-58578703D01*
X126447139Y-58578704D01*
X126482201Y-58593227D01*
X126601918Y-58642816D01*
X126766228Y-58675499D01*
X126766232Y-58675500D01*
X126766233Y-58675500D01*
X126799903Y-58675500D01*
X126866942Y-58695185D01*
X126887584Y-58711819D01*
X127763584Y-59587819D01*
X127797069Y-59649142D01*
X127792085Y-59718834D01*
X127750213Y-59774767D01*
X127684749Y-59799184D01*
X127675903Y-59799500D01*
X123075097Y-59799500D01*
X123008058Y-59779815D01*
X122987416Y-59763181D01*
X121632020Y-58407785D01*
X121598535Y-58346462D01*
X121598085Y-58295908D01*
X121600500Y-58283769D01*
X121600500Y-58116232D01*
X121600499Y-58116228D01*
X121591915Y-58073074D01*
X121567816Y-57951918D01*
X121503703Y-57797137D01*
X121451761Y-57719401D01*
X121410626Y-57657837D01*
X121292162Y-57539373D01*
X121152860Y-57446295D01*
X120998082Y-57382184D01*
X120998074Y-57382182D01*
X120833771Y-57349500D01*
X120833767Y-57349500D01*
X120666233Y-57349500D01*
X120666228Y-57349500D01*
X120501925Y-57382182D01*
X120501917Y-57382184D01*
X120347139Y-57446295D01*
X120207837Y-57539373D01*
X120089373Y-57657837D01*
X119996295Y-57797139D01*
X119932184Y-57951917D01*
X119932182Y-57951925D01*
X119899500Y-58116228D01*
X119899500Y-58283771D01*
X119932182Y-58448074D01*
X119932184Y-58448082D01*
X119996295Y-58602859D01*
X119996300Y-58602869D01*
X120027726Y-58649901D01*
X120048604Y-58716579D01*
X120030119Y-58783959D01*
X120027727Y-58787681D01*
X119971297Y-58872136D01*
X119971296Y-58872138D01*
X119907184Y-59026917D01*
X119907182Y-59026925D01*
X119874500Y-59191228D01*
X119874500Y-59358771D01*
X119907182Y-59523074D01*
X119907184Y-59523082D01*
X119971295Y-59677860D01*
X120044156Y-59786904D01*
X120065034Y-59853582D01*
X120046549Y-59920962D01*
X120028735Y-59943476D01*
X120014376Y-59957834D01*
X120014373Y-59957837D01*
X119921295Y-60097139D01*
X119857184Y-60251917D01*
X119857182Y-60251925D01*
X119824500Y-60416228D01*
X119824500Y-60583771D01*
X119857182Y-60748074D01*
X119857184Y-60748082D01*
X119921295Y-60902860D01*
X120014373Y-61042162D01*
X120068877Y-61096666D01*
X120102362Y-61157989D01*
X120097378Y-61227681D01*
X120084298Y-61253237D01*
X119996298Y-61384938D01*
X119996296Y-61384942D01*
X119932184Y-61539721D01*
X119932182Y-61539729D01*
X119899500Y-61704032D01*
X119899500Y-61871575D01*
X119932182Y-62035878D01*
X119932184Y-62035886D01*
X119996295Y-62190664D01*
X120089373Y-62329966D01*
X120207837Y-62448430D01*
X120299348Y-62509575D01*
X120347137Y-62541507D01*
X120501918Y-62605620D01*
X120666228Y-62638303D01*
X120666232Y-62638304D01*
X120666233Y-62638304D01*
X120833768Y-62638304D01*
X120833769Y-62638303D01*
X120998082Y-62605620D01*
X121108364Y-62559938D01*
X121155817Y-62550500D01*
X121761427Y-62550500D01*
X121761443Y-62550501D01*
X121769039Y-62550501D01*
X121927150Y-62550501D01*
X121927153Y-62550501D01*
X122079881Y-62509577D01*
X122166483Y-62459577D01*
X122185791Y-62448430D01*
X122216805Y-62430524D01*
X122216804Y-62430524D01*
X122216812Y-62430520D01*
X122328616Y-62318716D01*
X122328617Y-62318714D01*
X122407514Y-62239816D01*
X122468836Y-62206334D01*
X122495193Y-62203500D01*
X128265820Y-62203500D01*
X128281076Y-62204500D01*
X128281542Y-62204500D01*
X128281543Y-62204500D01*
X129151026Y-62204500D01*
X129167214Y-62205561D01*
X129174339Y-62206499D01*
X129174342Y-62206500D01*
X129174343Y-62206500D01*
X153125500Y-62206500D01*
X153192539Y-62226185D01*
X153238294Y-62278989D01*
X153249500Y-62330500D01*
X153249500Y-71696669D01*
X153243262Y-71717911D01*
X153241684Y-71739998D01*
X153233609Y-71750784D01*
X153229815Y-71763708D01*
X153213085Y-71778204D01*
X153199815Y-71795933D01*
X153187190Y-71800642D01*
X153177011Y-71809463D01*
X153155097Y-71812613D01*
X153134351Y-71820353D01*
X153121186Y-71817489D01*
X153107853Y-71819407D01*
X153087713Y-71810209D01*
X153066078Y-71805504D01*
X153048348Y-71792232D01*
X153044297Y-71790382D01*
X153037822Y-71784354D01*
X153018716Y-71765248D01*
X153018713Y-71765246D01*
X148511822Y-67258355D01*
X148511820Y-67258352D01*
X148392949Y-67139481D01*
X148392948Y-67139480D01*
X148285243Y-67077297D01*
X148285242Y-67077296D01*
X148256015Y-67060422D01*
X148200113Y-67045443D01*
X148103289Y-67019499D01*
X147945175Y-67019499D01*
X147937579Y-67019499D01*
X147937563Y-67019500D01*
X117920098Y-67019500D01*
X117853059Y-66999815D01*
X117832417Y-66983181D01*
X117230002Y-66380767D01*
X117196517Y-66319444D01*
X117196080Y-66317349D01*
X117183231Y-66252750D01*
X117119118Y-66097969D01*
X117084838Y-66046666D01*
X117026041Y-65958669D01*
X116907577Y-65840205D01*
X116768275Y-65747127D01*
X116762900Y-65744254D01*
X116764126Y-65741958D01*
X116718533Y-65705210D01*
X116696475Y-65638914D01*
X116713761Y-65571216D01*
X116764903Y-65523611D01*
X116820396Y-65510500D01*
X120755335Y-65510500D01*
X120787428Y-65514724D01*
X120920943Y-65550501D01*
X120920945Y-65550501D01*
X121086654Y-65550501D01*
X121086670Y-65550500D01*
X121246349Y-65550500D01*
X121313388Y-65570185D01*
X121334030Y-65586819D01*
X121357837Y-65610626D01*
X121443815Y-65668074D01*
X121497137Y-65703703D01*
X121651918Y-65767816D01*
X121807360Y-65798735D01*
X121816228Y-65800499D01*
X121816232Y-65800500D01*
X121816233Y-65800500D01*
X121983768Y-65800500D01*
X121983769Y-65800499D01*
X122148082Y-65767816D01*
X122302863Y-65703703D01*
X122442162Y-65610626D01*
X122560626Y-65492162D01*
X122653703Y-65352863D01*
X122717816Y-65198082D01*
X122750500Y-65033767D01*
X122750500Y-64866233D01*
X122737065Y-64798690D01*
X122743293Y-64729099D01*
X122786157Y-64673922D01*
X122852047Y-64650678D01*
X122858683Y-64650500D01*
X141416349Y-64650500D01*
X141483388Y-64670185D01*
X141504030Y-64686819D01*
X141527837Y-64710626D01*
X141596189Y-64756297D01*
X141667137Y-64803703D01*
X141821918Y-64867816D01*
X141986228Y-64900499D01*
X141986232Y-64900500D01*
X141986233Y-64900500D01*
X142153768Y-64900500D01*
X142153769Y-64900499D01*
X142318082Y-64867816D01*
X142472863Y-64803703D01*
X142612162Y-64710626D01*
X142730626Y-64592162D01*
X142823703Y-64452863D01*
X142887816Y-64298082D01*
X142920500Y-64133767D01*
X142920500Y-63966233D01*
X142887816Y-63801918D01*
X142823703Y-63647137D01*
X142771811Y-63569475D01*
X142730626Y-63507837D01*
X142612162Y-63389373D01*
X142472860Y-63296295D01*
X142318082Y-63232184D01*
X142318074Y-63232182D01*
X142153771Y-63199500D01*
X142153767Y-63199500D01*
X141986233Y-63199500D01*
X141986228Y-63199500D01*
X141821925Y-63232182D01*
X141821917Y-63232184D01*
X141667139Y-63296295D01*
X141527837Y-63389373D01*
X141527834Y-63389376D01*
X141504030Y-63413181D01*
X141442707Y-63446666D01*
X141416349Y-63449500D01*
X89866670Y-63449500D01*
X89866654Y-63449499D01*
X89859058Y-63449499D01*
X89700943Y-63449499D01*
X89624579Y-63469961D01*
X89548214Y-63490423D01*
X89548209Y-63490426D01*
X89411290Y-63569475D01*
X89411282Y-63569481D01*
X88067584Y-64913181D01*
X88006261Y-64946666D01*
X87979903Y-64949500D01*
X87946228Y-64949500D01*
X87781925Y-64982182D01*
X87781917Y-64982184D01*
X87627139Y-65046295D01*
X87487837Y-65139373D01*
X87369373Y-65257837D01*
X87276295Y-65397139D01*
X87212184Y-65551917D01*
X87212182Y-65551925D01*
X87179500Y-65716228D01*
X71800500Y-65716228D01*
X71800500Y-61296228D01*
X90229500Y-61296228D01*
X90229500Y-61463771D01*
X90262182Y-61628074D01*
X90262184Y-61628082D01*
X90326295Y-61782860D01*
X90419373Y-61922162D01*
X90537837Y-62040626D01*
X90563410Y-62057713D01*
X90677137Y-62133703D01*
X90831918Y-62197816D01*
X90974540Y-62226185D01*
X90996228Y-62230499D01*
X90996232Y-62230500D01*
X90996233Y-62230500D01*
X91163768Y-62230500D01*
X91163769Y-62230499D01*
X91328082Y-62197816D01*
X91482863Y-62133703D01*
X91622162Y-62040626D01*
X91740626Y-61922162D01*
X91833703Y-61782863D01*
X91897816Y-61628082D01*
X91930500Y-61463767D01*
X91930500Y-61296233D01*
X91897816Y-61131918D01*
X91833703Y-60977137D01*
X91772959Y-60886228D01*
X94199500Y-60886228D01*
X94199500Y-61053771D01*
X94232182Y-61218074D01*
X94232184Y-61218082D01*
X94296295Y-61372860D01*
X94389373Y-61512162D01*
X94507837Y-61630626D01*
X94600494Y-61692537D01*
X94647137Y-61723703D01*
X94801918Y-61787816D01*
X94908318Y-61808980D01*
X94966228Y-61820499D01*
X94966232Y-61820500D01*
X94966233Y-61820500D01*
X95133768Y-61820500D01*
X95133769Y-61820499D01*
X95298082Y-61787816D01*
X95452863Y-61723703D01*
X95592162Y-61630626D01*
X95710626Y-61512162D01*
X95803703Y-61372863D01*
X95867816Y-61218082D01*
X95900500Y-61053767D01*
X95900500Y-60886233D01*
X95867816Y-60721918D01*
X95810593Y-60583771D01*
X95803704Y-60567139D01*
X95710625Y-60427836D01*
X95639017Y-60356228D01*
X98159500Y-60356228D01*
X98159500Y-60523771D01*
X98192182Y-60688074D01*
X98192184Y-60688082D01*
X98256295Y-60842860D01*
X98349373Y-60982162D01*
X98467837Y-61100626D01*
X98514680Y-61131925D01*
X98607137Y-61193703D01*
X98761918Y-61257816D01*
X98926228Y-61290499D01*
X98926232Y-61290500D01*
X98926233Y-61290500D01*
X99093768Y-61290500D01*
X99093769Y-61290499D01*
X99258082Y-61257816D01*
X99412863Y-61193703D01*
X99552162Y-61100626D01*
X99670626Y-60982162D01*
X99763703Y-60842863D01*
X99827816Y-60688082D01*
X99860500Y-60523767D01*
X99860500Y-60356233D01*
X99827816Y-60191918D01*
X99763703Y-60037137D01*
X99704021Y-59947817D01*
X99670626Y-59897837D01*
X99552162Y-59779373D01*
X99412860Y-59686295D01*
X99258082Y-59622184D01*
X99258074Y-59622182D01*
X99093771Y-59589500D01*
X99093767Y-59589500D01*
X98926233Y-59589500D01*
X98926228Y-59589500D01*
X98761925Y-59622182D01*
X98761917Y-59622184D01*
X98607139Y-59686295D01*
X98467837Y-59779373D01*
X98349373Y-59897837D01*
X98256295Y-60037139D01*
X98192184Y-60191917D01*
X98192182Y-60191925D01*
X98159500Y-60356228D01*
X95639017Y-60356228D01*
X95592162Y-60309373D01*
X95452860Y-60216295D01*
X95298082Y-60152184D01*
X95298074Y-60152182D01*
X95133771Y-60119500D01*
X95133767Y-60119500D01*
X94966233Y-60119500D01*
X94966228Y-60119500D01*
X94801925Y-60152182D01*
X94801917Y-60152184D01*
X94647139Y-60216295D01*
X94507837Y-60309373D01*
X94389373Y-60427837D01*
X94296295Y-60567139D01*
X94232184Y-60721917D01*
X94232182Y-60721925D01*
X94199500Y-60886228D01*
X91772959Y-60886228D01*
X91740626Y-60837838D01*
X91740625Y-60837837D01*
X91740623Y-60837834D01*
X91622162Y-60719373D01*
X91482860Y-60626295D01*
X91328082Y-60562184D01*
X91328074Y-60562182D01*
X91163771Y-60529500D01*
X91163767Y-60529500D01*
X90996233Y-60529500D01*
X90996228Y-60529500D01*
X90831925Y-60562182D01*
X90831917Y-60562184D01*
X90677139Y-60626295D01*
X90537837Y-60719373D01*
X90419373Y-60837837D01*
X90326295Y-60977139D01*
X90262184Y-61131917D01*
X90262182Y-61131925D01*
X90229500Y-61296228D01*
X71800500Y-61296228D01*
X71800500Y-59046228D01*
X77549500Y-59046228D01*
X77549500Y-59213771D01*
X77582182Y-59378074D01*
X77582184Y-59378082D01*
X77646295Y-59532860D01*
X77739373Y-59672162D01*
X77857837Y-59790626D01*
X77950494Y-59852537D01*
X77997137Y-59883703D01*
X78151918Y-59947816D01*
X78316228Y-59980499D01*
X78316232Y-59980500D01*
X78316233Y-59980500D01*
X78483768Y-59980500D01*
X78483769Y-59980499D01*
X78648082Y-59947816D01*
X78802863Y-59883703D01*
X78942162Y-59790626D01*
X79060626Y-59672162D01*
X79153703Y-59532863D01*
X79217816Y-59378082D01*
X79250500Y-59213767D01*
X79250500Y-59046233D01*
X79217816Y-58881918D01*
X79159927Y-58742162D01*
X79153704Y-58727139D01*
X79060626Y-58587837D01*
X78942162Y-58469373D01*
X78802860Y-58376295D01*
X78648082Y-58312184D01*
X78648074Y-58312182D01*
X78483771Y-58279500D01*
X78483767Y-58279500D01*
X78316233Y-58279500D01*
X78316228Y-58279500D01*
X78151925Y-58312182D01*
X78151917Y-58312184D01*
X77997139Y-58376295D01*
X77857837Y-58469373D01*
X77739373Y-58587837D01*
X77646295Y-58727139D01*
X77582184Y-58881917D01*
X77582182Y-58881925D01*
X77549500Y-59046228D01*
X71800500Y-59046228D01*
X71800500Y-49266228D01*
X98519500Y-49266228D01*
X98519500Y-49433771D01*
X98552182Y-49598074D01*
X98552184Y-49598082D01*
X98616295Y-49752860D01*
X98709373Y-49892162D01*
X98827837Y-50010626D01*
X98920494Y-50072537D01*
X98967137Y-50103703D01*
X99121918Y-50167816D01*
X99286228Y-50200499D01*
X99286232Y-50200500D01*
X99286233Y-50200500D01*
X99453768Y-50200500D01*
X99453769Y-50200499D01*
X99618082Y-50167816D01*
X99772863Y-50103703D01*
X99912162Y-50010626D01*
X100030626Y-49892162D01*
X100118854Y-49760120D01*
X132814500Y-49760120D01*
X132814500Y-49992379D01*
X132850831Y-50221764D01*
X132922601Y-50442650D01*
X133028039Y-50649581D01*
X133164551Y-50837474D01*
X133328776Y-51001699D01*
X133516669Y-51138211D01*
X133614436Y-51188026D01*
X133723599Y-51243648D01*
X133723601Y-51243648D01*
X133723604Y-51243650D01*
X133944486Y-51315419D01*
X134062668Y-51334136D01*
X134173871Y-51351750D01*
X134173876Y-51351750D01*
X134406129Y-51351750D01*
X134507502Y-51335693D01*
X134635514Y-51315419D01*
X134856396Y-51243650D01*
X135063331Y-51138211D01*
X135251224Y-51001699D01*
X135415449Y-50837474D01*
X135551961Y-50649581D01*
X135657400Y-50442646D01*
X135729169Y-50221764D01*
X135749443Y-50093752D01*
X135765500Y-49992379D01*
X135765500Y-49760120D01*
X135739834Y-49598074D01*
X135729169Y-49530736D01*
X135657400Y-49309854D01*
X135657398Y-49309851D01*
X135657398Y-49309849D01*
X135551960Y-49102918D01*
X135551239Y-49101925D01*
X135415449Y-48915026D01*
X135251224Y-48750801D01*
X135063331Y-48614289D01*
X135028016Y-48596295D01*
X134856400Y-48508851D01*
X134635514Y-48437081D01*
X134406129Y-48400750D01*
X134406124Y-48400750D01*
X134173876Y-48400750D01*
X134173871Y-48400750D01*
X133944485Y-48437081D01*
X133723599Y-48508851D01*
X133516668Y-48614289D01*
X133328773Y-48750803D01*
X133164553Y-48915023D01*
X133028039Y-49102918D01*
X132922601Y-49309849D01*
X132850831Y-49530735D01*
X132814500Y-49760120D01*
X100118854Y-49760120D01*
X100123703Y-49752863D01*
X100187816Y-49598082D01*
X100220500Y-49433767D01*
X100220500Y-49266233D01*
X100187816Y-49101918D01*
X100123703Y-48947137D01*
X100092537Y-48900494D01*
X100030626Y-48807837D01*
X99912162Y-48689373D01*
X99772860Y-48596295D01*
X99618082Y-48532184D01*
X99618074Y-48532182D01*
X99453771Y-48499500D01*
X99453767Y-48499500D01*
X99286233Y-48499500D01*
X99286228Y-48499500D01*
X99121925Y-48532182D01*
X99121917Y-48532184D01*
X98967139Y-48596295D01*
X98827837Y-48689373D01*
X98709373Y-48807837D01*
X98616295Y-48947139D01*
X98552184Y-49101917D01*
X98552182Y-49101925D01*
X98519500Y-49266228D01*
X71800500Y-49266228D01*
X71800500Y-46926228D01*
X102939500Y-46926228D01*
X102939500Y-47093771D01*
X102972182Y-47258074D01*
X102972184Y-47258082D01*
X103036295Y-47412860D01*
X103129373Y-47552162D01*
X103247837Y-47670626D01*
X103340494Y-47732537D01*
X103387137Y-47763703D01*
X103541918Y-47827816D01*
X103706228Y-47860499D01*
X103706232Y-47860500D01*
X103706233Y-47860500D01*
X103873768Y-47860500D01*
X103873769Y-47860499D01*
X104038082Y-47827816D01*
X104192863Y-47763703D01*
X104332162Y-47670626D01*
X104450626Y-47552162D01*
X104543703Y-47412863D01*
X104607816Y-47258082D01*
X104640500Y-47093767D01*
X104640500Y-46926233D01*
X104607816Y-46761918D01*
X104543703Y-46607137D01*
X104472116Y-46500000D01*
X104450626Y-46467837D01*
X104332162Y-46349373D01*
X104192860Y-46256295D01*
X104038082Y-46192184D01*
X104038074Y-46192182D01*
X103873771Y-46159500D01*
X103873767Y-46159500D01*
X103706233Y-46159500D01*
X103706228Y-46159500D01*
X103541925Y-46192182D01*
X103541917Y-46192184D01*
X103387139Y-46256295D01*
X103247837Y-46349373D01*
X103129373Y-46467837D01*
X103036295Y-46607139D01*
X102972184Y-46761917D01*
X102972182Y-46761925D01*
X102939500Y-46926228D01*
X71800500Y-46926228D01*
X71800500Y-46504427D01*
X71800816Y-46495581D01*
X71810452Y-46360845D01*
X71817165Y-46266977D01*
X71819683Y-46249470D01*
X71832145Y-46192184D01*
X71867459Y-46029851D01*
X71872436Y-46012900D01*
X71950985Y-45802299D01*
X71958325Y-45786227D01*
X72066044Y-45588956D01*
X72075600Y-45574086D01*
X72210294Y-45394156D01*
X72221868Y-45380799D01*
X72380799Y-45221868D01*
X72394156Y-45210294D01*
X72574086Y-45075600D01*
X72588956Y-45066044D01*
X72786227Y-44958325D01*
X72802299Y-44950985D01*
X73012900Y-44872436D01*
X73029851Y-44867459D01*
X73249472Y-44819682D01*
X73266977Y-44817165D01*
X73495582Y-44800816D01*
X73504428Y-44800500D01*
X73547595Y-44800500D01*
X163452405Y-44800500D01*
X163495572Y-44800500D01*
X163504418Y-44800816D01*
G37*
%TD.AperFunction*%
M02*
