M48
; DRILL file {KiCad 9.0.7} date 2026-04-18T13:14:04-0300
; FORMAT={-:-/ absolute / metric / decimal}
; #@! TF.CreationDate,2026-04-18T13:14:04-03:00
; #@! TF.GenerationSoftware,Kicad,Pcbnew,9.0.7
; #@! TF.FileFunction,Plated,1,4,PTH
FMAT,2
METRIC
; #@! TA.AperFunction,Plated,PTH,ViaDrill
T1C0.300
; #@! TA.AperFunction,Plated,PTH,ComponentDrill
T2C1.000
; #@! TA.AperFunction,Plated,PTH,ComponentDrill
T3C1.300
; #@! TA.AperFunction,Plated,PTH,ComponentDrill
T4C2.500
%
G90
G05
T1
X72.54Y-76.75
X73.56Y-111.1
X73.66Y-98.93
X73.75Y-47.08
X73.75Y-56.08
X73.75Y-74.08
X73.75Y-83.08
X73.75Y-119.08
X73.75Y-128.08
X73.75Y-137.08
X75.82Y-106.51
X75.89Y-104.51
X75.98Y-102.51
X76.01Y-101.49
X76.17Y-92.5
X76.33Y-78.91
X77.49Y-59.13
X78.4Y-59.13
X79.28Y-98.05
X80.17Y-92.53
X80.19Y-78.96
X80.24Y-98.11
X80.51Y-59.15
X80.55Y-72.32
X81.17Y-47.1
X81.19Y-62.63
X82.75Y-59.08
X82.75Y-110.08
X82.75Y-119.08
X82.75Y-128.08
X82.75Y-137.08
X83.62Y-99.47
X83.62Y-101.51
X83.65Y-62.57
X84.77Y-76.96
X85.49Y-74.2
X85.52Y-73.19
X85.7Y-70.4
X86.6Y-70.4
X86.6Y-75.97
X87.0Y-65.7
X87.93Y-62.03
X88.03Y-65.8
X88.4Y-68.19
X88.54Y-84.55
X88.6Y-87.73
X88.98Y-80.08
X89.9Y-65.4
X90.45Y-105.5
X90.45Y-107.475
X90.5Y-106.5
X90.5Y-108.5
X90.575Y-103.0
X90.9Y-65.42
X91.08Y-61.38
X91.7Y-103.0
X91.705Y-62.028
X91.75Y-56.08
X91.75Y-74.08
X91.75Y-92.08
X91.75Y-110.08
X91.75Y-119.08
X91.75Y-128.08
X91.75Y-137.08
X93.7Y-65.6
X93.72Y-47.1
X94.76Y-65.57
X95.05Y-60.97
X95.664Y-61.628
X98.2Y-65.5
X99.01Y-60.44
X99.3Y-65.51
X99.36Y-49.19
X99.38Y-50.09
X99.58Y-61.15
X100.65Y-68.12
X100.75Y-92.08
X100.75Y-101.08
X100.75Y-110.08
X100.75Y-119.08
X100.75Y-128.08
X100.75Y-137.08
X101.13Y-79.48
X101.4Y-65.9
X101.5Y-66.9
X103.33Y-59.77
X106.929Y-69.031
X107.14Y-96.05
X107.5Y-55.77
X107.515Y-68.16
X108.29Y-69.7
X108.42Y-55.78
X108.61Y-73.46
X108.82Y-68.82
X109.33Y-56.83
X109.52Y-55.95
X109.59Y-70.25
X109.75Y-47.08
X109.75Y-92.08
X109.75Y-101.08
X109.75Y-110.08
X109.75Y-119.08
X109.75Y-128.08
X109.75Y-137.08
X110.08Y-69.42
X110.7Y-75.71
X110.88Y-70.86
X111.32Y-69.99
X111.58Y-54.15
X111.6Y-52.75
X111.75Y-75.75
X112.1Y-81.4
X112.17Y-71.63
X112.29Y-54.86
X112.3Y-52.06
X112.33Y-53.45
X112.59Y-70.76
X113.0Y-54.13
X113.04Y-52.77
X113.34Y-93.86
X113.44Y-72.27
X113.7Y-54.89
X113.71Y-52.07
X113.73Y-53.45
X113.85Y-75.74
X113.89Y-71.37
X114.4Y-52.74
X114.4Y-54.15
X114.4Y-104.75
X114.43Y-100.35
X114.6Y-72.83
X115.14Y-72.0
X115.34Y-104.73
X115.752Y-92.82
X115.9Y-75.79
X116.365Y-66.501
X116.652Y-92.81
X117.4Y-66.26
X117.6Y-58.38
X117.64Y-59.34
X117.896Y-96.905
X117.956Y-75.204
X118.625Y-60.395
X118.75Y-47.08
X118.75Y-56.08
X118.75Y-83.08
X118.75Y-110.08
X118.75Y-119.08
X118.75Y-128.08
X118.75Y-137.08
X119.457Y-60.052
X119.65Y-73.1
X119.68Y-74.08
X120.03Y-88.81
X120.19Y-75.36
X120.73Y-92.88
X121.3Y-96.8
X121.389Y-93.493
X122.32Y-64.95
X122.32Y-65.87
X122.51Y-76.35
X122.8Y-90.7
X123.5Y-76.4
X125.13Y-45.76
X125.97Y-58.45
X126.85Y-56.8
X126.85Y-57.825
X127.56Y-56.05
X127.75Y-65.08
X127.75Y-74.08
X127.75Y-83.08
X127.75Y-92.08
X127.75Y-101.08
X127.75Y-110.08
X127.75Y-119.08
X127.75Y-128.08
X127.75Y-137.08
X129.29Y-48.41
X131.68Y-131.22
X131.769Y-57.763
X132.425Y-58.38
X135.04Y-57.93
X135.75Y-58.67
X136.75Y-56.08
X136.75Y-65.08
X136.75Y-74.08
X136.75Y-83.08
X136.75Y-92.08
X136.75Y-101.08
X136.75Y-110.08
X136.75Y-119.08
X136.75Y-128.08
X136.75Y-137.08
X139.85Y-58.2
X140.84Y-58.18
X141.07Y-54.65
X142.07Y-64.05
X143.05Y-54.24
X144.76Y-45.98
X145.75Y-74.08
X145.75Y-83.08
X145.75Y-92.08
X145.75Y-101.08
X145.75Y-110.08
X145.75Y-119.08
X145.75Y-128.08
X145.75Y-137.08
X146.26Y-64.79
X146.615Y-93.642
X147.351Y-94.904
X147.41Y-93.22
X148.06Y-94.35
X148.109Y-95.96
X148.69Y-96.865
X148.77Y-95.35
X149.25Y-65.11
X149.325Y-97.884
X149.428Y-96.35
X149.99Y-98.964
X150.05Y-97.35
X150.7Y-98.41
X150.78Y-100.139
X151.47Y-65.1
X151.613Y-99.5
X151.85Y-48.1
X151.88Y-46.03
X152.94Y-76.48
X153.63Y-77.47
X153.8Y-75.85
X154.25Y-78.45
X154.45Y-76.85
X154.75Y-56.08
X154.75Y-92.08
X154.75Y-101.08
X154.75Y-110.08
X154.75Y-119.08
X154.75Y-128.08
X154.75Y-137.08
X154.89Y-79.46
X155.05Y-77.85
X155.51Y-80.28
X155.65Y-78.85
X155.94Y-81.11
X156.361Y-79.85
X157.1Y-80.9
X157.84Y-82.2
X157.84Y-83.25
X159.67Y-91.7
X159.7Y-74.28
X160.128Y-111.701
X160.16Y-112.6
X160.2Y-107.56
X160.2Y-116.72
X160.22Y-117.71
X160.23Y-106.65
X163.29Y-115.21
X163.31Y-110.07
X163.37Y-120.29
X163.43Y-90.1
X163.5Y-102.24
X163.54Y-72.65
X163.59Y-84.71
X163.75Y-47.08
X163.75Y-56.08
X163.75Y-65.08
X163.75Y-128.08
X163.75Y-137.08
T2
X161.7Y-107.55
X161.7Y-110.09
X161.7Y-112.63
X161.7Y-115.17
X161.7Y-117.71
X161.7Y-120.25
T3
X129.29Y-49.876
X134.29Y-49.876
T4
X76.0Y-49.0
X76.0Y-136.5
X161.0Y-49.0
X161.0Y-136.5
M30
