M48
; DRILL file {KiCad 9.0.7} date 2026-03-08T21:34:52-0300
; FORMAT={-:-/ absolute / metric / decimal}
; #@! TF.CreationDate,2026-03-08T21:34:52-03:00
; #@! TF.GenerationSoftware,Kicad,Pcbnew,9.0.7
; #@! TF.FileFunction,Plated,1,4,PTH
FMAT,2
METRIC
; #@! TA.AperFunction,Plated,PTH,ViaDrill
T1C0.300
; #@! TA.AperFunction,Plated,PTH,ComponentDrill
T2C1.300
%
G90
G05
T1
X115.675Y-86.475
X117.4Y-88.0
X123.175Y-88.05
X123.275Y-117.5
X126.875Y-86.9
X127.025Y-117.6
X128.15Y-101.55
X128.325Y-98.3
X131.725Y-85.5
X132.0Y-110.4
X132.925Y-87.1
X134.55Y-108.575
X137.2Y-82.675
X137.475Y-119.925
X139.8Y-119.9
X140.125Y-81.4
X143.575Y-88.25
X143.825Y-117.65
X146.205Y-82.48
X146.925Y-116.95
X147.225Y-87.5
X148.075Y-109.8
X148.675Y-107.85
X149.275Y-82.75
X149.775Y-111.55
X149.85Y-80.35
X150.325Y-84.862
X150.325Y-86.0
X150.325Y-96.575
X150.325Y-99.75
X151.275Y-112.25
X151.825Y-82.6
X154.25Y-108.525
X156.075Y-106.0
X158.425Y-109.2
X158.45Y-84.775
X159.75Y-95.925
X164.45Y-122.325
T2
X166.825Y-82.5
X166.825Y-87.5
X166.825Y-92.5
X166.825Y-97.5
X166.825Y-102.5
X166.825Y-107.5
X166.825Y-112.5
X166.825Y-117.5
M30
