%TF.GenerationSoftware,KiCad,Pcbnew,9.0.7*%
%TF.CreationDate,2026-03-08T21:33:58-03:00*%
%TF.ProjectId,SatellitePCB_OPT,53617465-6c6c-4697-9465-5043425f4f50,rev?*%
%TF.SameCoordinates,Original*%
%TF.FileFunction,Copper,L4,Bot*%
%TF.FilePolarity,Positive*%
%FSLAX46Y46*%
G04 Gerber Fmt 4.6, Leading zero omitted, Abs format (unit mm)*
G04 Created by KiCad (PCBNEW 9.0.7) date 2026-03-08 21:33:58*
%MOMM*%
%LPD*%
G01*
G04 APERTURE LIST*
%TA.AperFunction,ComponentPad*%
%ADD10R,1.950000X1.950000*%
%TD*%
%TA.AperFunction,ComponentPad*%
%ADD11C,1.950000*%
%TD*%
%TA.AperFunction,ViaPad*%
%ADD12C,0.600000*%
%TD*%
%TA.AperFunction,Conductor*%
%ADD13C,0.200000*%
%TD*%
G04 APERTURE END LIST*
D10*
%TO.P,J1,1,1*%
%TO.N,VDD*%
X166825000Y-82500000D03*
D11*
%TO.P,J1,2,2*%
%TO.N,GND*%
X166825000Y-87500000D03*
%TO.P,J1,3,3*%
%TO.N,/SCL*%
X166825000Y-92500000D03*
%TO.P,J1,4,4*%
%TO.N,GND*%
X166825000Y-97500000D03*
%TO.P,J1,5,5*%
%TO.N,/SDA*%
X166825000Y-102500000D03*
%TO.P,J1,6,6*%
%TO.N,GND*%
X166825000Y-107500000D03*
%TO.P,J1,7,7*%
%TO.N,/INT*%
X166825000Y-112500000D03*
%TO.P,J1,8,8*%
%TO.N,GND*%
X166825000Y-117500000D03*
%TD*%
D12*
%TO.N,GND*%
X143575000Y-88250000D03*
X123175000Y-88050000D03*
X146925000Y-116950000D03*
X143825000Y-117650000D03*
X158450000Y-84775000D03*
X147225000Y-87500000D03*
X126875000Y-86900000D03*
X159750000Y-95925000D03*
X123275000Y-117500000D03*
X158425000Y-109200000D03*
X127025000Y-117600000D03*
X164450000Y-122325000D03*
%TO.N,/INT*%
X151275000Y-112250000D03*
X148675000Y-107850000D03*
X148075000Y-109800000D03*
X149775000Y-111550000D03*
X150325000Y-96575000D03*
X150325000Y-86000000D03*
X132925000Y-87100000D03*
X131725000Y-85500000D03*
X150325000Y-99750000D03*
X150325000Y-84862500D03*
%TO.N,/SCL*%
X117400000Y-88000000D03*
X139800000Y-119900000D03*
X137475000Y-119925000D03*
X149850000Y-80350000D03*
X115675000Y-86475000D03*
X151825000Y-82600000D03*
%TO.N,/SDA*%
X146204909Y-82480285D03*
X154250000Y-108525000D03*
X140125000Y-81400000D03*
X149275000Y-82750000D03*
X137200000Y-82675000D03*
X128325000Y-98300000D03*
X132000000Y-110400000D03*
X134550000Y-108575000D03*
X128150000Y-101550000D03*
X156075000Y-106000000D03*
%TD*%
D13*
%TO.N,/INT*%
X150325000Y-96575000D02*
X150325000Y-99750000D01*
X148075000Y-108450000D02*
X148075000Y-109800000D01*
X151275000Y-112250000D02*
X150475000Y-112250000D01*
X150325000Y-86000000D02*
X150275000Y-86050000D01*
X150325000Y-84862500D02*
X150325000Y-86000000D01*
X148675000Y-107850000D02*
X148075000Y-108450000D01*
X132925000Y-86700000D02*
X132925000Y-87100000D01*
X131725000Y-85500000D02*
X132925000Y-86700000D01*
X150475000Y-112250000D02*
X149775000Y-111550000D01*
%TO.N,/SCL*%
X115875000Y-86475000D02*
X115675000Y-86475000D01*
X149850000Y-80350000D02*
X151825000Y-82325000D01*
X139800000Y-119900000D02*
X137500000Y-119900000D01*
X151825000Y-82325000D02*
X151825000Y-82600000D01*
X117400000Y-88000000D02*
X115875000Y-86475000D01*
X137500000Y-119900000D02*
X137475000Y-119925000D01*
%TO.N,/SDA*%
X156075000Y-106325000D02*
X156075000Y-106000000D01*
X154225000Y-108500000D02*
X154225000Y-108175000D01*
X128325000Y-98300000D02*
X128150000Y-98475000D01*
X140125000Y-81400000D02*
X139800000Y-81400000D01*
X149005285Y-82480285D02*
X149275000Y-82750000D01*
X137800000Y-82075000D02*
X137200000Y-82675000D01*
X128150000Y-98475000D02*
X128150000Y-101550000D01*
X146204909Y-82480285D02*
X149005285Y-82480285D01*
X154225000Y-108175000D02*
X156075000Y-106325000D01*
X133825000Y-108575000D02*
X134550000Y-108575000D01*
X132000000Y-110400000D02*
X133825000Y-108575000D01*
X139800000Y-81400000D02*
X139125000Y-82075000D01*
X154250000Y-108525000D02*
X154225000Y-108500000D01*
X139125000Y-82075000D02*
X137800000Y-82075000D01*
%TD*%
%TA.AperFunction,Conductor*%
%TO.N,GND*%
G36*
X172317539Y-69670185D02*
G01*
X172363294Y-69722989D01*
X172374500Y-69774500D01*
X172374500Y-129525500D01*
X172354815Y-129592539D01*
X172302011Y-129638294D01*
X172250500Y-129649500D01*
X112499500Y-129649500D01*
X112432461Y-129629815D01*
X112386706Y-129577011D01*
X112375500Y-129525500D01*
X112375500Y-124543713D01*
X116024500Y-124543713D01*
X116024500Y-124756286D01*
X116057753Y-124966239D01*
X116123444Y-125168414D01*
X116219951Y-125357820D01*
X116344890Y-125529786D01*
X116495213Y-125680109D01*
X116667179Y-125805048D01*
X116667181Y-125805049D01*
X116667184Y-125805051D01*
X116856588Y-125901557D01*
X117058757Y-125967246D01*
X117268713Y-126000500D01*
X117268714Y-126000500D01*
X117481286Y-126000500D01*
X117481287Y-126000500D01*
X117691243Y-125967246D01*
X117893412Y-125901557D01*
X118082816Y-125805051D01*
X118104789Y-125789086D01*
X118254786Y-125680109D01*
X118254788Y-125680106D01*
X118254792Y-125680104D01*
X118405104Y-125529792D01*
X118405106Y-125529788D01*
X118405109Y-125529786D01*
X118530048Y-125357820D01*
X118530047Y-125357820D01*
X118530051Y-125357816D01*
X118626557Y-125168412D01*
X118692246Y-124966243D01*
X118725500Y-124756287D01*
X118725500Y-124543713D01*
X166024500Y-124543713D01*
X166024500Y-124756286D01*
X166057753Y-124966239D01*
X166123444Y-125168414D01*
X166219951Y-125357820D01*
X166344890Y-125529786D01*
X166495213Y-125680109D01*
X166667179Y-125805048D01*
X166667181Y-125805049D01*
X166667184Y-125805051D01*
X166856588Y-125901557D01*
X167058757Y-125967246D01*
X167268713Y-126000500D01*
X167268714Y-126000500D01*
X167481286Y-126000500D01*
X167481287Y-126000500D01*
X167691243Y-125967246D01*
X167893412Y-125901557D01*
X168082816Y-125805051D01*
X168104789Y-125789086D01*
X168254786Y-125680109D01*
X168254788Y-125680106D01*
X168254792Y-125680104D01*
X168405104Y-125529792D01*
X168405106Y-125529788D01*
X168405109Y-125529786D01*
X168530048Y-125357820D01*
X168530047Y-125357820D01*
X168530051Y-125357816D01*
X168626557Y-125168412D01*
X168692246Y-124966243D01*
X168725500Y-124756287D01*
X168725500Y-124543713D01*
X168692246Y-124333757D01*
X168626557Y-124131588D01*
X168530051Y-123942184D01*
X168530049Y-123942181D01*
X168530048Y-123942179D01*
X168405109Y-123770213D01*
X168254786Y-123619890D01*
X168082820Y-123494951D01*
X167893414Y-123398444D01*
X167893413Y-123398443D01*
X167893412Y-123398443D01*
X167691243Y-123332754D01*
X167691241Y-123332753D01*
X167691240Y-123332753D01*
X167529957Y-123307208D01*
X167481287Y-123299500D01*
X167268713Y-123299500D01*
X167220042Y-123307208D01*
X167058760Y-123332753D01*
X166856585Y-123398444D01*
X166667179Y-123494951D01*
X166495213Y-123619890D01*
X166344890Y-123770213D01*
X166219951Y-123942179D01*
X166123444Y-124131585D01*
X166057753Y-124333760D01*
X166024500Y-124543713D01*
X118725500Y-124543713D01*
X118692246Y-124333757D01*
X118626557Y-124131588D01*
X118530051Y-123942184D01*
X118530049Y-123942181D01*
X118530048Y-123942179D01*
X118405109Y-123770213D01*
X118254786Y-123619890D01*
X118082820Y-123494951D01*
X117893414Y-123398444D01*
X117893413Y-123398443D01*
X117893412Y-123398443D01*
X117691243Y-123332754D01*
X117691241Y-123332753D01*
X117691240Y-123332753D01*
X117529957Y-123307208D01*
X117481287Y-123299500D01*
X117268713Y-123299500D01*
X117220042Y-123307208D01*
X117058760Y-123332753D01*
X116856585Y-123398444D01*
X116667179Y-123494951D01*
X116495213Y-123619890D01*
X116344890Y-123770213D01*
X116219951Y-123942179D01*
X116123444Y-124131585D01*
X116057753Y-124333760D01*
X116024500Y-124543713D01*
X112375500Y-124543713D01*
X112375500Y-119846153D01*
X136674500Y-119846153D01*
X136674500Y-120003846D01*
X136705261Y-120158489D01*
X136705264Y-120158501D01*
X136765602Y-120304172D01*
X136765609Y-120304185D01*
X136853210Y-120435288D01*
X136853213Y-120435292D01*
X136964707Y-120546786D01*
X136964711Y-120546789D01*
X137095814Y-120634390D01*
X137095827Y-120634397D01*
X137241498Y-120694735D01*
X137241503Y-120694737D01*
X137396153Y-120725499D01*
X137396156Y-120725500D01*
X137396158Y-120725500D01*
X137553844Y-120725500D01*
X137553845Y-120725499D01*
X137708497Y-120694737D01*
X137854179Y-120634394D01*
X137985289Y-120546789D01*
X137985292Y-120546786D01*
X137995260Y-120536819D01*
X138056583Y-120503334D01*
X138082941Y-120500500D01*
X139220234Y-120500500D01*
X139287273Y-120520185D01*
X139289125Y-120521398D01*
X139420814Y-120609390D01*
X139420827Y-120609397D01*
X139566498Y-120669735D01*
X139566503Y-120669737D01*
X139692176Y-120694735D01*
X139721153Y-120700499D01*
X139721156Y-120700500D01*
X139721158Y-120700500D01*
X139878844Y-120700500D01*
X139878845Y-120700499D01*
X140033497Y-120669737D01*
X140179179Y-120609394D01*
X140310289Y-120521789D01*
X140421789Y-120410289D01*
X140509394Y-120279179D01*
X140569737Y-120133497D01*
X140600500Y-119978842D01*
X140600500Y-119821158D01*
X140600500Y-119821155D01*
X140600499Y-119821153D01*
X140569738Y-119666510D01*
X140569737Y-119666503D01*
X140519752Y-119545827D01*
X140509397Y-119520827D01*
X140509390Y-119520814D01*
X140421789Y-119389711D01*
X140421786Y-119389707D01*
X140310292Y-119278213D01*
X140310288Y-119278210D01*
X140179185Y-119190609D01*
X140179172Y-119190602D01*
X140033501Y-119130264D01*
X140033489Y-119130261D01*
X139878845Y-119099500D01*
X139878842Y-119099500D01*
X139721158Y-119099500D01*
X139721155Y-119099500D01*
X139566510Y-119130261D01*
X139566498Y-119130264D01*
X139420827Y-119190602D01*
X139420814Y-119190609D01*
X139289125Y-119278602D01*
X139222447Y-119299480D01*
X139220234Y-119299500D01*
X138017350Y-119299500D01*
X137950311Y-119279815D01*
X137948459Y-119278602D01*
X137854184Y-119215609D01*
X137854172Y-119215602D01*
X137708501Y-119155264D01*
X137708489Y-119155261D01*
X137553845Y-119124500D01*
X137553842Y-119124500D01*
X137396158Y-119124500D01*
X137396155Y-119124500D01*
X137241510Y-119155261D01*
X137241498Y-119155264D01*
X137095827Y-119215602D01*
X137095814Y-119215609D01*
X136964711Y-119303210D01*
X136964707Y-119303213D01*
X136853213Y-119414707D01*
X136853210Y-119414711D01*
X136765609Y-119545814D01*
X136765602Y-119545827D01*
X136705264Y-119691498D01*
X136705261Y-119691510D01*
X136674500Y-119846153D01*
X112375500Y-119846153D01*
X112375500Y-117383909D01*
X165350000Y-117383909D01*
X165350000Y-117616090D01*
X165386318Y-117845393D01*
X165458065Y-118066205D01*
X165563465Y-118273064D01*
X165620238Y-118351207D01*
X166223958Y-117747487D01*
X166248978Y-117807890D01*
X166320112Y-117914351D01*
X166410649Y-118004888D01*
X166517110Y-118076022D01*
X166577510Y-118101041D01*
X165973791Y-118704759D01*
X165973791Y-118704760D01*
X166051935Y-118761534D01*
X166258794Y-118866934D01*
X166479606Y-118938681D01*
X166708910Y-118975000D01*
X166941090Y-118975000D01*
X167170393Y-118938681D01*
X167391205Y-118866934D01*
X167598071Y-118761530D01*
X167676207Y-118704762D01*
X167676208Y-118704760D01*
X167072488Y-118101041D01*
X167132890Y-118076022D01*
X167239351Y-118004888D01*
X167329888Y-117914351D01*
X167401022Y-117807890D01*
X167426041Y-117747488D01*
X168029760Y-118351208D01*
X168029762Y-118351207D01*
X168086530Y-118273071D01*
X168191934Y-118066205D01*
X168263681Y-117845393D01*
X168300000Y-117616090D01*
X168300000Y-117383909D01*
X168263681Y-117154606D01*
X168191934Y-116933794D01*
X168086534Y-116726935D01*
X168029760Y-116648791D01*
X168029759Y-116648791D01*
X167426041Y-117252510D01*
X167401022Y-117192110D01*
X167329888Y-117085649D01*
X167239351Y-116995112D01*
X167132890Y-116923978D01*
X167072487Y-116898957D01*
X167676207Y-116295238D01*
X167598064Y-116238465D01*
X167391205Y-116133065D01*
X167170393Y-116061318D01*
X166941090Y-116025000D01*
X166708910Y-116025000D01*
X166479606Y-116061318D01*
X166258794Y-116133065D01*
X166051925Y-116238470D01*
X165973791Y-116295237D01*
X165973791Y-116295238D01*
X166577511Y-116898958D01*
X166517110Y-116923978D01*
X166410649Y-116995112D01*
X166320112Y-117085649D01*
X166248978Y-117192110D01*
X166223958Y-117252511D01*
X165620238Y-116648791D01*
X165620237Y-116648791D01*
X165563470Y-116726925D01*
X165458065Y-116933794D01*
X165386318Y-117154606D01*
X165350000Y-117383909D01*
X112375500Y-117383909D01*
X112375500Y-111471153D01*
X148974500Y-111471153D01*
X148974500Y-111628846D01*
X149005261Y-111783489D01*
X149005264Y-111783501D01*
X149065602Y-111929172D01*
X149065609Y-111929185D01*
X149153210Y-112060288D01*
X149153213Y-112060292D01*
X149264707Y-112171786D01*
X149264711Y-112171789D01*
X149395814Y-112259390D01*
X149395827Y-112259397D01*
X149541498Y-112319735D01*
X149541503Y-112319737D01*
X149587272Y-112328841D01*
X149696849Y-112350638D01*
X149758760Y-112383023D01*
X149760339Y-112384574D01*
X149990139Y-112614374D01*
X149990149Y-112614385D01*
X149994479Y-112618715D01*
X149994480Y-112618716D01*
X150106284Y-112730520D01*
X150106286Y-112730521D01*
X150106290Y-112730524D01*
X150243209Y-112809573D01*
X150243216Y-112809577D01*
X150355019Y-112839534D01*
X150395942Y-112850500D01*
X150395943Y-112850500D01*
X150695234Y-112850500D01*
X150762273Y-112870185D01*
X150764125Y-112871398D01*
X150895814Y-112959390D01*
X150895827Y-112959397D01*
X151041498Y-113019735D01*
X151041503Y-113019737D01*
X151196153Y-113050499D01*
X151196156Y-113050500D01*
X151196158Y-113050500D01*
X151353844Y-113050500D01*
X151353845Y-113050499D01*
X151508497Y-113019737D01*
X151654179Y-112959394D01*
X151785289Y-112871789D01*
X151896789Y-112760289D01*
X151984394Y-112629179D01*
X151989800Y-112616129D01*
X152044735Y-112483501D01*
X152044737Y-112483497D01*
X152064555Y-112383870D01*
X165349500Y-112383870D01*
X165349500Y-112616129D01*
X165385831Y-112845514D01*
X165457601Y-113066400D01*
X165563039Y-113273331D01*
X165699551Y-113461224D01*
X165863776Y-113625449D01*
X166051669Y-113761961D01*
X166149436Y-113811776D01*
X166258599Y-113867398D01*
X166258601Y-113867398D01*
X166258604Y-113867400D01*
X166479486Y-113939169D01*
X166597668Y-113957886D01*
X166708871Y-113975500D01*
X166708876Y-113975500D01*
X166941129Y-113975500D01*
X167042502Y-113959443D01*
X167170514Y-113939169D01*
X167391396Y-113867400D01*
X167598331Y-113761961D01*
X167786224Y-113625449D01*
X167950449Y-113461224D01*
X168086961Y-113273331D01*
X168192400Y-113066396D01*
X168264169Y-112845514D01*
X168284443Y-112717502D01*
X168300500Y-112616129D01*
X168300500Y-112383870D01*
X168266909Y-112171789D01*
X168264169Y-112154486D01*
X168192400Y-111933604D01*
X168192398Y-111933601D01*
X168192398Y-111933599D01*
X168086960Y-111726668D01*
X167950449Y-111538776D01*
X167786224Y-111374551D01*
X167598331Y-111238039D01*
X167391400Y-111132601D01*
X167170514Y-111060831D01*
X166941129Y-111024500D01*
X166941124Y-111024500D01*
X166708876Y-111024500D01*
X166708871Y-111024500D01*
X166479485Y-111060831D01*
X166258599Y-111132601D01*
X166051668Y-111238039D01*
X165863773Y-111374553D01*
X165699553Y-111538773D01*
X165563039Y-111726668D01*
X165457601Y-111933599D01*
X165385831Y-112154485D01*
X165349500Y-112383870D01*
X152064555Y-112383870D01*
X152071165Y-112350638D01*
X152075500Y-112328841D01*
X152075500Y-112171155D01*
X152075499Y-112171153D01*
X152072184Y-112154486D01*
X152044737Y-112016503D01*
X152044735Y-112016498D01*
X151984397Y-111870827D01*
X151984390Y-111870814D01*
X151896789Y-111739711D01*
X151896786Y-111739707D01*
X151785292Y-111628213D01*
X151785288Y-111628210D01*
X151654185Y-111540609D01*
X151654172Y-111540602D01*
X151508501Y-111480264D01*
X151508489Y-111480261D01*
X151353845Y-111449500D01*
X151353842Y-111449500D01*
X151196158Y-111449500D01*
X151196155Y-111449500D01*
X151041510Y-111480261D01*
X151041498Y-111480264D01*
X150895827Y-111540602D01*
X150895809Y-111540612D01*
X150811998Y-111596613D01*
X150781704Y-111606098D01*
X150751954Y-111617195D01*
X150748597Y-111616464D01*
X150745321Y-111617491D01*
X150714706Y-111609092D01*
X150683681Y-111602343D01*
X150679965Y-111599561D01*
X150677941Y-111599006D01*
X150655427Y-111581192D01*
X150609574Y-111535339D01*
X150576089Y-111474016D01*
X150575638Y-111471849D01*
X150544738Y-111316510D01*
X150544737Y-111316503D01*
X150544735Y-111316498D01*
X150484397Y-111170827D01*
X150484390Y-111170814D01*
X150396789Y-111039711D01*
X150396786Y-111039707D01*
X150285292Y-110928213D01*
X150285288Y-110928210D01*
X150154185Y-110840609D01*
X150154172Y-110840602D01*
X150008501Y-110780264D01*
X150008489Y-110780261D01*
X149853845Y-110749500D01*
X149853842Y-110749500D01*
X149696158Y-110749500D01*
X149696155Y-110749500D01*
X149541510Y-110780261D01*
X149541498Y-110780264D01*
X149395827Y-110840602D01*
X149395814Y-110840609D01*
X149264711Y-110928210D01*
X149264707Y-110928213D01*
X149153213Y-111039707D01*
X149153210Y-111039711D01*
X149065609Y-111170814D01*
X149065602Y-111170827D01*
X149005264Y-111316498D01*
X149005261Y-111316510D01*
X148974500Y-111471153D01*
X112375500Y-111471153D01*
X112375500Y-110321153D01*
X131199500Y-110321153D01*
X131199500Y-110478846D01*
X131230261Y-110633489D01*
X131230264Y-110633501D01*
X131290602Y-110779172D01*
X131290609Y-110779185D01*
X131378210Y-110910288D01*
X131378213Y-110910292D01*
X131489707Y-111021786D01*
X131489711Y-111021789D01*
X131620814Y-111109390D01*
X131620827Y-111109397D01*
X131766498Y-111169735D01*
X131766503Y-111169737D01*
X131921153Y-111200499D01*
X131921156Y-111200500D01*
X131921158Y-111200500D01*
X132078844Y-111200500D01*
X132078845Y-111200499D01*
X132233497Y-111169737D01*
X132379179Y-111109394D01*
X132510289Y-111021789D01*
X132621789Y-110910289D01*
X132709394Y-110779179D01*
X132769737Y-110633497D01*
X132794424Y-110509390D01*
X132800638Y-110478150D01*
X132833023Y-110416239D01*
X132834518Y-110414716D01*
X133528081Y-109721153D01*
X147274500Y-109721153D01*
X147274500Y-109878846D01*
X147305261Y-110033489D01*
X147305264Y-110033501D01*
X147365602Y-110179172D01*
X147365609Y-110179185D01*
X147453210Y-110310288D01*
X147453213Y-110310292D01*
X147564707Y-110421786D01*
X147564711Y-110421789D01*
X147695814Y-110509390D01*
X147695827Y-110509397D01*
X147841498Y-110569735D01*
X147841503Y-110569737D01*
X147996153Y-110600499D01*
X147996156Y-110600500D01*
X147996158Y-110600500D01*
X148153844Y-110600500D01*
X148153845Y-110600499D01*
X148308497Y-110569737D01*
X148454179Y-110509394D01*
X148585289Y-110421789D01*
X148696789Y-110310289D01*
X148784394Y-110179179D01*
X148844737Y-110033497D01*
X148875500Y-109878842D01*
X148875500Y-109721158D01*
X148875500Y-109721155D01*
X148875499Y-109721153D01*
X148857419Y-109630261D01*
X148844737Y-109566503D01*
X148844735Y-109566498D01*
X148784397Y-109420827D01*
X148784390Y-109420814D01*
X148696398Y-109289125D01*
X148675520Y-109222447D01*
X148675500Y-109220234D01*
X148675500Y-108767847D01*
X148695185Y-108700808D01*
X148747989Y-108655053D01*
X148775309Y-108646230D01*
X148791291Y-108643050D01*
X148908497Y-108619737D01*
X149054179Y-108559394D01*
X149185289Y-108471789D01*
X149210925Y-108446153D01*
X153449500Y-108446153D01*
X153449500Y-108603846D01*
X153480261Y-108758489D01*
X153480264Y-108758501D01*
X153540602Y-108904172D01*
X153540609Y-108904185D01*
X153628210Y-109035288D01*
X153628213Y-109035292D01*
X153739707Y-109146786D01*
X153739711Y-109146789D01*
X153870814Y-109234390D01*
X153870827Y-109234397D01*
X153998483Y-109287273D01*
X154016503Y-109294737D01*
X154171153Y-109325499D01*
X154171156Y-109325500D01*
X154171158Y-109325500D01*
X154328844Y-109325500D01*
X154328845Y-109325499D01*
X154483497Y-109294737D01*
X154602736Y-109245347D01*
X154629172Y-109234397D01*
X154629172Y-109234396D01*
X154629179Y-109234394D01*
X154760289Y-109146789D01*
X154871789Y-109035289D01*
X154959394Y-108904179D01*
X155019737Y-108758497D01*
X155032210Y-108695789D01*
X155044639Y-108633310D01*
X155044639Y-108633309D01*
X155050500Y-108603844D01*
X155050500Y-108446155D01*
X155022380Y-108304790D01*
X155028607Y-108235198D01*
X155056314Y-108192919D01*
X155865325Y-107383909D01*
X165350000Y-107383909D01*
X165350000Y-107616090D01*
X165386318Y-107845393D01*
X165458065Y-108066205D01*
X165563465Y-108273064D01*
X165620238Y-108351207D01*
X166223958Y-107747487D01*
X166248978Y-107807890D01*
X166320112Y-107914351D01*
X166410649Y-108004888D01*
X166517110Y-108076022D01*
X166577510Y-108101041D01*
X165973791Y-108704759D01*
X165973791Y-108704760D01*
X166051935Y-108761534D01*
X166258794Y-108866934D01*
X166479606Y-108938681D01*
X166708910Y-108975000D01*
X166941090Y-108975000D01*
X167170393Y-108938681D01*
X167391205Y-108866934D01*
X167598071Y-108761530D01*
X167676207Y-108704762D01*
X167676208Y-108704760D01*
X167072488Y-108101041D01*
X167132890Y-108076022D01*
X167239351Y-108004888D01*
X167329888Y-107914351D01*
X167401022Y-107807890D01*
X167426041Y-107747488D01*
X168029760Y-108351208D01*
X168029762Y-108351207D01*
X168086530Y-108273071D01*
X168191934Y-108066205D01*
X168263681Y-107845393D01*
X168300000Y-107616090D01*
X168300000Y-107383909D01*
X168263681Y-107154606D01*
X168191934Y-106933794D01*
X168086534Y-106726935D01*
X168029760Y-106648791D01*
X168029759Y-106648791D01*
X167426041Y-107252510D01*
X167401022Y-107192110D01*
X167329888Y-107085649D01*
X167239351Y-106995112D01*
X167132890Y-106923978D01*
X167072487Y-106898957D01*
X167676207Y-106295238D01*
X167598064Y-106238465D01*
X167391205Y-106133065D01*
X167170393Y-106061318D01*
X166941090Y-106025000D01*
X166708910Y-106025000D01*
X166479606Y-106061318D01*
X166258794Y-106133065D01*
X166051925Y-106238470D01*
X165973791Y-106295237D01*
X165973791Y-106295238D01*
X166577511Y-106898958D01*
X166517110Y-106923978D01*
X166410649Y-106995112D01*
X166320112Y-107085649D01*
X166248978Y-107192110D01*
X166223958Y-107252511D01*
X165620238Y-106648791D01*
X165620237Y-106648791D01*
X165563470Y-106726925D01*
X165458065Y-106933794D01*
X165386318Y-107154606D01*
X165350000Y-107383909D01*
X155865325Y-107383909D01*
X156443713Y-106805521D01*
X156443716Y-106805520D01*
X156555520Y-106693716D01*
X156604943Y-106608108D01*
X156624644Y-106582432D01*
X156696789Y-106510289D01*
X156784394Y-106379179D01*
X156844737Y-106233497D01*
X156875500Y-106078842D01*
X156875500Y-105921158D01*
X156875500Y-105921155D01*
X156875499Y-105921153D01*
X156844738Y-105766510D01*
X156844737Y-105766503D01*
X156844735Y-105766498D01*
X156784397Y-105620827D01*
X156784390Y-105620814D01*
X156696789Y-105489711D01*
X156696786Y-105489707D01*
X156585292Y-105378213D01*
X156585288Y-105378210D01*
X156454185Y-105290609D01*
X156454172Y-105290602D01*
X156308501Y-105230264D01*
X156308489Y-105230261D01*
X156153845Y-105199500D01*
X156153842Y-105199500D01*
X155996158Y-105199500D01*
X155996155Y-105199500D01*
X155841510Y-105230261D01*
X155841498Y-105230264D01*
X155695827Y-105290602D01*
X155695814Y-105290609D01*
X155564711Y-105378210D01*
X155564707Y-105378213D01*
X155453213Y-105489707D01*
X155453210Y-105489711D01*
X155365609Y-105620814D01*
X155365602Y-105620827D01*
X155305264Y-105766498D01*
X155305261Y-105766510D01*
X155274500Y-105921153D01*
X155274500Y-106078846D01*
X155294323Y-106178504D01*
X155288096Y-106248096D01*
X155260387Y-106290376D01*
X153856286Y-107694478D01*
X153744481Y-107806282D01*
X153744479Y-107806284D01*
X153712086Y-107862392D01*
X153712082Y-107862399D01*
X153710231Y-107865606D01*
X153665423Y-107943215D01*
X153658221Y-107970087D01*
X153652599Y-107981330D01*
X153640430Y-107994408D01*
X153631636Y-108009641D01*
X153632076Y-108010002D01*
X153629892Y-108012663D01*
X153629394Y-108013526D01*
X153628221Y-108014698D01*
X153628210Y-108014712D01*
X153540609Y-108145815D01*
X153540602Y-108145827D01*
X153480264Y-108291498D01*
X153480261Y-108291510D01*
X153449500Y-108446153D01*
X149210925Y-108446153D01*
X149296789Y-108360289D01*
X149384394Y-108229179D01*
X149444737Y-108083497D01*
X149475500Y-107928842D01*
X149475500Y-107771158D01*
X149475500Y-107771155D01*
X149475499Y-107771153D01*
X149444737Y-107616503D01*
X149422998Y-107564019D01*
X149384397Y-107470827D01*
X149384390Y-107470814D01*
X149296789Y-107339711D01*
X149296786Y-107339707D01*
X149185292Y-107228213D01*
X149185288Y-107228210D01*
X149054185Y-107140609D01*
X149054172Y-107140602D01*
X148908501Y-107080264D01*
X148908489Y-107080261D01*
X148753845Y-107049500D01*
X148753842Y-107049500D01*
X148596158Y-107049500D01*
X148596155Y-107049500D01*
X148441510Y-107080261D01*
X148441498Y-107080264D01*
X148295827Y-107140602D01*
X148295814Y-107140609D01*
X148164711Y-107228210D01*
X148164707Y-107228213D01*
X148053213Y-107339707D01*
X148053210Y-107339711D01*
X147965609Y-107470814D01*
X147965602Y-107470827D01*
X147905264Y-107616498D01*
X147905261Y-107616508D01*
X147874362Y-107771848D01*
X147865596Y-107788605D01*
X147861577Y-107807082D01*
X147842832Y-107832123D01*
X147841977Y-107833759D01*
X147840427Y-107835337D01*
X147780915Y-107894849D01*
X147706286Y-107969478D01*
X147706285Y-107969478D01*
X147706284Y-107969479D01*
X147594479Y-108081284D01*
X147574189Y-108116428D01*
X147565613Y-108131284D01*
X147515423Y-108218215D01*
X147474499Y-108370943D01*
X147474499Y-108370945D01*
X147474499Y-108539046D01*
X147474500Y-108539059D01*
X147474500Y-109220234D01*
X147454815Y-109287273D01*
X147453602Y-109289125D01*
X147365609Y-109420814D01*
X147365602Y-109420827D01*
X147305264Y-109566498D01*
X147305261Y-109566510D01*
X147274500Y-109721153D01*
X133528081Y-109721153D01*
X133975388Y-109273846D01*
X134036709Y-109240363D01*
X134106401Y-109245347D01*
X134131958Y-109258427D01*
X134170814Y-109284390D01*
X134170827Y-109284397D01*
X134270060Y-109325500D01*
X134316503Y-109344737D01*
X134471153Y-109375499D01*
X134471156Y-109375500D01*
X134471158Y-109375500D01*
X134628844Y-109375500D01*
X134628845Y-109375499D01*
X134783497Y-109344737D01*
X134917757Y-109289125D01*
X134929172Y-109284397D01*
X134929172Y-109284396D01*
X134929179Y-109284394D01*
X135060289Y-109196789D01*
X135171789Y-109085289D01*
X135259394Y-108954179D01*
X135319737Y-108808497D01*
X135350500Y-108653842D01*
X135350500Y-108496158D01*
X135350500Y-108496155D01*
X135350499Y-108496153D01*
X135325593Y-108370943D01*
X135319737Y-108341503D01*
X135304530Y-108304790D01*
X135259397Y-108195827D01*
X135259390Y-108195814D01*
X135171789Y-108064711D01*
X135171786Y-108064707D01*
X135060292Y-107953213D01*
X135060288Y-107953210D01*
X134929185Y-107865609D01*
X134929172Y-107865602D01*
X134783501Y-107805264D01*
X134783489Y-107805261D01*
X134628845Y-107774500D01*
X134628842Y-107774500D01*
X134471158Y-107774500D01*
X134471155Y-107774500D01*
X134316510Y-107805261D01*
X134316498Y-107805264D01*
X134170827Y-107865602D01*
X134170814Y-107865609D01*
X134039125Y-107953602D01*
X134021078Y-107959252D01*
X134005169Y-107969477D01*
X133974207Y-107973928D01*
X133972447Y-107974480D01*
X133970234Y-107974500D01*
X133911670Y-107974500D01*
X133911654Y-107974499D01*
X133904058Y-107974499D01*
X133745943Y-107974499D01*
X133687915Y-107990048D01*
X133593214Y-108015423D01*
X133593209Y-108015426D01*
X133456290Y-108094475D01*
X133456282Y-108094481D01*
X131985339Y-109565425D01*
X131924016Y-109598910D01*
X131921850Y-109599361D01*
X131766508Y-109630261D01*
X131766498Y-109630264D01*
X131620827Y-109690602D01*
X131620814Y-109690609D01*
X131489711Y-109778210D01*
X131489707Y-109778213D01*
X131378213Y-109889707D01*
X131378210Y-109889711D01*
X131290609Y-110020814D01*
X131290602Y-110020827D01*
X131230264Y-110166498D01*
X131230261Y-110166510D01*
X131199500Y-110321153D01*
X112375500Y-110321153D01*
X112375500Y-102383870D01*
X165349500Y-102383870D01*
X165349500Y-102616129D01*
X165385831Y-102845514D01*
X165457601Y-103066400D01*
X165563039Y-103273331D01*
X165699551Y-103461224D01*
X165863776Y-103625449D01*
X166051669Y-103761961D01*
X166149436Y-103811776D01*
X166258599Y-103867398D01*
X166258601Y-103867398D01*
X166258604Y-103867400D01*
X166479486Y-103939169D01*
X166597668Y-103957886D01*
X166708871Y-103975500D01*
X166708876Y-103975500D01*
X166941129Y-103975500D01*
X167042502Y-103959443D01*
X167170514Y-103939169D01*
X167391396Y-103867400D01*
X167598331Y-103761961D01*
X167786224Y-103625449D01*
X167950449Y-103461224D01*
X168086961Y-103273331D01*
X168192400Y-103066396D01*
X168264169Y-102845514D01*
X168284443Y-102717502D01*
X168300500Y-102616129D01*
X168300500Y-102383870D01*
X168266909Y-102171789D01*
X168264169Y-102154486D01*
X168192400Y-101933604D01*
X168192398Y-101933601D01*
X168192398Y-101933599D01*
X168086960Y-101726668D01*
X167950449Y-101538776D01*
X167786224Y-101374551D01*
X167598331Y-101238039D01*
X167391400Y-101132601D01*
X167170514Y-101060831D01*
X166941129Y-101024500D01*
X166941124Y-101024500D01*
X166708876Y-101024500D01*
X166708871Y-101024500D01*
X166479485Y-101060831D01*
X166258599Y-101132601D01*
X166051668Y-101238039D01*
X165863773Y-101374553D01*
X165699553Y-101538773D01*
X165563039Y-101726668D01*
X165457601Y-101933599D01*
X165385831Y-102154485D01*
X165349500Y-102383870D01*
X112375500Y-102383870D01*
X112375500Y-101471153D01*
X127349500Y-101471153D01*
X127349500Y-101628846D01*
X127380261Y-101783489D01*
X127380264Y-101783501D01*
X127440602Y-101929172D01*
X127440609Y-101929185D01*
X127528210Y-102060288D01*
X127528213Y-102060292D01*
X127639707Y-102171786D01*
X127639711Y-102171789D01*
X127770814Y-102259390D01*
X127770827Y-102259397D01*
X127916498Y-102319735D01*
X127916503Y-102319737D01*
X128071153Y-102350499D01*
X128071156Y-102350500D01*
X128071158Y-102350500D01*
X128228844Y-102350500D01*
X128228845Y-102350499D01*
X128383497Y-102319737D01*
X128529179Y-102259394D01*
X128660289Y-102171789D01*
X128771789Y-102060289D01*
X128859394Y-101929179D01*
X128919737Y-101783497D01*
X128950500Y-101628842D01*
X128950500Y-101471158D01*
X128950500Y-101471155D01*
X128950499Y-101471153D01*
X128931284Y-101374553D01*
X128919737Y-101316503D01*
X128919735Y-101316498D01*
X128859397Y-101170827D01*
X128859390Y-101170814D01*
X128771398Y-101039125D01*
X128750520Y-100972447D01*
X128750500Y-100970234D01*
X128750500Y-99044722D01*
X128770185Y-98977683D01*
X128805611Y-98941619D01*
X128810008Y-98938681D01*
X128835289Y-98921789D01*
X128946789Y-98810289D01*
X129034394Y-98679179D01*
X129094737Y-98533497D01*
X129125500Y-98378842D01*
X129125500Y-98221158D01*
X129125500Y-98221155D01*
X129125499Y-98221153D01*
X129094738Y-98066510D01*
X129094737Y-98066503D01*
X129094614Y-98066205D01*
X129034397Y-97920827D01*
X129034390Y-97920814D01*
X128946789Y-97789711D01*
X128946786Y-97789707D01*
X128835292Y-97678213D01*
X128835288Y-97678210D01*
X128704185Y-97590609D01*
X128704172Y-97590602D01*
X128558501Y-97530264D01*
X128558489Y-97530261D01*
X128403845Y-97499500D01*
X128403842Y-97499500D01*
X128246158Y-97499500D01*
X128246155Y-97499500D01*
X128091510Y-97530261D01*
X128091498Y-97530264D01*
X127945827Y-97590602D01*
X127945814Y-97590609D01*
X127814711Y-97678210D01*
X127814707Y-97678213D01*
X127703213Y-97789707D01*
X127703210Y-97789711D01*
X127615609Y-97920814D01*
X127615602Y-97920827D01*
X127555264Y-98066498D01*
X127555261Y-98066510D01*
X127524500Y-98221153D01*
X127524500Y-98221158D01*
X127524500Y-98378842D01*
X127524500Y-98378844D01*
X127524499Y-98378844D01*
X127547116Y-98492538D01*
X127549499Y-98516727D01*
X127549499Y-98554057D01*
X127549499Y-98554059D01*
X127549500Y-98564053D01*
X127549500Y-100970234D01*
X127529815Y-101037273D01*
X127528602Y-101039125D01*
X127440609Y-101170814D01*
X127440602Y-101170827D01*
X127380264Y-101316498D01*
X127380261Y-101316510D01*
X127349500Y-101471153D01*
X112375500Y-101471153D01*
X112375500Y-96496153D01*
X149524500Y-96496153D01*
X149524500Y-96653846D01*
X149555261Y-96808489D01*
X149555264Y-96808501D01*
X149615602Y-96954172D01*
X149615609Y-96954185D01*
X149703602Y-97085874D01*
X149724480Y-97152551D01*
X149724500Y-97154765D01*
X149724500Y-99170234D01*
X149704815Y-99237273D01*
X149703602Y-99239125D01*
X149615609Y-99370814D01*
X149615602Y-99370827D01*
X149555264Y-99516498D01*
X149555261Y-99516510D01*
X149524500Y-99671153D01*
X149524500Y-99828846D01*
X149555261Y-99983489D01*
X149555264Y-99983501D01*
X149615602Y-100129172D01*
X149615609Y-100129185D01*
X149703210Y-100260288D01*
X149703213Y-100260292D01*
X149814707Y-100371786D01*
X149814711Y-100371789D01*
X149945814Y-100459390D01*
X149945827Y-100459397D01*
X150091498Y-100519735D01*
X150091503Y-100519737D01*
X150246153Y-100550499D01*
X150246156Y-100550500D01*
X150246158Y-100550500D01*
X150403844Y-100550500D01*
X150403845Y-100550499D01*
X150558497Y-100519737D01*
X150704179Y-100459394D01*
X150835289Y-100371789D01*
X150946789Y-100260289D01*
X151034394Y-100129179D01*
X151094737Y-99983497D01*
X151125500Y-99828842D01*
X151125500Y-99671158D01*
X151125500Y-99671155D01*
X151125499Y-99671153D01*
X151094738Y-99516510D01*
X151094737Y-99516503D01*
X151094735Y-99516498D01*
X151034397Y-99370827D01*
X151034390Y-99370814D01*
X150946398Y-99239125D01*
X150925520Y-99172447D01*
X150925500Y-99170234D01*
X150925500Y-97383909D01*
X165350000Y-97383909D01*
X165350000Y-97616090D01*
X165386318Y-97845393D01*
X165458065Y-98066205D01*
X165563465Y-98273064D01*
X165620238Y-98351207D01*
X166223958Y-97747487D01*
X166248978Y-97807890D01*
X166320112Y-97914351D01*
X166410649Y-98004888D01*
X166517110Y-98076022D01*
X166577510Y-98101041D01*
X165973791Y-98704759D01*
X165973791Y-98704760D01*
X166051935Y-98761534D01*
X166258794Y-98866934D01*
X166479606Y-98938681D01*
X166708910Y-98975000D01*
X166941090Y-98975000D01*
X167170393Y-98938681D01*
X167391205Y-98866934D01*
X167598071Y-98761530D01*
X167676207Y-98704762D01*
X167676208Y-98704760D01*
X167072488Y-98101041D01*
X167132890Y-98076022D01*
X167239351Y-98004888D01*
X167329888Y-97914351D01*
X167401022Y-97807890D01*
X167426041Y-97747488D01*
X168029760Y-98351208D01*
X168029762Y-98351207D01*
X168086530Y-98273071D01*
X168191934Y-98066205D01*
X168263681Y-97845393D01*
X168300000Y-97616090D01*
X168300000Y-97383909D01*
X168263681Y-97154606D01*
X168191934Y-96933794D01*
X168086534Y-96726935D01*
X168029760Y-96648791D01*
X168029759Y-96648791D01*
X167426041Y-97252510D01*
X167401022Y-97192110D01*
X167329888Y-97085649D01*
X167239351Y-96995112D01*
X167132890Y-96923978D01*
X167072487Y-96898957D01*
X167676207Y-96295238D01*
X167598064Y-96238465D01*
X167391205Y-96133065D01*
X167170393Y-96061318D01*
X166941090Y-96025000D01*
X166708910Y-96025000D01*
X166479606Y-96061318D01*
X166258794Y-96133065D01*
X166051925Y-96238470D01*
X165973791Y-96295237D01*
X165973791Y-96295238D01*
X166577511Y-96898958D01*
X166517110Y-96923978D01*
X166410649Y-96995112D01*
X166320112Y-97085649D01*
X166248978Y-97192110D01*
X166223958Y-97252511D01*
X165620238Y-96648791D01*
X165620237Y-96648791D01*
X165563470Y-96726925D01*
X165458065Y-96933794D01*
X165386318Y-97154606D01*
X165350000Y-97383909D01*
X150925500Y-97383909D01*
X150925500Y-97154765D01*
X150945185Y-97087726D01*
X150946398Y-97085874D01*
X151034390Y-96954185D01*
X151034390Y-96954184D01*
X151034394Y-96954179D01*
X151094737Y-96808497D01*
X151125500Y-96653842D01*
X151125500Y-96496158D01*
X151125500Y-96496155D01*
X151099747Y-96366689D01*
X151099747Y-96366688D01*
X151094738Y-96341510D01*
X151094737Y-96341503D01*
X151052058Y-96238465D01*
X151034397Y-96195827D01*
X151034390Y-96195814D01*
X150946789Y-96064711D01*
X150946786Y-96064707D01*
X150835292Y-95953213D01*
X150835288Y-95953210D01*
X150704185Y-95865609D01*
X150704172Y-95865602D01*
X150558501Y-95805264D01*
X150558489Y-95805261D01*
X150403845Y-95774500D01*
X150403842Y-95774500D01*
X150246158Y-95774500D01*
X150246155Y-95774500D01*
X150091510Y-95805261D01*
X150091498Y-95805264D01*
X149945827Y-95865602D01*
X149945814Y-95865609D01*
X149814711Y-95953210D01*
X149814707Y-95953213D01*
X149703213Y-96064707D01*
X149703210Y-96064711D01*
X149615609Y-96195814D01*
X149615602Y-96195827D01*
X149555264Y-96341498D01*
X149555261Y-96341510D01*
X149524500Y-96496153D01*
X112375500Y-96496153D01*
X112375500Y-92383870D01*
X165349500Y-92383870D01*
X165349500Y-92616129D01*
X165385831Y-92845514D01*
X165457601Y-93066400D01*
X165563039Y-93273331D01*
X165699551Y-93461224D01*
X165863776Y-93625449D01*
X166051669Y-93761961D01*
X166149436Y-93811776D01*
X166258599Y-93867398D01*
X166258601Y-93867398D01*
X166258604Y-93867400D01*
X166479486Y-93939169D01*
X166597668Y-93957886D01*
X166708871Y-93975500D01*
X166708876Y-93975500D01*
X166941129Y-93975500D01*
X167042502Y-93959443D01*
X167170514Y-93939169D01*
X167391396Y-93867400D01*
X167598331Y-93761961D01*
X167786224Y-93625449D01*
X167950449Y-93461224D01*
X168086961Y-93273331D01*
X168192400Y-93066396D01*
X168264169Y-92845514D01*
X168284443Y-92717502D01*
X168300500Y-92616129D01*
X168300500Y-92383870D01*
X168281232Y-92262222D01*
X168264169Y-92154486D01*
X168192400Y-91933604D01*
X168192398Y-91933601D01*
X168192398Y-91933599D01*
X168086960Y-91726668D01*
X167950449Y-91538776D01*
X167786224Y-91374551D01*
X167598331Y-91238039D01*
X167391400Y-91132601D01*
X167170514Y-91060831D01*
X166941129Y-91024500D01*
X166941124Y-91024500D01*
X166708876Y-91024500D01*
X166708871Y-91024500D01*
X166479485Y-91060831D01*
X166258599Y-91132601D01*
X166051668Y-91238039D01*
X165863773Y-91374553D01*
X165699553Y-91538773D01*
X165563039Y-91726668D01*
X165457601Y-91933599D01*
X165385831Y-92154485D01*
X165349500Y-92383870D01*
X112375500Y-92383870D01*
X112375500Y-86396153D01*
X114874500Y-86396153D01*
X114874500Y-86553846D01*
X114905261Y-86708489D01*
X114905264Y-86708501D01*
X114965602Y-86854172D01*
X114965609Y-86854185D01*
X115053210Y-86985288D01*
X115053213Y-86985292D01*
X115164707Y-87096786D01*
X115164711Y-87096789D01*
X115295814Y-87184390D01*
X115295827Y-87184397D01*
X115441498Y-87244735D01*
X115441503Y-87244737D01*
X115593157Y-87274903D01*
X115596153Y-87275499D01*
X115596156Y-87275500D01*
X115596158Y-87275500D01*
X115753844Y-87275500D01*
X115759907Y-87274903D01*
X115760152Y-87277399D01*
X115818794Y-87282626D01*
X115861115Y-87310351D01*
X116565425Y-88014660D01*
X116598910Y-88075983D01*
X116599361Y-88078149D01*
X116630261Y-88233491D01*
X116630264Y-88233501D01*
X116690602Y-88379172D01*
X116690609Y-88379185D01*
X116778210Y-88510288D01*
X116778213Y-88510292D01*
X116889707Y-88621786D01*
X116889711Y-88621789D01*
X117020814Y-88709390D01*
X117020827Y-88709397D01*
X117146689Y-88761530D01*
X117166503Y-88769737D01*
X117321153Y-88800499D01*
X117321156Y-88800500D01*
X117321158Y-88800500D01*
X117478844Y-88800500D01*
X117478845Y-88800499D01*
X117633497Y-88769737D01*
X117779179Y-88709394D01*
X117910289Y-88621789D01*
X117910292Y-88621786D01*
X117962259Y-88569820D01*
X118021786Y-88510292D01*
X118021789Y-88510289D01*
X118109394Y-88379179D01*
X118169737Y-88233497D01*
X118200500Y-88078842D01*
X118200500Y-87921158D01*
X118200500Y-87921155D01*
X118200499Y-87921153D01*
X118178269Y-87809397D01*
X118169737Y-87766503D01*
X118137882Y-87689598D01*
X118109397Y-87620827D01*
X118109390Y-87620814D01*
X118021789Y-87489711D01*
X118021786Y-87489707D01*
X117910292Y-87378213D01*
X117910288Y-87378210D01*
X117779185Y-87290609D01*
X117779172Y-87290602D01*
X117633501Y-87230264D01*
X117633491Y-87230261D01*
X117478151Y-87199362D01*
X117416241Y-87166977D01*
X117414662Y-87165426D01*
X116429650Y-86180415D01*
X116402770Y-86140187D01*
X116384394Y-86095821D01*
X116337073Y-86025000D01*
X116296789Y-85964710D01*
X116185292Y-85853213D01*
X116185288Y-85853210D01*
X116054185Y-85765609D01*
X116054172Y-85765602D01*
X115908501Y-85705264D01*
X115908489Y-85705261D01*
X115753845Y-85674500D01*
X115753842Y-85674500D01*
X115596158Y-85674500D01*
X115596155Y-85674500D01*
X115441510Y-85705261D01*
X115441498Y-85705264D01*
X115295827Y-85765602D01*
X115295814Y-85765609D01*
X115164711Y-85853210D01*
X115164707Y-85853213D01*
X115053213Y-85964707D01*
X115053210Y-85964711D01*
X114965609Y-86095814D01*
X114965602Y-86095827D01*
X114905264Y-86241498D01*
X114905261Y-86241510D01*
X114874500Y-86396153D01*
X112375500Y-86396153D01*
X112375500Y-85421153D01*
X130924500Y-85421153D01*
X130924500Y-85578846D01*
X130955261Y-85733489D01*
X130955264Y-85733501D01*
X131015602Y-85879172D01*
X131015609Y-85879185D01*
X131103210Y-86010288D01*
X131103213Y-86010292D01*
X131214707Y-86121786D01*
X131214711Y-86121789D01*
X131345814Y-86209390D01*
X131345827Y-86209397D01*
X131423356Y-86241510D01*
X131491503Y-86269737D01*
X131556147Y-86282595D01*
X131646849Y-86300638D01*
X131708760Y-86333023D01*
X131710339Y-86334574D01*
X132122958Y-86747193D01*
X132156443Y-86808516D01*
X132154382Y-86860116D01*
X132156451Y-86860528D01*
X132124500Y-87021153D01*
X132124500Y-87178846D01*
X132155261Y-87333489D01*
X132155264Y-87333501D01*
X132215602Y-87479172D01*
X132215609Y-87479185D01*
X132303210Y-87610288D01*
X132303213Y-87610292D01*
X132414707Y-87721786D01*
X132414711Y-87721789D01*
X132545814Y-87809390D01*
X132545827Y-87809397D01*
X132652431Y-87853553D01*
X132691503Y-87869737D01*
X132846153Y-87900499D01*
X132846156Y-87900500D01*
X132846158Y-87900500D01*
X133003844Y-87900500D01*
X133003845Y-87900499D01*
X133158497Y-87869737D01*
X133304179Y-87809394D01*
X133435289Y-87721789D01*
X133546789Y-87610289D01*
X133634394Y-87479179D01*
X133673856Y-87383909D01*
X165350000Y-87383909D01*
X165350000Y-87616090D01*
X165386318Y-87845393D01*
X165458065Y-88066205D01*
X165563465Y-88273064D01*
X165620238Y-88351207D01*
X166223958Y-87747487D01*
X166248978Y-87807890D01*
X166320112Y-87914351D01*
X166410649Y-88004888D01*
X166517110Y-88076022D01*
X166577510Y-88101041D01*
X165973791Y-88704759D01*
X165973791Y-88704760D01*
X166051935Y-88761534D01*
X166258794Y-88866934D01*
X166479606Y-88938681D01*
X166708910Y-88975000D01*
X166941090Y-88975000D01*
X167170393Y-88938681D01*
X167391205Y-88866934D01*
X167598071Y-88761530D01*
X167676207Y-88704762D01*
X167676208Y-88704760D01*
X167072488Y-88101041D01*
X167132890Y-88076022D01*
X167239351Y-88004888D01*
X167329888Y-87914351D01*
X167401022Y-87807890D01*
X167426041Y-87747488D01*
X168029760Y-88351208D01*
X168029762Y-88351207D01*
X168086530Y-88273071D01*
X168191934Y-88066205D01*
X168263681Y-87845393D01*
X168300000Y-87616090D01*
X168300000Y-87383909D01*
X168263681Y-87154606D01*
X168191934Y-86933794D01*
X168086534Y-86726935D01*
X168029760Y-86648791D01*
X168029759Y-86648791D01*
X167426041Y-87252510D01*
X167401022Y-87192110D01*
X167329888Y-87085649D01*
X167239351Y-86995112D01*
X167132890Y-86923978D01*
X167072487Y-86898957D01*
X167676207Y-86295238D01*
X167598064Y-86238465D01*
X167391205Y-86133065D01*
X167170393Y-86061318D01*
X166941090Y-86025000D01*
X166708910Y-86025000D01*
X166479606Y-86061318D01*
X166258794Y-86133065D01*
X166051925Y-86238470D01*
X165973791Y-86295237D01*
X165973791Y-86295238D01*
X166577511Y-86898958D01*
X166517110Y-86923978D01*
X166410649Y-86995112D01*
X166320112Y-87085649D01*
X166248978Y-87192110D01*
X166223958Y-87252511D01*
X165620238Y-86648791D01*
X165620237Y-86648791D01*
X165563470Y-86726925D01*
X165458065Y-86933794D01*
X165386318Y-87154606D01*
X165350000Y-87383909D01*
X133673856Y-87383909D01*
X133694737Y-87333497D01*
X133725500Y-87178842D01*
X133725500Y-87021158D01*
X133725500Y-87021155D01*
X133725499Y-87021153D01*
X133708122Y-86933794D01*
X133694737Y-86866503D01*
X133692262Y-86860528D01*
X133634397Y-86720827D01*
X133634390Y-86720814D01*
X133546789Y-86589711D01*
X133546786Y-86589707D01*
X133529770Y-86572691D01*
X133503550Y-86534026D01*
X133500001Y-86525779D01*
X133484577Y-86468215D01*
X133451504Y-86410931D01*
X133433172Y-86379179D01*
X133405524Y-86331290D01*
X133405521Y-86331286D01*
X133405520Y-86331284D01*
X133293716Y-86219480D01*
X133293715Y-86219479D01*
X133289385Y-86215149D01*
X133289374Y-86215139D01*
X132559574Y-85485339D01*
X132526089Y-85424016D01*
X132525638Y-85421849D01*
X132494738Y-85266510D01*
X132494737Y-85266503D01*
X132484452Y-85241672D01*
X132434397Y-85120827D01*
X132434390Y-85120814D01*
X132346789Y-84989711D01*
X132346786Y-84989707D01*
X132235292Y-84878213D01*
X132235287Y-84878209D01*
X132104185Y-84790609D01*
X132104172Y-84790602D01*
X132087395Y-84783653D01*
X149524500Y-84783653D01*
X149524500Y-84941346D01*
X149555261Y-85095989D01*
X149555264Y-85096001D01*
X149615602Y-85241672D01*
X149615609Y-85241685D01*
X149696241Y-85362359D01*
X149717119Y-85429037D01*
X149698634Y-85496417D01*
X149696241Y-85500141D01*
X149615609Y-85620814D01*
X149615602Y-85620827D01*
X149555264Y-85766498D01*
X149555261Y-85766510D01*
X149524500Y-85921153D01*
X149524500Y-86078846D01*
X149555261Y-86233489D01*
X149555264Y-86233501D01*
X149615602Y-86379172D01*
X149615609Y-86379185D01*
X149703210Y-86510288D01*
X149703213Y-86510292D01*
X149814707Y-86621786D01*
X149814711Y-86621789D01*
X149945814Y-86709390D01*
X149945827Y-86709397D01*
X150091498Y-86769735D01*
X150091503Y-86769737D01*
X150246153Y-86800499D01*
X150246156Y-86800500D01*
X150246158Y-86800500D01*
X150403844Y-86800500D01*
X150403845Y-86800499D01*
X150558497Y-86769737D01*
X150676592Y-86720821D01*
X150704172Y-86709397D01*
X150704172Y-86709396D01*
X150704179Y-86709394D01*
X150835289Y-86621789D01*
X150946789Y-86510289D01*
X151034394Y-86379179D01*
X151094737Y-86233497D01*
X151125500Y-86078842D01*
X151125500Y-85921158D01*
X151125500Y-85921155D01*
X151125499Y-85921153D01*
X151094738Y-85766510D01*
X151094737Y-85766503D01*
X151094367Y-85765609D01*
X151034397Y-85620827D01*
X151034390Y-85620814D01*
X150953758Y-85500141D01*
X150932880Y-85433464D01*
X150951364Y-85366084D01*
X150953758Y-85362359D01*
X151034390Y-85241685D01*
X151034390Y-85241684D01*
X151034394Y-85241679D01*
X151094737Y-85095997D01*
X151125500Y-84941342D01*
X151125500Y-84783658D01*
X151125500Y-84783655D01*
X151125499Y-84783653D01*
X151114879Y-84730263D01*
X151094737Y-84629003D01*
X151094735Y-84628998D01*
X151034397Y-84483327D01*
X151034390Y-84483314D01*
X150946789Y-84352211D01*
X150946786Y-84352207D01*
X150835292Y-84240713D01*
X150835288Y-84240710D01*
X150704185Y-84153109D01*
X150704172Y-84153102D01*
X150558501Y-84092764D01*
X150558489Y-84092761D01*
X150403845Y-84062000D01*
X150403842Y-84062000D01*
X150246158Y-84062000D01*
X150246155Y-84062000D01*
X150091510Y-84092761D01*
X150091498Y-84092764D01*
X149945827Y-84153102D01*
X149945814Y-84153109D01*
X149814711Y-84240710D01*
X149814707Y-84240713D01*
X149703213Y-84352207D01*
X149703210Y-84352211D01*
X149615609Y-84483314D01*
X149615602Y-84483327D01*
X149555264Y-84628998D01*
X149555261Y-84629010D01*
X149524500Y-84783653D01*
X132087395Y-84783653D01*
X131958501Y-84730264D01*
X131958489Y-84730261D01*
X131803845Y-84699500D01*
X131803842Y-84699500D01*
X131646158Y-84699500D01*
X131646155Y-84699500D01*
X131491510Y-84730261D01*
X131491498Y-84730264D01*
X131345827Y-84790602D01*
X131345814Y-84790609D01*
X131214711Y-84878210D01*
X131214707Y-84878213D01*
X131103213Y-84989707D01*
X131103210Y-84989711D01*
X131015609Y-85120814D01*
X131015602Y-85120827D01*
X130955264Y-85266498D01*
X130955261Y-85266510D01*
X130924500Y-85421153D01*
X112375500Y-85421153D01*
X112375500Y-82596153D01*
X136399500Y-82596153D01*
X136399500Y-82753846D01*
X136430261Y-82908489D01*
X136430264Y-82908501D01*
X136490602Y-83054172D01*
X136490609Y-83054185D01*
X136578210Y-83185288D01*
X136578213Y-83185292D01*
X136689707Y-83296786D01*
X136689711Y-83296789D01*
X136820814Y-83384390D01*
X136820827Y-83384397D01*
X136966498Y-83444735D01*
X136966503Y-83444737D01*
X137121153Y-83475499D01*
X137121156Y-83475500D01*
X137121158Y-83475500D01*
X137278844Y-83475500D01*
X137278845Y-83475499D01*
X137433497Y-83444737D01*
X137579179Y-83384394D01*
X137710289Y-83296789D01*
X137821789Y-83185289D01*
X137909394Y-83054179D01*
X137969737Y-82908497D01*
X137979489Y-82859470D01*
X137996231Y-82775308D01*
X138028616Y-82713397D01*
X138089332Y-82678823D01*
X138117848Y-82675500D01*
X139038331Y-82675500D01*
X139038347Y-82675501D01*
X139045943Y-82675501D01*
X139204054Y-82675501D01*
X139204057Y-82675501D01*
X139356785Y-82634577D01*
X139423328Y-82596158D01*
X139493716Y-82555520D01*
X139605520Y-82443716D01*
X139605520Y-82443714D01*
X139615723Y-82433512D01*
X139615727Y-82433506D01*
X139647795Y-82401438D01*
X145404409Y-82401438D01*
X145404409Y-82559131D01*
X145435170Y-82713774D01*
X145435173Y-82713786D01*
X145495511Y-82859457D01*
X145495518Y-82859470D01*
X145583119Y-82990573D01*
X145583122Y-82990577D01*
X145694616Y-83102071D01*
X145694620Y-83102074D01*
X145825723Y-83189675D01*
X145825736Y-83189682D01*
X145971407Y-83250020D01*
X145971412Y-83250022D01*
X146126062Y-83280784D01*
X146126065Y-83280785D01*
X146126067Y-83280785D01*
X146283753Y-83280785D01*
X146283754Y-83280784D01*
X146438406Y-83250022D01*
X146584088Y-83189679D01*
X146590660Y-83185288D01*
X146715784Y-83101683D01*
X146782462Y-83080805D01*
X146784675Y-83080785D01*
X148466991Y-83080785D01*
X148534030Y-83100470D01*
X148570093Y-83135895D01*
X148653207Y-83260284D01*
X148653213Y-83260292D01*
X148764707Y-83371786D01*
X148764711Y-83371789D01*
X148895814Y-83459390D01*
X148895827Y-83459397D01*
X149041498Y-83519735D01*
X149041503Y-83519737D01*
X149196153Y-83550499D01*
X149196156Y-83550500D01*
X149196158Y-83550500D01*
X149353844Y-83550500D01*
X149353845Y-83550499D01*
X149508497Y-83519737D01*
X149654179Y-83459394D01*
X149785289Y-83371789D01*
X149896789Y-83260289D01*
X149984394Y-83129179D01*
X150044737Y-82983497D01*
X150075500Y-82828842D01*
X150075500Y-82671158D01*
X150075500Y-82671155D01*
X150075499Y-82671153D01*
X150044737Y-82516503D01*
X150013674Y-82441510D01*
X149984397Y-82370827D01*
X149984390Y-82370814D01*
X149896789Y-82239711D01*
X149896786Y-82239707D01*
X149785292Y-82128213D01*
X149785288Y-82128210D01*
X149654185Y-82040609D01*
X149654172Y-82040602D01*
X149508501Y-81980264D01*
X149508489Y-81980261D01*
X149353845Y-81949500D01*
X149353842Y-81949500D01*
X149320165Y-81949500D01*
X149258164Y-81932886D01*
X149237075Y-81920710D01*
X149237074Y-81920709D01*
X149224548Y-81917352D01*
X149084342Y-81879784D01*
X148926228Y-81879784D01*
X148918632Y-81879784D01*
X148918616Y-81879785D01*
X146784675Y-81879785D01*
X146717636Y-81860100D01*
X146715784Y-81858887D01*
X146584094Y-81770894D01*
X146584081Y-81770887D01*
X146438410Y-81710549D01*
X146438398Y-81710546D01*
X146283754Y-81679785D01*
X146283751Y-81679785D01*
X146126067Y-81679785D01*
X146126064Y-81679785D01*
X145971419Y-81710546D01*
X145971407Y-81710549D01*
X145825736Y-81770887D01*
X145825723Y-81770894D01*
X145694620Y-81858495D01*
X145694616Y-81858498D01*
X145583122Y-81969992D01*
X145583119Y-81969996D01*
X145495518Y-82101099D01*
X145495511Y-82101112D01*
X145435173Y-82246783D01*
X145435170Y-82246795D01*
X145404409Y-82401438D01*
X139647795Y-82401438D01*
X139834624Y-82214609D01*
X139895945Y-82181126D01*
X139946491Y-82180675D01*
X140027466Y-82196781D01*
X140046157Y-82200500D01*
X140046158Y-82200500D01*
X140203844Y-82200500D01*
X140203845Y-82200499D01*
X140358497Y-82169737D01*
X140504179Y-82109394D01*
X140635289Y-82021789D01*
X140746789Y-81910289D01*
X140834394Y-81779179D01*
X140894737Y-81633497D01*
X140925500Y-81478842D01*
X140925500Y-81321158D01*
X140925500Y-81321155D01*
X140925499Y-81321153D01*
X140917843Y-81282664D01*
X140894737Y-81166503D01*
X140888166Y-81150638D01*
X140834397Y-81020827D01*
X140834390Y-81020814D01*
X140746789Y-80889711D01*
X140746786Y-80889707D01*
X140635292Y-80778213D01*
X140635288Y-80778210D01*
X140504185Y-80690609D01*
X140504172Y-80690602D01*
X140358501Y-80630264D01*
X140358489Y-80630261D01*
X140203845Y-80599500D01*
X140203842Y-80599500D01*
X140046158Y-80599500D01*
X140046155Y-80599500D01*
X139891510Y-80630261D01*
X139891498Y-80630264D01*
X139745827Y-80690602D01*
X139745814Y-80690609D01*
X139614714Y-80778208D01*
X139542568Y-80850352D01*
X139516888Y-80870056D01*
X139431287Y-80919477D01*
X139431282Y-80919481D01*
X139319478Y-81031286D01*
X138912584Y-81438181D01*
X138851261Y-81471666D01*
X138824903Y-81474500D01*
X137879057Y-81474500D01*
X137720943Y-81474500D01*
X137568215Y-81515423D01*
X137568214Y-81515423D01*
X137568212Y-81515424D01*
X137568209Y-81515425D01*
X137518096Y-81544359D01*
X137518095Y-81544360D01*
X137488430Y-81561487D01*
X137431285Y-81594479D01*
X137431282Y-81594481D01*
X137319480Y-81706283D01*
X137319480Y-81706284D01*
X137319478Y-81706286D01*
X137246592Y-81779172D01*
X137185337Y-81840427D01*
X137124014Y-81873911D01*
X137121848Y-81874362D01*
X136966508Y-81905261D01*
X136966498Y-81905264D01*
X136820827Y-81965602D01*
X136820814Y-81965609D01*
X136689711Y-82053210D01*
X136689707Y-82053213D01*
X136578213Y-82164707D01*
X136578210Y-82164711D01*
X136490609Y-82295814D01*
X136490602Y-82295827D01*
X136430264Y-82441498D01*
X136430261Y-82441510D01*
X136399500Y-82596153D01*
X112375500Y-82596153D01*
X112375500Y-80271153D01*
X149049500Y-80271153D01*
X149049500Y-80428846D01*
X149080261Y-80583489D01*
X149080264Y-80583501D01*
X149140602Y-80729172D01*
X149140609Y-80729185D01*
X149228210Y-80860288D01*
X149228213Y-80860292D01*
X149339707Y-80971786D01*
X149339711Y-80971789D01*
X149470814Y-81059390D01*
X149470827Y-81059397D01*
X149616498Y-81119735D01*
X149616503Y-81119737D01*
X149681147Y-81132595D01*
X149771849Y-81150638D01*
X149833760Y-81183023D01*
X149835339Y-81184574D01*
X151002092Y-82351327D01*
X151035577Y-82412650D01*
X151036028Y-82463199D01*
X151024500Y-82521153D01*
X151024500Y-82678846D01*
X151055261Y-82833489D01*
X151055264Y-82833501D01*
X151115602Y-82979172D01*
X151115609Y-82979185D01*
X151203210Y-83110288D01*
X151203213Y-83110292D01*
X151314707Y-83221786D01*
X151314711Y-83221789D01*
X151445814Y-83309390D01*
X151445827Y-83309397D01*
X151591498Y-83369735D01*
X151591503Y-83369737D01*
X151746153Y-83400499D01*
X151746156Y-83400500D01*
X151746158Y-83400500D01*
X151903844Y-83400500D01*
X151903845Y-83400499D01*
X152058497Y-83369737D01*
X152204179Y-83309394D01*
X152335289Y-83221789D01*
X152446789Y-83110289D01*
X152534394Y-82979179D01*
X152594737Y-82833497D01*
X152625500Y-82678842D01*
X152625500Y-82521158D01*
X152625500Y-82521155D01*
X152625499Y-82521153D01*
X152609657Y-82441510D01*
X152594737Y-82366503D01*
X152588451Y-82351327D01*
X152534397Y-82220827D01*
X152534390Y-82220814D01*
X152446789Y-82089711D01*
X152446786Y-82089707D01*
X152335289Y-81978210D01*
X152321811Y-81969205D01*
X152303021Y-81953784D01*
X151910724Y-81561487D01*
X151826372Y-81477135D01*
X165349500Y-81477135D01*
X165349500Y-83522870D01*
X165349501Y-83522876D01*
X165355908Y-83582483D01*
X165406202Y-83717328D01*
X165406206Y-83717335D01*
X165492452Y-83832544D01*
X165492455Y-83832547D01*
X165607664Y-83918793D01*
X165607671Y-83918797D01*
X165742517Y-83969091D01*
X165742516Y-83969091D01*
X165749444Y-83969835D01*
X165802127Y-83975500D01*
X167847872Y-83975499D01*
X167907483Y-83969091D01*
X168042331Y-83918796D01*
X168157546Y-83832546D01*
X168243796Y-83717331D01*
X168294091Y-83582483D01*
X168300500Y-83522873D01*
X168300499Y-81477128D01*
X168294091Y-81417517D01*
X168258151Y-81321158D01*
X168243797Y-81282671D01*
X168243793Y-81282664D01*
X168157547Y-81167455D01*
X168157544Y-81167452D01*
X168042335Y-81081206D01*
X168042328Y-81081202D01*
X167907482Y-81030908D01*
X167907483Y-81030908D01*
X167847883Y-81024501D01*
X167847881Y-81024500D01*
X167847873Y-81024500D01*
X167847864Y-81024500D01*
X165802129Y-81024500D01*
X165802123Y-81024501D01*
X165742516Y-81030908D01*
X165607671Y-81081202D01*
X165607664Y-81081206D01*
X165492455Y-81167452D01*
X165492452Y-81167455D01*
X165406206Y-81282664D01*
X165406202Y-81282671D01*
X165355908Y-81417517D01*
X165353687Y-81438181D01*
X165349501Y-81477123D01*
X165349500Y-81477135D01*
X151826372Y-81477135D01*
X150684573Y-80335337D01*
X150651088Y-80274014D01*
X150650637Y-80271847D01*
X150619738Y-80116510D01*
X150619737Y-80116503D01*
X150619735Y-80116498D01*
X150559397Y-79970827D01*
X150559390Y-79970814D01*
X150471789Y-79839711D01*
X150471786Y-79839707D01*
X150360292Y-79728213D01*
X150360288Y-79728210D01*
X150229185Y-79640609D01*
X150229172Y-79640602D01*
X150083501Y-79580264D01*
X150083489Y-79580261D01*
X149928845Y-79549500D01*
X149928842Y-79549500D01*
X149771158Y-79549500D01*
X149771155Y-79549500D01*
X149616510Y-79580261D01*
X149616498Y-79580264D01*
X149470827Y-79640602D01*
X149470814Y-79640609D01*
X149339711Y-79728210D01*
X149339707Y-79728213D01*
X149228213Y-79839707D01*
X149228210Y-79839711D01*
X149140609Y-79970814D01*
X149140602Y-79970827D01*
X149080264Y-80116498D01*
X149080261Y-80116510D01*
X149049500Y-80271153D01*
X112375500Y-80271153D01*
X112375500Y-74543713D01*
X116024500Y-74543713D01*
X116024500Y-74756286D01*
X116057753Y-74966239D01*
X116123444Y-75168414D01*
X116219951Y-75357820D01*
X116344890Y-75529786D01*
X116495213Y-75680109D01*
X116667179Y-75805048D01*
X116667181Y-75805049D01*
X116667184Y-75805051D01*
X116856588Y-75901557D01*
X117058757Y-75967246D01*
X117268713Y-76000500D01*
X117268714Y-76000500D01*
X117481286Y-76000500D01*
X117481287Y-76000500D01*
X117691243Y-75967246D01*
X117893412Y-75901557D01*
X118082816Y-75805051D01*
X118104789Y-75789086D01*
X118254786Y-75680109D01*
X118254788Y-75680106D01*
X118254792Y-75680104D01*
X118405104Y-75529792D01*
X118405106Y-75529788D01*
X118405109Y-75529786D01*
X118530048Y-75357820D01*
X118530047Y-75357820D01*
X118530051Y-75357816D01*
X118626557Y-75168412D01*
X118692246Y-74966243D01*
X118725500Y-74756287D01*
X118725500Y-74543713D01*
X166024500Y-74543713D01*
X166024500Y-74756286D01*
X166057753Y-74966239D01*
X166123444Y-75168414D01*
X166219951Y-75357820D01*
X166344890Y-75529786D01*
X166495213Y-75680109D01*
X166667179Y-75805048D01*
X166667181Y-75805049D01*
X166667184Y-75805051D01*
X166856588Y-75901557D01*
X167058757Y-75967246D01*
X167268713Y-76000500D01*
X167268714Y-76000500D01*
X167481286Y-76000500D01*
X167481287Y-76000500D01*
X167691243Y-75967246D01*
X167893412Y-75901557D01*
X168082816Y-75805051D01*
X168104789Y-75789086D01*
X168254786Y-75680109D01*
X168254788Y-75680106D01*
X168254792Y-75680104D01*
X168405104Y-75529792D01*
X168405106Y-75529788D01*
X168405109Y-75529786D01*
X168530048Y-75357820D01*
X168530047Y-75357820D01*
X168530051Y-75357816D01*
X168626557Y-75168412D01*
X168692246Y-74966243D01*
X168725500Y-74756287D01*
X168725500Y-74543713D01*
X168692246Y-74333757D01*
X168626557Y-74131588D01*
X168530051Y-73942184D01*
X168530049Y-73942181D01*
X168530048Y-73942179D01*
X168405109Y-73770213D01*
X168254786Y-73619890D01*
X168082820Y-73494951D01*
X167893414Y-73398444D01*
X167893413Y-73398443D01*
X167893412Y-73398443D01*
X167691243Y-73332754D01*
X167691241Y-73332753D01*
X167691240Y-73332753D01*
X167529957Y-73307208D01*
X167481287Y-73299500D01*
X167268713Y-73299500D01*
X167220042Y-73307208D01*
X167058760Y-73332753D01*
X166856585Y-73398444D01*
X166667179Y-73494951D01*
X166495213Y-73619890D01*
X166344890Y-73770213D01*
X166219951Y-73942179D01*
X166123444Y-74131585D01*
X166057753Y-74333760D01*
X166024500Y-74543713D01*
X118725500Y-74543713D01*
X118692246Y-74333757D01*
X118626557Y-74131588D01*
X118530051Y-73942184D01*
X118530049Y-73942181D01*
X118530048Y-73942179D01*
X118405109Y-73770213D01*
X118254786Y-73619890D01*
X118082820Y-73494951D01*
X117893414Y-73398444D01*
X117893413Y-73398443D01*
X117893412Y-73398443D01*
X117691243Y-73332754D01*
X117691241Y-73332753D01*
X117691240Y-73332753D01*
X117529957Y-73307208D01*
X117481287Y-73299500D01*
X117268713Y-73299500D01*
X117220042Y-73307208D01*
X117058760Y-73332753D01*
X116856585Y-73398444D01*
X116667179Y-73494951D01*
X116495213Y-73619890D01*
X116344890Y-73770213D01*
X116219951Y-73942179D01*
X116123444Y-74131585D01*
X116057753Y-74333760D01*
X116024500Y-74543713D01*
X112375500Y-74543713D01*
X112375500Y-69774500D01*
X112395185Y-69707461D01*
X112447989Y-69661706D01*
X112499500Y-69650500D01*
X172250500Y-69650500D01*
X172317539Y-69670185D01*
G37*
%TD.AperFunction*%
%TD*%
M02*
