%TF.GenerationSoftware,KiCad,Pcbnew,9.0.7*%
%TF.CreationDate,2026-03-08T21:33:58-03:00*%
%TF.ProjectId,SatellitePCB_OPT,53617465-6c6c-4697-9465-5043425f4f50,rev?*%
%TF.SameCoordinates,Original*%
%TF.FileFunction,Copper,L1,Top*%
%TF.FilePolarity,Positive*%
%FSLAX46Y46*%
G04 Gerber Fmt 4.6, Leading zero omitted, Abs format (unit mm)*
G04 Created by KiCad (PCBNEW 9.0.7) date 2026-03-08 21:33:58*
%MOMM*%
%LPD*%
G01*
G04 APERTURE LIST*
G04 Aperture macros list*
%AMRoundRect*
0 Rectangle with rounded corners*
0 $1 Rounding radius*
0 $2 $3 $4 $5 $6 $7 $8 $9 X,Y pos of 4 corners*
0 Add a 4 corners polygon primitive as box body*
4,1,4,$2,$3,$4,$5,$6,$7,$8,$9,$2,$3,0*
0 Add four circle primitives for the rounded corners*
1,1,$1+$1,$2,$3*
1,1,$1+$1,$4,$5*
1,1,$1+$1,$6,$7*
1,1,$1+$1,$8,$9*
0 Add four rect primitives between the rounded corners*
20,1,$1+$1,$2,$3,$4,$5,0*
20,1,$1+$1,$4,$5,$6,$7,0*
20,1,$1+$1,$6,$7,$8,$9,0*
20,1,$1+$1,$8,$9,$2,$3,0*%
G04 Aperture macros list end*
%TA.AperFunction,ComponentPad*%
%ADD10R,1.950000X1.950000*%
%TD*%
%TA.AperFunction,ComponentPad*%
%ADD11C,1.950000*%
%TD*%
%TA.AperFunction,SMDPad,CuDef*%
%ADD12R,0.750000X0.300000*%
%TD*%
%TA.AperFunction,SMDPad,CuDef*%
%ADD13R,0.750000X1.450000*%
%TD*%
%TA.AperFunction,SMDPad,CuDef*%
%ADD14RoundRect,0.250000X-0.475000X0.337500X-0.475000X-0.337500X0.475000X-0.337500X0.475000X0.337500X0*%
%TD*%
%TA.AperFunction,ViaPad*%
%ADD15C,0.600000*%
%TD*%
%TA.AperFunction,Conductor*%
%ADD16C,0.500000*%
%TD*%
%TA.AperFunction,Conductor*%
%ADD17C,0.200000*%
%TD*%
G04 APERTURE END LIST*
D10*
%TO.P,J1,1,1*%
%TO.N,VDD*%
X166825000Y-82500000D03*
D11*
%TO.P,J1,2,2*%
%TO.N,GND*%
X166825000Y-87500000D03*
%TO.P,J1,3,3*%
%TO.N,/SCL*%
X166825000Y-92500000D03*
%TO.P,J1,4,4*%
%TO.N,GND*%
X166825000Y-97500000D03*
%TO.P,J1,5,5*%
%TO.N,/SDA*%
X166825000Y-102500000D03*
%TO.P,J1,6,6*%
%TO.N,GND*%
X166825000Y-107500000D03*
%TO.P,J1,7,7*%
%TO.N,/INT*%
X166825000Y-112500000D03*
%TO.P,J1,8,8*%
%TO.N,GND*%
X166825000Y-117500000D03*
%TD*%
D12*
%TO.P,IC4,1,VDD*%
%TO.N,VDD*%
X146375000Y-114000000D03*
%TO.P,IC4,2,ADDR*%
%TO.N,/SCL*%
X146375000Y-114650000D03*
%TO.P,IC4,3,GND*%
%TO.N,GND*%
X146375000Y-115300000D03*
%TO.P,IC4,4,SCL*%
%TO.N,/SCL*%
X148375000Y-115300000D03*
%TO.P,IC4,5,INT*%
%TO.N,/INT*%
X148375000Y-114650000D03*
%TO.P,IC4,6,SDA*%
%TO.N,/SDA*%
X148375000Y-114000000D03*
D13*
%TO.P,IC4,7,EP*%
%TO.N,GND*%
X147375000Y-114650000D03*
%TD*%
D12*
%TO.P,IC3,1,VDD*%
%TO.N,VDD*%
X146375000Y-84112500D03*
%TO.P,IC3,2,ADDR*%
%TO.N,/SDA*%
X146375000Y-84762500D03*
%TO.P,IC3,3,GND*%
%TO.N,GND*%
X146375000Y-85412500D03*
%TO.P,IC3,4,SCL*%
%TO.N,/SCL*%
X148375000Y-85412500D03*
%TO.P,IC3,5,INT*%
%TO.N,/INT*%
X148375000Y-84762500D03*
%TO.P,IC3,6,SDA*%
%TO.N,/SDA*%
X148375000Y-84112500D03*
D13*
%TO.P,IC3,7,EP*%
%TO.N,GND*%
X147375000Y-84762500D03*
%TD*%
D14*
%TO.P,C2,1*%
%TO.N,VDD*%
X122975000Y-114000000D03*
%TO.P,C2,2*%
%TO.N,GND*%
X122975000Y-116075000D03*
%TD*%
D12*
%TO.P,IC2,1,VDD*%
%TO.N,VDD*%
X126375000Y-114000000D03*
%TO.P,IC2,2,ADDR*%
X126375000Y-114650000D03*
%TO.P,IC2,3,GND*%
%TO.N,GND*%
X126375000Y-115300000D03*
%TO.P,IC2,4,SCL*%
%TO.N,/SCL*%
X128375000Y-115300000D03*
%TO.P,IC2,5,INT*%
%TO.N,/INT*%
X128375000Y-114650000D03*
%TO.P,IC2,6,SDA*%
%TO.N,/SDA*%
X128375000Y-114000000D03*
D13*
%TO.P,IC2,7,EP*%
%TO.N,GND*%
X127375000Y-114650000D03*
%TD*%
D14*
%TO.P,C5,1*%
%TO.N,VDD*%
X156475000Y-81100000D03*
%TO.P,C5,2*%
%TO.N,GND*%
X156475000Y-83175000D03*
%TD*%
%TO.P,C4,1*%
%TO.N,VDD*%
X143125000Y-84112500D03*
%TO.P,C4,2*%
%TO.N,GND*%
X143125000Y-86187500D03*
%TD*%
%TO.P,C1,1*%
%TO.N,VDD*%
X122775000Y-84000000D03*
%TO.P,C1,2*%
%TO.N,GND*%
X122775000Y-86075000D03*
%TD*%
%TO.P,C3,1*%
%TO.N,VDD*%
X143425000Y-114000000D03*
%TO.P,C3,2*%
%TO.N,GND*%
X143425000Y-116075000D03*
%TD*%
D12*
%TO.P,IC1,1,VDD*%
%TO.N,VDD*%
X126375000Y-84000000D03*
%TO.P,IC1,2,ADDR*%
%TO.N,GND*%
X126375000Y-84650000D03*
%TO.P,IC1,3,GND*%
X126375000Y-85300000D03*
%TO.P,IC1,4,SCL*%
%TO.N,/SCL*%
X128375000Y-85300000D03*
%TO.P,IC1,5,INT*%
%TO.N,/INT*%
X128375000Y-84650000D03*
%TO.P,IC1,6,SDA*%
%TO.N,/SDA*%
X128375000Y-84000000D03*
D13*
%TO.P,IC1,7,EP*%
%TO.N,GND*%
X127375000Y-84650000D03*
%TD*%
D15*
%TO.N,GND*%
X143575000Y-88250000D03*
X123175000Y-88050000D03*
X146925000Y-116950000D03*
X143825000Y-117650000D03*
X158450000Y-84775000D03*
X147225000Y-87500000D03*
X126875000Y-86900000D03*
X159750000Y-95925000D03*
X123275000Y-117500000D03*
X158425000Y-109200000D03*
X127025000Y-117600000D03*
X164450000Y-122325000D03*
%TO.N,/INT*%
X151275000Y-112250000D03*
X148675000Y-107850000D03*
X148075000Y-109800000D03*
X149775000Y-111550000D03*
X150325000Y-96575000D03*
X150325000Y-86000000D03*
X132925000Y-87100000D03*
X131725000Y-85500000D03*
X150325000Y-99750000D03*
X150325000Y-84862500D03*
%TO.N,/SCL*%
X117400000Y-88000000D03*
X139800000Y-119900000D03*
X137475000Y-119925000D03*
X149850000Y-80350000D03*
X115675000Y-86475000D03*
X151825000Y-82600000D03*
%TO.N,/SDA*%
X146204909Y-82480285D03*
X154250000Y-108525000D03*
X140125000Y-81400000D03*
X149275000Y-82750000D03*
X137200000Y-82675000D03*
X128325000Y-98300000D03*
X132000000Y-110400000D03*
X134550000Y-108575000D03*
X128150000Y-101550000D03*
X156075000Y-106000000D03*
%TD*%
D16*
%TO.N,GND*%
X146375000Y-85600000D02*
X146375000Y-86650000D01*
X122975000Y-117200000D02*
X123275000Y-117500000D01*
X165125000Y-109200000D02*
X166825000Y-107500000D01*
X127375000Y-117250000D02*
X127025000Y-117600000D01*
X147375000Y-84762500D02*
X147375000Y-87350000D01*
X147375000Y-116500000D02*
X146925000Y-116950000D01*
X147375000Y-87350000D02*
X147225000Y-87500000D01*
X122775000Y-86075000D02*
X124100000Y-86075000D01*
X157000000Y-84775000D02*
X156475000Y-84250000D01*
X126375000Y-116950000D02*
X127025000Y-117600000D01*
D17*
X126075000Y-84650000D02*
X126375000Y-84650000D01*
D16*
X143125000Y-86187500D02*
X143125000Y-87800000D01*
X127375000Y-114650000D02*
X127375000Y-117250000D01*
X122975000Y-116075000D02*
X122975000Y-117200000D01*
X164450000Y-119875000D02*
X166825000Y-117500000D01*
X156475000Y-84250000D02*
X156475000Y-83175000D01*
X159750000Y-95925000D02*
X165250000Y-95925000D01*
X122775000Y-87650000D02*
X123175000Y-88050000D01*
X165250000Y-95925000D02*
X166825000Y-97500000D01*
X158450000Y-84775000D02*
X157000000Y-84775000D01*
X124100000Y-86075000D02*
X125525000Y-84650000D01*
X143425000Y-117250000D02*
X143825000Y-117650000D01*
X143425000Y-116075000D02*
X143425000Y-117250000D01*
X127375000Y-86400000D02*
X126875000Y-86900000D01*
X126375000Y-85300000D02*
X126375000Y-86400000D01*
X146375000Y-115300000D02*
X146375000Y-116400000D01*
X127375000Y-84650000D02*
X127375000Y-86400000D01*
X164100000Y-84775000D02*
X166825000Y-87500000D01*
X126375000Y-115300000D02*
X126375000Y-116950000D01*
X146375000Y-116400000D02*
X146925000Y-116950000D01*
X122775000Y-86075000D02*
X122775000Y-87650000D01*
X158425000Y-109200000D02*
X165125000Y-109200000D01*
X125525000Y-84650000D02*
X126375000Y-84650000D01*
X146375000Y-86650000D02*
X147225000Y-87500000D01*
X164450000Y-122325000D02*
X164450000Y-119875000D01*
X158450000Y-84775000D02*
X164100000Y-84775000D01*
X143125000Y-87800000D02*
X143575000Y-88250000D01*
X126375000Y-86400000D02*
X126875000Y-86900000D01*
X147375000Y-114650000D02*
X147375000Y-116500000D01*
%TO.N,VDD*%
X121475000Y-122500000D02*
X137725000Y-122500000D01*
X121025000Y-114000000D02*
X122975000Y-114000000D01*
X138725000Y-118700000D02*
X143425000Y-114000000D01*
X117575000Y-118600000D02*
X121475000Y-122500000D01*
X115775000Y-87900000D02*
X116875000Y-86800000D01*
X122775000Y-84000000D02*
X120775000Y-84000000D01*
X120775000Y-84000000D02*
X117975000Y-86800000D01*
X138725000Y-121500000D02*
X138725000Y-118700000D01*
X140687500Y-84112500D02*
X143125000Y-84112500D01*
X137275000Y-80700000D02*
X126075000Y-80700000D01*
X146375000Y-84112500D02*
X146375000Y-83975000D01*
X148775000Y-81575000D02*
X156000000Y-81575000D01*
X145625000Y-113250000D02*
X146375000Y-114000000D01*
X144175000Y-113250000D02*
X145625000Y-113250000D01*
X121025000Y-114000000D02*
X119225000Y-114000000D01*
X115775000Y-87900000D02*
X115775000Y-108750000D01*
X163125000Y-78800000D02*
X166825000Y-82500000D01*
X137275000Y-80700000D02*
X140687500Y-84112500D01*
X117575000Y-115650000D02*
X117575000Y-118600000D01*
X126075000Y-80700000D02*
X122775000Y-84000000D01*
X125775000Y-113400000D02*
X126375000Y-114000000D01*
X116875000Y-86800000D02*
X117975000Y-86800000D01*
X146375000Y-83975000D02*
X148775000Y-81575000D01*
X156475000Y-81100000D02*
X158775000Y-78800000D01*
X123425000Y-83350000D02*
X125776000Y-83350000D01*
X126375000Y-114000000D02*
X126375000Y-114599000D01*
X137725000Y-122500000D02*
X138725000Y-121500000D01*
X143425000Y-114000000D02*
X144175000Y-113250000D01*
X122975000Y-114000000D02*
X123575000Y-113400000D01*
X119225000Y-114000000D02*
X117575000Y-115650000D01*
X156000000Y-81575000D02*
X156475000Y-81100000D01*
X158775000Y-78800000D02*
X163125000Y-78800000D01*
X125776000Y-83350000D02*
X126375000Y-83949000D01*
X123575000Y-113400000D02*
X125775000Y-113400000D01*
X115775000Y-108750000D02*
X121025000Y-114000000D01*
X122775000Y-84000000D02*
X123425000Y-83350000D01*
D17*
%TO.N,/INT*%
X132925000Y-87100000D02*
X134700000Y-87100000D01*
X148375000Y-114650000D02*
X148950000Y-114650000D01*
X148587500Y-84550000D02*
X150012500Y-84550000D01*
X151275000Y-112325000D02*
X151275000Y-112250000D01*
X128375000Y-84650000D02*
X130875000Y-84650000D01*
X148375000Y-84762500D02*
X148587500Y-84550000D01*
X148375000Y-114650000D02*
X164675000Y-114650000D01*
X141775000Y-109500000D02*
X147775000Y-109500000D01*
X130875000Y-84650000D02*
X131725000Y-85500000D01*
X136625000Y-114650000D02*
X141775000Y-109500000D01*
X149775000Y-111500000D02*
X148075000Y-109800000D01*
X128375000Y-114650000D02*
X136625000Y-114650000D01*
X134700000Y-87100000D02*
X148675000Y-101075000D01*
X164675000Y-114650000D02*
X166825000Y-112500000D01*
X150325000Y-96575000D02*
X150325000Y-86000000D01*
X147775000Y-109500000D02*
X148075000Y-109800000D01*
X150325000Y-106200000D02*
X148675000Y-107850000D01*
X150012500Y-84550000D02*
X150325000Y-84862500D01*
X150325000Y-99750000D02*
X150325000Y-106200000D01*
X148950000Y-114650000D02*
X151275000Y-112325000D01*
X148675000Y-101075000D02*
X148675000Y-107850000D01*
X149775000Y-111550000D02*
X149775000Y-111500000D01*
%TO.N,/SCL*%
X117725000Y-88000000D02*
X117400000Y-88000000D01*
X139850000Y-119850000D02*
X139800000Y-119900000D01*
X115675000Y-85950000D02*
X115325000Y-85600000D01*
X125973943Y-88651000D02*
X118376000Y-88651000D01*
X151825000Y-82600000D02*
X154637500Y-85412500D01*
X148375000Y-116349943D02*
X148375000Y-115300000D01*
X169225000Y-94900000D02*
X166825000Y-92500000D01*
X145775000Y-76250000D02*
X149850000Y-80325000D01*
X137475000Y-119925000D02*
X133000000Y-119925000D01*
X145699000Y-116573943D02*
X146676057Y-117551000D01*
X166825000Y-92500000D02*
X164325000Y-90000000D01*
X118376000Y-88651000D02*
X117725000Y-88000000D01*
X154637500Y-85412500D02*
X148375000Y-85412500D01*
X147173943Y-117551000D02*
X148375000Y-116349943D01*
X120575000Y-76250000D02*
X145775000Y-76250000D01*
X128375000Y-85300000D02*
X128375000Y-86249943D01*
X169225000Y-112850000D02*
X169225000Y-94900000D01*
X145699000Y-116753232D02*
X145699000Y-114751000D01*
X142602232Y-119850000D02*
X145699000Y-116753232D01*
X145800000Y-114650000D02*
X146375000Y-114650000D01*
X149850000Y-80325000D02*
X149850000Y-80350000D01*
X166375000Y-115700000D02*
X169225000Y-112850000D01*
X142602232Y-119850000D02*
X139850000Y-119850000D01*
X133000000Y-119925000D02*
X128375000Y-115300000D01*
X128375000Y-86249943D02*
X125973943Y-88651000D01*
X146676057Y-117551000D02*
X147173943Y-117551000D01*
X115675000Y-86475000D02*
X115675000Y-85950000D01*
X145699000Y-114751000D02*
X145800000Y-114650000D01*
X164325000Y-90000000D02*
X159225000Y-90000000D01*
X159225000Y-90000000D02*
X154637500Y-85412500D01*
X145699000Y-114751000D02*
X145699000Y-116573943D01*
X115325000Y-85600000D02*
X115325000Y-81500000D01*
X148375000Y-115300000D02*
X148775000Y-115700000D01*
X148775000Y-115700000D02*
X166375000Y-115700000D01*
X115325000Y-81500000D02*
X120575000Y-76250000D01*
%TO.N,/SDA*%
X145312500Y-83262500D02*
X145312500Y-83312500D01*
X154250000Y-108525000D02*
X153850000Y-108525000D01*
X136625000Y-82100000D02*
X137200000Y-82675000D01*
X128150000Y-101575000D02*
X128375000Y-101800000D01*
X153850000Y-108525000D02*
X152662500Y-109712500D01*
X149275000Y-83212500D02*
X148375000Y-84112500D01*
X128412500Y-90262500D02*
X128375000Y-90300000D01*
X128375000Y-101800000D02*
X128375000Y-114000000D01*
X140125000Y-81400000D02*
X140925000Y-82200000D01*
X128150000Y-101550000D02*
X128150000Y-101575000D01*
X146375000Y-84762500D02*
X145898000Y-84762500D01*
X145312500Y-83262500D02*
X146094715Y-82480285D01*
X156075000Y-106000000D02*
X156400000Y-106000000D01*
X137200000Y-82675000D02*
X136000000Y-82675000D01*
X131975000Y-110400000D02*
X132000000Y-110400000D01*
X140925000Y-82200000D02*
X144250000Y-82200000D01*
X144250000Y-82200000D02*
X145312500Y-83262500D01*
X158450000Y-103950000D02*
X165375000Y-103950000D01*
X128375000Y-114000000D02*
X131975000Y-110400000D01*
X151525000Y-108575000D02*
X152662500Y-109712500D01*
X156400000Y-106000000D02*
X158450000Y-103950000D01*
X128325000Y-90350000D02*
X128325000Y-98300000D01*
X145125000Y-83989500D02*
X145125000Y-83500000D01*
X130275000Y-82100000D02*
X136625000Y-82100000D01*
X130275000Y-82100000D02*
X128375000Y-84000000D01*
X165375000Y-103950000D02*
X166825000Y-102500000D01*
X145898000Y-84762500D02*
X145125000Y-83989500D01*
X145125000Y-83500000D02*
X145312500Y-83312500D01*
X134550000Y-108575000D02*
X151525000Y-108575000D01*
X148375000Y-114000000D02*
X152662500Y-109712500D01*
X136000000Y-82675000D02*
X128412500Y-90262500D01*
X146094715Y-82480285D02*
X146204909Y-82480285D01*
X128412500Y-90262500D02*
X128325000Y-90350000D01*
X149275000Y-82750000D02*
X149275000Y-83212500D01*
%TD*%
%TA.AperFunction,Conductor*%
%TO.N,VDD*%
G36*
X172317539Y-69670185D02*
G01*
X172363294Y-69722989D01*
X172374500Y-69774500D01*
X172374500Y-129525500D01*
X172354815Y-129592539D01*
X172302011Y-129638294D01*
X172250500Y-129649500D01*
X112499500Y-129649500D01*
X112432461Y-129629815D01*
X112386706Y-129577011D01*
X112375500Y-129525500D01*
X112375500Y-124543713D01*
X116024500Y-124543713D01*
X116024500Y-124756286D01*
X116057753Y-124966239D01*
X116123444Y-125168414D01*
X116219951Y-125357820D01*
X116344890Y-125529786D01*
X116495213Y-125680109D01*
X116667179Y-125805048D01*
X116667181Y-125805049D01*
X116667184Y-125805051D01*
X116856588Y-125901557D01*
X117058757Y-125967246D01*
X117268713Y-126000500D01*
X117268714Y-126000500D01*
X117481286Y-126000500D01*
X117481287Y-126000500D01*
X117691243Y-125967246D01*
X117893412Y-125901557D01*
X118082816Y-125805051D01*
X118104789Y-125789086D01*
X118254786Y-125680109D01*
X118254788Y-125680106D01*
X118254792Y-125680104D01*
X118405104Y-125529792D01*
X118405106Y-125529788D01*
X118405109Y-125529786D01*
X118530048Y-125357820D01*
X118530047Y-125357820D01*
X118530051Y-125357816D01*
X118626557Y-125168412D01*
X118692246Y-124966243D01*
X118725500Y-124756287D01*
X118725500Y-124543713D01*
X166024500Y-124543713D01*
X166024500Y-124756286D01*
X166057753Y-124966239D01*
X166123444Y-125168414D01*
X166219951Y-125357820D01*
X166344890Y-125529786D01*
X166495213Y-125680109D01*
X166667179Y-125805048D01*
X166667181Y-125805049D01*
X166667184Y-125805051D01*
X166856588Y-125901557D01*
X167058757Y-125967246D01*
X167268713Y-126000500D01*
X167268714Y-126000500D01*
X167481286Y-126000500D01*
X167481287Y-126000500D01*
X167691243Y-125967246D01*
X167893412Y-125901557D01*
X168082816Y-125805051D01*
X168104789Y-125789086D01*
X168254786Y-125680109D01*
X168254788Y-125680106D01*
X168254792Y-125680104D01*
X168405104Y-125529792D01*
X168405106Y-125529788D01*
X168405109Y-125529786D01*
X168530048Y-125357820D01*
X168530047Y-125357820D01*
X168530051Y-125357816D01*
X168626557Y-125168412D01*
X168692246Y-124966243D01*
X168725500Y-124756287D01*
X168725500Y-124543713D01*
X168692246Y-124333757D01*
X168626557Y-124131588D01*
X168530051Y-123942184D01*
X168530049Y-123942181D01*
X168530048Y-123942179D01*
X168405109Y-123770213D01*
X168254786Y-123619890D01*
X168082820Y-123494951D01*
X167893414Y-123398444D01*
X167893413Y-123398443D01*
X167893412Y-123398443D01*
X167691243Y-123332754D01*
X167691241Y-123332753D01*
X167691240Y-123332753D01*
X167529957Y-123307208D01*
X167481287Y-123299500D01*
X167268713Y-123299500D01*
X167220042Y-123307208D01*
X167058760Y-123332753D01*
X166856585Y-123398444D01*
X166667179Y-123494951D01*
X166495213Y-123619890D01*
X166344890Y-123770213D01*
X166219951Y-123942179D01*
X166123444Y-124131585D01*
X166057753Y-124333760D01*
X166024500Y-124543713D01*
X118725500Y-124543713D01*
X118692246Y-124333757D01*
X118626557Y-124131588D01*
X118530051Y-123942184D01*
X118530049Y-123942181D01*
X118530048Y-123942179D01*
X118405109Y-123770213D01*
X118254786Y-123619890D01*
X118082820Y-123494951D01*
X117893414Y-123398444D01*
X117893413Y-123398443D01*
X117893412Y-123398443D01*
X117691243Y-123332754D01*
X117691241Y-123332753D01*
X117691240Y-123332753D01*
X117529957Y-123307208D01*
X117481287Y-123299500D01*
X117268713Y-123299500D01*
X117220042Y-123307208D01*
X117058760Y-123332753D01*
X116856585Y-123398444D01*
X116667179Y-123494951D01*
X116495213Y-123619890D01*
X116344890Y-123770213D01*
X116219951Y-123942179D01*
X116123444Y-124131585D01*
X116057753Y-124333760D01*
X116024500Y-124543713D01*
X112375500Y-124543713D01*
X112375500Y-115687483D01*
X121749500Y-115687483D01*
X121749500Y-116462501D01*
X121749501Y-116462519D01*
X121760000Y-116565296D01*
X121760001Y-116565299D01*
X121808382Y-116711301D01*
X121815186Y-116731834D01*
X121907288Y-116881156D01*
X122031344Y-117005212D01*
X122165597Y-117088019D01*
X122212321Y-117139965D01*
X122224500Y-117193557D01*
X122224500Y-117273918D01*
X122224500Y-117273920D01*
X122224499Y-117273920D01*
X122253340Y-117418907D01*
X122253343Y-117418917D01*
X122309913Y-117555490D01*
X122309914Y-117555491D01*
X122309916Y-117555495D01*
X122322226Y-117573918D01*
X122392048Y-117678416D01*
X122528929Y-117815297D01*
X122555807Y-117855523D01*
X122565604Y-117879175D01*
X122565609Y-117879185D01*
X122653210Y-118010288D01*
X122653213Y-118010292D01*
X122764707Y-118121786D01*
X122764711Y-118121789D01*
X122895814Y-118209390D01*
X122895827Y-118209397D01*
X123002735Y-118253679D01*
X123041503Y-118269737D01*
X123196153Y-118300499D01*
X123196156Y-118300500D01*
X123196158Y-118300500D01*
X123353844Y-118300500D01*
X123353845Y-118300499D01*
X123508497Y-118269737D01*
X123654179Y-118209394D01*
X123785289Y-118121789D01*
X123896789Y-118010289D01*
X123984394Y-117879179D01*
X123988245Y-117869883D01*
X124044735Y-117733501D01*
X124044737Y-117733497D01*
X124075500Y-117578842D01*
X124075500Y-117421158D01*
X124075500Y-117421155D01*
X124075499Y-117421153D01*
X124068083Y-117383870D01*
X124044737Y-117266503D01*
X124004316Y-117168917D01*
X123984397Y-117120827D01*
X123984391Y-117120816D01*
X123968295Y-117096728D01*
X123947415Y-117030051D01*
X123965898Y-116962670D01*
X123983706Y-116940161D01*
X124042712Y-116881156D01*
X124134814Y-116731834D01*
X124189999Y-116565297D01*
X124200500Y-116462509D01*
X124200499Y-115687492D01*
X124189999Y-115584703D01*
X124134814Y-115418166D01*
X124042712Y-115268844D01*
X123918656Y-115144788D01*
X123915342Y-115142743D01*
X123913546Y-115140748D01*
X123912989Y-115140307D01*
X123913064Y-115140211D01*
X123868618Y-115090797D01*
X123857397Y-115021834D01*
X123885240Y-114957752D01*
X123915348Y-114931665D01*
X123918342Y-114929818D01*
X124042315Y-114805845D01*
X124134356Y-114656624D01*
X124134358Y-114656619D01*
X124189505Y-114490197D01*
X124189506Y-114490190D01*
X124199999Y-114387486D01*
X124200000Y-114387473D01*
X124200000Y-114250000D01*
X121750001Y-114250000D01*
X121750001Y-114387486D01*
X121760494Y-114490197D01*
X121815641Y-114656619D01*
X121815643Y-114656624D01*
X121907684Y-114805845D01*
X122031655Y-114929816D01*
X122031659Y-114929819D01*
X122034656Y-114931668D01*
X122036279Y-114933472D01*
X122037323Y-114934298D01*
X122037181Y-114934476D01*
X122081381Y-114983616D01*
X122092602Y-115052579D01*
X122064759Y-115116661D01*
X122034661Y-115142741D01*
X122031349Y-115144783D01*
X122031343Y-115144788D01*
X121907289Y-115268842D01*
X121815187Y-115418163D01*
X121815186Y-115418166D01*
X121760001Y-115584703D01*
X121760001Y-115584704D01*
X121760000Y-115584704D01*
X121749500Y-115687483D01*
X112375500Y-115687483D01*
X112375500Y-113802155D01*
X125500000Y-113802155D01*
X125500000Y-113850000D01*
X126225000Y-113850000D01*
X126225000Y-113350000D01*
X125952155Y-113350000D01*
X125892627Y-113356401D01*
X125892620Y-113356403D01*
X125757913Y-113406645D01*
X125757906Y-113406649D01*
X125642812Y-113492809D01*
X125642809Y-113492812D01*
X125556649Y-113607906D01*
X125556645Y-113607913D01*
X125506403Y-113742620D01*
X125506401Y-113742627D01*
X125500000Y-113802155D01*
X112375500Y-113802155D01*
X112375500Y-113612513D01*
X121750000Y-113612513D01*
X121750000Y-113750000D01*
X122725000Y-113750000D01*
X123225000Y-113750000D01*
X124199999Y-113750000D01*
X124199999Y-113612528D01*
X124199998Y-113612513D01*
X124189505Y-113509802D01*
X124134358Y-113343380D01*
X124134356Y-113343375D01*
X124042315Y-113194154D01*
X123918345Y-113070184D01*
X123769124Y-112978143D01*
X123769119Y-112978141D01*
X123602697Y-112922994D01*
X123602690Y-112922993D01*
X123499986Y-112912500D01*
X123225000Y-112912500D01*
X123225000Y-113750000D01*
X122725000Y-113750000D01*
X122725000Y-112912500D01*
X122450029Y-112912500D01*
X122450012Y-112912501D01*
X122347302Y-112922994D01*
X122180880Y-112978141D01*
X122180875Y-112978143D01*
X122031654Y-113070184D01*
X121907684Y-113194154D01*
X121815643Y-113343375D01*
X121815641Y-113343380D01*
X121760494Y-113509802D01*
X121760493Y-113509809D01*
X121750000Y-113612513D01*
X112375500Y-113612513D01*
X112375500Y-87921153D01*
X116599500Y-87921153D01*
X116599500Y-88078846D01*
X116630261Y-88233489D01*
X116630264Y-88233501D01*
X116690602Y-88379172D01*
X116690609Y-88379185D01*
X116778210Y-88510288D01*
X116778213Y-88510292D01*
X116889707Y-88621786D01*
X116889711Y-88621789D01*
X117020814Y-88709390D01*
X117020827Y-88709397D01*
X117147730Y-88761961D01*
X117166503Y-88769737D01*
X117321153Y-88800499D01*
X117321156Y-88800500D01*
X117321158Y-88800500D01*
X117478844Y-88800500D01*
X117578504Y-88780676D01*
X117648096Y-88786903D01*
X117690377Y-88814612D01*
X117891139Y-89015374D01*
X117891149Y-89015385D01*
X117895479Y-89019715D01*
X117895480Y-89019716D01*
X118007284Y-89131520D01*
X118094095Y-89181639D01*
X118094097Y-89181641D01*
X118132151Y-89203611D01*
X118144215Y-89210577D01*
X118296943Y-89251501D01*
X118296946Y-89251501D01*
X118462653Y-89251501D01*
X118462669Y-89251500D01*
X125887274Y-89251500D01*
X125887290Y-89251501D01*
X125894886Y-89251501D01*
X126052997Y-89251501D01*
X126053000Y-89251501D01*
X126205728Y-89210577D01*
X126255847Y-89181639D01*
X126342659Y-89131520D01*
X126454463Y-89019716D01*
X126454463Y-89019714D01*
X126464671Y-89009507D01*
X126464673Y-89009504D01*
X128733506Y-86740671D01*
X128733511Y-86740667D01*
X128743714Y-86730463D01*
X128743716Y-86730463D01*
X128855520Y-86618659D01*
X128934577Y-86481727D01*
X128975500Y-86329000D01*
X128975500Y-85968464D01*
X128995185Y-85901425D01*
X129025187Y-85869199D01*
X129107546Y-85807546D01*
X129193796Y-85692331D01*
X129244091Y-85557483D01*
X129250500Y-85497873D01*
X129250499Y-85374499D01*
X129270183Y-85307461D01*
X129322987Y-85261706D01*
X129374499Y-85250500D01*
X130574903Y-85250500D01*
X130641942Y-85270185D01*
X130662584Y-85286819D01*
X130890425Y-85514660D01*
X130923910Y-85575983D01*
X130924361Y-85578149D01*
X130955261Y-85733491D01*
X130955264Y-85733501D01*
X131015602Y-85879172D01*
X131015609Y-85879185D01*
X131103210Y-86010288D01*
X131103213Y-86010292D01*
X131214707Y-86121786D01*
X131214711Y-86121789D01*
X131345814Y-86209390D01*
X131345823Y-86209395D01*
X131365675Y-86217618D01*
X131420078Y-86261459D01*
X131442143Y-86327753D01*
X131424864Y-86395453D01*
X131405903Y-86419860D01*
X128043786Y-89781978D01*
X127844481Y-89981282D01*
X127844479Y-89981285D01*
X127794361Y-90068094D01*
X127794359Y-90068096D01*
X127765425Y-90118209D01*
X127765424Y-90118210D01*
X127765423Y-90118215D01*
X127724499Y-90270943D01*
X127724499Y-90270945D01*
X127724499Y-90439046D01*
X127724500Y-90439059D01*
X127724500Y-97720234D01*
X127704815Y-97787273D01*
X127703602Y-97789125D01*
X127615609Y-97920814D01*
X127615602Y-97920827D01*
X127555264Y-98066498D01*
X127555261Y-98066510D01*
X127524500Y-98221153D01*
X127524500Y-98378846D01*
X127555261Y-98533489D01*
X127555264Y-98533501D01*
X127615602Y-98679172D01*
X127615609Y-98679185D01*
X127703210Y-98810288D01*
X127703213Y-98810292D01*
X127814707Y-98921786D01*
X127814711Y-98921789D01*
X127945814Y-99009390D01*
X127945827Y-99009397D01*
X128021181Y-99040609D01*
X128091503Y-99069737D01*
X128246153Y-99100499D01*
X128246156Y-99100500D01*
X128246158Y-99100500D01*
X128403844Y-99100500D01*
X128403845Y-99100499D01*
X128558497Y-99069737D01*
X128704179Y-99009394D01*
X128835289Y-98921789D01*
X128946789Y-98810289D01*
X129034394Y-98679179D01*
X129094737Y-98533497D01*
X129125500Y-98378842D01*
X129125500Y-98221158D01*
X129125500Y-98221155D01*
X129125499Y-98221153D01*
X129094738Y-98066510D01*
X129094737Y-98066503D01*
X129094693Y-98066396D01*
X129034397Y-97920827D01*
X129034390Y-97920814D01*
X128946398Y-97789125D01*
X128925520Y-97722447D01*
X128925500Y-97720234D01*
X128925500Y-90650096D01*
X128945185Y-90583057D01*
X128961814Y-90562420D01*
X132040454Y-87483779D01*
X132101775Y-87450296D01*
X132171467Y-87455280D01*
X132227400Y-87497152D01*
X132231235Y-87502571D01*
X132303210Y-87610288D01*
X132303213Y-87610292D01*
X132414707Y-87721786D01*
X132414711Y-87721789D01*
X132545814Y-87809390D01*
X132545827Y-87809397D01*
X132691498Y-87869735D01*
X132691503Y-87869737D01*
X132846153Y-87900499D01*
X132846156Y-87900500D01*
X132846158Y-87900500D01*
X133003844Y-87900500D01*
X133003845Y-87900499D01*
X133158497Y-87869737D01*
X133304179Y-87809394D01*
X133304185Y-87809390D01*
X133435875Y-87721398D01*
X133502553Y-87700520D01*
X133504766Y-87700500D01*
X134399903Y-87700500D01*
X134466942Y-87720185D01*
X134487584Y-87736819D01*
X148038181Y-101287416D01*
X148071666Y-101348739D01*
X148074500Y-101375097D01*
X148074500Y-107270234D01*
X148054815Y-107337273D01*
X148053602Y-107339125D01*
X147965609Y-107470814D01*
X147965602Y-107470827D01*
X147905264Y-107616498D01*
X147905261Y-107616510D01*
X147874500Y-107771153D01*
X147874500Y-107850500D01*
X147854815Y-107917539D01*
X147802011Y-107963294D01*
X147750500Y-107974500D01*
X135129766Y-107974500D01*
X135062727Y-107954815D01*
X135060875Y-107953602D01*
X134929185Y-107865609D01*
X134929172Y-107865602D01*
X134783501Y-107805264D01*
X134783489Y-107805261D01*
X134628845Y-107774500D01*
X134628842Y-107774500D01*
X134471158Y-107774500D01*
X134471155Y-107774500D01*
X134316510Y-107805261D01*
X134316498Y-107805264D01*
X134170827Y-107865602D01*
X134170814Y-107865609D01*
X134039711Y-107953210D01*
X134039707Y-107953213D01*
X133928213Y-108064707D01*
X133928210Y-108064711D01*
X133840609Y-108195814D01*
X133840602Y-108195827D01*
X133780264Y-108341498D01*
X133780261Y-108341510D01*
X133749500Y-108496153D01*
X133749500Y-108653846D01*
X133780261Y-108808489D01*
X133780264Y-108808501D01*
X133840602Y-108954172D01*
X133840609Y-108954185D01*
X133928210Y-109085288D01*
X133928213Y-109085292D01*
X134039707Y-109196786D01*
X134039711Y-109196789D01*
X134170814Y-109284390D01*
X134170827Y-109284397D01*
X134316498Y-109344735D01*
X134316503Y-109344737D01*
X134435419Y-109368391D01*
X134471153Y-109375499D01*
X134471156Y-109375500D01*
X134471158Y-109375500D01*
X134628844Y-109375500D01*
X134628845Y-109375499D01*
X134783497Y-109344737D01*
X134929179Y-109284394D01*
X135004005Y-109234397D01*
X135060875Y-109196398D01*
X135127553Y-109175520D01*
X135129766Y-109175500D01*
X140950903Y-109175500D01*
X141017942Y-109195185D01*
X141063697Y-109247989D01*
X141073641Y-109317147D01*
X141044616Y-109380703D01*
X141038584Y-109387181D01*
X136412584Y-114013181D01*
X136351261Y-114046666D01*
X136324903Y-114049500D01*
X129474096Y-114049500D01*
X129407057Y-114029815D01*
X129361302Y-113977011D01*
X129351358Y-113907853D01*
X129380383Y-113844297D01*
X129386415Y-113837819D01*
X130673970Y-112550265D01*
X131987416Y-111236819D01*
X132048739Y-111203334D01*
X132075097Y-111200500D01*
X132078844Y-111200500D01*
X132078845Y-111200499D01*
X132233497Y-111169737D01*
X132379179Y-111109394D01*
X132510289Y-111021789D01*
X132621789Y-110910289D01*
X132709394Y-110779179D01*
X132769737Y-110633497D01*
X132800500Y-110478842D01*
X132800500Y-110321158D01*
X132800500Y-110321155D01*
X132800499Y-110321153D01*
X132794430Y-110290642D01*
X132769737Y-110166503D01*
X132742398Y-110100500D01*
X132709397Y-110020827D01*
X132709390Y-110020814D01*
X132621789Y-109889711D01*
X132621786Y-109889707D01*
X132510292Y-109778213D01*
X132510288Y-109778210D01*
X132379185Y-109690609D01*
X132379172Y-109690602D01*
X132233501Y-109630264D01*
X132233489Y-109630261D01*
X132078845Y-109599500D01*
X132078842Y-109599500D01*
X131921158Y-109599500D01*
X131921155Y-109599500D01*
X131766510Y-109630261D01*
X131766498Y-109630264D01*
X131620827Y-109690602D01*
X131620814Y-109690609D01*
X131489711Y-109778210D01*
X131489707Y-109778213D01*
X131378213Y-109889707D01*
X131378210Y-109889711D01*
X131290609Y-110020814D01*
X131290602Y-110020827D01*
X131230264Y-110166498D01*
X131230261Y-110166508D01*
X131205569Y-110290642D01*
X131173184Y-110352553D01*
X131171633Y-110354131D01*
X129187181Y-112338584D01*
X129125858Y-112372069D01*
X129056166Y-112367085D01*
X129000233Y-112325213D01*
X128975816Y-112259749D01*
X128975500Y-112250903D01*
X128975500Y-101720945D01*
X128975500Y-101720943D01*
X128954725Y-101643409D01*
X128950500Y-101611316D01*
X128950500Y-101471155D01*
X128950499Y-101471153D01*
X128931284Y-101374553D01*
X128919737Y-101316503D01*
X128907689Y-101287416D01*
X128859397Y-101170827D01*
X128859390Y-101170814D01*
X128771789Y-101039711D01*
X128771786Y-101039707D01*
X128660292Y-100928213D01*
X128660288Y-100928210D01*
X128529185Y-100840609D01*
X128529172Y-100840602D01*
X128383501Y-100780264D01*
X128383489Y-100780261D01*
X128228845Y-100749500D01*
X128228842Y-100749500D01*
X128071158Y-100749500D01*
X128071155Y-100749500D01*
X127916510Y-100780261D01*
X127916498Y-100780264D01*
X127770827Y-100840602D01*
X127770814Y-100840609D01*
X127639711Y-100928210D01*
X127639707Y-100928213D01*
X127528213Y-101039707D01*
X127528210Y-101039711D01*
X127440609Y-101170814D01*
X127440602Y-101170827D01*
X127380264Y-101316498D01*
X127380261Y-101316510D01*
X127349500Y-101471153D01*
X127349500Y-101628846D01*
X127380261Y-101783489D01*
X127380264Y-101783501D01*
X127440602Y-101929172D01*
X127440609Y-101929185D01*
X127528210Y-102060288D01*
X127528213Y-102060292D01*
X127639708Y-102171787D01*
X127639711Y-102171789D01*
X127719391Y-102225029D01*
X127764196Y-102278640D01*
X127774500Y-102328131D01*
X127774500Y-113300500D01*
X127754815Y-113367539D01*
X127702011Y-113413294D01*
X127650500Y-113424500D01*
X127056433Y-113424500D01*
X126997001Y-113409330D01*
X126992083Y-113406644D01*
X126857379Y-113356403D01*
X126857372Y-113356401D01*
X126797844Y-113350000D01*
X126525000Y-113350000D01*
X126525000Y-113743959D01*
X126522750Y-113767472D01*
X126520790Y-113777616D01*
X126505909Y-113817517D01*
X126499500Y-113877127D01*
X126499500Y-113887862D01*
X126497250Y-113899513D01*
X126486450Y-113920442D01*
X126479815Y-113943039D01*
X126470726Y-113950914D01*
X126465211Y-113961603D01*
X126444808Y-113973372D01*
X126427011Y-113988794D01*
X126412665Y-113991914D01*
X126404689Y-113996516D01*
X126393897Y-113995997D01*
X126375500Y-114000000D01*
X126375000Y-114000000D01*
X126375000Y-114026000D01*
X126355315Y-114093039D01*
X126302511Y-114138794D01*
X126251000Y-114150000D01*
X125500000Y-114150000D01*
X125500000Y-114197844D01*
X125506401Y-114257372D01*
X125506403Y-114257379D01*
X125515462Y-114281669D01*
X125520445Y-114351361D01*
X125515462Y-114368331D01*
X125506403Y-114392620D01*
X125506401Y-114392627D01*
X125500000Y-114452155D01*
X125500000Y-114500000D01*
X125660565Y-114500000D01*
X125690004Y-114508644D01*
X125719990Y-114515167D01*
X125723221Y-114518398D01*
X125727604Y-114519685D01*
X125747696Y-114542872D01*
X125769396Y-114564572D01*
X125770367Y-114569036D01*
X125773359Y-114572489D01*
X125777726Y-114602862D01*
X125784249Y-114632844D01*
X125782652Y-114637124D01*
X125783303Y-114641647D01*
X125770554Y-114669563D01*
X125759833Y-114698309D01*
X125755403Y-114702738D01*
X125754278Y-114705203D01*
X125734876Y-114723266D01*
X125665413Y-114775266D01*
X125599951Y-114799684D01*
X125591103Y-114800000D01*
X125500000Y-114800000D01*
X125500000Y-114847844D01*
X125506401Y-114907372D01*
X125506403Y-114907379D01*
X125515195Y-114930952D01*
X125520179Y-115000644D01*
X125515196Y-115017615D01*
X125505909Y-115042516D01*
X125505908Y-115042517D01*
X125499501Y-115102117D01*
X125499500Y-115102136D01*
X125499500Y-115497870D01*
X125499501Y-115497876D01*
X125505908Y-115557483D01*
X125556202Y-115692328D01*
X125556204Y-115692331D01*
X125599766Y-115750522D01*
X125624184Y-115815985D01*
X125624500Y-115824833D01*
X125624500Y-117023918D01*
X125624500Y-117023920D01*
X125624499Y-117023920D01*
X125653340Y-117168907D01*
X125653343Y-117168917D01*
X125709913Y-117305490D01*
X125709914Y-117305491D01*
X125709916Y-117305495D01*
X125722226Y-117323918D01*
X125787198Y-117421158D01*
X125792051Y-117428420D01*
X125792052Y-117428421D01*
X126278927Y-117915295D01*
X126305807Y-117955523D01*
X126315604Y-117979175D01*
X126315609Y-117979185D01*
X126403210Y-118110288D01*
X126403213Y-118110292D01*
X126514707Y-118221786D01*
X126514711Y-118221789D01*
X126645814Y-118309390D01*
X126645827Y-118309397D01*
X126791498Y-118369735D01*
X126791503Y-118369737D01*
X126946153Y-118400499D01*
X126946156Y-118400500D01*
X126946158Y-118400500D01*
X127103844Y-118400500D01*
X127103845Y-118400499D01*
X127258497Y-118369737D01*
X127404179Y-118309394D01*
X127535289Y-118221789D01*
X127646789Y-118110289D01*
X127734394Y-117979179D01*
X127744191Y-117955524D01*
X127771067Y-117915299D01*
X127957952Y-117728416D01*
X128023672Y-117630057D01*
X128040084Y-117605495D01*
X128072819Y-117526465D01*
X128096659Y-117468912D01*
X128125500Y-117323917D01*
X128125500Y-117176082D01*
X128125500Y-116199097D01*
X128145185Y-116132058D01*
X128197989Y-116086303D01*
X128267147Y-116076359D01*
X128330703Y-116105384D01*
X128337180Y-116111415D01*
X132631284Y-120405520D01*
X132631286Y-120405521D01*
X132631290Y-120405524D01*
X132709192Y-120450500D01*
X132768216Y-120484577D01*
X132920943Y-120525501D01*
X132920945Y-120525501D01*
X133086654Y-120525501D01*
X133086670Y-120525500D01*
X136895234Y-120525500D01*
X136962273Y-120545185D01*
X136964125Y-120546398D01*
X137095814Y-120634390D01*
X137095827Y-120634397D01*
X137241498Y-120694735D01*
X137241503Y-120694737D01*
X137396153Y-120725499D01*
X137396156Y-120725500D01*
X137396158Y-120725500D01*
X137553844Y-120725500D01*
X137553845Y-120725499D01*
X137708497Y-120694737D01*
X137854179Y-120634394D01*
X137985289Y-120546789D01*
X138096789Y-120435289D01*
X138184394Y-120304179D01*
X138244737Y-120158497D01*
X138275500Y-120003842D01*
X138275500Y-119846158D01*
X138275500Y-119846155D01*
X138275499Y-119846153D01*
X138244738Y-119691510D01*
X138244737Y-119691503D01*
X138234380Y-119666498D01*
X138184397Y-119545827D01*
X138184390Y-119545814D01*
X138096789Y-119414711D01*
X138096786Y-119414707D01*
X137985292Y-119303213D01*
X137985288Y-119303210D01*
X137854185Y-119215609D01*
X137854172Y-119215602D01*
X137708501Y-119155264D01*
X137708489Y-119155261D01*
X137553845Y-119124500D01*
X137553842Y-119124500D01*
X137396158Y-119124500D01*
X137396155Y-119124500D01*
X137241510Y-119155261D01*
X137241498Y-119155264D01*
X137095827Y-119215602D01*
X137095814Y-119215609D01*
X136964125Y-119303602D01*
X136897447Y-119324480D01*
X136895234Y-119324500D01*
X133300098Y-119324500D01*
X133233059Y-119304815D01*
X133212417Y-119288181D01*
X129386416Y-115462181D01*
X129352931Y-115400858D01*
X129357915Y-115331166D01*
X129399787Y-115275233D01*
X129465251Y-115250816D01*
X129474097Y-115250500D01*
X136538331Y-115250500D01*
X136538347Y-115250501D01*
X136545943Y-115250501D01*
X136704054Y-115250501D01*
X136704057Y-115250501D01*
X136856785Y-115209577D01*
X136906904Y-115180639D01*
X136993716Y-115130520D01*
X137105520Y-115018716D01*
X137105520Y-115018714D01*
X137115728Y-115008507D01*
X137115729Y-115008504D01*
X138511721Y-113612513D01*
X142200000Y-113612513D01*
X142200000Y-113750000D01*
X143175000Y-113750000D01*
X143675000Y-113750000D01*
X144649999Y-113750000D01*
X144649999Y-113612528D01*
X144649998Y-113612513D01*
X144639505Y-113509802D01*
X144584358Y-113343380D01*
X144584356Y-113343375D01*
X144492315Y-113194154D01*
X144368345Y-113070184D01*
X144219124Y-112978143D01*
X144219119Y-112978141D01*
X144052697Y-112922994D01*
X144052690Y-112922993D01*
X143949986Y-112912500D01*
X143675000Y-112912500D01*
X143675000Y-113750000D01*
X143175000Y-113750000D01*
X143175000Y-112912500D01*
X142900029Y-112912500D01*
X142900012Y-112912501D01*
X142797302Y-112922994D01*
X142630880Y-112978141D01*
X142630875Y-112978143D01*
X142481654Y-113070184D01*
X142357684Y-113194154D01*
X142265643Y-113343375D01*
X142265641Y-113343380D01*
X142210494Y-113509802D01*
X142210493Y-113509809D01*
X142200000Y-113612513D01*
X138511721Y-113612513D01*
X141987416Y-110136819D01*
X142048739Y-110103334D01*
X142075097Y-110100500D01*
X147250162Y-110100500D01*
X147317201Y-110120185D01*
X147362956Y-110172989D01*
X147364715Y-110177029D01*
X147365606Y-110179179D01*
X147365607Y-110179180D01*
X147365609Y-110179185D01*
X147453210Y-110310288D01*
X147453213Y-110310292D01*
X147564707Y-110421786D01*
X147564711Y-110421789D01*
X147695814Y-110509390D01*
X147695827Y-110509397D01*
X147841498Y-110569735D01*
X147841503Y-110569737D01*
X147906147Y-110582595D01*
X147996849Y-110600638D01*
X148058760Y-110633023D01*
X148060339Y-110634574D01*
X148938181Y-111512416D01*
X148971666Y-111573739D01*
X148974500Y-111600097D01*
X148974500Y-111628846D01*
X149005261Y-111783489D01*
X149005264Y-111783501D01*
X149065602Y-111929172D01*
X149065609Y-111929185D01*
X149153210Y-112060288D01*
X149153213Y-112060292D01*
X149221661Y-112128740D01*
X149255146Y-112190063D01*
X149250162Y-112259755D01*
X149221661Y-112304102D01*
X148212582Y-113313181D01*
X148151259Y-113346666D01*
X148124902Y-113349500D01*
X147952130Y-113349500D01*
X147952123Y-113349501D01*
X147892516Y-113355908D01*
X147757670Y-113406203D01*
X147751943Y-113409331D01*
X147692514Y-113424500D01*
X147056433Y-113424500D01*
X146997001Y-113409330D01*
X146992083Y-113406644D01*
X146857379Y-113356403D01*
X146857372Y-113356401D01*
X146797844Y-113350000D01*
X146525000Y-113350000D01*
X146525000Y-113743959D01*
X146522734Y-113767558D01*
X146520776Y-113777654D01*
X146505909Y-113817517D01*
X146499500Y-113877127D01*
X146499500Y-113887409D01*
X146497234Y-113899099D01*
X146486437Y-113919985D01*
X146479815Y-113942539D01*
X146470693Y-113950442D01*
X146465150Y-113961167D01*
X146444775Y-113972900D01*
X146427011Y-113988294D01*
X146412605Y-113991427D01*
X146404604Y-113996036D01*
X146393834Y-113995511D01*
X146375500Y-113999500D01*
X146349000Y-113999500D01*
X146281961Y-113979815D01*
X146236206Y-113927011D01*
X146225000Y-113875500D01*
X146225000Y-113350000D01*
X145952155Y-113350000D01*
X145892627Y-113356401D01*
X145892620Y-113356403D01*
X145757913Y-113406645D01*
X145757906Y-113406649D01*
X145642812Y-113492809D01*
X145642809Y-113492812D01*
X145556649Y-113607906D01*
X145556645Y-113607913D01*
X145506403Y-113742620D01*
X145506401Y-113742627D01*
X145500000Y-113802155D01*
X145500000Y-113850000D01*
X145525259Y-113850000D01*
X145592298Y-113869685D01*
X145638053Y-113922489D01*
X145647997Y-113991647D01*
X145618972Y-114055203D01*
X145572710Y-114088562D01*
X145568209Y-114090426D01*
X145431290Y-114169475D01*
X145431282Y-114169481D01*
X145218481Y-114382282D01*
X145218479Y-114382285D01*
X145198318Y-114417206D01*
X145178156Y-114452128D01*
X145139423Y-114519215D01*
X145098499Y-114671943D01*
X145098499Y-114671945D01*
X145098499Y-114840046D01*
X145098500Y-114840059D01*
X145098500Y-116453134D01*
X145078815Y-116520173D01*
X145062181Y-116540815D01*
X144812860Y-116790136D01*
X144751537Y-116823621D01*
X144681845Y-116818637D01*
X144625912Y-116776765D01*
X144601495Y-116711301D01*
X144607472Y-116663456D01*
X144639999Y-116565297D01*
X144650500Y-116462509D01*
X144650499Y-115687492D01*
X144639999Y-115584703D01*
X144584814Y-115418166D01*
X144492712Y-115268844D01*
X144368656Y-115144788D01*
X144365342Y-115142743D01*
X144363546Y-115140748D01*
X144362989Y-115140307D01*
X144363064Y-115140211D01*
X144318618Y-115090797D01*
X144307397Y-115021834D01*
X144335240Y-114957752D01*
X144365348Y-114931665D01*
X144368342Y-114929818D01*
X144492315Y-114805845D01*
X144584356Y-114656624D01*
X144584358Y-114656619D01*
X144639505Y-114490197D01*
X144639506Y-114490190D01*
X144649999Y-114387486D01*
X144650000Y-114387473D01*
X144650000Y-114250000D01*
X142200001Y-114250000D01*
X142200001Y-114387486D01*
X142210494Y-114490197D01*
X142265641Y-114656619D01*
X142265643Y-114656624D01*
X142357684Y-114805845D01*
X142481655Y-114929816D01*
X142481659Y-114929819D01*
X142484656Y-114931668D01*
X142486279Y-114933472D01*
X142487323Y-114934298D01*
X142487181Y-114934476D01*
X142531381Y-114983616D01*
X142542602Y-115052579D01*
X142514759Y-115116661D01*
X142484661Y-115142741D01*
X142481349Y-115144783D01*
X142481343Y-115144788D01*
X142357289Y-115268842D01*
X142265187Y-115418163D01*
X142265186Y-115418166D01*
X142210001Y-115584703D01*
X142210001Y-115584704D01*
X142210000Y-115584704D01*
X142199500Y-115687483D01*
X142199500Y-116462501D01*
X142199501Y-116462519D01*
X142210000Y-116565296D01*
X142210001Y-116565299D01*
X142258382Y-116711301D01*
X142265186Y-116731834D01*
X142357288Y-116881156D01*
X142481344Y-117005212D01*
X142615597Y-117088019D01*
X142662321Y-117139965D01*
X142674500Y-117193557D01*
X142674500Y-117323918D01*
X142703340Y-117468907D01*
X142703343Y-117468917D01*
X142759913Y-117605490D01*
X142759914Y-117605491D01*
X142759916Y-117605495D01*
X142776327Y-117630055D01*
X142776328Y-117630057D01*
X142842051Y-117728420D01*
X142842052Y-117728421D01*
X143078927Y-117965295D01*
X143105806Y-118005521D01*
X143115606Y-118029180D01*
X143115607Y-118029182D01*
X143203210Y-118160288D01*
X143203213Y-118160292D01*
X143235277Y-118192356D01*
X143268762Y-118253679D01*
X143263778Y-118323371D01*
X143235277Y-118367718D01*
X142389816Y-119213181D01*
X142328493Y-119246666D01*
X142302135Y-119249500D01*
X140304935Y-119249500D01*
X140237896Y-119229815D01*
X140236090Y-119228633D01*
X140179179Y-119190606D01*
X140179172Y-119190602D01*
X140033501Y-119130264D01*
X140033489Y-119130261D01*
X139878845Y-119099500D01*
X139878842Y-119099500D01*
X139721158Y-119099500D01*
X139721155Y-119099500D01*
X139566510Y-119130261D01*
X139566498Y-119130264D01*
X139420827Y-119190602D01*
X139420814Y-119190609D01*
X139289711Y-119278210D01*
X139289707Y-119278213D01*
X139178213Y-119389707D01*
X139178210Y-119389711D01*
X139090609Y-119520814D01*
X139090602Y-119520827D01*
X139030264Y-119666498D01*
X139030261Y-119666510D01*
X138999500Y-119821153D01*
X138999500Y-119978846D01*
X139030261Y-120133489D01*
X139030264Y-120133501D01*
X139090602Y-120279172D01*
X139090609Y-120279185D01*
X139178210Y-120410288D01*
X139178213Y-120410292D01*
X139289707Y-120521786D01*
X139289711Y-120521789D01*
X139420814Y-120609390D01*
X139420827Y-120609397D01*
X139566498Y-120669735D01*
X139566503Y-120669737D01*
X139692176Y-120694735D01*
X139721153Y-120700499D01*
X139721156Y-120700500D01*
X139721158Y-120700500D01*
X139878844Y-120700500D01*
X139878845Y-120700499D01*
X140033497Y-120669737D01*
X140179179Y-120609394D01*
X140310289Y-120521789D01*
X140345258Y-120486820D01*
X140406580Y-120453334D01*
X140432940Y-120450500D01*
X142515563Y-120450500D01*
X142515579Y-120450501D01*
X142523175Y-120450501D01*
X142681286Y-120450501D01*
X142681289Y-120450501D01*
X142834017Y-120409577D01*
X142847652Y-120401704D01*
X142884323Y-120380533D01*
X142884334Y-120380525D01*
X142884346Y-120380519D01*
X142970948Y-120330520D01*
X143082752Y-120218716D01*
X143082752Y-120218714D01*
X143092956Y-120208511D01*
X143092960Y-120208506D01*
X145700963Y-117600503D01*
X145762286Y-117567018D01*
X145831978Y-117572002D01*
X145876325Y-117600503D01*
X146191196Y-117915374D01*
X146191206Y-117915385D01*
X146195536Y-117919715D01*
X146195537Y-117919716D01*
X146307341Y-118031520D01*
X146367749Y-118066396D01*
X146406010Y-118088486D01*
X146444269Y-118110576D01*
X146444271Y-118110576D01*
X146444272Y-118110577D01*
X146596999Y-118151500D01*
X146597000Y-118151500D01*
X147087274Y-118151500D01*
X147087290Y-118151501D01*
X147094886Y-118151501D01*
X147252997Y-118151501D01*
X147253000Y-118151501D01*
X147405728Y-118110577D01*
X147482251Y-118066396D01*
X147542659Y-118031520D01*
X147654463Y-117919716D01*
X147654463Y-117919714D01*
X147664667Y-117909511D01*
X147664671Y-117909506D01*
X148733506Y-116840671D01*
X148733511Y-116840667D01*
X148743714Y-116830463D01*
X148743716Y-116830463D01*
X148855520Y-116718659D01*
X148887395Y-116663450D01*
X148913108Y-116618914D01*
X148913109Y-116618911D01*
X148934576Y-116581730D01*
X148938979Y-116565299D01*
X148975500Y-116429000D01*
X148975500Y-116424500D01*
X148995185Y-116357461D01*
X149047989Y-116311706D01*
X149099500Y-116300500D01*
X165638465Y-116300500D01*
X165705504Y-116320185D01*
X165751259Y-116372989D01*
X165761203Y-116442147D01*
X165732178Y-116505703D01*
X165726146Y-116512181D01*
X165699553Y-116538773D01*
X165563039Y-116726668D01*
X165457601Y-116933599D01*
X165385831Y-117154485D01*
X165349500Y-117383870D01*
X165349500Y-117616130D01*
X165380361Y-117810984D01*
X165371406Y-117880277D01*
X165345569Y-117918062D01*
X163867049Y-119396582D01*
X163867047Y-119396585D01*
X163851585Y-119419724D01*
X163851586Y-119419725D01*
X163784914Y-119519508D01*
X163728343Y-119656082D01*
X163728340Y-119656092D01*
X163699500Y-119801079D01*
X163699500Y-122020396D01*
X163690062Y-122067844D01*
X163680263Y-122091503D01*
X163680262Y-122091506D01*
X163680260Y-122091511D01*
X163649500Y-122246153D01*
X163649500Y-122403846D01*
X163680261Y-122558489D01*
X163680264Y-122558501D01*
X163740602Y-122704172D01*
X163740609Y-122704185D01*
X163828210Y-122835288D01*
X163828213Y-122835292D01*
X163939707Y-122946786D01*
X163939711Y-122946789D01*
X164070814Y-123034390D01*
X164070827Y-123034397D01*
X164216498Y-123094735D01*
X164216503Y-123094737D01*
X164371153Y-123125499D01*
X164371156Y-123125500D01*
X164371158Y-123125500D01*
X164528844Y-123125500D01*
X164528845Y-123125499D01*
X164683497Y-123094737D01*
X164829179Y-123034394D01*
X164960289Y-122946789D01*
X165071789Y-122835289D01*
X165159394Y-122704179D01*
X165219737Y-122558497D01*
X165250500Y-122403842D01*
X165250500Y-122246158D01*
X165250500Y-122246155D01*
X165250499Y-122246153D01*
X165219739Y-122091511D01*
X165219738Y-122091508D01*
X165219737Y-122091503D01*
X165209937Y-122067844D01*
X165200500Y-122020396D01*
X165200500Y-120237228D01*
X165220185Y-120170189D01*
X165236814Y-120149552D01*
X166406938Y-118979427D01*
X166468259Y-118945944D01*
X166514011Y-118944637D01*
X166607805Y-118959492D01*
X166708871Y-118975500D01*
X166708876Y-118975500D01*
X166941129Y-118975500D01*
X167042502Y-118959443D01*
X167170514Y-118939169D01*
X167391396Y-118867400D01*
X167598331Y-118761961D01*
X167786224Y-118625449D01*
X167950449Y-118461224D01*
X168086961Y-118273331D01*
X168192400Y-118066396D01*
X168264169Y-117845514D01*
X168297167Y-117637171D01*
X168300500Y-117616129D01*
X168300500Y-117383870D01*
X168267589Y-117176082D01*
X168264169Y-117154486D01*
X168192400Y-116933604D01*
X168192398Y-116933601D01*
X168192398Y-116933599D01*
X168112486Y-116776765D01*
X168086961Y-116726669D01*
X167950449Y-116538776D01*
X167786224Y-116374551D01*
X167598331Y-116238039D01*
X167391400Y-116132601D01*
X167170515Y-116060831D01*
X167145760Y-116056910D01*
X167082625Y-116026980D01*
X167045695Y-115967668D01*
X167046693Y-115897805D01*
X167077476Y-115846758D01*
X169705520Y-113218716D01*
X169784577Y-113081784D01*
X169825501Y-112929057D01*
X169825501Y-112770942D01*
X169825501Y-112763347D01*
X169825500Y-112763329D01*
X169825500Y-94989060D01*
X169825501Y-94989047D01*
X169825501Y-94820944D01*
X169784576Y-94668214D01*
X169784573Y-94668209D01*
X169705524Y-94531290D01*
X169705518Y-94531282D01*
X168257959Y-93083723D01*
X168224474Y-93022400D01*
X168227708Y-92957725D01*
X168264169Y-92845514D01*
X168300500Y-92616129D01*
X168300500Y-92383870D01*
X168281232Y-92262222D01*
X168264169Y-92154486D01*
X168192400Y-91933604D01*
X168192398Y-91933601D01*
X168192398Y-91933599D01*
X168086960Y-91726668D01*
X167950449Y-91538776D01*
X167786224Y-91374551D01*
X167598331Y-91238039D01*
X167391400Y-91132601D01*
X167170514Y-91060831D01*
X166941129Y-91024500D01*
X166941124Y-91024500D01*
X166708876Y-91024500D01*
X166708871Y-91024500D01*
X166479485Y-91060831D01*
X166479482Y-91060831D01*
X166367274Y-91097290D01*
X166297432Y-91099285D01*
X166241275Y-91067040D01*
X164812590Y-89638355D01*
X164812588Y-89638352D01*
X164693717Y-89519481D01*
X164693716Y-89519480D01*
X164606904Y-89469360D01*
X164606904Y-89469359D01*
X164606900Y-89469358D01*
X164556785Y-89440423D01*
X164404057Y-89399499D01*
X164245943Y-89399499D01*
X164238347Y-89399499D01*
X164238331Y-89399500D01*
X159525098Y-89399500D01*
X159458059Y-89379815D01*
X159437417Y-89363181D01*
X155125090Y-85050855D01*
X155125088Y-85050852D01*
X152861719Y-82787483D01*
X155249500Y-82787483D01*
X155249500Y-83562501D01*
X155249501Y-83562519D01*
X155260000Y-83665296D01*
X155260001Y-83665299D01*
X155315185Y-83831831D01*
X155315187Y-83831836D01*
X155322873Y-83844297D01*
X155407288Y-83981156D01*
X155531344Y-84105212D01*
X155665597Y-84188019D01*
X155712321Y-84239965D01*
X155724500Y-84293557D01*
X155724500Y-84323918D01*
X155724500Y-84323920D01*
X155724499Y-84323920D01*
X155753340Y-84468907D01*
X155753343Y-84468917D01*
X155809912Y-84605488D01*
X155809920Y-84605502D01*
X155835703Y-84644088D01*
X155835704Y-84644091D01*
X155892046Y-84728414D01*
X155892052Y-84728421D01*
X156417049Y-85253416D01*
X156471094Y-85307461D01*
X156521585Y-85357952D01*
X156644498Y-85440080D01*
X156644511Y-85440087D01*
X156781082Y-85496656D01*
X156781087Y-85496658D01*
X156781091Y-85496658D01*
X156781092Y-85496659D01*
X156926079Y-85525500D01*
X156926082Y-85525500D01*
X156926083Y-85525500D01*
X157073917Y-85525500D01*
X158145396Y-85525500D01*
X158192844Y-85534937D01*
X158216503Y-85544737D01*
X158216508Y-85544738D01*
X158216511Y-85544739D01*
X158371153Y-85575499D01*
X158371156Y-85575500D01*
X158371158Y-85575500D01*
X158528844Y-85575500D01*
X158528845Y-85575499D01*
X158619419Y-85557483D01*
X158683488Y-85544739D01*
X158683489Y-85544738D01*
X158683497Y-85544737D01*
X158707155Y-85534937D01*
X158754604Y-85525500D01*
X163737770Y-85525500D01*
X163804809Y-85545185D01*
X163825451Y-85561819D01*
X165345569Y-87081937D01*
X165379054Y-87143260D01*
X165380361Y-87189015D01*
X165349500Y-87383869D01*
X165349500Y-87616129D01*
X165385831Y-87845514D01*
X165457601Y-88066400D01*
X165561207Y-88269735D01*
X165563039Y-88273331D01*
X165699551Y-88461224D01*
X165863776Y-88625449D01*
X166051669Y-88761961D01*
X166127304Y-88800499D01*
X166258599Y-88867398D01*
X166258601Y-88867398D01*
X166258604Y-88867400D01*
X166479486Y-88939169D01*
X166597668Y-88957886D01*
X166708871Y-88975500D01*
X166708876Y-88975500D01*
X166941129Y-88975500D01*
X167042841Y-88959390D01*
X167170514Y-88939169D01*
X167391396Y-88867400D01*
X167598331Y-88761961D01*
X167786224Y-88625449D01*
X167950449Y-88461224D01*
X168086961Y-88273331D01*
X168192400Y-88066396D01*
X168264169Y-87845514D01*
X168286345Y-87705495D01*
X168300500Y-87616129D01*
X168300500Y-87383870D01*
X168276171Y-87230264D01*
X168264169Y-87154486D01*
X168192400Y-86933604D01*
X168192398Y-86933601D01*
X168192398Y-86933599D01*
X168101652Y-86755502D01*
X168086961Y-86726669D01*
X167950449Y-86538776D01*
X167786224Y-86374551D01*
X167598331Y-86238039D01*
X167589401Y-86233489D01*
X167391400Y-86132601D01*
X167170514Y-86060831D01*
X166941129Y-86024500D01*
X166941124Y-86024500D01*
X166708876Y-86024500D01*
X166708869Y-86024500D01*
X166514015Y-86055361D01*
X166444722Y-86046406D01*
X166406937Y-86020569D01*
X164578421Y-84192052D01*
X164578418Y-84192049D01*
X164504192Y-84142454D01*
X164458615Y-84112001D01*
X164455495Y-84109916D01*
X164455492Y-84109914D01*
X164455491Y-84109914D01*
X164318917Y-84053343D01*
X164318907Y-84053340D01*
X164173920Y-84024500D01*
X164173918Y-84024500D01*
X158754604Y-84024500D01*
X158707155Y-84015062D01*
X158683497Y-84005263D01*
X158683493Y-84005262D01*
X158683488Y-84005260D01*
X158528845Y-83974500D01*
X158528842Y-83974500D01*
X158371158Y-83974500D01*
X158371155Y-83974500D01*
X158216511Y-84005260D01*
X158216506Y-84005262D01*
X158216504Y-84005262D01*
X158216503Y-84005263D01*
X158192844Y-84015062D01*
X158145396Y-84024500D01*
X157738151Y-84024500D01*
X157671112Y-84004815D01*
X157625357Y-83952011D01*
X157615413Y-83882853D01*
X157632613Y-83835402D01*
X157634596Y-83832187D01*
X157634814Y-83831834D01*
X157689999Y-83665297D01*
X157700500Y-83562509D01*
X157700499Y-82787492D01*
X157699018Y-82772989D01*
X157692710Y-82711239D01*
X157691613Y-82700500D01*
X157689999Y-82684703D01*
X157634814Y-82518166D01*
X157542712Y-82368844D01*
X157418656Y-82244788D01*
X157415342Y-82242743D01*
X157413546Y-82240748D01*
X157412989Y-82240307D01*
X157413064Y-82240211D01*
X157368618Y-82190797D01*
X157357397Y-82121834D01*
X157385240Y-82057752D01*
X157415348Y-82031665D01*
X157418342Y-82029818D01*
X157542315Y-81905845D01*
X157634356Y-81756624D01*
X157634358Y-81756619D01*
X157689505Y-81590197D01*
X157689506Y-81590190D01*
X157699999Y-81487486D01*
X157700000Y-81487473D01*
X157700000Y-81477155D01*
X165350000Y-81477155D01*
X165350000Y-82250000D01*
X166224999Y-82250000D01*
X166199979Y-82310402D01*
X166175000Y-82435981D01*
X166175000Y-82564019D01*
X166199979Y-82689598D01*
X166224999Y-82750000D01*
X165350000Y-82750000D01*
X165350000Y-83522844D01*
X165356401Y-83582372D01*
X165356403Y-83582379D01*
X165406645Y-83717086D01*
X165406649Y-83717093D01*
X165492809Y-83832187D01*
X165492812Y-83832190D01*
X165607906Y-83918350D01*
X165607913Y-83918354D01*
X165742620Y-83968596D01*
X165742627Y-83968598D01*
X165802155Y-83974999D01*
X165802172Y-83975000D01*
X166575000Y-83975000D01*
X166575000Y-83100001D01*
X166635402Y-83125021D01*
X166760981Y-83150000D01*
X166889019Y-83150000D01*
X167014598Y-83125021D01*
X167075000Y-83100001D01*
X167075000Y-83975000D01*
X167847828Y-83975000D01*
X167847844Y-83974999D01*
X167907372Y-83968598D01*
X167907379Y-83968596D01*
X168042086Y-83918354D01*
X168042093Y-83918350D01*
X168157187Y-83832190D01*
X168157190Y-83832187D01*
X168243350Y-83717093D01*
X168243354Y-83717086D01*
X168293596Y-83582379D01*
X168293598Y-83582372D01*
X168299999Y-83522844D01*
X168300000Y-83522827D01*
X168300000Y-82750000D01*
X167425001Y-82750000D01*
X167450021Y-82689598D01*
X167475000Y-82564019D01*
X167475000Y-82435981D01*
X167450021Y-82310402D01*
X167425001Y-82250000D01*
X168300000Y-82250000D01*
X168300000Y-81477172D01*
X168299999Y-81477155D01*
X168293598Y-81417627D01*
X168293596Y-81417620D01*
X168243354Y-81282913D01*
X168243350Y-81282906D01*
X168157190Y-81167812D01*
X168157187Y-81167809D01*
X168042093Y-81081649D01*
X168042086Y-81081645D01*
X167907379Y-81031403D01*
X167907372Y-81031401D01*
X167847844Y-81025000D01*
X167075000Y-81025000D01*
X167075000Y-81899998D01*
X167014598Y-81874979D01*
X166889019Y-81850000D01*
X166760981Y-81850000D01*
X166635402Y-81874979D01*
X166575000Y-81899998D01*
X166575000Y-81025000D01*
X165802155Y-81025000D01*
X165742627Y-81031401D01*
X165742620Y-81031403D01*
X165607913Y-81081645D01*
X165607906Y-81081649D01*
X165492812Y-81167809D01*
X165492809Y-81167812D01*
X165406649Y-81282906D01*
X165406645Y-81282913D01*
X165356403Y-81417620D01*
X165356401Y-81417627D01*
X165350000Y-81477155D01*
X157700000Y-81477155D01*
X157700000Y-81350000D01*
X155250001Y-81350000D01*
X155250001Y-81487486D01*
X155260494Y-81590197D01*
X155315641Y-81756619D01*
X155315643Y-81756624D01*
X155407684Y-81905845D01*
X155531655Y-82029816D01*
X155531659Y-82029819D01*
X155534656Y-82031668D01*
X155536279Y-82033472D01*
X155537323Y-82034298D01*
X155537181Y-82034476D01*
X155581381Y-82083616D01*
X155592602Y-82152579D01*
X155564759Y-82216661D01*
X155534661Y-82242741D01*
X155531349Y-82244783D01*
X155531343Y-82244788D01*
X155407289Y-82368842D01*
X155315187Y-82518163D01*
X155315185Y-82518168D01*
X155298436Y-82568713D01*
X155260001Y-82684703D01*
X155260001Y-82684704D01*
X155260000Y-82684704D01*
X155249500Y-82787483D01*
X152861719Y-82787483D01*
X152659573Y-82585337D01*
X152626088Y-82524014D01*
X152625637Y-82521847D01*
X152609657Y-82441510D01*
X152594737Y-82366503D01*
X152589218Y-82353179D01*
X152534397Y-82220827D01*
X152534390Y-82220814D01*
X152446789Y-82089711D01*
X152446786Y-82089707D01*
X152335292Y-81978213D01*
X152335288Y-81978210D01*
X152204185Y-81890609D01*
X152204172Y-81890602D01*
X152058501Y-81830264D01*
X152058489Y-81830261D01*
X151903845Y-81799500D01*
X151903842Y-81799500D01*
X151746158Y-81799500D01*
X151746155Y-81799500D01*
X151591510Y-81830261D01*
X151591498Y-81830264D01*
X151445827Y-81890602D01*
X151445814Y-81890609D01*
X151314711Y-81978210D01*
X151314707Y-81978213D01*
X151203213Y-82089707D01*
X151203210Y-82089711D01*
X151115609Y-82220814D01*
X151115602Y-82220827D01*
X151055264Y-82366498D01*
X151055261Y-82366510D01*
X151024500Y-82521153D01*
X151024500Y-82678846D01*
X151055261Y-82833489D01*
X151055264Y-82833501D01*
X151115602Y-82979172D01*
X151115609Y-82979185D01*
X151203210Y-83110288D01*
X151203213Y-83110292D01*
X151314707Y-83221786D01*
X151314711Y-83221789D01*
X151445814Y-83309390D01*
X151445827Y-83309397D01*
X151591498Y-83369735D01*
X151591503Y-83369737D01*
X151656147Y-83382595D01*
X151746849Y-83400638D01*
X151808760Y-83433023D01*
X151810339Y-83434574D01*
X152976083Y-84600319D01*
X153009568Y-84661642D01*
X153004584Y-84731334D01*
X152962712Y-84787267D01*
X152897248Y-84811684D01*
X152888402Y-84812000D01*
X151232902Y-84812000D01*
X151165863Y-84792315D01*
X151120108Y-84739511D01*
X151111285Y-84712192D01*
X151094738Y-84629008D01*
X151094737Y-84629007D01*
X151094737Y-84629003D01*
X151041297Y-84499986D01*
X151034397Y-84483327D01*
X151034390Y-84483314D01*
X150946789Y-84352211D01*
X150946786Y-84352207D01*
X150835292Y-84240713D01*
X150835288Y-84240710D01*
X150704185Y-84153109D01*
X150704172Y-84153102D01*
X150558501Y-84092764D01*
X150558489Y-84092761D01*
X150403845Y-84062000D01*
X150403842Y-84062000D01*
X150401485Y-84062000D01*
X150400114Y-84061632D01*
X150397782Y-84061403D01*
X150397819Y-84061017D01*
X150385997Y-84057850D01*
X150372251Y-84058505D01*
X150339485Y-84045387D01*
X150312513Y-84029815D01*
X150260008Y-83999501D01*
X150244285Y-83990423D01*
X150091557Y-83949499D01*
X149933443Y-83949499D01*
X149925848Y-83949499D01*
X149925831Y-83949500D01*
X149686596Y-83949500D01*
X149619557Y-83929815D01*
X149573802Y-83877011D01*
X149563858Y-83807853D01*
X149592883Y-83744297D01*
X149598897Y-83737837D01*
X149633508Y-83703225D01*
X149633513Y-83703222D01*
X149643714Y-83693020D01*
X149643716Y-83693020D01*
X149755520Y-83581216D01*
X149789221Y-83522844D01*
X149806766Y-83492455D01*
X149834575Y-83444288D01*
X149834577Y-83444285D01*
X149870688Y-83309513D01*
X149894613Y-83262940D01*
X149896781Y-83260296D01*
X149896789Y-83260289D01*
X149984394Y-83129179D01*
X150044737Y-82983497D01*
X150075500Y-82828842D01*
X150075500Y-82671158D01*
X150075500Y-82671155D01*
X150075499Y-82671153D01*
X150054259Y-82564374D01*
X150044737Y-82516503D01*
X150013674Y-82441510D01*
X149984397Y-82370827D01*
X149984390Y-82370814D01*
X149896789Y-82239711D01*
X149896786Y-82239707D01*
X149785292Y-82128213D01*
X149785288Y-82128210D01*
X149654185Y-82040609D01*
X149654172Y-82040602D01*
X149508501Y-81980264D01*
X149508489Y-81980261D01*
X149353845Y-81949500D01*
X149353842Y-81949500D01*
X149196158Y-81949500D01*
X149196155Y-81949500D01*
X149041510Y-81980261D01*
X149041498Y-81980264D01*
X148895827Y-82040602D01*
X148895814Y-82040609D01*
X148764711Y-82128210D01*
X148764707Y-82128213D01*
X148653213Y-82239707D01*
X148653210Y-82239711D01*
X148565609Y-82370814D01*
X148565602Y-82370827D01*
X148505264Y-82516498D01*
X148505261Y-82516510D01*
X148474500Y-82671153D01*
X148474500Y-82828846D01*
X148505260Y-82983488D01*
X148505262Y-82983494D01*
X148505263Y-82983497D01*
X148517345Y-83012666D01*
X148524814Y-83082134D01*
X148493539Y-83144613D01*
X148490465Y-83147798D01*
X148212582Y-83425681D01*
X148151259Y-83459166D01*
X148124902Y-83462000D01*
X147952130Y-83462000D01*
X147952123Y-83462001D01*
X147892516Y-83468408D01*
X147757670Y-83518703D01*
X147751943Y-83521831D01*
X147692514Y-83537000D01*
X147056433Y-83537000D01*
X146997001Y-83521830D01*
X146992083Y-83519144D01*
X146857379Y-83468903D01*
X146857372Y-83468901D01*
X146797844Y-83462500D01*
X146548829Y-83462500D01*
X146481790Y-83442815D01*
X146436035Y-83390011D01*
X146426091Y-83320853D01*
X146455116Y-83257297D01*
X146501377Y-83223939D01*
X146584081Y-83189682D01*
X146584081Y-83189681D01*
X146584088Y-83189679D01*
X146715198Y-83102074D01*
X146826698Y-82990574D01*
X146914303Y-82859464D01*
X146974646Y-82713782D01*
X147005409Y-82559127D01*
X147005409Y-82401443D01*
X147005409Y-82401440D01*
X147005408Y-82401438D01*
X146989989Y-82323924D01*
X146974646Y-82246788D01*
X146969587Y-82234574D01*
X146914306Y-82101112D01*
X146914299Y-82101099D01*
X146826698Y-81969996D01*
X146826695Y-81969992D01*
X146715201Y-81858498D01*
X146715197Y-81858495D01*
X146584094Y-81770894D01*
X146584081Y-81770887D01*
X146438410Y-81710549D01*
X146438398Y-81710546D01*
X146283754Y-81679785D01*
X146283751Y-81679785D01*
X146126067Y-81679785D01*
X146126064Y-81679785D01*
X145971419Y-81710546D01*
X145971407Y-81710549D01*
X145825736Y-81770887D01*
X145825723Y-81770894D01*
X145694620Y-81858495D01*
X145694616Y-81858498D01*
X145583122Y-81969992D01*
X145583119Y-81969996D01*
X145495518Y-82101099D01*
X145495511Y-82101112D01*
X145435173Y-82246783D01*
X145435170Y-82246793D01*
X145432457Y-82260435D01*
X145400072Y-82322346D01*
X145339356Y-82356920D01*
X145269586Y-82353179D01*
X145223159Y-82323924D01*
X144737590Y-81838355D01*
X144737588Y-81838352D01*
X144618717Y-81719481D01*
X144618716Y-81719480D01*
X144531904Y-81669360D01*
X144531904Y-81669359D01*
X144531900Y-81669358D01*
X144481785Y-81640423D01*
X144329057Y-81599499D01*
X144170943Y-81599499D01*
X144163347Y-81599499D01*
X144163331Y-81599500D01*
X141225097Y-81599500D01*
X141158058Y-81579815D01*
X141137416Y-81563181D01*
X140959574Y-81385339D01*
X140926089Y-81324016D01*
X140925638Y-81321849D01*
X140894997Y-81167812D01*
X140894737Y-81166503D01*
X140894735Y-81166498D01*
X140834397Y-81020827D01*
X140834390Y-81020814D01*
X140746789Y-80889711D01*
X140746786Y-80889707D01*
X140635292Y-80778213D01*
X140635288Y-80778210D01*
X140504185Y-80690609D01*
X140504172Y-80690602D01*
X140358501Y-80630264D01*
X140358489Y-80630261D01*
X140203845Y-80599500D01*
X140203842Y-80599500D01*
X140046158Y-80599500D01*
X140046155Y-80599500D01*
X139891510Y-80630261D01*
X139891498Y-80630264D01*
X139745827Y-80690602D01*
X139745814Y-80690609D01*
X139614711Y-80778210D01*
X139614707Y-80778213D01*
X139503213Y-80889707D01*
X139503210Y-80889711D01*
X139415609Y-81020814D01*
X139415602Y-81020827D01*
X139355264Y-81166498D01*
X139355261Y-81166510D01*
X139324500Y-81321153D01*
X139324500Y-81478846D01*
X139355261Y-81633489D01*
X139355264Y-81633501D01*
X139415602Y-81779172D01*
X139415609Y-81779185D01*
X139503210Y-81910288D01*
X139503213Y-81910292D01*
X139614707Y-82021786D01*
X139614711Y-82021789D01*
X139745814Y-82109390D01*
X139745827Y-82109397D01*
X139879359Y-82164707D01*
X139891503Y-82169737D01*
X139956147Y-82182595D01*
X140046849Y-82200638D01*
X140108760Y-82233023D01*
X140110339Y-82234574D01*
X140440139Y-82564374D01*
X140440149Y-82564385D01*
X140444479Y-82568715D01*
X140444480Y-82568716D01*
X140556284Y-82680520D01*
X140613897Y-82713782D01*
X140643095Y-82730639D01*
X140643097Y-82730641D01*
X140676628Y-82750000D01*
X140693215Y-82759577D01*
X140845943Y-82800501D01*
X140845946Y-82800501D01*
X141011653Y-82800501D01*
X141011669Y-82800500D01*
X142438044Y-82800500D01*
X142505083Y-82820185D01*
X142550838Y-82872989D01*
X142560782Y-82942147D01*
X142531757Y-83005703D01*
X142477048Y-83042206D01*
X142330880Y-83090641D01*
X142330875Y-83090643D01*
X142181654Y-83182684D01*
X142057684Y-83306654D01*
X141965643Y-83455875D01*
X141965641Y-83455880D01*
X141910494Y-83622302D01*
X141910493Y-83622309D01*
X141900000Y-83725013D01*
X141900000Y-83862500D01*
X143001000Y-83862500D01*
X143068039Y-83882185D01*
X143113794Y-83934989D01*
X143125000Y-83986500D01*
X143125000Y-84238500D01*
X143105315Y-84305539D01*
X143052511Y-84351294D01*
X143001000Y-84362500D01*
X141900001Y-84362500D01*
X141900001Y-84499986D01*
X141910494Y-84602697D01*
X141965641Y-84769119D01*
X141965643Y-84769124D01*
X142057684Y-84918345D01*
X142181655Y-85042316D01*
X142181659Y-85042319D01*
X142184656Y-85044168D01*
X142186279Y-85045972D01*
X142187323Y-85046798D01*
X142187181Y-85046976D01*
X142231381Y-85096116D01*
X142242602Y-85165079D01*
X142214759Y-85229161D01*
X142184661Y-85255241D01*
X142181349Y-85257283D01*
X142181343Y-85257288D01*
X142057289Y-85381342D01*
X141965187Y-85530663D01*
X141965185Y-85530668D01*
X141938775Y-85610369D01*
X141910001Y-85697203D01*
X141910001Y-85697204D01*
X141910000Y-85697204D01*
X141899500Y-85799983D01*
X141899500Y-86575001D01*
X141899501Y-86575019D01*
X141910000Y-86677796D01*
X141910001Y-86677799D01*
X141965185Y-86844331D01*
X141965187Y-86844336D01*
X141986208Y-86878416D01*
X142057288Y-86993656D01*
X142181344Y-87117712D01*
X142315597Y-87200519D01*
X142362321Y-87252465D01*
X142374500Y-87306057D01*
X142374500Y-87873918D01*
X142374500Y-87873920D01*
X142374499Y-87873920D01*
X142403340Y-88018907D01*
X142403343Y-88018917D01*
X142459914Y-88155492D01*
X142492812Y-88204727D01*
X142492813Y-88204730D01*
X142542046Y-88278414D01*
X142542047Y-88278415D01*
X142542048Y-88278416D01*
X142828929Y-88565296D01*
X142855807Y-88605522D01*
X142865607Y-88629182D01*
X142953210Y-88760288D01*
X142953213Y-88760292D01*
X143064707Y-88871786D01*
X143064711Y-88871789D01*
X143195814Y-88959390D01*
X143195827Y-88959397D01*
X143330996Y-89015385D01*
X143341503Y-89019737D01*
X143496153Y-89050499D01*
X143496156Y-89050500D01*
X143496158Y-89050500D01*
X143653844Y-89050500D01*
X143653845Y-89050499D01*
X143808497Y-89019737D01*
X143954179Y-88959394D01*
X144085289Y-88871789D01*
X144196789Y-88760289D01*
X144284394Y-88629179D01*
X144344737Y-88483497D01*
X144375500Y-88328842D01*
X144375500Y-88171158D01*
X144375500Y-88171155D01*
X144375499Y-88171153D01*
X144351499Y-88050500D01*
X144344737Y-88016503D01*
X144305242Y-87921153D01*
X144284397Y-87870827D01*
X144284390Y-87870814D01*
X144196789Y-87739711D01*
X144196786Y-87739707D01*
X144085292Y-87628213D01*
X144085288Y-87628210D01*
X143954182Y-87540607D01*
X143954177Y-87540604D01*
X143952046Y-87539722D01*
X143951102Y-87538961D01*
X143948813Y-87537738D01*
X143949045Y-87537303D01*
X143936482Y-87527179D01*
X143918297Y-87518875D01*
X143909832Y-87505704D01*
X143897643Y-87495881D01*
X143891330Y-87476913D01*
X143880523Y-87460097D01*
X143876559Y-87432533D01*
X143875579Y-87429586D01*
X143875500Y-87425162D01*
X143875500Y-87306057D01*
X143895185Y-87239018D01*
X143934401Y-87200520D01*
X144068656Y-87117712D01*
X144192712Y-86993656D01*
X144284814Y-86844334D01*
X144339999Y-86677797D01*
X144350500Y-86575009D01*
X144350499Y-85799992D01*
X144343706Y-85733497D01*
X144339999Y-85697203D01*
X144339998Y-85697200D01*
X144301587Y-85581284D01*
X144284814Y-85530666D01*
X144192712Y-85381344D01*
X144068656Y-85257288D01*
X144065342Y-85255243D01*
X144063546Y-85253248D01*
X144062989Y-85252807D01*
X144063064Y-85252711D01*
X144018618Y-85203297D01*
X144007397Y-85134334D01*
X144035240Y-85070252D01*
X144065348Y-85044165D01*
X144068342Y-85042318D01*
X144192315Y-84918345D01*
X144284356Y-84769124D01*
X144284358Y-84769119D01*
X144339505Y-84602697D01*
X144339506Y-84602690D01*
X144349999Y-84499986D01*
X144349999Y-84310936D01*
X144350859Y-84308006D01*
X144350139Y-84305039D01*
X144360639Y-84274696D01*
X144369683Y-84243896D01*
X144371990Y-84241896D01*
X144372989Y-84239011D01*
X144398226Y-84219163D01*
X144422487Y-84198141D01*
X144425509Y-84197706D01*
X144427909Y-84195819D01*
X144459867Y-84192766D01*
X144491645Y-84188197D01*
X144494422Y-84189465D01*
X144497462Y-84189175D01*
X144526005Y-84203888D01*
X144555201Y-84217222D01*
X144557669Y-84220211D01*
X144559566Y-84221189D01*
X144581384Y-84248931D01*
X144590493Y-84264707D01*
X144590495Y-84264711D01*
X144644477Y-84358212D01*
X144644481Y-84358217D01*
X144763349Y-84477085D01*
X144763355Y-84477090D01*
X145417478Y-85131213D01*
X145417480Y-85131216D01*
X145451343Y-85165079D01*
X145463182Y-85176918D01*
X145474475Y-85197600D01*
X145496666Y-85238239D01*
X145499500Y-85264598D01*
X145499500Y-85610369D01*
X145499501Y-85610376D01*
X145505908Y-85669983D01*
X145556202Y-85804828D01*
X145556204Y-85804831D01*
X145599766Y-85863022D01*
X145624184Y-85928485D01*
X145624500Y-85937333D01*
X145624500Y-86723918D01*
X145624500Y-86723920D01*
X145624499Y-86723920D01*
X145653340Y-86868907D01*
X145653343Y-86868917D01*
X145709912Y-87005488D01*
X145709918Y-87005499D01*
X145720664Y-87021580D01*
X145720666Y-87021585D01*
X145792046Y-87128414D01*
X145792052Y-87128421D01*
X146478927Y-87815295D01*
X146505806Y-87855521D01*
X146515606Y-87879179D01*
X146515607Y-87879181D01*
X146603207Y-88010284D01*
X146603213Y-88010292D01*
X146714707Y-88121786D01*
X146714711Y-88121789D01*
X146845814Y-88209390D01*
X146845827Y-88209397D01*
X146991498Y-88269735D01*
X146991503Y-88269737D01*
X147146153Y-88300499D01*
X147146156Y-88300500D01*
X147146158Y-88300500D01*
X147303844Y-88300500D01*
X147303845Y-88300499D01*
X147458497Y-88269737D01*
X147604179Y-88209394D01*
X147735289Y-88121789D01*
X147846789Y-88010289D01*
X147934394Y-87879179D01*
X147946619Y-87849661D01*
X147958069Y-87828240D01*
X148015777Y-87741873D01*
X148040084Y-87705495D01*
X148096658Y-87568913D01*
X148109855Y-87502571D01*
X148125500Y-87423920D01*
X148125500Y-86186999D01*
X148145185Y-86119960D01*
X148197989Y-86074205D01*
X148249500Y-86062999D01*
X148797871Y-86062999D01*
X148797872Y-86062999D01*
X148857483Y-86056591D01*
X148953396Y-86020818D01*
X148996729Y-86013000D01*
X149409639Y-86013000D01*
X149476678Y-86032685D01*
X149522433Y-86085489D01*
X149531256Y-86112809D01*
X149555261Y-86233489D01*
X149555264Y-86233501D01*
X149615602Y-86379172D01*
X149615609Y-86379185D01*
X149703602Y-86510874D01*
X149724480Y-86577551D01*
X149724500Y-86579765D01*
X149724500Y-95995234D01*
X149704815Y-96062273D01*
X149703602Y-96064125D01*
X149615609Y-96195814D01*
X149615602Y-96195827D01*
X149555264Y-96341498D01*
X149555261Y-96341510D01*
X149524500Y-96496153D01*
X149524500Y-96653846D01*
X149555261Y-96808489D01*
X149555264Y-96808501D01*
X149615602Y-96954172D01*
X149615609Y-96954185D01*
X149703210Y-97085288D01*
X149703213Y-97085292D01*
X149814707Y-97196786D01*
X149814711Y-97196789D01*
X149945814Y-97284390D01*
X149945827Y-97284397D01*
X150091498Y-97344735D01*
X150091503Y-97344737D01*
X150246153Y-97375499D01*
X150246156Y-97375500D01*
X150246158Y-97375500D01*
X150403844Y-97375500D01*
X150403845Y-97375499D01*
X150558497Y-97344737D01*
X150704179Y-97284394D01*
X150835289Y-97196789D01*
X150946789Y-97085289D01*
X151034394Y-96954179D01*
X151094737Y-96808497D01*
X151125500Y-96653842D01*
X151125500Y-96496158D01*
X151125500Y-96496155D01*
X151125499Y-96496153D01*
X151101311Y-96374553D01*
X151094737Y-96341503D01*
X151094735Y-96341498D01*
X151034397Y-96195827D01*
X151034390Y-96195814D01*
X150946398Y-96064125D01*
X150940747Y-96046078D01*
X150930523Y-96030169D01*
X150926071Y-95999207D01*
X150925520Y-95997447D01*
X150925500Y-95995234D01*
X150925500Y-95846153D01*
X158949500Y-95846153D01*
X158949500Y-96003846D01*
X158980261Y-96158489D01*
X158980264Y-96158501D01*
X159040602Y-96304172D01*
X159040609Y-96304185D01*
X159128210Y-96435288D01*
X159128213Y-96435292D01*
X159239707Y-96546786D01*
X159239711Y-96546789D01*
X159370814Y-96634390D01*
X159370827Y-96634397D01*
X159470060Y-96675500D01*
X159516503Y-96694737D01*
X159671153Y-96725499D01*
X159671156Y-96725500D01*
X159671158Y-96725500D01*
X159828844Y-96725500D01*
X159828845Y-96725499D01*
X159905152Y-96710320D01*
X159983488Y-96694739D01*
X159983489Y-96694738D01*
X159983497Y-96694737D01*
X160007155Y-96684937D01*
X160054604Y-96675500D01*
X164887770Y-96675500D01*
X164954809Y-96695185D01*
X164975451Y-96711819D01*
X165345569Y-97081937D01*
X165379054Y-97143260D01*
X165380361Y-97189015D01*
X165349500Y-97383869D01*
X165349500Y-97616129D01*
X165385831Y-97845514D01*
X165457601Y-98066400D01*
X165536453Y-98221153D01*
X165563039Y-98273331D01*
X165699551Y-98461224D01*
X165863776Y-98625449D01*
X166051669Y-98761961D01*
X166146516Y-98810288D01*
X166258599Y-98867398D01*
X166258601Y-98867398D01*
X166258604Y-98867400D01*
X166479486Y-98939169D01*
X166597668Y-98957886D01*
X166708871Y-98975500D01*
X166708876Y-98975500D01*
X166941129Y-98975500D01*
X167042502Y-98959443D01*
X167170514Y-98939169D01*
X167391396Y-98867400D01*
X167598331Y-98761961D01*
X167786224Y-98625449D01*
X167950449Y-98461224D01*
X168086961Y-98273331D01*
X168192342Y-98066510D01*
X168192398Y-98066400D01*
X168192398Y-98066399D01*
X168192400Y-98066396D01*
X168264169Y-97845514D01*
X168284443Y-97717502D01*
X168300500Y-97616129D01*
X168300500Y-97383870D01*
X168281232Y-97262222D01*
X168264169Y-97154486D01*
X168192400Y-96933604D01*
X168192398Y-96933601D01*
X168192398Y-96933599D01*
X168128655Y-96808497D01*
X168086961Y-96726669D01*
X167950449Y-96538776D01*
X167786224Y-96374551D01*
X167598331Y-96238039D01*
X167515486Y-96195827D01*
X167391400Y-96132601D01*
X167170514Y-96060831D01*
X166941129Y-96024500D01*
X166941124Y-96024500D01*
X166708876Y-96024500D01*
X166708869Y-96024500D01*
X166514015Y-96055361D01*
X166444722Y-96046406D01*
X166406937Y-96020569D01*
X165728421Y-95342052D01*
X165728414Y-95342046D01*
X165654729Y-95292812D01*
X165654729Y-95292813D01*
X165605491Y-95259913D01*
X165468917Y-95203343D01*
X165468907Y-95203340D01*
X165323920Y-95174500D01*
X165323918Y-95174500D01*
X160054604Y-95174500D01*
X160007155Y-95165062D01*
X159983497Y-95155263D01*
X159983493Y-95155262D01*
X159983488Y-95155260D01*
X159828845Y-95124500D01*
X159828842Y-95124500D01*
X159671158Y-95124500D01*
X159671155Y-95124500D01*
X159516510Y-95155261D01*
X159516498Y-95155264D01*
X159370827Y-95215602D01*
X159370814Y-95215609D01*
X159239711Y-95303210D01*
X159239707Y-95303213D01*
X159128213Y-95414707D01*
X159128210Y-95414711D01*
X159040609Y-95545814D01*
X159040602Y-95545827D01*
X158980264Y-95691498D01*
X158980261Y-95691510D01*
X158949500Y-95846153D01*
X150925500Y-95846153D01*
X150925500Y-86579765D01*
X150945185Y-86512726D01*
X150946398Y-86510874D01*
X150965870Y-86481733D01*
X151034394Y-86379179D01*
X151094737Y-86233497D01*
X151114807Y-86132600D01*
X151118744Y-86112809D01*
X151151129Y-86050898D01*
X151211845Y-86016324D01*
X151240361Y-86013000D01*
X154337403Y-86013000D01*
X154404442Y-86032685D01*
X154425083Y-86049318D01*
X158856284Y-90480520D01*
X158856286Y-90480521D01*
X158856290Y-90480524D01*
X158993209Y-90559573D01*
X158993216Y-90559577D01*
X159145943Y-90600501D01*
X159145945Y-90600501D01*
X159311654Y-90600501D01*
X159311670Y-90600500D01*
X164024903Y-90600500D01*
X164091942Y-90620185D01*
X164112584Y-90636819D01*
X165392040Y-91916275D01*
X165425525Y-91977598D01*
X165422290Y-92042274D01*
X165385831Y-92154482D01*
X165385831Y-92154485D01*
X165349500Y-92383870D01*
X165349500Y-92616129D01*
X165385831Y-92845514D01*
X165457601Y-93066400D01*
X165563039Y-93273331D01*
X165699551Y-93461224D01*
X165863776Y-93625449D01*
X166051669Y-93761961D01*
X166149436Y-93811776D01*
X166258599Y-93867398D01*
X166258601Y-93867398D01*
X166258604Y-93867400D01*
X166479486Y-93939169D01*
X166597668Y-93957886D01*
X166708871Y-93975500D01*
X166708876Y-93975500D01*
X166941129Y-93975500D01*
X167170514Y-93939169D01*
X167189626Y-93932959D01*
X167282725Y-93902708D01*
X167352564Y-93900713D01*
X167408723Y-93932959D01*
X168588181Y-95112416D01*
X168621666Y-95173739D01*
X168624500Y-95200097D01*
X168624500Y-112549901D01*
X168604815Y-112616940D01*
X168588181Y-112637582D01*
X168511762Y-112714001D01*
X168450439Y-112747486D01*
X168380747Y-112742502D01*
X168324814Y-112700630D01*
X168300397Y-112635166D01*
X168300463Y-112616591D01*
X168300500Y-112616120D01*
X168300500Y-112383870D01*
X168272572Y-112207543D01*
X168264169Y-112154486D01*
X168192400Y-111933604D01*
X168192398Y-111933601D01*
X168192398Y-111933599D01*
X168086960Y-111726668D01*
X167950449Y-111538776D01*
X167786224Y-111374551D01*
X167598331Y-111238039D01*
X167530219Y-111203334D01*
X167391400Y-111132601D01*
X167170514Y-111060831D01*
X166941129Y-111024500D01*
X166941124Y-111024500D01*
X166708876Y-111024500D01*
X166708871Y-111024500D01*
X166479485Y-111060831D01*
X166258599Y-111132601D01*
X166051668Y-111238039D01*
X165863773Y-111374553D01*
X165699553Y-111538773D01*
X165563039Y-111726668D01*
X165457601Y-111933599D01*
X165385831Y-112154485D01*
X165349500Y-112383870D01*
X165349500Y-112616129D01*
X165385831Y-112845514D01*
X165385832Y-112845521D01*
X165422289Y-112957726D01*
X165424284Y-113027567D01*
X165392039Y-113083724D01*
X164462584Y-114013181D01*
X164401261Y-114046666D01*
X164374903Y-114049500D01*
X150699097Y-114049500D01*
X150632058Y-114029815D01*
X150586303Y-113977011D01*
X150576359Y-113907853D01*
X150605384Y-113844297D01*
X150611416Y-113837819D01*
X150968031Y-113481204D01*
X151383286Y-113065948D01*
X151444607Y-113032465D01*
X151446678Y-113032033D01*
X151508497Y-113019737D01*
X151654179Y-112959394D01*
X151785289Y-112871789D01*
X151896789Y-112760289D01*
X151984394Y-112629179D01*
X151989800Y-112616129D01*
X152044735Y-112483501D01*
X152044737Y-112483497D01*
X152075500Y-112328842D01*
X152075500Y-112171158D01*
X152075500Y-112171155D01*
X152075499Y-112171153D01*
X152072184Y-112154486D01*
X152044737Y-112016503D01*
X152044735Y-112016498D01*
X151984397Y-111870827D01*
X151984390Y-111870814D01*
X151896789Y-111739711D01*
X151896786Y-111739707D01*
X151780982Y-111623903D01*
X151782272Y-111622612D01*
X151747759Y-111571947D01*
X151745888Y-111502103D01*
X151778075Y-111446159D01*
X153143020Y-110081216D01*
X153143020Y-110081214D01*
X153153224Y-110071011D01*
X153153227Y-110071006D01*
X153897195Y-109327039D01*
X153958516Y-109293556D01*
X154010113Y-109295632D01*
X154010528Y-109293549D01*
X154171153Y-109325499D01*
X154171156Y-109325500D01*
X154171158Y-109325500D01*
X154328844Y-109325500D01*
X154328845Y-109325499D01*
X154483497Y-109294737D01*
X154629179Y-109234394D01*
X154760289Y-109146789D01*
X154785925Y-109121153D01*
X157624500Y-109121153D01*
X157624500Y-109278846D01*
X157655261Y-109433489D01*
X157655264Y-109433501D01*
X157715602Y-109579172D01*
X157715609Y-109579185D01*
X157803210Y-109710288D01*
X157803213Y-109710292D01*
X157914707Y-109821786D01*
X157914711Y-109821789D01*
X158045814Y-109909390D01*
X158045827Y-109909397D01*
X158145060Y-109950500D01*
X158191503Y-109969737D01*
X158346153Y-110000499D01*
X158346156Y-110000500D01*
X158346158Y-110000500D01*
X158503844Y-110000500D01*
X158503845Y-110000499D01*
X158580152Y-109985320D01*
X158658488Y-109969739D01*
X158658489Y-109969738D01*
X158658497Y-109969737D01*
X158682155Y-109959937D01*
X158729604Y-109950500D01*
X165198920Y-109950500D01*
X165296462Y-109931096D01*
X165343913Y-109921658D01*
X165480495Y-109865084D01*
X165545291Y-109821789D01*
X165545294Y-109821786D01*
X165545296Y-109821786D01*
X165577632Y-109800180D01*
X165603416Y-109782952D01*
X166406937Y-108979429D01*
X166468260Y-108945945D01*
X166514016Y-108944638D01*
X166708871Y-108975500D01*
X166708876Y-108975500D01*
X166941129Y-108975500D01*
X167042502Y-108959443D01*
X167170514Y-108939169D01*
X167391396Y-108867400D01*
X167598331Y-108761961D01*
X167786224Y-108625449D01*
X167950449Y-108461224D01*
X168086961Y-108273331D01*
X168192400Y-108066396D01*
X168264169Y-107845514D01*
X168284443Y-107717502D01*
X168300500Y-107616129D01*
X168300500Y-107383870D01*
X168281232Y-107262222D01*
X168264169Y-107154486D01*
X168192400Y-106933604D01*
X168192398Y-106933601D01*
X168192398Y-106933599D01*
X168086960Y-106726668D01*
X168060845Y-106690724D01*
X167950449Y-106538776D01*
X167786224Y-106374551D01*
X167598331Y-106238039D01*
X167589401Y-106233489D01*
X167391400Y-106132601D01*
X167170514Y-106060831D01*
X166941129Y-106024500D01*
X166941124Y-106024500D01*
X166708876Y-106024500D01*
X166708871Y-106024500D01*
X166479485Y-106060831D01*
X166258599Y-106132601D01*
X166051668Y-106238039D01*
X165863773Y-106374553D01*
X165699553Y-106538773D01*
X165563039Y-106726668D01*
X165457601Y-106933599D01*
X165385831Y-107154485D01*
X165349500Y-107383870D01*
X165349500Y-107616129D01*
X165380361Y-107810982D01*
X165371406Y-107880276D01*
X165345569Y-107918061D01*
X164850451Y-108413181D01*
X164789128Y-108446666D01*
X164762770Y-108449500D01*
X158729604Y-108449500D01*
X158682155Y-108440062D01*
X158658497Y-108430263D01*
X158658493Y-108430262D01*
X158658488Y-108430260D01*
X158503845Y-108399500D01*
X158503842Y-108399500D01*
X158346158Y-108399500D01*
X158346155Y-108399500D01*
X158191510Y-108430261D01*
X158191498Y-108430264D01*
X158045827Y-108490602D01*
X158045814Y-108490609D01*
X157914711Y-108578210D01*
X157914707Y-108578213D01*
X157803213Y-108689707D01*
X157803210Y-108689711D01*
X157715609Y-108820814D01*
X157715602Y-108820827D01*
X157655264Y-108966498D01*
X157655261Y-108966510D01*
X157624500Y-109121153D01*
X154785925Y-109121153D01*
X154871789Y-109035289D01*
X154959394Y-108904179D01*
X155019737Y-108758497D01*
X155050500Y-108603842D01*
X155050500Y-108446158D01*
X155050500Y-108446155D01*
X155050499Y-108446153D01*
X155029684Y-108341510D01*
X155019737Y-108291503D01*
X155012210Y-108273331D01*
X154959397Y-108145827D01*
X154959390Y-108145814D01*
X154871789Y-108014711D01*
X154871786Y-108014707D01*
X154760292Y-107903213D01*
X154760288Y-107903210D01*
X154629185Y-107815609D01*
X154629172Y-107815602D01*
X154483501Y-107755264D01*
X154483489Y-107755261D01*
X154328845Y-107724500D01*
X154328842Y-107724500D01*
X154171158Y-107724500D01*
X154171155Y-107724500D01*
X154016510Y-107755261D01*
X154016498Y-107755264D01*
X153870827Y-107815602D01*
X153870814Y-107815609D01*
X153739714Y-107903208D01*
X153739708Y-107903213D01*
X153722690Y-107920231D01*
X153667107Y-107952321D01*
X153633263Y-107961390D01*
X153618215Y-107965423D01*
X153618209Y-107965426D01*
X153481290Y-108044475D01*
X153481282Y-108044481D01*
X152750180Y-108775583D01*
X152688857Y-108809068D01*
X152619165Y-108804084D01*
X152574818Y-108775583D01*
X152012590Y-108213355D01*
X152012588Y-108213352D01*
X151893717Y-108094481D01*
X151893709Y-108094475D01*
X151764235Y-108019724D01*
X151764231Y-108019722D01*
X151756785Y-108015423D01*
X151604057Y-107974499D01*
X151445943Y-107974499D01*
X151438347Y-107974499D01*
X151438331Y-107974500D01*
X149699097Y-107974500D01*
X149632058Y-107954815D01*
X149586303Y-107902011D01*
X149576359Y-107832853D01*
X149605384Y-107769297D01*
X149611416Y-107762819D01*
X149758111Y-107616124D01*
X150683506Y-106690727D01*
X150683511Y-106690724D01*
X150693714Y-106680520D01*
X150693716Y-106680520D01*
X150805520Y-106568716D01*
X150884577Y-106431784D01*
X150925500Y-106279057D01*
X150925500Y-105921153D01*
X155274500Y-105921153D01*
X155274500Y-106078846D01*
X155305261Y-106233489D01*
X155305264Y-106233501D01*
X155365602Y-106379172D01*
X155365609Y-106379185D01*
X155453210Y-106510288D01*
X155453213Y-106510292D01*
X155564707Y-106621786D01*
X155564711Y-106621789D01*
X155695814Y-106709390D01*
X155695827Y-106709397D01*
X155841498Y-106769735D01*
X155841503Y-106769737D01*
X155996153Y-106800499D01*
X155996156Y-106800500D01*
X155996158Y-106800500D01*
X156153844Y-106800500D01*
X156153845Y-106800499D01*
X156308497Y-106769737D01*
X156454179Y-106709394D01*
X156585289Y-106621789D01*
X156657430Y-106549646D01*
X156683114Y-106529941D01*
X156707260Y-106516002D01*
X156768709Y-106480524D01*
X156768708Y-106480524D01*
X156768716Y-106480520D01*
X156880520Y-106368716D01*
X156880520Y-106368714D01*
X156890724Y-106358511D01*
X156890727Y-106358506D01*
X158662417Y-104586819D01*
X158723740Y-104553334D01*
X158750098Y-104550500D01*
X165288331Y-104550500D01*
X165288347Y-104550501D01*
X165295943Y-104550501D01*
X165454054Y-104550501D01*
X165454057Y-104550501D01*
X165606785Y-104509577D01*
X165656904Y-104480639D01*
X165743716Y-104430520D01*
X165855520Y-104318716D01*
X165855520Y-104318714D01*
X165865728Y-104308507D01*
X165865729Y-104308504D01*
X166241276Y-103932957D01*
X166302598Y-103899474D01*
X166367273Y-103902708D01*
X166425560Y-103921647D01*
X166479485Y-103939169D01*
X166708871Y-103975500D01*
X166708876Y-103975500D01*
X166941129Y-103975500D01*
X167042502Y-103959443D01*
X167170514Y-103939169D01*
X167391396Y-103867400D01*
X167598331Y-103761961D01*
X167786224Y-103625449D01*
X167950449Y-103461224D01*
X168086961Y-103273331D01*
X168192400Y-103066396D01*
X168264169Y-102845514D01*
X168284443Y-102717502D01*
X168300500Y-102616129D01*
X168300500Y-102383870D01*
X168280784Y-102259394D01*
X168264169Y-102154486D01*
X168192400Y-101933604D01*
X168192398Y-101933601D01*
X168192398Y-101933599D01*
X168086960Y-101726668D01*
X168026469Y-101643409D01*
X167950449Y-101538776D01*
X167786224Y-101374551D01*
X167598331Y-101238039D01*
X167391400Y-101132601D01*
X167170514Y-101060831D01*
X166941129Y-101024500D01*
X166941124Y-101024500D01*
X166708876Y-101024500D01*
X166708871Y-101024500D01*
X166479485Y-101060831D01*
X166258599Y-101132601D01*
X166051668Y-101238039D01*
X165863773Y-101374553D01*
X165699553Y-101538773D01*
X165563039Y-101726668D01*
X165457601Y-101933599D01*
X165385831Y-102154485D01*
X165349500Y-102383870D01*
X165349500Y-102616129D01*
X165385831Y-102845514D01*
X165385831Y-102845517D01*
X165422289Y-102957723D01*
X165424284Y-103027565D01*
X165392040Y-103083722D01*
X165162584Y-103313181D01*
X165101261Y-103346666D01*
X165074902Y-103349500D01*
X158536670Y-103349500D01*
X158536654Y-103349499D01*
X158529058Y-103349499D01*
X158370943Y-103349499D01*
X158218215Y-103390423D01*
X158095581Y-103461226D01*
X158081281Y-103469482D01*
X156365376Y-105185387D01*
X156304053Y-105218872D01*
X156253504Y-105219323D01*
X156153846Y-105199500D01*
X156153842Y-105199500D01*
X155996158Y-105199500D01*
X155996155Y-105199500D01*
X155841510Y-105230261D01*
X155841498Y-105230264D01*
X155695827Y-105290602D01*
X155695814Y-105290609D01*
X155564711Y-105378210D01*
X155564707Y-105378213D01*
X155453213Y-105489707D01*
X155453210Y-105489711D01*
X155365609Y-105620814D01*
X155365602Y-105620827D01*
X155305264Y-105766498D01*
X155305261Y-105766510D01*
X155274500Y-105921153D01*
X150925500Y-105921153D01*
X150925500Y-100329765D01*
X150945185Y-100262726D01*
X150946398Y-100260874D01*
X151034390Y-100129185D01*
X151034390Y-100129184D01*
X151034394Y-100129179D01*
X151094737Y-99983497D01*
X151125500Y-99828842D01*
X151125500Y-99671158D01*
X151125500Y-99671155D01*
X151125499Y-99671153D01*
X151094738Y-99516510D01*
X151094737Y-99516503D01*
X151094735Y-99516498D01*
X151034397Y-99370827D01*
X151034390Y-99370814D01*
X150946789Y-99239711D01*
X150946786Y-99239707D01*
X150835292Y-99128213D01*
X150835288Y-99128210D01*
X150704185Y-99040609D01*
X150704172Y-99040602D01*
X150558501Y-98980264D01*
X150558489Y-98980261D01*
X150403845Y-98949500D01*
X150403842Y-98949500D01*
X150246158Y-98949500D01*
X150246155Y-98949500D01*
X150091510Y-98980261D01*
X150091498Y-98980264D01*
X149945827Y-99040602D01*
X149945814Y-99040609D01*
X149814711Y-99128210D01*
X149814707Y-99128213D01*
X149703213Y-99239707D01*
X149703210Y-99239711D01*
X149615609Y-99370814D01*
X149615602Y-99370827D01*
X149555264Y-99516498D01*
X149555261Y-99516510D01*
X149524500Y-99671153D01*
X149524500Y-99828846D01*
X149555261Y-99983489D01*
X149555264Y-99983501D01*
X149615602Y-100129172D01*
X149615609Y-100129185D01*
X149703602Y-100260874D01*
X149724480Y-100327551D01*
X149724500Y-100329765D01*
X149724500Y-105899903D01*
X149704815Y-105966942D01*
X149688181Y-105987584D01*
X149487181Y-106188584D01*
X149425858Y-106222069D01*
X149356166Y-106217085D01*
X149300233Y-106175213D01*
X149275816Y-106109749D01*
X149275500Y-106100903D01*
X149275500Y-101164060D01*
X149275501Y-101164047D01*
X149275501Y-100995944D01*
X149257352Y-100928211D01*
X149234577Y-100843216D01*
X149198232Y-100780264D01*
X149155524Y-100706290D01*
X149155518Y-100706282D01*
X135187590Y-86738355D01*
X135187588Y-86738352D01*
X135068717Y-86619481D01*
X135068716Y-86619480D01*
X134981904Y-86569360D01*
X134981904Y-86569359D01*
X134981900Y-86569358D01*
X134931785Y-86540423D01*
X134779057Y-86499499D01*
X134620943Y-86499499D01*
X134613347Y-86499499D01*
X134613331Y-86499500D01*
X133504766Y-86499500D01*
X133486620Y-86494171D01*
X133467713Y-86493834D01*
X133439496Y-86480334D01*
X133437727Y-86479815D01*
X133435875Y-86478602D01*
X133327571Y-86406235D01*
X133282766Y-86352623D01*
X133274059Y-86283298D01*
X133304214Y-86220270D01*
X133308762Y-86215471D01*
X136212416Y-83311819D01*
X136273739Y-83278334D01*
X136300097Y-83275500D01*
X136620234Y-83275500D01*
X136687273Y-83295185D01*
X136689125Y-83296398D01*
X136820814Y-83384390D01*
X136820827Y-83384397D01*
X136941967Y-83434574D01*
X136966503Y-83444737D01*
X137087983Y-83468901D01*
X137121153Y-83475499D01*
X137121156Y-83475500D01*
X137121158Y-83475500D01*
X137278844Y-83475500D01*
X137278845Y-83475499D01*
X137433497Y-83444737D01*
X137579179Y-83384394D01*
X137710289Y-83296789D01*
X137821789Y-83185289D01*
X137909394Y-83054179D01*
X137969737Y-82908497D01*
X138000500Y-82753842D01*
X138000500Y-82596158D01*
X138000500Y-82596155D01*
X138000499Y-82596153D01*
X137991570Y-82551264D01*
X137969737Y-82441503D01*
X137953144Y-82401443D01*
X137909397Y-82295827D01*
X137909390Y-82295814D01*
X137821789Y-82164711D01*
X137821786Y-82164707D01*
X137710292Y-82053213D01*
X137710288Y-82053210D01*
X137579185Y-81965609D01*
X137579172Y-81965602D01*
X137433501Y-81905264D01*
X137433491Y-81905261D01*
X137278151Y-81874362D01*
X137216241Y-81841977D01*
X137214662Y-81840426D01*
X136993717Y-81619481D01*
X136993716Y-81619480D01*
X136906904Y-81569360D01*
X136906904Y-81569359D01*
X136906900Y-81569358D01*
X136856785Y-81540423D01*
X136704057Y-81499499D01*
X136545943Y-81499499D01*
X136538347Y-81499499D01*
X136538331Y-81499500D01*
X130361670Y-81499500D01*
X130361654Y-81499499D01*
X130354058Y-81499499D01*
X130195943Y-81499499D01*
X130119579Y-81519961D01*
X130043214Y-81540423D01*
X130043209Y-81540426D01*
X129906290Y-81619475D01*
X129906282Y-81619481D01*
X128212582Y-83313181D01*
X128151259Y-83346666D01*
X128124902Y-83349500D01*
X127952130Y-83349500D01*
X127952123Y-83349501D01*
X127892516Y-83355908D01*
X127757670Y-83406203D01*
X127751943Y-83409331D01*
X127692514Y-83424500D01*
X127056433Y-83424500D01*
X126997001Y-83409330D01*
X126992083Y-83406644D01*
X126857379Y-83356403D01*
X126857372Y-83356401D01*
X126797844Y-83350000D01*
X126525000Y-83350000D01*
X126525000Y-83743959D01*
X126523984Y-83749588D01*
X126524684Y-83752804D01*
X126517182Y-83787292D01*
X126505418Y-83818833D01*
X126463547Y-83874767D01*
X126398083Y-83899184D01*
X126389236Y-83899500D01*
X126349000Y-83899500D01*
X126281961Y-83879815D01*
X126236206Y-83827011D01*
X126225000Y-83775500D01*
X126225000Y-83350000D01*
X125952155Y-83350000D01*
X125892627Y-83356401D01*
X125892620Y-83356403D01*
X125757913Y-83406645D01*
X125757906Y-83406649D01*
X125642812Y-83492809D01*
X125642809Y-83492812D01*
X125556649Y-83607906D01*
X125556645Y-83607913D01*
X125506403Y-83742620D01*
X125506401Y-83742626D01*
X125500114Y-83801099D01*
X125473375Y-83865649D01*
X125415982Y-83905496D01*
X125401017Y-83909458D01*
X125306092Y-83928340D01*
X125306082Y-83928343D01*
X125169511Y-83984912D01*
X125169498Y-83984919D01*
X125046584Y-84067048D01*
X125046580Y-84067051D01*
X123931431Y-85182200D01*
X123926218Y-85185046D01*
X123922898Y-85189974D01*
X123895900Y-85201601D01*
X123870108Y-85215685D01*
X123864182Y-85215261D01*
X123858727Y-85217611D01*
X123829734Y-85212797D01*
X123800416Y-85210701D01*
X123794148Y-85206889D01*
X123789801Y-85206168D01*
X123771031Y-85192831D01*
X123760531Y-85186446D01*
X123758240Y-85184372D01*
X123718656Y-85144788D01*
X123705658Y-85136770D01*
X123697221Y-85129133D01*
X123684680Y-85108655D01*
X123668618Y-85090797D01*
X123666762Y-85079396D01*
X123660732Y-85069548D01*
X123661253Y-85045537D01*
X123657397Y-85021834D01*
X123661999Y-85011242D01*
X123662250Y-84999695D01*
X123675670Y-84979777D01*
X123685240Y-84957752D01*
X123697903Y-84946779D01*
X123701292Y-84941751D01*
X123706094Y-84939682D01*
X123715348Y-84931665D01*
X123718342Y-84929818D01*
X123842315Y-84805845D01*
X123934356Y-84656624D01*
X123934358Y-84656619D01*
X123989505Y-84490197D01*
X123989506Y-84490190D01*
X123999999Y-84387486D01*
X124000000Y-84387473D01*
X124000000Y-84250000D01*
X121550001Y-84250000D01*
X121550001Y-84387486D01*
X121560494Y-84490197D01*
X121615641Y-84656619D01*
X121615643Y-84656624D01*
X121707684Y-84805845D01*
X121831655Y-84929816D01*
X121831659Y-84929819D01*
X121834656Y-84931668D01*
X121836279Y-84933472D01*
X121837323Y-84934298D01*
X121837181Y-84934476D01*
X121881381Y-84983616D01*
X121892602Y-85052579D01*
X121864759Y-85116661D01*
X121834661Y-85142741D01*
X121831349Y-85144783D01*
X121831343Y-85144788D01*
X121707289Y-85268842D01*
X121615187Y-85418163D01*
X121615186Y-85418166D01*
X121560001Y-85584703D01*
X121560001Y-85584704D01*
X121560000Y-85584704D01*
X121549500Y-85687483D01*
X121549500Y-86462501D01*
X121549501Y-86462519D01*
X121560000Y-86565296D01*
X121560001Y-86565299D01*
X121615185Y-86731831D01*
X121615187Y-86731836D01*
X121620276Y-86740087D01*
X121707288Y-86881156D01*
X121831344Y-87005212D01*
X121965597Y-87088019D01*
X122012321Y-87139965D01*
X122024500Y-87193557D01*
X122024500Y-87723918D01*
X122024500Y-87723920D01*
X122024499Y-87723920D01*
X122053340Y-87868907D01*
X122053341Y-87868909D01*
X122053342Y-87868913D01*
X122057540Y-87879048D01*
X122065009Y-87948516D01*
X122033735Y-88010995D01*
X121973646Y-88046648D01*
X121942979Y-88050500D01*
X118676097Y-88050500D01*
X118609058Y-88030815D01*
X118588416Y-88014181D01*
X118212590Y-87638355D01*
X118212588Y-87638352D01*
X118093717Y-87519481D01*
X118093712Y-87519477D01*
X118008106Y-87470053D01*
X117982428Y-87450350D01*
X117910289Y-87378211D01*
X117910288Y-87378210D01*
X117910287Y-87378209D01*
X117779185Y-87290609D01*
X117779172Y-87290602D01*
X117633501Y-87230264D01*
X117633489Y-87230261D01*
X117478845Y-87199500D01*
X117478842Y-87199500D01*
X117321158Y-87199500D01*
X117321155Y-87199500D01*
X117166510Y-87230261D01*
X117166498Y-87230264D01*
X117020827Y-87290602D01*
X117020814Y-87290609D01*
X116889711Y-87378210D01*
X116889707Y-87378213D01*
X116778213Y-87489707D01*
X116778210Y-87489711D01*
X116690609Y-87620814D01*
X116690602Y-87620827D01*
X116630264Y-87766498D01*
X116630261Y-87766510D01*
X116599500Y-87921153D01*
X112375500Y-87921153D01*
X112375500Y-85679054D01*
X114724498Y-85679054D01*
X114763215Y-85823547D01*
X114765423Y-85831785D01*
X114786962Y-85869091D01*
X114844480Y-85968716D01*
X114915107Y-86039343D01*
X114920461Y-86046516D01*
X114929632Y-86071212D01*
X114942255Y-86094329D01*
X114941602Y-86103446D01*
X114944785Y-86112015D01*
X114939150Y-86137742D01*
X114937271Y-86164021D01*
X114935651Y-86168138D01*
X114905263Y-86241503D01*
X114905261Y-86241510D01*
X114874500Y-86396153D01*
X114874500Y-86553846D01*
X114905261Y-86708489D01*
X114905264Y-86708501D01*
X114965602Y-86854172D01*
X114965609Y-86854185D01*
X115053210Y-86985288D01*
X115053213Y-86985292D01*
X115164707Y-87096786D01*
X115164711Y-87096789D01*
X115295814Y-87184390D01*
X115295827Y-87184397D01*
X115427696Y-87239018D01*
X115441503Y-87244737D01*
X115596153Y-87275499D01*
X115596156Y-87275500D01*
X115596158Y-87275500D01*
X115753844Y-87275500D01*
X115753845Y-87275499D01*
X115908497Y-87244737D01*
X116054179Y-87184394D01*
X116185289Y-87096789D01*
X116296789Y-86985289D01*
X116384394Y-86854179D01*
X116444737Y-86708497D01*
X116475500Y-86553842D01*
X116475500Y-86396158D01*
X116475500Y-86396155D01*
X116475499Y-86396153D01*
X116461893Y-86327753D01*
X116444737Y-86241503D01*
X116443302Y-86238039D01*
X116384397Y-86095827D01*
X116384390Y-86095814D01*
X116296399Y-85964126D01*
X116275521Y-85897448D01*
X116275501Y-85895235D01*
X116275501Y-85870944D01*
X116275033Y-85869197D01*
X116234577Y-85718216D01*
X116219635Y-85692335D01*
X116155524Y-85581290D01*
X116155518Y-85581282D01*
X115961819Y-85387583D01*
X115928334Y-85326260D01*
X115925500Y-85299902D01*
X115925500Y-83612513D01*
X121550000Y-83612513D01*
X121550000Y-83750000D01*
X122525000Y-83750000D01*
X123025000Y-83750000D01*
X123999999Y-83750000D01*
X123999999Y-83612528D01*
X123999998Y-83612513D01*
X123989505Y-83509802D01*
X123934358Y-83343380D01*
X123934356Y-83343375D01*
X123842315Y-83194154D01*
X123718345Y-83070184D01*
X123569124Y-82978143D01*
X123569119Y-82978141D01*
X123402697Y-82922994D01*
X123402690Y-82922993D01*
X123299986Y-82912500D01*
X123025000Y-82912500D01*
X123025000Y-83750000D01*
X122525000Y-83750000D01*
X122525000Y-82912500D01*
X122250029Y-82912500D01*
X122250012Y-82912501D01*
X122147302Y-82922994D01*
X121980880Y-82978141D01*
X121980875Y-82978143D01*
X121831654Y-83070184D01*
X121707684Y-83194154D01*
X121615643Y-83343375D01*
X121615641Y-83343380D01*
X121560494Y-83509802D01*
X121560493Y-83509809D01*
X121550000Y-83612513D01*
X115925500Y-83612513D01*
X115925500Y-81800097D01*
X115945185Y-81733058D01*
X115961819Y-81712416D01*
X120787416Y-76886819D01*
X120848739Y-76853334D01*
X120875097Y-76850500D01*
X145474903Y-76850500D01*
X145541942Y-76870185D01*
X145562584Y-76886819D01*
X149013181Y-80337416D01*
X149046666Y-80398739D01*
X149049500Y-80425097D01*
X149049500Y-80428846D01*
X149080261Y-80583489D01*
X149080264Y-80583501D01*
X149140602Y-80729172D01*
X149140609Y-80729185D01*
X149228210Y-80860288D01*
X149228213Y-80860292D01*
X149339707Y-80971786D01*
X149339711Y-80971789D01*
X149470814Y-81059390D01*
X149470827Y-81059397D01*
X149616498Y-81119735D01*
X149616503Y-81119737D01*
X149771153Y-81150499D01*
X149771156Y-81150500D01*
X149771158Y-81150500D01*
X149928844Y-81150500D01*
X149928845Y-81150499D01*
X150083497Y-81119737D01*
X150229179Y-81059394D01*
X150360289Y-80971789D01*
X150471789Y-80860289D01*
X150559394Y-80729179D01*
X150566297Y-80712513D01*
X155250000Y-80712513D01*
X155250000Y-80850000D01*
X156225000Y-80850000D01*
X156725000Y-80850000D01*
X157699999Y-80850000D01*
X157699999Y-80712528D01*
X157699998Y-80712513D01*
X157689505Y-80609802D01*
X157634358Y-80443380D01*
X157634356Y-80443375D01*
X157542315Y-80294154D01*
X157418345Y-80170184D01*
X157269124Y-80078143D01*
X157269119Y-80078141D01*
X157102697Y-80022994D01*
X157102690Y-80022993D01*
X156999986Y-80012500D01*
X156725000Y-80012500D01*
X156725000Y-80850000D01*
X156225000Y-80850000D01*
X156225000Y-80012500D01*
X155950029Y-80012500D01*
X155950012Y-80012501D01*
X155847302Y-80022994D01*
X155680880Y-80078141D01*
X155680875Y-80078143D01*
X155531654Y-80170184D01*
X155407684Y-80294154D01*
X155315643Y-80443375D01*
X155315641Y-80443380D01*
X155260494Y-80609802D01*
X155260493Y-80609809D01*
X155250000Y-80712513D01*
X150566297Y-80712513D01*
X150575370Y-80690609D01*
X150587257Y-80661912D01*
X150619735Y-80583501D01*
X150619737Y-80583497D01*
X150650500Y-80428842D01*
X150650500Y-80271158D01*
X150650500Y-80271155D01*
X150650499Y-80271153D01*
X150619738Y-80116510D01*
X150619737Y-80116503D01*
X150581005Y-80022994D01*
X150559397Y-79970827D01*
X150559390Y-79970814D01*
X150471789Y-79839711D01*
X150471786Y-79839707D01*
X150360292Y-79728213D01*
X150360288Y-79728210D01*
X150229185Y-79640609D01*
X150229172Y-79640602D01*
X150083501Y-79580264D01*
X150083491Y-79580261D01*
X149959357Y-79555569D01*
X149897446Y-79523184D01*
X149895868Y-79521633D01*
X146262590Y-75888355D01*
X146262588Y-75888352D01*
X146143717Y-75769481D01*
X146143716Y-75769480D01*
X146056904Y-75719360D01*
X146056904Y-75719359D01*
X146056900Y-75719358D01*
X146006785Y-75690423D01*
X145854057Y-75649499D01*
X145695943Y-75649499D01*
X145688347Y-75649499D01*
X145688331Y-75649500D01*
X120654057Y-75649500D01*
X120495942Y-75649500D01*
X120343215Y-75690423D01*
X120343214Y-75690423D01*
X120343212Y-75690424D01*
X120343209Y-75690425D01*
X120293096Y-75719359D01*
X120293095Y-75719360D01*
X120249689Y-75744420D01*
X120206285Y-75769479D01*
X120206282Y-75769481D01*
X114844481Y-81131282D01*
X114844479Y-81131285D01*
X114798887Y-81210255D01*
X114798885Y-81210257D01*
X114765425Y-81268209D01*
X114765423Y-81268212D01*
X114750471Y-81324016D01*
X114724499Y-81420943D01*
X114724499Y-81579057D01*
X114724499Y-81579059D01*
X114724500Y-81589053D01*
X114724500Y-85513330D01*
X114724499Y-85513348D01*
X114724499Y-85679054D01*
X114724498Y-85679054D01*
X112375500Y-85679054D01*
X112375500Y-74543713D01*
X116024500Y-74543713D01*
X116024500Y-74756286D01*
X116057753Y-74966239D01*
X116123444Y-75168414D01*
X116219951Y-75357820D01*
X116344890Y-75529786D01*
X116495213Y-75680109D01*
X116667179Y-75805048D01*
X116667181Y-75805049D01*
X116667184Y-75805051D01*
X116856588Y-75901557D01*
X117058757Y-75967246D01*
X117268713Y-76000500D01*
X117268714Y-76000500D01*
X117481286Y-76000500D01*
X117481287Y-76000500D01*
X117691243Y-75967246D01*
X117893412Y-75901557D01*
X118082816Y-75805051D01*
X118131777Y-75769479D01*
X118254786Y-75680109D01*
X118254788Y-75680106D01*
X118254792Y-75680104D01*
X118405104Y-75529792D01*
X118405106Y-75529788D01*
X118405109Y-75529786D01*
X118530048Y-75357820D01*
X118530047Y-75357820D01*
X118530051Y-75357816D01*
X118626557Y-75168412D01*
X118692246Y-74966243D01*
X118725500Y-74756287D01*
X118725500Y-74543713D01*
X166024500Y-74543713D01*
X166024500Y-74756286D01*
X166057753Y-74966239D01*
X166123444Y-75168414D01*
X166219951Y-75357820D01*
X166344890Y-75529786D01*
X166495213Y-75680109D01*
X166667179Y-75805048D01*
X166667181Y-75805049D01*
X166667184Y-75805051D01*
X166856588Y-75901557D01*
X167058757Y-75967246D01*
X167268713Y-76000500D01*
X167268714Y-76000500D01*
X167481286Y-76000500D01*
X167481287Y-76000500D01*
X167691243Y-75967246D01*
X167893412Y-75901557D01*
X168082816Y-75805051D01*
X168131777Y-75769479D01*
X168254786Y-75680109D01*
X168254788Y-75680106D01*
X168254792Y-75680104D01*
X168405104Y-75529792D01*
X168405106Y-75529788D01*
X168405109Y-75529786D01*
X168530048Y-75357820D01*
X168530047Y-75357820D01*
X168530051Y-75357816D01*
X168626557Y-75168412D01*
X168692246Y-74966243D01*
X168725500Y-74756287D01*
X168725500Y-74543713D01*
X168692246Y-74333757D01*
X168626557Y-74131588D01*
X168530051Y-73942184D01*
X168530049Y-73942181D01*
X168530048Y-73942179D01*
X168405109Y-73770213D01*
X168254786Y-73619890D01*
X168082820Y-73494951D01*
X167893414Y-73398444D01*
X167893413Y-73398443D01*
X167893412Y-73398443D01*
X167691243Y-73332754D01*
X167691241Y-73332753D01*
X167691240Y-73332753D01*
X167529957Y-73307208D01*
X167481287Y-73299500D01*
X167268713Y-73299500D01*
X167220042Y-73307208D01*
X167058760Y-73332753D01*
X166856585Y-73398444D01*
X166667179Y-73494951D01*
X166495213Y-73619890D01*
X166344890Y-73770213D01*
X166219951Y-73942179D01*
X166123444Y-74131585D01*
X166057753Y-74333760D01*
X166024500Y-74543713D01*
X118725500Y-74543713D01*
X118692246Y-74333757D01*
X118626557Y-74131588D01*
X118530051Y-73942184D01*
X118530049Y-73942181D01*
X118530048Y-73942179D01*
X118405109Y-73770213D01*
X118254786Y-73619890D01*
X118082820Y-73494951D01*
X117893414Y-73398444D01*
X117893413Y-73398443D01*
X117893412Y-73398443D01*
X117691243Y-73332754D01*
X117691241Y-73332753D01*
X117691240Y-73332753D01*
X117529957Y-73307208D01*
X117481287Y-73299500D01*
X117268713Y-73299500D01*
X117220042Y-73307208D01*
X117058760Y-73332753D01*
X116856585Y-73398444D01*
X116667179Y-73494951D01*
X116495213Y-73619890D01*
X116344890Y-73770213D01*
X116219951Y-73942179D01*
X116123444Y-74131585D01*
X116057753Y-74333760D01*
X116024500Y-74543713D01*
X112375500Y-74543713D01*
X112375500Y-69774500D01*
X112395185Y-69707461D01*
X112447989Y-69661706D01*
X112499500Y-69650500D01*
X172250500Y-69650500D01*
X172317539Y-69670185D01*
G37*
%TD.AperFunction*%
%TD*%
M02*
