%TF.GenerationSoftware,KiCad,Pcbnew,9.0.7*%
%TF.CreationDate,2026-03-08T21:33:58-03:00*%
%TF.ProjectId,SatellitePCB_OPT,53617465-6c6c-4697-9465-5043425f4f50,rev?*%
%TF.SameCoordinates,Original*%
%TF.FileFunction,Legend,Top*%
%TF.FilePolarity,Positive*%
%FSLAX46Y46*%
G04 Gerber Fmt 4.6, Leading zero omitted, Abs format (unit mm)*
G04 Created by KiCad (PCBNEW 9.0.7) date 2026-03-08 21:33:58*
%MOMM*%
%LPD*%
G01*
G04 APERTURE LIST*
%ADD10C,0.152400*%
%ADD11C,0.254000*%
%ADD12C,0.150000*%
%ADD13C,0.100000*%
%ADD14C,0.200000*%
%ADD15C,0.250000*%
%ADD16C,0.120000*%
G04 APERTURE END LIST*
D10*
X159177672Y-81794694D02*
X159448605Y-82794694D01*
X159448605Y-82794694D02*
X159719539Y-81794694D01*
X159990472Y-82794694D02*
X159990472Y-81794694D01*
X159990472Y-81794694D02*
X160183996Y-81794694D01*
X160183996Y-81794694D02*
X160300110Y-81842313D01*
X160300110Y-81842313D02*
X160377520Y-81937551D01*
X160377520Y-81937551D02*
X160416225Y-82032789D01*
X160416225Y-82032789D02*
X160454929Y-82223265D01*
X160454929Y-82223265D02*
X160454929Y-82366122D01*
X160454929Y-82366122D02*
X160416225Y-82556598D01*
X160416225Y-82556598D02*
X160377520Y-82651836D01*
X160377520Y-82651836D02*
X160300110Y-82747075D01*
X160300110Y-82747075D02*
X160183996Y-82794694D01*
X160183996Y-82794694D02*
X159990472Y-82794694D01*
X160803272Y-82794694D02*
X160803272Y-81794694D01*
X160803272Y-81794694D02*
X160996796Y-81794694D01*
X160996796Y-81794694D02*
X161112910Y-81842313D01*
X161112910Y-81842313D02*
X161190320Y-81937551D01*
X161190320Y-81937551D02*
X161229025Y-82032789D01*
X161229025Y-82032789D02*
X161267729Y-82223265D01*
X161267729Y-82223265D02*
X161267729Y-82366122D01*
X161267729Y-82366122D02*
X161229025Y-82556598D01*
X161229025Y-82556598D02*
X161190320Y-82651836D01*
X161190320Y-82651836D02*
X161112910Y-82747075D01*
X161112910Y-82747075D02*
X160996796Y-82794694D01*
X160996796Y-82794694D02*
X160803272Y-82794694D01*
X159544539Y-117092313D02*
X159467129Y-117044694D01*
X159467129Y-117044694D02*
X159351015Y-117044694D01*
X159351015Y-117044694D02*
X159234901Y-117092313D01*
X159234901Y-117092313D02*
X159157491Y-117187551D01*
X159157491Y-117187551D02*
X159118786Y-117282789D01*
X159118786Y-117282789D02*
X159080082Y-117473265D01*
X159080082Y-117473265D02*
X159080082Y-117616122D01*
X159080082Y-117616122D02*
X159118786Y-117806598D01*
X159118786Y-117806598D02*
X159157491Y-117901836D01*
X159157491Y-117901836D02*
X159234901Y-117997075D01*
X159234901Y-117997075D02*
X159351015Y-118044694D01*
X159351015Y-118044694D02*
X159428424Y-118044694D01*
X159428424Y-118044694D02*
X159544539Y-117997075D01*
X159544539Y-117997075D02*
X159583243Y-117949455D01*
X159583243Y-117949455D02*
X159583243Y-117616122D01*
X159583243Y-117616122D02*
X159428424Y-117616122D01*
X159931586Y-118044694D02*
X159931586Y-117044694D01*
X159931586Y-117044694D02*
X160396043Y-118044694D01*
X160396043Y-118044694D02*
X160396043Y-117044694D01*
X160783091Y-118044694D02*
X160783091Y-117044694D01*
X160783091Y-117044694D02*
X160976615Y-117044694D01*
X160976615Y-117044694D02*
X161092729Y-117092313D01*
X161092729Y-117092313D02*
X161170139Y-117187551D01*
X161170139Y-117187551D02*
X161208844Y-117282789D01*
X161208844Y-117282789D02*
X161247548Y-117473265D01*
X161247548Y-117473265D02*
X161247548Y-117616122D01*
X161247548Y-117616122D02*
X161208844Y-117806598D01*
X161208844Y-117806598D02*
X161170139Y-117901836D01*
X161170139Y-117901836D02*
X161092729Y-117997075D01*
X161092729Y-117997075D02*
X160976615Y-118044694D01*
X160976615Y-118044694D02*
X160783091Y-118044694D01*
X159380082Y-102847075D02*
X159496196Y-102894694D01*
X159496196Y-102894694D02*
X159689720Y-102894694D01*
X159689720Y-102894694D02*
X159767129Y-102847075D01*
X159767129Y-102847075D02*
X159805834Y-102799455D01*
X159805834Y-102799455D02*
X159844539Y-102704217D01*
X159844539Y-102704217D02*
X159844539Y-102608979D01*
X159844539Y-102608979D02*
X159805834Y-102513741D01*
X159805834Y-102513741D02*
X159767129Y-102466122D01*
X159767129Y-102466122D02*
X159689720Y-102418503D01*
X159689720Y-102418503D02*
X159534901Y-102370884D01*
X159534901Y-102370884D02*
X159457491Y-102323265D01*
X159457491Y-102323265D02*
X159418786Y-102275646D01*
X159418786Y-102275646D02*
X159380082Y-102180408D01*
X159380082Y-102180408D02*
X159380082Y-102085170D01*
X159380082Y-102085170D02*
X159418786Y-101989932D01*
X159418786Y-101989932D02*
X159457491Y-101942313D01*
X159457491Y-101942313D02*
X159534901Y-101894694D01*
X159534901Y-101894694D02*
X159728424Y-101894694D01*
X159728424Y-101894694D02*
X159844539Y-101942313D01*
X160192881Y-102894694D02*
X160192881Y-101894694D01*
X160192881Y-101894694D02*
X160386405Y-101894694D01*
X160386405Y-101894694D02*
X160502519Y-101942313D01*
X160502519Y-101942313D02*
X160579929Y-102037551D01*
X160579929Y-102037551D02*
X160618634Y-102132789D01*
X160618634Y-102132789D02*
X160657338Y-102323265D01*
X160657338Y-102323265D02*
X160657338Y-102466122D01*
X160657338Y-102466122D02*
X160618634Y-102656598D01*
X160618634Y-102656598D02*
X160579929Y-102751836D01*
X160579929Y-102751836D02*
X160502519Y-102847075D01*
X160502519Y-102847075D02*
X160386405Y-102894694D01*
X160386405Y-102894694D02*
X160192881Y-102894694D01*
X160966977Y-102608979D02*
X161354024Y-102608979D01*
X160889567Y-102894694D02*
X161160500Y-101894694D01*
X161160500Y-101894694D02*
X161431434Y-102894694D01*
X159355082Y-92697075D02*
X159471196Y-92744694D01*
X159471196Y-92744694D02*
X159664720Y-92744694D01*
X159664720Y-92744694D02*
X159742129Y-92697075D01*
X159742129Y-92697075D02*
X159780834Y-92649455D01*
X159780834Y-92649455D02*
X159819539Y-92554217D01*
X159819539Y-92554217D02*
X159819539Y-92458979D01*
X159819539Y-92458979D02*
X159780834Y-92363741D01*
X159780834Y-92363741D02*
X159742129Y-92316122D01*
X159742129Y-92316122D02*
X159664720Y-92268503D01*
X159664720Y-92268503D02*
X159509901Y-92220884D01*
X159509901Y-92220884D02*
X159432491Y-92173265D01*
X159432491Y-92173265D02*
X159393786Y-92125646D01*
X159393786Y-92125646D02*
X159355082Y-92030408D01*
X159355082Y-92030408D02*
X159355082Y-91935170D01*
X159355082Y-91935170D02*
X159393786Y-91839932D01*
X159393786Y-91839932D02*
X159432491Y-91792313D01*
X159432491Y-91792313D02*
X159509901Y-91744694D01*
X159509901Y-91744694D02*
X159703424Y-91744694D01*
X159703424Y-91744694D02*
X159819539Y-91792313D01*
X160632338Y-92649455D02*
X160593634Y-92697075D01*
X160593634Y-92697075D02*
X160477519Y-92744694D01*
X160477519Y-92744694D02*
X160400110Y-92744694D01*
X160400110Y-92744694D02*
X160283996Y-92697075D01*
X160283996Y-92697075D02*
X160206586Y-92601836D01*
X160206586Y-92601836D02*
X160167881Y-92506598D01*
X160167881Y-92506598D02*
X160129177Y-92316122D01*
X160129177Y-92316122D02*
X160129177Y-92173265D01*
X160129177Y-92173265D02*
X160167881Y-91982789D01*
X160167881Y-91982789D02*
X160206586Y-91887551D01*
X160206586Y-91887551D02*
X160283996Y-91792313D01*
X160283996Y-91792313D02*
X160400110Y-91744694D01*
X160400110Y-91744694D02*
X160477519Y-91744694D01*
X160477519Y-91744694D02*
X160593634Y-91792313D01*
X160593634Y-91792313D02*
X160632338Y-91839932D01*
X161367729Y-92744694D02*
X160980681Y-92744694D01*
X160980681Y-92744694D02*
X160980681Y-91744694D01*
X159719539Y-97217313D02*
X159642129Y-97169694D01*
X159642129Y-97169694D02*
X159526015Y-97169694D01*
X159526015Y-97169694D02*
X159409901Y-97217313D01*
X159409901Y-97217313D02*
X159332491Y-97312551D01*
X159332491Y-97312551D02*
X159293786Y-97407789D01*
X159293786Y-97407789D02*
X159255082Y-97598265D01*
X159255082Y-97598265D02*
X159255082Y-97741122D01*
X159255082Y-97741122D02*
X159293786Y-97931598D01*
X159293786Y-97931598D02*
X159332491Y-98026836D01*
X159332491Y-98026836D02*
X159409901Y-98122075D01*
X159409901Y-98122075D02*
X159526015Y-98169694D01*
X159526015Y-98169694D02*
X159603424Y-98169694D01*
X159603424Y-98169694D02*
X159719539Y-98122075D01*
X159719539Y-98122075D02*
X159758243Y-98074455D01*
X159758243Y-98074455D02*
X159758243Y-97741122D01*
X159758243Y-97741122D02*
X159603424Y-97741122D01*
X160106586Y-98169694D02*
X160106586Y-97169694D01*
X160106586Y-97169694D02*
X160571043Y-98169694D01*
X160571043Y-98169694D02*
X160571043Y-97169694D01*
X160958091Y-98169694D02*
X160958091Y-97169694D01*
X160958091Y-97169694D02*
X161151615Y-97169694D01*
X161151615Y-97169694D02*
X161267729Y-97217313D01*
X161267729Y-97217313D02*
X161345139Y-97312551D01*
X161345139Y-97312551D02*
X161383844Y-97407789D01*
X161383844Y-97407789D02*
X161422548Y-97598265D01*
X161422548Y-97598265D02*
X161422548Y-97741122D01*
X161422548Y-97741122D02*
X161383844Y-97931598D01*
X161383844Y-97931598D02*
X161345139Y-98026836D01*
X161345139Y-98026836D02*
X161267729Y-98122075D01*
X161267729Y-98122075D02*
X161151615Y-98169694D01*
X161151615Y-98169694D02*
X160958091Y-98169694D01*
X159569539Y-87042313D02*
X159492129Y-86994694D01*
X159492129Y-86994694D02*
X159376015Y-86994694D01*
X159376015Y-86994694D02*
X159259901Y-87042313D01*
X159259901Y-87042313D02*
X159182491Y-87137551D01*
X159182491Y-87137551D02*
X159143786Y-87232789D01*
X159143786Y-87232789D02*
X159105082Y-87423265D01*
X159105082Y-87423265D02*
X159105082Y-87566122D01*
X159105082Y-87566122D02*
X159143786Y-87756598D01*
X159143786Y-87756598D02*
X159182491Y-87851836D01*
X159182491Y-87851836D02*
X159259901Y-87947075D01*
X159259901Y-87947075D02*
X159376015Y-87994694D01*
X159376015Y-87994694D02*
X159453424Y-87994694D01*
X159453424Y-87994694D02*
X159569539Y-87947075D01*
X159569539Y-87947075D02*
X159608243Y-87899455D01*
X159608243Y-87899455D02*
X159608243Y-87566122D01*
X159608243Y-87566122D02*
X159453424Y-87566122D01*
X159956586Y-87994694D02*
X159956586Y-86994694D01*
X159956586Y-86994694D02*
X160421043Y-87994694D01*
X160421043Y-87994694D02*
X160421043Y-86994694D01*
X160808091Y-87994694D02*
X160808091Y-86994694D01*
X160808091Y-86994694D02*
X161001615Y-86994694D01*
X161001615Y-86994694D02*
X161117729Y-87042313D01*
X161117729Y-87042313D02*
X161195139Y-87137551D01*
X161195139Y-87137551D02*
X161233844Y-87232789D01*
X161233844Y-87232789D02*
X161272548Y-87423265D01*
X161272548Y-87423265D02*
X161272548Y-87566122D01*
X161272548Y-87566122D02*
X161233844Y-87756598D01*
X161233844Y-87756598D02*
X161195139Y-87851836D01*
X161195139Y-87851836D02*
X161117729Y-87947075D01*
X161117729Y-87947075D02*
X161001615Y-87994694D01*
X161001615Y-87994694D02*
X160808091Y-87994694D01*
X159443786Y-113119694D02*
X159443786Y-112119694D01*
X159830834Y-113119694D02*
X159830834Y-112119694D01*
X159830834Y-112119694D02*
X160295291Y-113119694D01*
X160295291Y-113119694D02*
X160295291Y-112119694D01*
X160566225Y-112119694D02*
X161030682Y-112119694D01*
X160798454Y-113119694D02*
X160798454Y-112119694D01*
X159719539Y-106917313D02*
X159642129Y-106869694D01*
X159642129Y-106869694D02*
X159526015Y-106869694D01*
X159526015Y-106869694D02*
X159409901Y-106917313D01*
X159409901Y-106917313D02*
X159332491Y-107012551D01*
X159332491Y-107012551D02*
X159293786Y-107107789D01*
X159293786Y-107107789D02*
X159255082Y-107298265D01*
X159255082Y-107298265D02*
X159255082Y-107441122D01*
X159255082Y-107441122D02*
X159293786Y-107631598D01*
X159293786Y-107631598D02*
X159332491Y-107726836D01*
X159332491Y-107726836D02*
X159409901Y-107822075D01*
X159409901Y-107822075D02*
X159526015Y-107869694D01*
X159526015Y-107869694D02*
X159603424Y-107869694D01*
X159603424Y-107869694D02*
X159719539Y-107822075D01*
X159719539Y-107822075D02*
X159758243Y-107774455D01*
X159758243Y-107774455D02*
X159758243Y-107441122D01*
X159758243Y-107441122D02*
X159603424Y-107441122D01*
X160106586Y-107869694D02*
X160106586Y-106869694D01*
X160106586Y-106869694D02*
X160571043Y-107869694D01*
X160571043Y-107869694D02*
X160571043Y-106869694D01*
X160958091Y-107869694D02*
X160958091Y-106869694D01*
X160958091Y-106869694D02*
X161151615Y-106869694D01*
X161151615Y-106869694D02*
X161267729Y-106917313D01*
X161267729Y-106917313D02*
X161345139Y-107012551D01*
X161345139Y-107012551D02*
X161383844Y-107107789D01*
X161383844Y-107107789D02*
X161422548Y-107298265D01*
X161422548Y-107298265D02*
X161422548Y-107441122D01*
X161422548Y-107441122D02*
X161383844Y-107631598D01*
X161383844Y-107631598D02*
X161345139Y-107726836D01*
X161345139Y-107726836D02*
X161267729Y-107822075D01*
X161267729Y-107822075D02*
X161151615Y-107869694D01*
X161151615Y-107869694D02*
X160958091Y-107869694D01*
D11*
X161479318Y-77248332D02*
X162386461Y-77248332D01*
X162386461Y-77248332D02*
X162567889Y-77308809D01*
X162567889Y-77308809D02*
X162688842Y-77429761D01*
X162688842Y-77429761D02*
X162749318Y-77611190D01*
X162749318Y-77611190D02*
X162749318Y-77732142D01*
X162749318Y-75978332D02*
X162749318Y-76704047D01*
X162749318Y-76341190D02*
X161479318Y-76341190D01*
X161479318Y-76341190D02*
X161660746Y-76462142D01*
X161660746Y-76462142D02*
X161781699Y-76583094D01*
X161781699Y-76583094D02*
X161842175Y-76704047D01*
X146110237Y-112849318D02*
X146110237Y-111579318D01*
X147440714Y-112728365D02*
X147380238Y-112788842D01*
X147380238Y-112788842D02*
X147198809Y-112849318D01*
X147198809Y-112849318D02*
X147077857Y-112849318D01*
X147077857Y-112849318D02*
X146896428Y-112788842D01*
X146896428Y-112788842D02*
X146775476Y-112667889D01*
X146775476Y-112667889D02*
X146714999Y-112546937D01*
X146714999Y-112546937D02*
X146654523Y-112305032D01*
X146654523Y-112305032D02*
X146654523Y-112123603D01*
X146654523Y-112123603D02*
X146714999Y-111881699D01*
X146714999Y-111881699D02*
X146775476Y-111760746D01*
X146775476Y-111760746D02*
X146896428Y-111639794D01*
X146896428Y-111639794D02*
X147077857Y-111579318D01*
X147077857Y-111579318D02*
X147198809Y-111579318D01*
X147198809Y-111579318D02*
X147380238Y-111639794D01*
X147380238Y-111639794D02*
X147440714Y-111700270D01*
X148529285Y-112002651D02*
X148529285Y-112849318D01*
X148226904Y-111518842D02*
X147924523Y-112425984D01*
X147924523Y-112425984D02*
X148710714Y-112425984D01*
X149474318Y-89164762D02*
X148204318Y-89164762D01*
X149353365Y-87834285D02*
X149413842Y-87894761D01*
X149413842Y-87894761D02*
X149474318Y-88076190D01*
X149474318Y-88076190D02*
X149474318Y-88197142D01*
X149474318Y-88197142D02*
X149413842Y-88378571D01*
X149413842Y-88378571D02*
X149292889Y-88499523D01*
X149292889Y-88499523D02*
X149171937Y-88560000D01*
X149171937Y-88560000D02*
X148930032Y-88620476D01*
X148930032Y-88620476D02*
X148748603Y-88620476D01*
X148748603Y-88620476D02*
X148506699Y-88560000D01*
X148506699Y-88560000D02*
X148385746Y-88499523D01*
X148385746Y-88499523D02*
X148264794Y-88378571D01*
X148264794Y-88378571D02*
X148204318Y-88197142D01*
X148204318Y-88197142D02*
X148204318Y-88076190D01*
X148204318Y-88076190D02*
X148264794Y-87894761D01*
X148264794Y-87894761D02*
X148325270Y-87834285D01*
X148204318Y-87410952D02*
X148204318Y-86624761D01*
X148204318Y-86624761D02*
X148688127Y-87048095D01*
X148688127Y-87048095D02*
X148688127Y-86866666D01*
X148688127Y-86866666D02*
X148748603Y-86745714D01*
X148748603Y-86745714D02*
X148809080Y-86685238D01*
X148809080Y-86685238D02*
X148930032Y-86624761D01*
X148930032Y-86624761D02*
X149232413Y-86624761D01*
X149232413Y-86624761D02*
X149353365Y-86685238D01*
X149353365Y-86685238D02*
X149413842Y-86745714D01*
X149413842Y-86745714D02*
X149474318Y-86866666D01*
X149474318Y-86866666D02*
X149474318Y-87229523D01*
X149474318Y-87229523D02*
X149413842Y-87350476D01*
X149413842Y-87350476D02*
X149353365Y-87410952D01*
D12*
X116613095Y-128854819D02*
X116613095Y-127854819D01*
X116613095Y-128331009D02*
X117184523Y-128331009D01*
X117184523Y-128854819D02*
X117184523Y-127854819D01*
X117613095Y-127950057D02*
X117660714Y-127902438D01*
X117660714Y-127902438D02*
X117755952Y-127854819D01*
X117755952Y-127854819D02*
X117994047Y-127854819D01*
X117994047Y-127854819D02*
X118089285Y-127902438D01*
X118089285Y-127902438D02*
X118136904Y-127950057D01*
X118136904Y-127950057D02*
X118184523Y-128045295D01*
X118184523Y-128045295D02*
X118184523Y-128140533D01*
X118184523Y-128140533D02*
X118136904Y-128283390D01*
X118136904Y-128283390D02*
X117565476Y-128854819D01*
X117565476Y-128854819D02*
X118184523Y-128854819D01*
X166563095Y-128654819D02*
X166563095Y-127654819D01*
X166563095Y-128131009D02*
X167134523Y-128131009D01*
X167134523Y-128654819D02*
X167134523Y-127654819D01*
X167515476Y-127654819D02*
X168134523Y-127654819D01*
X168134523Y-127654819D02*
X167801190Y-128035771D01*
X167801190Y-128035771D02*
X167944047Y-128035771D01*
X167944047Y-128035771D02*
X168039285Y-128083390D01*
X168039285Y-128083390D02*
X168086904Y-128131009D01*
X168086904Y-128131009D02*
X168134523Y-128226247D01*
X168134523Y-128226247D02*
X168134523Y-128464342D01*
X168134523Y-128464342D02*
X168086904Y-128559580D01*
X168086904Y-128559580D02*
X168039285Y-128607200D01*
X168039285Y-128607200D02*
X167944047Y-128654819D01*
X167944047Y-128654819D02*
X167658333Y-128654819D01*
X167658333Y-128654819D02*
X167563095Y-128607200D01*
X167563095Y-128607200D02*
X167515476Y-128559580D01*
X125184580Y-115266666D02*
X125232200Y-115314285D01*
X125232200Y-115314285D02*
X125279819Y-115457142D01*
X125279819Y-115457142D02*
X125279819Y-115552380D01*
X125279819Y-115552380D02*
X125232200Y-115695237D01*
X125232200Y-115695237D02*
X125136961Y-115790475D01*
X125136961Y-115790475D02*
X125041723Y-115838094D01*
X125041723Y-115838094D02*
X124851247Y-115885713D01*
X124851247Y-115885713D02*
X124708390Y-115885713D01*
X124708390Y-115885713D02*
X124517914Y-115838094D01*
X124517914Y-115838094D02*
X124422676Y-115790475D01*
X124422676Y-115790475D02*
X124327438Y-115695237D01*
X124327438Y-115695237D02*
X124279819Y-115552380D01*
X124279819Y-115552380D02*
X124279819Y-115457142D01*
X124279819Y-115457142D02*
X124327438Y-115314285D01*
X124327438Y-115314285D02*
X124375057Y-115266666D01*
X124375057Y-114885713D02*
X124327438Y-114838094D01*
X124327438Y-114838094D02*
X124279819Y-114742856D01*
X124279819Y-114742856D02*
X124279819Y-114504761D01*
X124279819Y-114504761D02*
X124327438Y-114409523D01*
X124327438Y-114409523D02*
X124375057Y-114361904D01*
X124375057Y-114361904D02*
X124470295Y-114314285D01*
X124470295Y-114314285D02*
X124565533Y-114314285D01*
X124565533Y-114314285D02*
X124708390Y-114361904D01*
X124708390Y-114361904D02*
X125279819Y-114933332D01*
X125279819Y-114933332D02*
X125279819Y-114314285D01*
D11*
X125410237Y-112799318D02*
X125410237Y-111529318D01*
X126740714Y-112678365D02*
X126680238Y-112738842D01*
X126680238Y-112738842D02*
X126498809Y-112799318D01*
X126498809Y-112799318D02*
X126377857Y-112799318D01*
X126377857Y-112799318D02*
X126196428Y-112738842D01*
X126196428Y-112738842D02*
X126075476Y-112617889D01*
X126075476Y-112617889D02*
X126014999Y-112496937D01*
X126014999Y-112496937D02*
X125954523Y-112255032D01*
X125954523Y-112255032D02*
X125954523Y-112073603D01*
X125954523Y-112073603D02*
X126014999Y-111831699D01*
X126014999Y-111831699D02*
X126075476Y-111710746D01*
X126075476Y-111710746D02*
X126196428Y-111589794D01*
X126196428Y-111589794D02*
X126377857Y-111529318D01*
X126377857Y-111529318D02*
X126498809Y-111529318D01*
X126498809Y-111529318D02*
X126680238Y-111589794D01*
X126680238Y-111589794D02*
X126740714Y-111650270D01*
X127224523Y-111650270D02*
X127284999Y-111589794D01*
X127284999Y-111589794D02*
X127405952Y-111529318D01*
X127405952Y-111529318D02*
X127708333Y-111529318D01*
X127708333Y-111529318D02*
X127829285Y-111589794D01*
X127829285Y-111589794D02*
X127889761Y-111650270D01*
X127889761Y-111650270D02*
X127950238Y-111771222D01*
X127950238Y-111771222D02*
X127950238Y-111892175D01*
X127950238Y-111892175D02*
X127889761Y-112073603D01*
X127889761Y-112073603D02*
X127164047Y-112799318D01*
X127164047Y-112799318D02*
X127950238Y-112799318D01*
D12*
X156809580Y-78916666D02*
X156857200Y-78964285D01*
X156857200Y-78964285D02*
X156904819Y-79107142D01*
X156904819Y-79107142D02*
X156904819Y-79202380D01*
X156904819Y-79202380D02*
X156857200Y-79345237D01*
X156857200Y-79345237D02*
X156761961Y-79440475D01*
X156761961Y-79440475D02*
X156666723Y-79488094D01*
X156666723Y-79488094D02*
X156476247Y-79535713D01*
X156476247Y-79535713D02*
X156333390Y-79535713D01*
X156333390Y-79535713D02*
X156142914Y-79488094D01*
X156142914Y-79488094D02*
X156047676Y-79440475D01*
X156047676Y-79440475D02*
X155952438Y-79345237D01*
X155952438Y-79345237D02*
X155904819Y-79202380D01*
X155904819Y-79202380D02*
X155904819Y-79107142D01*
X155904819Y-79107142D02*
X155952438Y-78964285D01*
X155952438Y-78964285D02*
X156000057Y-78916666D01*
X155904819Y-78011904D02*
X155904819Y-78488094D01*
X155904819Y-78488094D02*
X156381009Y-78535713D01*
X156381009Y-78535713D02*
X156333390Y-78488094D01*
X156333390Y-78488094D02*
X156285771Y-78392856D01*
X156285771Y-78392856D02*
X156285771Y-78154761D01*
X156285771Y-78154761D02*
X156333390Y-78059523D01*
X156333390Y-78059523D02*
X156381009Y-78011904D01*
X156381009Y-78011904D02*
X156476247Y-77964285D01*
X156476247Y-77964285D02*
X156714342Y-77964285D01*
X156714342Y-77964285D02*
X156809580Y-78011904D01*
X156809580Y-78011904D02*
X156857200Y-78059523D01*
X156857200Y-78059523D02*
X156904819Y-78154761D01*
X156904819Y-78154761D02*
X156904819Y-78392856D01*
X156904819Y-78392856D02*
X156857200Y-78488094D01*
X156857200Y-78488094D02*
X156809580Y-78535713D01*
X166613095Y-71954819D02*
X166613095Y-70954819D01*
X166613095Y-71431009D02*
X167184523Y-71431009D01*
X167184523Y-71954819D02*
X167184523Y-70954819D01*
X168089285Y-71288152D02*
X168089285Y-71954819D01*
X167851190Y-70907200D02*
X167613095Y-71621485D01*
X167613095Y-71621485D02*
X168232142Y-71621485D01*
X116613095Y-71954819D02*
X116613095Y-70954819D01*
X116613095Y-71431009D02*
X117184523Y-71431009D01*
X117184523Y-71954819D02*
X117184523Y-70954819D01*
X118184523Y-71954819D02*
X117613095Y-71954819D01*
X117898809Y-71954819D02*
X117898809Y-70954819D01*
X117898809Y-70954819D02*
X117803571Y-71097676D01*
X117803571Y-71097676D02*
X117708333Y-71192914D01*
X117708333Y-71192914D02*
X117613095Y-71240533D01*
X145334580Y-87566666D02*
X145382200Y-87614285D01*
X145382200Y-87614285D02*
X145429819Y-87757142D01*
X145429819Y-87757142D02*
X145429819Y-87852380D01*
X145429819Y-87852380D02*
X145382200Y-87995237D01*
X145382200Y-87995237D02*
X145286961Y-88090475D01*
X145286961Y-88090475D02*
X145191723Y-88138094D01*
X145191723Y-88138094D02*
X145001247Y-88185713D01*
X145001247Y-88185713D02*
X144858390Y-88185713D01*
X144858390Y-88185713D02*
X144667914Y-88138094D01*
X144667914Y-88138094D02*
X144572676Y-88090475D01*
X144572676Y-88090475D02*
X144477438Y-87995237D01*
X144477438Y-87995237D02*
X144429819Y-87852380D01*
X144429819Y-87852380D02*
X144429819Y-87757142D01*
X144429819Y-87757142D02*
X144477438Y-87614285D01*
X144477438Y-87614285D02*
X144525057Y-87566666D01*
X144763152Y-86709523D02*
X145429819Y-86709523D01*
X144382200Y-86947618D02*
X145096485Y-87185713D01*
X145096485Y-87185713D02*
X145096485Y-86566666D01*
X125059580Y-87366666D02*
X125107200Y-87414285D01*
X125107200Y-87414285D02*
X125154819Y-87557142D01*
X125154819Y-87557142D02*
X125154819Y-87652380D01*
X125154819Y-87652380D02*
X125107200Y-87795237D01*
X125107200Y-87795237D02*
X125011961Y-87890475D01*
X125011961Y-87890475D02*
X124916723Y-87938094D01*
X124916723Y-87938094D02*
X124726247Y-87985713D01*
X124726247Y-87985713D02*
X124583390Y-87985713D01*
X124583390Y-87985713D02*
X124392914Y-87938094D01*
X124392914Y-87938094D02*
X124297676Y-87890475D01*
X124297676Y-87890475D02*
X124202438Y-87795237D01*
X124202438Y-87795237D02*
X124154819Y-87652380D01*
X124154819Y-87652380D02*
X124154819Y-87557142D01*
X124154819Y-87557142D02*
X124202438Y-87414285D01*
X124202438Y-87414285D02*
X124250057Y-87366666D01*
X125154819Y-86414285D02*
X125154819Y-86985713D01*
X125154819Y-86699999D02*
X124154819Y-86699999D01*
X124154819Y-86699999D02*
X124297676Y-86795237D01*
X124297676Y-86795237D02*
X124392914Y-86890475D01*
X124392914Y-86890475D02*
X124440533Y-86985713D01*
X143809580Y-112141666D02*
X143857200Y-112189285D01*
X143857200Y-112189285D02*
X143904819Y-112332142D01*
X143904819Y-112332142D02*
X143904819Y-112427380D01*
X143904819Y-112427380D02*
X143857200Y-112570237D01*
X143857200Y-112570237D02*
X143761961Y-112665475D01*
X143761961Y-112665475D02*
X143666723Y-112713094D01*
X143666723Y-112713094D02*
X143476247Y-112760713D01*
X143476247Y-112760713D02*
X143333390Y-112760713D01*
X143333390Y-112760713D02*
X143142914Y-112713094D01*
X143142914Y-112713094D02*
X143047676Y-112665475D01*
X143047676Y-112665475D02*
X142952438Y-112570237D01*
X142952438Y-112570237D02*
X142904819Y-112427380D01*
X142904819Y-112427380D02*
X142904819Y-112332142D01*
X142904819Y-112332142D02*
X142952438Y-112189285D01*
X142952438Y-112189285D02*
X143000057Y-112141666D01*
X142904819Y-111808332D02*
X142904819Y-111189285D01*
X142904819Y-111189285D02*
X143285771Y-111522618D01*
X143285771Y-111522618D02*
X143285771Y-111379761D01*
X143285771Y-111379761D02*
X143333390Y-111284523D01*
X143333390Y-111284523D02*
X143381009Y-111236904D01*
X143381009Y-111236904D02*
X143476247Y-111189285D01*
X143476247Y-111189285D02*
X143714342Y-111189285D01*
X143714342Y-111189285D02*
X143809580Y-111236904D01*
X143809580Y-111236904D02*
X143857200Y-111284523D01*
X143857200Y-111284523D02*
X143904819Y-111379761D01*
X143904819Y-111379761D02*
X143904819Y-111665475D01*
X143904819Y-111665475D02*
X143857200Y-111760713D01*
X143857200Y-111760713D02*
X143809580Y-111808332D01*
D11*
X126410237Y-82924318D02*
X126410237Y-81654318D01*
X127740714Y-82803365D02*
X127680238Y-82863842D01*
X127680238Y-82863842D02*
X127498809Y-82924318D01*
X127498809Y-82924318D02*
X127377857Y-82924318D01*
X127377857Y-82924318D02*
X127196428Y-82863842D01*
X127196428Y-82863842D02*
X127075476Y-82742889D01*
X127075476Y-82742889D02*
X127014999Y-82621937D01*
X127014999Y-82621937D02*
X126954523Y-82380032D01*
X126954523Y-82380032D02*
X126954523Y-82198603D01*
X126954523Y-82198603D02*
X127014999Y-81956699D01*
X127014999Y-81956699D02*
X127075476Y-81835746D01*
X127075476Y-81835746D02*
X127196428Y-81714794D01*
X127196428Y-81714794D02*
X127377857Y-81654318D01*
X127377857Y-81654318D02*
X127498809Y-81654318D01*
X127498809Y-81654318D02*
X127680238Y-81714794D01*
X127680238Y-81714794D02*
X127740714Y-81775270D01*
X128950238Y-82924318D02*
X128224523Y-82924318D01*
X128587380Y-82924318D02*
X128587380Y-81654318D01*
X128587380Y-81654318D02*
X128466428Y-81835746D01*
X128466428Y-81835746D02*
X128345476Y-81956699D01*
X128345476Y-81956699D02*
X128224523Y-82017175D01*
D13*
%TO.C,J1*%
X162775000Y-80000000D02*
X170875000Y-80000000D01*
X162775000Y-120000000D02*
X162775000Y-80000000D01*
X170875000Y-80000000D02*
X170875000Y-120000000D01*
X170875000Y-120000000D02*
X162775000Y-120000000D01*
D14*
X166875000Y-79150000D02*
G75*
G02*
X166775000Y-79150000I-50000J0D01*
G01*
X166775000Y-79150000D02*
G75*
G02*
X166875000Y-79150000I50000J0D01*
G01*
D15*
%TO.C,IC4*%
X146125000Y-113350000D02*
G75*
G02*
X145875000Y-113350000I-125000J0D01*
G01*
X145875000Y-113350000D02*
G75*
G02*
X146125000Y-113350000I125000J0D01*
G01*
%TO.C,IC3*%
X146125000Y-83462500D02*
G75*
G02*
X145875000Y-83462500I-125000J0D01*
G01*
X145875000Y-83462500D02*
G75*
G02*
X146125000Y-83462500I125000J0D01*
G01*
D16*
%TO.C,C2*%
X122240000Y-114776248D02*
X122240000Y-115298752D01*
X123710000Y-114776248D02*
X123710000Y-115298752D01*
D15*
%TO.C,IC2*%
X126125000Y-113350000D02*
G75*
G02*
X125875000Y-113350000I-125000J0D01*
G01*
X125875000Y-113350000D02*
G75*
G02*
X126125000Y-113350000I125000J0D01*
G01*
D16*
%TO.C,C5*%
X155740000Y-81876248D02*
X155740000Y-82398752D01*
X157210000Y-81876248D02*
X157210000Y-82398752D01*
%TO.C,C4*%
X142390000Y-84888748D02*
X142390000Y-85411252D01*
X143860000Y-84888748D02*
X143860000Y-85411252D01*
%TO.C,C1*%
X122040000Y-84776248D02*
X122040000Y-85298752D01*
X123510000Y-84776248D02*
X123510000Y-85298752D01*
%TO.C,C3*%
X142690000Y-114776248D02*
X142690000Y-115298752D01*
X144160000Y-114776248D02*
X144160000Y-115298752D01*
D15*
%TO.C,IC1*%
X126125000Y-83350000D02*
G75*
G02*
X125875000Y-83350000I-125000J0D01*
G01*
X125875000Y-83350000D02*
G75*
G02*
X126125000Y-83350000I125000J0D01*
G01*
%TD*%
M02*
