%TF.GenerationSoftware,KiCad,Pcbnew,9.0.7*%
%TF.CreationDate,2026-03-08T21:33:58-03:00*%
%TF.ProjectId,SatellitePCB_OPT,53617465-6c6c-4697-9465-5043425f4f50,rev?*%
%TF.SameCoordinates,Original*%
%TF.FileFunction,Soldermask,Top*%
%TF.FilePolarity,Negative*%
%FSLAX46Y46*%
G04 Gerber Fmt 4.6, Leading zero omitted, Abs format (unit mm)*
G04 Created by KiCad (PCBNEW 9.0.7) date 2026-03-08 21:33:58*
%MOMM*%
%LPD*%
G01*
G04 APERTURE LIST*
G04 APERTURE END LIST*
G36*
X117631790Y-123580393D02*
G01*
X117795952Y-123633733D01*
X117949748Y-123712096D01*
X118089393Y-123813553D01*
X118211447Y-123935607D01*
X118312904Y-124075252D01*
X118391267Y-124229048D01*
X118444607Y-124393210D01*
X118471609Y-124563695D01*
X118471609Y-124736305D01*
X118444607Y-124906790D01*
X118391267Y-125070952D01*
X118312904Y-125224748D01*
X118211447Y-125364393D01*
X118089393Y-125486447D01*
X117949748Y-125587904D01*
X117795952Y-125666267D01*
X117631790Y-125719607D01*
X117461305Y-125746609D01*
X117288695Y-125746609D01*
X117118210Y-125719607D01*
X116954048Y-125666267D01*
X116800252Y-125587904D01*
X116660607Y-125486447D01*
X116538553Y-125364393D01*
X116437096Y-125224748D01*
X116358733Y-125070952D01*
X116305393Y-124906790D01*
X116278391Y-124736305D01*
X116278391Y-124563695D01*
X116305393Y-124393210D01*
X116358733Y-124229048D01*
X116437096Y-124075252D01*
X116538553Y-123935607D01*
X116660607Y-123813553D01*
X116800252Y-123712096D01*
X116954048Y-123633733D01*
X117118210Y-123580393D01*
X117288695Y-123553391D01*
X117461305Y-123553391D01*
X117631790Y-123580393D01*
G37*
G36*
X167631790Y-123580393D02*
G01*
X167795952Y-123633733D01*
X167949748Y-123712096D01*
X168089393Y-123813553D01*
X168211447Y-123935607D01*
X168312904Y-124075252D01*
X168391267Y-124229048D01*
X168444607Y-124393210D01*
X168471609Y-124563695D01*
X168471609Y-124736305D01*
X168444607Y-124906790D01*
X168391267Y-125070952D01*
X168312904Y-125224748D01*
X168211447Y-125364393D01*
X168089393Y-125486447D01*
X167949748Y-125587904D01*
X167795952Y-125666267D01*
X167631790Y-125719607D01*
X167461305Y-125746609D01*
X167288695Y-125746609D01*
X167118210Y-125719607D01*
X166954048Y-125666267D01*
X166800252Y-125587904D01*
X166660607Y-125486447D01*
X166538553Y-125364393D01*
X166437096Y-125224748D01*
X166358733Y-125070952D01*
X166305393Y-124906790D01*
X166278391Y-124736305D01*
X166278391Y-124563695D01*
X166305393Y-124393210D01*
X166358733Y-124229048D01*
X166437096Y-124075252D01*
X166538553Y-123935607D01*
X166660607Y-123813553D01*
X166800252Y-123712096D01*
X166954048Y-123633733D01*
X167118210Y-123580393D01*
X167288695Y-123553391D01*
X167461305Y-123553391D01*
X167631790Y-123580393D01*
G37*
G36*
X167108028Y-116566983D02*
G01*
X167284612Y-116640127D01*
X167443533Y-116746315D01*
X167578685Y-116881467D01*
X167684873Y-117040388D01*
X167758017Y-117216972D01*
X167795305Y-117404433D01*
X167795305Y-117595567D01*
X167758017Y-117783028D01*
X167684873Y-117959612D01*
X167578685Y-118118533D01*
X167443533Y-118253685D01*
X167284612Y-118359873D01*
X167108028Y-118433017D01*
X166920567Y-118470305D01*
X166729433Y-118470305D01*
X166541972Y-118433017D01*
X166365388Y-118359873D01*
X166206467Y-118253685D01*
X166071315Y-118118533D01*
X165965127Y-117959612D01*
X165891983Y-117783028D01*
X165854695Y-117595567D01*
X165854695Y-117404433D01*
X165891983Y-117216972D01*
X165965127Y-117040388D01*
X166071315Y-116881467D01*
X166206467Y-116746315D01*
X166365388Y-116640127D01*
X166541972Y-116566983D01*
X166729433Y-116529695D01*
X166920567Y-116529695D01*
X167108028Y-116566983D01*
G37*
G36*
X123454850Y-115488464D02*
G01*
X123505040Y-115494287D01*
X123522189Y-115501859D01*
X123545671Y-115506530D01*
X123570810Y-115523327D01*
X123590696Y-115532108D01*
X123604277Y-115545689D01*
X123626777Y-115560723D01*
X123641810Y-115583222D01*
X123655391Y-115596803D01*
X123664170Y-115616686D01*
X123680970Y-115641829D01*
X123685641Y-115665312D01*
X123693212Y-115682459D01*
X123699033Y-115732639D01*
X123700000Y-115737500D01*
X123700000Y-116412500D01*
X123699032Y-116417363D01*
X123693212Y-116467540D01*
X123685641Y-116484685D01*
X123680970Y-116508171D01*
X123664169Y-116533315D01*
X123655391Y-116553196D01*
X123641812Y-116566774D01*
X123626777Y-116589277D01*
X123604274Y-116604312D01*
X123590696Y-116617891D01*
X123570815Y-116626669D01*
X123545671Y-116643470D01*
X123522185Y-116648141D01*
X123505040Y-116655712D01*
X123454861Y-116661532D01*
X123450000Y-116662500D01*
X122500000Y-116662500D01*
X122495138Y-116661532D01*
X122444959Y-116655712D01*
X122427812Y-116648141D01*
X122404329Y-116643470D01*
X122379186Y-116626670D01*
X122359303Y-116617891D01*
X122345722Y-116604310D01*
X122323223Y-116589277D01*
X122308189Y-116566777D01*
X122294608Y-116553196D01*
X122285827Y-116533310D01*
X122269030Y-116508171D01*
X122264359Y-116484689D01*
X122256787Y-116467540D01*
X122250964Y-116417349D01*
X122250000Y-116412500D01*
X122250000Y-115737500D01*
X122250964Y-115732650D01*
X122256787Y-115682459D01*
X122264359Y-115665308D01*
X122269030Y-115641829D01*
X122285826Y-115616691D01*
X122294608Y-115596803D01*
X122308191Y-115583219D01*
X122323223Y-115560723D01*
X122345719Y-115545691D01*
X122359303Y-115532108D01*
X122379191Y-115523326D01*
X122404329Y-115506530D01*
X122427808Y-115501859D01*
X122444959Y-115494287D01*
X122495151Y-115488464D01*
X122500000Y-115487500D01*
X123450000Y-115487500D01*
X123454850Y-115488464D01*
G37*
G36*
X143904850Y-115488464D02*
G01*
X143955040Y-115494287D01*
X143972189Y-115501859D01*
X143995671Y-115506530D01*
X144020810Y-115523327D01*
X144040696Y-115532108D01*
X144054277Y-115545689D01*
X144076777Y-115560723D01*
X144091810Y-115583222D01*
X144105391Y-115596803D01*
X144114170Y-115616686D01*
X144130970Y-115641829D01*
X144135641Y-115665312D01*
X144143212Y-115682459D01*
X144149033Y-115732639D01*
X144150000Y-115737500D01*
X144150000Y-116412500D01*
X144149032Y-116417363D01*
X144143212Y-116467540D01*
X144135641Y-116484685D01*
X144130970Y-116508171D01*
X144114169Y-116533315D01*
X144105391Y-116553196D01*
X144091812Y-116566774D01*
X144076777Y-116589277D01*
X144054274Y-116604312D01*
X144040696Y-116617891D01*
X144020815Y-116626669D01*
X143995671Y-116643470D01*
X143972185Y-116648141D01*
X143955040Y-116655712D01*
X143904861Y-116661532D01*
X143900000Y-116662500D01*
X142950000Y-116662500D01*
X142945138Y-116661532D01*
X142894959Y-116655712D01*
X142877812Y-116648141D01*
X142854329Y-116643470D01*
X142829186Y-116626670D01*
X142809303Y-116617891D01*
X142795722Y-116604310D01*
X142773223Y-116589277D01*
X142758189Y-116566777D01*
X142744608Y-116553196D01*
X142735827Y-116533310D01*
X142719030Y-116508171D01*
X142714359Y-116484689D01*
X142706787Y-116467540D01*
X142700964Y-116417349D01*
X142700000Y-116412500D01*
X142700000Y-115737500D01*
X142700964Y-115732650D01*
X142706787Y-115682459D01*
X142714359Y-115665308D01*
X142719030Y-115641829D01*
X142735826Y-115616691D01*
X142744608Y-115596803D01*
X142758191Y-115583219D01*
X142773223Y-115560723D01*
X142795719Y-115545691D01*
X142809303Y-115532108D01*
X142829191Y-115523326D01*
X142854329Y-115506530D01*
X142877808Y-115501859D01*
X142894959Y-115494287D01*
X142945151Y-115488464D01*
X142950000Y-115487500D01*
X143900000Y-115487500D01*
X143904850Y-115488464D01*
G37*
G36*
X126750000Y-115450000D02*
G01*
X126000000Y-115450000D01*
X126000000Y-115150000D01*
X126750000Y-115150000D01*
X126750000Y-115450000D01*
G37*
G36*
X128750000Y-115450000D02*
G01*
X128000000Y-115450000D01*
X128000000Y-115150000D01*
X128750000Y-115150000D01*
X128750000Y-115450000D01*
G37*
G36*
X146750000Y-115450000D02*
G01*
X146000000Y-115450000D01*
X146000000Y-115150000D01*
X146750000Y-115150000D01*
X146750000Y-115450000D01*
G37*
G36*
X148750000Y-115450000D02*
G01*
X148000000Y-115450000D01*
X148000000Y-115150000D01*
X148750000Y-115150000D01*
X148750000Y-115450000D01*
G37*
G36*
X127750000Y-115375000D02*
G01*
X127000000Y-115375000D01*
X127000000Y-113925000D01*
X127750000Y-113925000D01*
X127750000Y-115375000D01*
G37*
G36*
X147750000Y-115375000D02*
G01*
X147000000Y-115375000D01*
X147000000Y-113925000D01*
X147750000Y-113925000D01*
X147750000Y-115375000D01*
G37*
G36*
X126750000Y-114800000D02*
G01*
X126000000Y-114800000D01*
X126000000Y-114500000D01*
X126750000Y-114500000D01*
X126750000Y-114800000D01*
G37*
G36*
X128750000Y-114800000D02*
G01*
X128000000Y-114800000D01*
X128000000Y-114500000D01*
X128750000Y-114500000D01*
X128750000Y-114800000D01*
G37*
G36*
X146750000Y-114800000D02*
G01*
X146000000Y-114800000D01*
X146000000Y-114500000D01*
X146750000Y-114500000D01*
X146750000Y-114800000D01*
G37*
G36*
X148750000Y-114800000D02*
G01*
X148000000Y-114800000D01*
X148000000Y-114500000D01*
X148750000Y-114500000D01*
X148750000Y-114800000D01*
G37*
G36*
X123454850Y-113413464D02*
G01*
X123505040Y-113419287D01*
X123522189Y-113426859D01*
X123545671Y-113431530D01*
X123570810Y-113448327D01*
X123590696Y-113457108D01*
X123604277Y-113470689D01*
X123626777Y-113485723D01*
X123641810Y-113508222D01*
X123655391Y-113521803D01*
X123664170Y-113541686D01*
X123680970Y-113566829D01*
X123685641Y-113590312D01*
X123693212Y-113607459D01*
X123699033Y-113657639D01*
X123700000Y-113662500D01*
X123700000Y-114337500D01*
X123699032Y-114342363D01*
X123693212Y-114392540D01*
X123685641Y-114409685D01*
X123680970Y-114433171D01*
X123664169Y-114458315D01*
X123655391Y-114478196D01*
X123641812Y-114491774D01*
X123626777Y-114514277D01*
X123604274Y-114529312D01*
X123590696Y-114542891D01*
X123570815Y-114551669D01*
X123545671Y-114568470D01*
X123522185Y-114573141D01*
X123505040Y-114580712D01*
X123454861Y-114586532D01*
X123450000Y-114587500D01*
X122500000Y-114587500D01*
X122495138Y-114586532D01*
X122444959Y-114580712D01*
X122427812Y-114573141D01*
X122404329Y-114568470D01*
X122379186Y-114551670D01*
X122359303Y-114542891D01*
X122345722Y-114529310D01*
X122323223Y-114514277D01*
X122308189Y-114491777D01*
X122294608Y-114478196D01*
X122285827Y-114458310D01*
X122269030Y-114433171D01*
X122264359Y-114409689D01*
X122256787Y-114392540D01*
X122250964Y-114342349D01*
X122250000Y-114337500D01*
X122250000Y-113662500D01*
X122250964Y-113657650D01*
X122256787Y-113607459D01*
X122264359Y-113590308D01*
X122269030Y-113566829D01*
X122285826Y-113541691D01*
X122294608Y-113521803D01*
X122308191Y-113508219D01*
X122323223Y-113485723D01*
X122345719Y-113470691D01*
X122359303Y-113457108D01*
X122379191Y-113448326D01*
X122404329Y-113431530D01*
X122427808Y-113426859D01*
X122444959Y-113419287D01*
X122495151Y-113413464D01*
X122500000Y-113412500D01*
X123450000Y-113412500D01*
X123454850Y-113413464D01*
G37*
G36*
X143904850Y-113413464D02*
G01*
X143955040Y-113419287D01*
X143972189Y-113426859D01*
X143995671Y-113431530D01*
X144020810Y-113448327D01*
X144040696Y-113457108D01*
X144054277Y-113470689D01*
X144076777Y-113485723D01*
X144091810Y-113508222D01*
X144105391Y-113521803D01*
X144114170Y-113541686D01*
X144130970Y-113566829D01*
X144135641Y-113590312D01*
X144143212Y-113607459D01*
X144149033Y-113657639D01*
X144150000Y-113662500D01*
X144150000Y-114337500D01*
X144149032Y-114342363D01*
X144143212Y-114392540D01*
X144135641Y-114409685D01*
X144130970Y-114433171D01*
X144114169Y-114458315D01*
X144105391Y-114478196D01*
X144091812Y-114491774D01*
X144076777Y-114514277D01*
X144054274Y-114529312D01*
X144040696Y-114542891D01*
X144020815Y-114551669D01*
X143995671Y-114568470D01*
X143972185Y-114573141D01*
X143955040Y-114580712D01*
X143904861Y-114586532D01*
X143900000Y-114587500D01*
X142950000Y-114587500D01*
X142945138Y-114586532D01*
X142894959Y-114580712D01*
X142877812Y-114573141D01*
X142854329Y-114568470D01*
X142829186Y-114551670D01*
X142809303Y-114542891D01*
X142795722Y-114529310D01*
X142773223Y-114514277D01*
X142758189Y-114491777D01*
X142744608Y-114478196D01*
X142735827Y-114458310D01*
X142719030Y-114433171D01*
X142714359Y-114409689D01*
X142706787Y-114392540D01*
X142700964Y-114342349D01*
X142700000Y-114337500D01*
X142700000Y-113662500D01*
X142700964Y-113657650D01*
X142706787Y-113607459D01*
X142714359Y-113590308D01*
X142719030Y-113566829D01*
X142735826Y-113541691D01*
X142744608Y-113521803D01*
X142758191Y-113508219D01*
X142773223Y-113485723D01*
X142795719Y-113470691D01*
X142809303Y-113457108D01*
X142829191Y-113448326D01*
X142854329Y-113431530D01*
X142877808Y-113426859D01*
X142894959Y-113419287D01*
X142945151Y-113413464D01*
X142950000Y-113412500D01*
X143900000Y-113412500D01*
X143904850Y-113413464D01*
G37*
G36*
X126750000Y-114150000D02*
G01*
X126000000Y-114150000D01*
X126000000Y-113850000D01*
X126750000Y-113850000D01*
X126750000Y-114150000D01*
G37*
G36*
X128750000Y-114150000D02*
G01*
X128000000Y-114150000D01*
X128000000Y-113850000D01*
X128750000Y-113850000D01*
X128750000Y-114150000D01*
G37*
G36*
X146750000Y-114150000D02*
G01*
X146000000Y-114150000D01*
X146000000Y-113850000D01*
X146750000Y-113850000D01*
X146750000Y-114150000D01*
G37*
G36*
X148750000Y-114150000D02*
G01*
X148000000Y-114150000D01*
X148000000Y-113850000D01*
X148750000Y-113850000D01*
X148750000Y-114150000D01*
G37*
G36*
X167108028Y-111566983D02*
G01*
X167284612Y-111640127D01*
X167443533Y-111746315D01*
X167578685Y-111881467D01*
X167684873Y-112040388D01*
X167758017Y-112216972D01*
X167795305Y-112404433D01*
X167795305Y-112595567D01*
X167758017Y-112783028D01*
X167684873Y-112959612D01*
X167578685Y-113118533D01*
X167443533Y-113253685D01*
X167284612Y-113359873D01*
X167108028Y-113433017D01*
X166920567Y-113470305D01*
X166729433Y-113470305D01*
X166541972Y-113433017D01*
X166365388Y-113359873D01*
X166206467Y-113253685D01*
X166071315Y-113118533D01*
X165965127Y-112959612D01*
X165891983Y-112783028D01*
X165854695Y-112595567D01*
X165854695Y-112404433D01*
X165891983Y-112216972D01*
X165965127Y-112040388D01*
X166071315Y-111881467D01*
X166206467Y-111746315D01*
X166365388Y-111640127D01*
X166541972Y-111566983D01*
X166729433Y-111529695D01*
X166920567Y-111529695D01*
X167108028Y-111566983D01*
G37*
G36*
X167108028Y-106566983D02*
G01*
X167284612Y-106640127D01*
X167443533Y-106746315D01*
X167578685Y-106881467D01*
X167684873Y-107040388D01*
X167758017Y-107216972D01*
X167795305Y-107404433D01*
X167795305Y-107595567D01*
X167758017Y-107783028D01*
X167684873Y-107959612D01*
X167578685Y-108118533D01*
X167443533Y-108253685D01*
X167284612Y-108359873D01*
X167108028Y-108433017D01*
X166920567Y-108470305D01*
X166729433Y-108470305D01*
X166541972Y-108433017D01*
X166365388Y-108359873D01*
X166206467Y-108253685D01*
X166071315Y-108118533D01*
X165965127Y-107959612D01*
X165891983Y-107783028D01*
X165854695Y-107595567D01*
X165854695Y-107404433D01*
X165891983Y-107216972D01*
X165965127Y-107040388D01*
X166071315Y-106881467D01*
X166206467Y-106746315D01*
X166365388Y-106640127D01*
X166541972Y-106566983D01*
X166729433Y-106529695D01*
X166920567Y-106529695D01*
X167108028Y-106566983D01*
G37*
G36*
X167108028Y-101566983D02*
G01*
X167284612Y-101640127D01*
X167443533Y-101746315D01*
X167578685Y-101881467D01*
X167684873Y-102040388D01*
X167758017Y-102216972D01*
X167795305Y-102404433D01*
X167795305Y-102595567D01*
X167758017Y-102783028D01*
X167684873Y-102959612D01*
X167578685Y-103118533D01*
X167443533Y-103253685D01*
X167284612Y-103359873D01*
X167108028Y-103433017D01*
X166920567Y-103470305D01*
X166729433Y-103470305D01*
X166541972Y-103433017D01*
X166365388Y-103359873D01*
X166206467Y-103253685D01*
X166071315Y-103118533D01*
X165965127Y-102959612D01*
X165891983Y-102783028D01*
X165854695Y-102595567D01*
X165854695Y-102404433D01*
X165891983Y-102216972D01*
X165965127Y-102040388D01*
X166071315Y-101881467D01*
X166206467Y-101746315D01*
X166365388Y-101640127D01*
X166541972Y-101566983D01*
X166729433Y-101529695D01*
X166920567Y-101529695D01*
X167108028Y-101566983D01*
G37*
G36*
X167108028Y-96566983D02*
G01*
X167284612Y-96640127D01*
X167443533Y-96746315D01*
X167578685Y-96881467D01*
X167684873Y-97040388D01*
X167758017Y-97216972D01*
X167795305Y-97404433D01*
X167795305Y-97595567D01*
X167758017Y-97783028D01*
X167684873Y-97959612D01*
X167578685Y-98118533D01*
X167443533Y-98253685D01*
X167284612Y-98359873D01*
X167108028Y-98433017D01*
X166920567Y-98470305D01*
X166729433Y-98470305D01*
X166541972Y-98433017D01*
X166365388Y-98359873D01*
X166206467Y-98253685D01*
X166071315Y-98118533D01*
X165965127Y-97959612D01*
X165891983Y-97783028D01*
X165854695Y-97595567D01*
X165854695Y-97404433D01*
X165891983Y-97216972D01*
X165965127Y-97040388D01*
X166071315Y-96881467D01*
X166206467Y-96746315D01*
X166365388Y-96640127D01*
X166541972Y-96566983D01*
X166729433Y-96529695D01*
X166920567Y-96529695D01*
X167108028Y-96566983D01*
G37*
G36*
X167108028Y-91566983D02*
G01*
X167284612Y-91640127D01*
X167443533Y-91746315D01*
X167578685Y-91881467D01*
X167684873Y-92040388D01*
X167758017Y-92216972D01*
X167795305Y-92404433D01*
X167795305Y-92595567D01*
X167758017Y-92783028D01*
X167684873Y-92959612D01*
X167578685Y-93118533D01*
X167443533Y-93253685D01*
X167284612Y-93359873D01*
X167108028Y-93433017D01*
X166920567Y-93470305D01*
X166729433Y-93470305D01*
X166541972Y-93433017D01*
X166365388Y-93359873D01*
X166206467Y-93253685D01*
X166071315Y-93118533D01*
X165965127Y-92959612D01*
X165891983Y-92783028D01*
X165854695Y-92595567D01*
X165854695Y-92404433D01*
X165891983Y-92216972D01*
X165965127Y-92040388D01*
X166071315Y-91881467D01*
X166206467Y-91746315D01*
X166365388Y-91640127D01*
X166541972Y-91566983D01*
X166729433Y-91529695D01*
X166920567Y-91529695D01*
X167108028Y-91566983D01*
G37*
G36*
X167108028Y-86566983D02*
G01*
X167284612Y-86640127D01*
X167443533Y-86746315D01*
X167578685Y-86881467D01*
X167684873Y-87040388D01*
X167758017Y-87216972D01*
X167795305Y-87404433D01*
X167795305Y-87595567D01*
X167758017Y-87783028D01*
X167684873Y-87959612D01*
X167578685Y-88118533D01*
X167443533Y-88253685D01*
X167284612Y-88359873D01*
X167108028Y-88433017D01*
X166920567Y-88470305D01*
X166729433Y-88470305D01*
X166541972Y-88433017D01*
X166365388Y-88359873D01*
X166206467Y-88253685D01*
X166071315Y-88118533D01*
X165965127Y-87959612D01*
X165891983Y-87783028D01*
X165854695Y-87595567D01*
X165854695Y-87404433D01*
X165891983Y-87216972D01*
X165965127Y-87040388D01*
X166071315Y-86881467D01*
X166206467Y-86746315D01*
X166365388Y-86640127D01*
X166541972Y-86566983D01*
X166729433Y-86529695D01*
X166920567Y-86529695D01*
X167108028Y-86566983D01*
G37*
G36*
X143604850Y-85600964D02*
G01*
X143655040Y-85606787D01*
X143672189Y-85614359D01*
X143695671Y-85619030D01*
X143720810Y-85635827D01*
X143740696Y-85644608D01*
X143754277Y-85658189D01*
X143776777Y-85673223D01*
X143791810Y-85695722D01*
X143805391Y-85709303D01*
X143814170Y-85729186D01*
X143830970Y-85754329D01*
X143835641Y-85777812D01*
X143843212Y-85794959D01*
X143849033Y-85845139D01*
X143850000Y-85850000D01*
X143850000Y-86525000D01*
X143849032Y-86529863D01*
X143843212Y-86580040D01*
X143835641Y-86597185D01*
X143830970Y-86620671D01*
X143814169Y-86645815D01*
X143805391Y-86665696D01*
X143791812Y-86679274D01*
X143776777Y-86701777D01*
X143754274Y-86716812D01*
X143740696Y-86730391D01*
X143720815Y-86739169D01*
X143695671Y-86755970D01*
X143672185Y-86760641D01*
X143655040Y-86768212D01*
X143604861Y-86774032D01*
X143600000Y-86775000D01*
X142650000Y-86775000D01*
X142645138Y-86774032D01*
X142594959Y-86768212D01*
X142577812Y-86760641D01*
X142554329Y-86755970D01*
X142529186Y-86739170D01*
X142509303Y-86730391D01*
X142495722Y-86716810D01*
X142473223Y-86701777D01*
X142458189Y-86679277D01*
X142444608Y-86665696D01*
X142435827Y-86645810D01*
X142419030Y-86620671D01*
X142414359Y-86597189D01*
X142406787Y-86580040D01*
X142400964Y-86529849D01*
X142400000Y-86525000D01*
X142400000Y-85850000D01*
X142400964Y-85845150D01*
X142406787Y-85794959D01*
X142414359Y-85777808D01*
X142419030Y-85754329D01*
X142435826Y-85729191D01*
X142444608Y-85709303D01*
X142458191Y-85695719D01*
X142473223Y-85673223D01*
X142495719Y-85658191D01*
X142509303Y-85644608D01*
X142529191Y-85635826D01*
X142554329Y-85619030D01*
X142577808Y-85614359D01*
X142594959Y-85606787D01*
X142645151Y-85600964D01*
X142650000Y-85600000D01*
X143600000Y-85600000D01*
X143604850Y-85600964D01*
G37*
G36*
X123254850Y-85488464D02*
G01*
X123305040Y-85494287D01*
X123322189Y-85501859D01*
X123345671Y-85506530D01*
X123370810Y-85523327D01*
X123390696Y-85532108D01*
X123404277Y-85545689D01*
X123426777Y-85560723D01*
X123441810Y-85583222D01*
X123455391Y-85596803D01*
X123464170Y-85616686D01*
X123480970Y-85641829D01*
X123485641Y-85665312D01*
X123493212Y-85682459D01*
X123499033Y-85732639D01*
X123500000Y-85737500D01*
X123500000Y-86412500D01*
X123499032Y-86417363D01*
X123493212Y-86467540D01*
X123485641Y-86484685D01*
X123480970Y-86508171D01*
X123464169Y-86533315D01*
X123455391Y-86553196D01*
X123441812Y-86566774D01*
X123426777Y-86589277D01*
X123404274Y-86604312D01*
X123390696Y-86617891D01*
X123370815Y-86626669D01*
X123345671Y-86643470D01*
X123322185Y-86648141D01*
X123305040Y-86655712D01*
X123254861Y-86661532D01*
X123250000Y-86662500D01*
X122300000Y-86662500D01*
X122295138Y-86661532D01*
X122244959Y-86655712D01*
X122227812Y-86648141D01*
X122204329Y-86643470D01*
X122179186Y-86626670D01*
X122159303Y-86617891D01*
X122145722Y-86604310D01*
X122123223Y-86589277D01*
X122108189Y-86566777D01*
X122094608Y-86553196D01*
X122085827Y-86533310D01*
X122069030Y-86508171D01*
X122064359Y-86484689D01*
X122056787Y-86467540D01*
X122050964Y-86417349D01*
X122050000Y-86412500D01*
X122050000Y-85737500D01*
X122050964Y-85732650D01*
X122056787Y-85682459D01*
X122064359Y-85665308D01*
X122069030Y-85641829D01*
X122085826Y-85616691D01*
X122094608Y-85596803D01*
X122108191Y-85583219D01*
X122123223Y-85560723D01*
X122145719Y-85545691D01*
X122159303Y-85532108D01*
X122179191Y-85523326D01*
X122204329Y-85506530D01*
X122227808Y-85501859D01*
X122244959Y-85494287D01*
X122295151Y-85488464D01*
X122300000Y-85487500D01*
X123250000Y-85487500D01*
X123254850Y-85488464D01*
G37*
G36*
X146750000Y-85562500D02*
G01*
X146000000Y-85562500D01*
X146000000Y-85262500D01*
X146750000Y-85262500D01*
X146750000Y-85562500D01*
G37*
G36*
X148750000Y-85562500D02*
G01*
X148000000Y-85562500D01*
X148000000Y-85262500D01*
X148750000Y-85262500D01*
X148750000Y-85562500D01*
G37*
G36*
X147750000Y-85487500D02*
G01*
X147000000Y-85487500D01*
X147000000Y-84037500D01*
X147750000Y-84037500D01*
X147750000Y-85487500D01*
G37*
G36*
X126750000Y-85450000D02*
G01*
X126000000Y-85450000D01*
X126000000Y-85150000D01*
X126750000Y-85150000D01*
X126750000Y-85450000D01*
G37*
G36*
X128750000Y-85450000D02*
G01*
X128000000Y-85450000D01*
X128000000Y-85150000D01*
X128750000Y-85150000D01*
X128750000Y-85450000D01*
G37*
G36*
X127750000Y-85375000D02*
G01*
X127000000Y-85375000D01*
X127000000Y-83925000D01*
X127750000Y-83925000D01*
X127750000Y-85375000D01*
G37*
G36*
X146750000Y-84912500D02*
G01*
X146000000Y-84912500D01*
X146000000Y-84612500D01*
X146750000Y-84612500D01*
X146750000Y-84912500D01*
G37*
G36*
X148750000Y-84912500D02*
G01*
X148000000Y-84912500D01*
X148000000Y-84612500D01*
X148750000Y-84612500D01*
X148750000Y-84912500D01*
G37*
G36*
X126750000Y-84800000D02*
G01*
X126000000Y-84800000D01*
X126000000Y-84500000D01*
X126750000Y-84500000D01*
X126750000Y-84800000D01*
G37*
G36*
X128750000Y-84800000D02*
G01*
X128000000Y-84800000D01*
X128000000Y-84500000D01*
X128750000Y-84500000D01*
X128750000Y-84800000D01*
G37*
G36*
X143604850Y-83525964D02*
G01*
X143655040Y-83531787D01*
X143672189Y-83539359D01*
X143695671Y-83544030D01*
X143720810Y-83560827D01*
X143740696Y-83569608D01*
X143754277Y-83583189D01*
X143776777Y-83598223D01*
X143791810Y-83620722D01*
X143805391Y-83634303D01*
X143814170Y-83654186D01*
X143830970Y-83679329D01*
X143835641Y-83702812D01*
X143843212Y-83719959D01*
X143849033Y-83770139D01*
X143850000Y-83775000D01*
X143850000Y-84450000D01*
X143849032Y-84454863D01*
X143843212Y-84505040D01*
X143835641Y-84522185D01*
X143830970Y-84545671D01*
X143814169Y-84570815D01*
X143805391Y-84590696D01*
X143791812Y-84604274D01*
X143776777Y-84626777D01*
X143754274Y-84641812D01*
X143740696Y-84655391D01*
X143720815Y-84664169D01*
X143695671Y-84680970D01*
X143672185Y-84685641D01*
X143655040Y-84693212D01*
X143604861Y-84699032D01*
X143600000Y-84700000D01*
X142650000Y-84700000D01*
X142645138Y-84699032D01*
X142594959Y-84693212D01*
X142577812Y-84685641D01*
X142554329Y-84680970D01*
X142529186Y-84664170D01*
X142509303Y-84655391D01*
X142495722Y-84641810D01*
X142473223Y-84626777D01*
X142458189Y-84604277D01*
X142444608Y-84590696D01*
X142435827Y-84570810D01*
X142419030Y-84545671D01*
X142414359Y-84522189D01*
X142406787Y-84505040D01*
X142400964Y-84454849D01*
X142400000Y-84450000D01*
X142400000Y-83775000D01*
X142400964Y-83770150D01*
X142406787Y-83719959D01*
X142414359Y-83702808D01*
X142419030Y-83679329D01*
X142435826Y-83654191D01*
X142444608Y-83634303D01*
X142458191Y-83620719D01*
X142473223Y-83598223D01*
X142495719Y-83583191D01*
X142509303Y-83569608D01*
X142529191Y-83560826D01*
X142554329Y-83544030D01*
X142577808Y-83539359D01*
X142594959Y-83531787D01*
X142645151Y-83525964D01*
X142650000Y-83525000D01*
X143600000Y-83525000D01*
X143604850Y-83525964D01*
G37*
G36*
X123254850Y-83413464D02*
G01*
X123305040Y-83419287D01*
X123322189Y-83426859D01*
X123345671Y-83431530D01*
X123370810Y-83448327D01*
X123390696Y-83457108D01*
X123404277Y-83470689D01*
X123426777Y-83485723D01*
X123441810Y-83508222D01*
X123455391Y-83521803D01*
X123464170Y-83541686D01*
X123480970Y-83566829D01*
X123485641Y-83590312D01*
X123493212Y-83607459D01*
X123499033Y-83657639D01*
X123500000Y-83662500D01*
X123500000Y-84337500D01*
X123499032Y-84342363D01*
X123493212Y-84392540D01*
X123485641Y-84409685D01*
X123480970Y-84433171D01*
X123464169Y-84458315D01*
X123455391Y-84478196D01*
X123441812Y-84491774D01*
X123426777Y-84514277D01*
X123404274Y-84529312D01*
X123390696Y-84542891D01*
X123370815Y-84551669D01*
X123345671Y-84568470D01*
X123322185Y-84573141D01*
X123305040Y-84580712D01*
X123254861Y-84586532D01*
X123250000Y-84587500D01*
X122300000Y-84587500D01*
X122295138Y-84586532D01*
X122244959Y-84580712D01*
X122227812Y-84573141D01*
X122204329Y-84568470D01*
X122179186Y-84551670D01*
X122159303Y-84542891D01*
X122145722Y-84529310D01*
X122123223Y-84514277D01*
X122108189Y-84491777D01*
X122094608Y-84478196D01*
X122085827Y-84458310D01*
X122069030Y-84433171D01*
X122064359Y-84409689D01*
X122056787Y-84392540D01*
X122050964Y-84342349D01*
X122050000Y-84337500D01*
X122050000Y-83662500D01*
X122050964Y-83657650D01*
X122056787Y-83607459D01*
X122064359Y-83590308D01*
X122069030Y-83566829D01*
X122085826Y-83541691D01*
X122094608Y-83521803D01*
X122108191Y-83508219D01*
X122123223Y-83485723D01*
X122145719Y-83470691D01*
X122159303Y-83457108D01*
X122179191Y-83448326D01*
X122204329Y-83431530D01*
X122227808Y-83426859D01*
X122244959Y-83419287D01*
X122295151Y-83413464D01*
X122300000Y-83412500D01*
X123250000Y-83412500D01*
X123254850Y-83413464D01*
G37*
G36*
X146750000Y-84262500D02*
G01*
X146000000Y-84262500D01*
X146000000Y-83962500D01*
X146750000Y-83962500D01*
X146750000Y-84262500D01*
G37*
G36*
X148750000Y-84262500D02*
G01*
X148000000Y-84262500D01*
X148000000Y-83962500D01*
X148750000Y-83962500D01*
X148750000Y-84262500D01*
G37*
G36*
X126750000Y-84150000D02*
G01*
X126000000Y-84150000D01*
X126000000Y-83850000D01*
X126750000Y-83850000D01*
X126750000Y-84150000D01*
G37*
G36*
X128750000Y-84150000D02*
G01*
X128000000Y-84150000D01*
X128000000Y-83850000D01*
X128750000Y-83850000D01*
X128750000Y-84150000D01*
G37*
G36*
X156954850Y-82588464D02*
G01*
X157005040Y-82594287D01*
X157022189Y-82601859D01*
X157045671Y-82606530D01*
X157070810Y-82623327D01*
X157090696Y-82632108D01*
X157104277Y-82645689D01*
X157126777Y-82660723D01*
X157141810Y-82683222D01*
X157155391Y-82696803D01*
X157164170Y-82716686D01*
X157180970Y-82741829D01*
X157185641Y-82765312D01*
X157193212Y-82782459D01*
X157199033Y-82832639D01*
X157200000Y-82837500D01*
X157200000Y-83512500D01*
X157199032Y-83517363D01*
X157193212Y-83567540D01*
X157185641Y-83584685D01*
X157180970Y-83608171D01*
X157164169Y-83633315D01*
X157155391Y-83653196D01*
X157141812Y-83666774D01*
X157126777Y-83689277D01*
X157104274Y-83704312D01*
X157090696Y-83717891D01*
X157070815Y-83726669D01*
X157045671Y-83743470D01*
X157022185Y-83748141D01*
X157005040Y-83755712D01*
X156954861Y-83761532D01*
X156950000Y-83762500D01*
X156000000Y-83762500D01*
X155995138Y-83761532D01*
X155944959Y-83755712D01*
X155927812Y-83748141D01*
X155904329Y-83743470D01*
X155879186Y-83726670D01*
X155859303Y-83717891D01*
X155845722Y-83704310D01*
X155823223Y-83689277D01*
X155808189Y-83666777D01*
X155794608Y-83653196D01*
X155785827Y-83633310D01*
X155769030Y-83608171D01*
X155764359Y-83584689D01*
X155756787Y-83567540D01*
X155750964Y-83517349D01*
X155750000Y-83512500D01*
X155750000Y-82837500D01*
X155750964Y-82832650D01*
X155756787Y-82782459D01*
X155764359Y-82765308D01*
X155769030Y-82741829D01*
X155785826Y-82716691D01*
X155794608Y-82696803D01*
X155808191Y-82683219D01*
X155823223Y-82660723D01*
X155845719Y-82645691D01*
X155859303Y-82632108D01*
X155879191Y-82623326D01*
X155904329Y-82606530D01*
X155927808Y-82601859D01*
X155944959Y-82594287D01*
X155995151Y-82588464D01*
X156000000Y-82587500D01*
X156950000Y-82587500D01*
X156954850Y-82588464D01*
G37*
G36*
X167800000Y-83475000D02*
G01*
X165850000Y-83475000D01*
X165850000Y-81525000D01*
X167800000Y-81525000D01*
X167800000Y-83475000D01*
G37*
G36*
X156954850Y-80513464D02*
G01*
X157005040Y-80519287D01*
X157022189Y-80526859D01*
X157045671Y-80531530D01*
X157070810Y-80548327D01*
X157090696Y-80557108D01*
X157104277Y-80570689D01*
X157126777Y-80585723D01*
X157141810Y-80608222D01*
X157155391Y-80621803D01*
X157164170Y-80641686D01*
X157180970Y-80666829D01*
X157185641Y-80690312D01*
X157193212Y-80707459D01*
X157199033Y-80757639D01*
X157200000Y-80762500D01*
X157200000Y-81437500D01*
X157199032Y-81442363D01*
X157193212Y-81492540D01*
X157185641Y-81509685D01*
X157180970Y-81533171D01*
X157164169Y-81558315D01*
X157155391Y-81578196D01*
X157141812Y-81591774D01*
X157126777Y-81614277D01*
X157104274Y-81629312D01*
X157090696Y-81642891D01*
X157070815Y-81651669D01*
X157045671Y-81668470D01*
X157022185Y-81673141D01*
X157005040Y-81680712D01*
X156954861Y-81686532D01*
X156950000Y-81687500D01*
X156000000Y-81687500D01*
X155995138Y-81686532D01*
X155944959Y-81680712D01*
X155927812Y-81673141D01*
X155904329Y-81668470D01*
X155879186Y-81651670D01*
X155859303Y-81642891D01*
X155845722Y-81629310D01*
X155823223Y-81614277D01*
X155808189Y-81591777D01*
X155794608Y-81578196D01*
X155785827Y-81558310D01*
X155769030Y-81533171D01*
X155764359Y-81509689D01*
X155756787Y-81492540D01*
X155750964Y-81442349D01*
X155750000Y-81437500D01*
X155750000Y-80762500D01*
X155750964Y-80757650D01*
X155756787Y-80707459D01*
X155764359Y-80690308D01*
X155769030Y-80666829D01*
X155785826Y-80641691D01*
X155794608Y-80621803D01*
X155808191Y-80608219D01*
X155823223Y-80585723D01*
X155845719Y-80570691D01*
X155859303Y-80557108D01*
X155879191Y-80548326D01*
X155904329Y-80531530D01*
X155927808Y-80526859D01*
X155944959Y-80519287D01*
X155995151Y-80513464D01*
X156000000Y-80512500D01*
X156950000Y-80512500D01*
X156954850Y-80513464D01*
G37*
G36*
X117631790Y-73580393D02*
G01*
X117795952Y-73633733D01*
X117949748Y-73712096D01*
X118089393Y-73813553D01*
X118211447Y-73935607D01*
X118312904Y-74075252D01*
X118391267Y-74229048D01*
X118444607Y-74393210D01*
X118471609Y-74563695D01*
X118471609Y-74736305D01*
X118444607Y-74906790D01*
X118391267Y-75070952D01*
X118312904Y-75224748D01*
X118211447Y-75364393D01*
X118089393Y-75486447D01*
X117949748Y-75587904D01*
X117795952Y-75666267D01*
X117631790Y-75719607D01*
X117461305Y-75746609D01*
X117288695Y-75746609D01*
X117118210Y-75719607D01*
X116954048Y-75666267D01*
X116800252Y-75587904D01*
X116660607Y-75486447D01*
X116538553Y-75364393D01*
X116437096Y-75224748D01*
X116358733Y-75070952D01*
X116305393Y-74906790D01*
X116278391Y-74736305D01*
X116278391Y-74563695D01*
X116305393Y-74393210D01*
X116358733Y-74229048D01*
X116437096Y-74075252D01*
X116538553Y-73935607D01*
X116660607Y-73813553D01*
X116800252Y-73712096D01*
X116954048Y-73633733D01*
X117118210Y-73580393D01*
X117288695Y-73553391D01*
X117461305Y-73553391D01*
X117631790Y-73580393D01*
G37*
G36*
X167631790Y-73580393D02*
G01*
X167795952Y-73633733D01*
X167949748Y-73712096D01*
X168089393Y-73813553D01*
X168211447Y-73935607D01*
X168312904Y-74075252D01*
X168391267Y-74229048D01*
X168444607Y-74393210D01*
X168471609Y-74563695D01*
X168471609Y-74736305D01*
X168444607Y-74906790D01*
X168391267Y-75070952D01*
X168312904Y-75224748D01*
X168211447Y-75364393D01*
X168089393Y-75486447D01*
X167949748Y-75587904D01*
X167795952Y-75666267D01*
X167631790Y-75719607D01*
X167461305Y-75746609D01*
X167288695Y-75746609D01*
X167118210Y-75719607D01*
X166954048Y-75666267D01*
X166800252Y-75587904D01*
X166660607Y-75486447D01*
X166538553Y-75364393D01*
X166437096Y-75224748D01*
X166358733Y-75070952D01*
X166305393Y-74906790D01*
X166278391Y-74736305D01*
X166278391Y-74563695D01*
X166305393Y-74393210D01*
X166358733Y-74229048D01*
X166437096Y-74075252D01*
X166538553Y-73935607D01*
X166660607Y-73813553D01*
X166800252Y-73712096D01*
X166954048Y-73633733D01*
X167118210Y-73580393D01*
X167288695Y-73553391D01*
X167461305Y-73553391D01*
X167631790Y-73580393D01*
G37*
M02*
